%TF.GenerationSoftware,KiCad,Pcbnew,9.0.4*%
%TF.CreationDate,2025-10-20T17:14:21-05:00*%
%TF.ProjectId,Molecule_18650_Jumper,4d6f6c65-6375-46c6-955f-31383635305f,rev?*%
%TF.SameCoordinates,Original*%
%TF.FileFunction,Legend,Bot*%
%TF.FilePolarity,Positive*%
%FSLAX46Y46*%
G04 Gerber Fmt 4.6, Leading zero omitted, Abs format (unit mm)*
G04 Created by KiCad (PCBNEW 9.0.4) date 2025-10-20 17:14:21*
%MOMM*%
%LPD*%
G01*
G04 APERTURE LIST*
%ADD10C,0.125000*%
%ADD11C,1.600000*%
G04 APERTURE END LIST*
D10*
G36*
X10201072Y39325847D02*
G01*
X10210536Y39316382D01*
X10223212Y39291031D01*
X10223212Y39177681D01*
X10210537Y39152331D01*
X10201072Y39142866D01*
X10175720Y39130190D01*
X10110117Y39130190D01*
X10110117Y39338523D01*
X10175720Y39338523D01*
X10201072Y39325847D01*
G37*
G36*
X4320122Y39492513D02*
G01*
X4329588Y39483047D01*
X4345792Y39450639D01*
X4366072Y39369520D01*
X4366072Y39265859D01*
X4345792Y39184740D01*
X4329588Y39152332D01*
X4320122Y39142866D01*
X4294771Y39130190D01*
X4276659Y39130190D01*
X4251309Y39142865D01*
X4241843Y39152330D01*
X4225638Y39184741D01*
X4205358Y39265861D01*
X4205358Y39369518D01*
X4225638Y39450638D01*
X4241843Y39483049D01*
X4251309Y39492514D01*
X4276659Y39505190D01*
X4294771Y39505190D01*
X4320122Y39492513D01*
G37*
G36*
X5891550Y39492513D02*
G01*
X5901016Y39483047D01*
X5917220Y39450639D01*
X5937500Y39369520D01*
X5937500Y39265859D01*
X5917220Y39184740D01*
X5901016Y39152332D01*
X5891550Y39142866D01*
X5866199Y39130190D01*
X5848087Y39130190D01*
X5822737Y39142865D01*
X5813271Y39152330D01*
X5797066Y39184741D01*
X5776786Y39265861D01*
X5776786Y39369518D01*
X5797066Y39450638D01*
X5813271Y39483049D01*
X5822737Y39492514D01*
X5848087Y39505190D01*
X5866199Y39505190D01*
X5891550Y39492513D01*
G37*
G36*
X8415358Y39492513D02*
G01*
X8424824Y39483047D01*
X8441028Y39450639D01*
X8461308Y39369520D01*
X8461308Y39265859D01*
X8441028Y39184740D01*
X8424824Y39152332D01*
X8415358Y39142866D01*
X8390007Y39130190D01*
X8371895Y39130190D01*
X8346545Y39142865D01*
X8337079Y39152330D01*
X8320874Y39184741D01*
X8300594Y39265861D01*
X8300594Y39369518D01*
X8320874Y39450638D01*
X8337079Y39483049D01*
X8346545Y39492514D01*
X8371895Y39505190D01*
X8390007Y39505190D01*
X8415358Y39492513D01*
G37*
G36*
X11286746Y39330628D02*
G01*
X11294640Y39314841D01*
X11294640Y39310594D01*
X11190875Y39331347D01*
X11205228Y39338523D01*
X11270958Y39338523D01*
X11286746Y39330628D01*
G37*
G36*
X11770831Y39130190D02*
G01*
X11724427Y39130190D01*
X11676615Y39146127D01*
X11646602Y39176140D01*
X11630396Y39208550D01*
X11610117Y39289669D01*
X11610117Y39345710D01*
X11630396Y39426829D01*
X11646602Y39459239D01*
X11676615Y39489252D01*
X11724427Y39505190D01*
X11770831Y39505190D01*
X11770831Y39130190D01*
G37*
G36*
X5092263Y39935162D02*
G01*
X5026659Y39935162D01*
X5001309Y39947837D01*
X4991843Y39957302D01*
X4979168Y39982654D01*
X4979168Y40096003D01*
X4991844Y40121355D01*
X5001308Y40130819D01*
X5026660Y40143495D01*
X5092263Y40143495D01*
X5092263Y39935162D01*
G37*
G36*
X4655797Y40135600D02*
G01*
X4663691Y40119813D01*
X4663691Y40115566D01*
X4559926Y40136319D01*
X4574279Y40143495D01*
X4640009Y40143495D01*
X4655797Y40135600D01*
G37*
G36*
X7427264Y40297485D02*
G01*
X7436730Y40288019D01*
X7452934Y40255611D01*
X7473214Y40174492D01*
X7473214Y40070831D01*
X7452934Y39989712D01*
X7436730Y39957304D01*
X7427264Y39947838D01*
X7401913Y39935162D01*
X7383801Y39935162D01*
X7358451Y39947837D01*
X7348985Y39957302D01*
X7332780Y39989713D01*
X7312500Y40070833D01*
X7312500Y40174490D01*
X7332780Y40255610D01*
X7348985Y40288021D01*
X7358451Y40297486D01*
X7383801Y40310162D01*
X7401913Y40310162D01*
X7427264Y40297485D01*
G37*
G36*
X8403454Y40107009D02*
G01*
X8412919Y40097544D01*
X8425594Y40072194D01*
X8425594Y39982653D01*
X8412919Y39957303D01*
X8403454Y39947838D01*
X8378102Y39935162D01*
X8312371Y39935162D01*
X8287022Y39947836D01*
X8277556Y39957302D01*
X8264880Y39982653D01*
X8264880Y40072194D01*
X8277556Y40097545D01*
X8287022Y40107011D01*
X8312371Y40119686D01*
X8378102Y40119686D01*
X8403454Y40107009D01*
G37*
G36*
X8879644Y40083200D02*
G01*
X8889108Y40073735D01*
X8901784Y40048384D01*
X8901784Y39982653D01*
X8889109Y39957303D01*
X8879644Y39947838D01*
X8854292Y39935162D01*
X8788561Y39935162D01*
X8763212Y39947836D01*
X8753746Y39957302D01*
X8741070Y39982653D01*
X8741070Y40048384D01*
X8753746Y40073736D01*
X8763211Y40083201D01*
X8788562Y40095876D01*
X8854292Y40095876D01*
X8879644Y40083200D01*
G37*
G36*
X8879644Y40297485D02*
G01*
X8889109Y40288020D01*
X8900359Y40265519D01*
X8889109Y40243017D01*
X8879644Y40233552D01*
X8854292Y40220876D01*
X8788561Y40220876D01*
X8763212Y40233550D01*
X8753746Y40243016D01*
X8742494Y40265519D01*
X8753746Y40288021D01*
X8763212Y40297487D01*
X8788561Y40310162D01*
X8854292Y40310162D01*
X8879644Y40297485D01*
G37*
G36*
X10855834Y40130819D02*
G01*
X10865298Y40121354D01*
X10877974Y40096003D01*
X10877974Y39982653D01*
X10865299Y39957303D01*
X10855834Y39947838D01*
X10830482Y39935162D01*
X10788561Y39935162D01*
X10763211Y39947837D01*
X10753745Y39957302D01*
X10741070Y39982654D01*
X10741070Y40096003D01*
X10753746Y40121355D01*
X10763210Y40130819D01*
X10788562Y40143495D01*
X10830482Y40143495D01*
X10855834Y40130819D01*
G37*
G36*
X11308215Y40130819D02*
G01*
X11317679Y40121354D01*
X11330355Y40096003D01*
X11330355Y39982653D01*
X11317680Y39957303D01*
X11308215Y39947838D01*
X11282863Y39935162D01*
X11217260Y39935162D01*
X11217260Y40143495D01*
X11282863Y40143495D01*
X11308215Y40130819D01*
G37*
G36*
X11734712Y40078019D02*
G01*
X11670046Y40078019D01*
X11702378Y40175018D01*
X11734712Y40078019D01*
G37*
G36*
X11993887Y38776023D02*
G01*
X4010712Y38776023D01*
X4010712Y39377214D01*
X4080358Y39377214D01*
X4080358Y39258166D01*
X4081851Y39250656D01*
X4082224Y39243007D01*
X4106034Y39147769D01*
X4108958Y39141579D01*
X4110766Y39134978D01*
X4134575Y39087359D01*
X4140717Y39079444D01*
X4146284Y39071114D01*
X4170094Y39047305D01*
X4178427Y39041737D01*
X4186336Y39035599D01*
X4233955Y39011788D01*
X4236974Y39010961D01*
X4237988Y39009948D01*
X4247813Y39007993D01*
X4257475Y39005348D01*
X4258834Y39005801D01*
X4261906Y39005190D01*
X4309525Y39005190D01*
X4312596Y39005801D01*
X4313956Y39005348D01*
X4323612Y39007992D01*
X4333443Y39009948D01*
X4334457Y39010962D01*
X4337476Y39011789D01*
X4385095Y39035599D01*
X4393006Y39041739D01*
X4401338Y39047306D01*
X4425147Y39071115D01*
X4430713Y39079446D01*
X4436854Y39087358D01*
X4460665Y39134977D01*
X4462473Y39141581D01*
X4465397Y39147770D01*
X4489206Y39243008D01*
X4489578Y39250656D01*
X4491072Y39258166D01*
X4491072Y39377214D01*
X4489578Y39384723D01*
X4489206Y39392372D01*
X4469186Y39472452D01*
X4556548Y39472452D01*
X4556548Y39424833D01*
X4558502Y39415007D01*
X4559755Y39405069D01*
X4583565Y39333639D01*
X4585116Y39330918D01*
X4585116Y39329487D01*
X4590676Y39321164D01*
X4595643Y39312453D01*
X4596925Y39311811D01*
X4598664Y39309210D01*
X4777684Y39130190D01*
X4619048Y39130190D01*
X4595130Y39125432D01*
X4561306Y39091608D01*
X4561306Y39043772D01*
X4595130Y39009948D01*
X4619048Y39005190D01*
X4928572Y39005190D01*
X4952485Y39009947D01*
X4952489Y39009947D01*
X4986315Y39043773D01*
X4986315Y39091607D01*
X4972766Y39111884D01*
X4802565Y39282084D01*
X5061307Y39282084D01*
X5061307Y39234248D01*
X5095131Y39200424D01*
X5119049Y39195666D01*
X5500001Y39195666D01*
X5523919Y39200424D01*
X5557743Y39234248D01*
X5557743Y39282084D01*
X5523919Y39315908D01*
X5500001Y39320666D01*
X5119049Y39320666D01*
X5095131Y39315908D01*
X5061307Y39282084D01*
X4802565Y39282084D01*
X4707435Y39377214D01*
X5651786Y39377214D01*
X5651786Y39258166D01*
X5653279Y39250656D01*
X5653652Y39243007D01*
X5677462Y39147769D01*
X5680386Y39141579D01*
X5682194Y39134978D01*
X5706003Y39087359D01*
X5712145Y39079444D01*
X5717712Y39071114D01*
X5741522Y39047305D01*
X5749855Y39041737D01*
X5757764Y39035599D01*
X5805383Y39011788D01*
X5808402Y39010961D01*
X5809416Y39009948D01*
X5819241Y39007993D01*
X5828903Y39005348D01*
X5830262Y39005801D01*
X5833334Y39005190D01*
X5880953Y39005190D01*
X5884024Y39005801D01*
X5885384Y39005348D01*
X5895040Y39007992D01*
X5904871Y39009948D01*
X5905885Y39010962D01*
X5908904Y39011789D01*
X5956523Y39035599D01*
X5964434Y39041739D01*
X5972766Y39047306D01*
X5996575Y39071115D01*
X6002141Y39079446D01*
X6008282Y39087358D01*
X6010407Y39091608D01*
X6132734Y39091608D01*
X6132734Y39043772D01*
X6166558Y39009948D01*
X6190476Y39005190D01*
X6476190Y39005190D01*
X6500108Y39009948D01*
X6533932Y39043772D01*
X6533932Y39091608D01*
X6500108Y39125432D01*
X6476190Y39130190D01*
X6395833Y39130190D01*
X6395833Y39282084D01*
X6632735Y39282084D01*
X6632735Y39234248D01*
X6666559Y39200424D01*
X6690477Y39195666D01*
X7071429Y39195666D01*
X7095347Y39200424D01*
X7129171Y39234248D01*
X7129171Y39281976D01*
X7223214Y39281976D01*
X7223214Y39162928D01*
X7223825Y39159856D01*
X7223372Y39158497D01*
X7226016Y39148840D01*
X7227972Y39139010D01*
X7228986Y39137995D01*
X7229813Y39134977D01*
X7253623Y39087358D01*
X7259763Y39079446D01*
X7265330Y39071115D01*
X7289139Y39047306D01*
X7297470Y39041739D01*
X7305382Y39035599D01*
X7353001Y39011788D01*
X7356020Y39010961D01*
X7357034Y39009948D01*
X7366859Y39007993D01*
X7376521Y39005348D01*
X7377880Y39005801D01*
X7380952Y39005190D01*
X7500000Y39005190D01*
X7503071Y39005801D01*
X7504431Y39005348D01*
X7514087Y39007992D01*
X7523918Y39009948D01*
X7524932Y39010962D01*
X7527951Y39011789D01*
X7575570Y39035599D01*
X7583481Y39041739D01*
X7591813Y39047306D01*
X7615622Y39071115D01*
X7629170Y39091392D01*
X7629170Y39139226D01*
X7595345Y39173051D01*
X7547511Y39173051D01*
X7527234Y39159503D01*
X7510597Y39142866D01*
X7485246Y39130190D01*
X7395705Y39130190D01*
X7370356Y39142864D01*
X7360890Y39152330D01*
X7348214Y39177681D01*
X7348214Y39267222D01*
X7360890Y39292573D01*
X7370356Y39302039D01*
X7395705Y39314714D01*
X7485246Y39314714D01*
X7510597Y39302037D01*
X7527234Y39285401D01*
X7547511Y39271853D01*
X7550816Y39271853D01*
X7553374Y39269760D01*
X7574304Y39271853D01*
X7595345Y39271853D01*
X7597682Y39274190D01*
X7600973Y39274520D01*
X7614295Y39290803D01*
X7629170Y39305678D01*
X7629170Y39308983D01*
X7631263Y39311542D01*
X7633618Y39335814D01*
X7619954Y39472452D01*
X7699404Y39472452D01*
X7699404Y39424833D01*
X7701358Y39415007D01*
X7702611Y39405069D01*
X7726421Y39333639D01*
X7727972Y39330918D01*
X7727972Y39329487D01*
X7733532Y39321164D01*
X7738499Y39312453D01*
X7739781Y39311811D01*
X7741520Y39309210D01*
X7920540Y39130190D01*
X7761904Y39130190D01*
X7737986Y39125432D01*
X7704162Y39091608D01*
X7704162Y39043772D01*
X7737986Y39009948D01*
X7761904Y39005190D01*
X8071428Y39005190D01*
X8095341Y39009947D01*
X8095345Y39009947D01*
X8129171Y39043773D01*
X8129171Y39091607D01*
X8115622Y39111884D01*
X7850291Y39377214D01*
X8175594Y39377214D01*
X8175594Y39258166D01*
X8177087Y39250656D01*
X8177460Y39243007D01*
X8201270Y39147769D01*
X8204194Y39141579D01*
X8206002Y39134978D01*
X8229811Y39087359D01*
X8235953Y39079444D01*
X8241520Y39071114D01*
X8265330Y39047305D01*
X8273663Y39041737D01*
X8281572Y39035599D01*
X8329191Y39011788D01*
X8332210Y39010961D01*
X8333224Y39009948D01*
X8343049Y39007993D01*
X8352711Y39005348D01*
X8354070Y39005801D01*
X8357142Y39005190D01*
X8404761Y39005190D01*
X8407832Y39005801D01*
X8409192Y39005348D01*
X8418848Y39007992D01*
X8428679Y39009948D01*
X8429693Y39010962D01*
X8432712Y39011789D01*
X8480331Y39035599D01*
X8488242Y39041739D01*
X8496574Y39047306D01*
X8520383Y39071115D01*
X8525949Y39079446D01*
X8532090Y39087358D01*
X8555901Y39134977D01*
X8557709Y39141581D01*
X8560633Y39147770D01*
X8584442Y39243008D01*
X8584814Y39250656D01*
X8586308Y39258166D01*
X8586308Y39377214D01*
X8584814Y39384723D01*
X8584442Y39392372D01*
X8564422Y39472452D01*
X8651784Y39472452D01*
X8651784Y39424833D01*
X8653738Y39415007D01*
X8654991Y39405069D01*
X8678801Y39333639D01*
X8680352Y39330918D01*
X8680352Y39329487D01*
X8685912Y39321164D01*
X8690879Y39312453D01*
X8692161Y39311811D01*
X8693900Y39309210D01*
X8872920Y39130190D01*
X8714284Y39130190D01*
X8690366Y39125432D01*
X8656542Y39091608D01*
X8656542Y39043772D01*
X8690366Y39009948D01*
X8714284Y39005190D01*
X9023808Y39005190D01*
X9047721Y39009947D01*
X9047725Y39009947D01*
X9081551Y39043773D01*
X9081551Y39091607D01*
X9068002Y39111884D01*
X8850290Y39329595D01*
X9532736Y39329595D01*
X9532736Y39067690D01*
X9537494Y39043772D01*
X9571318Y39009948D01*
X9619154Y39009948D01*
X9652978Y39043772D01*
X9657736Y39067690D01*
X9657736Y39314841D01*
X9665630Y39330629D01*
X9681419Y39338523D01*
X9723339Y39338523D01*
X9747022Y39326681D01*
X9747022Y39067690D01*
X9751780Y39043772D01*
X9785604Y39009948D01*
X9833440Y39009948D01*
X9867264Y39043772D01*
X9872022Y39067690D01*
X9872022Y39401023D01*
X9985117Y39401023D01*
X9985117Y38996261D01*
X9985728Y38993189D01*
X9985275Y38991830D01*
X9987919Y38982173D01*
X9989875Y38972343D01*
X9990889Y38971328D01*
X9991716Y38968310D01*
X10015526Y38920691D01*
X10021666Y38912779D01*
X10027233Y38904448D01*
X10051042Y38880639D01*
X10059373Y38875072D01*
X10067285Y38868932D01*
X10114904Y38845121D01*
X10117923Y38844294D01*
X10118937Y38843281D01*
X10128762Y38841326D01*
X10138424Y38838681D01*
X10139783Y38839134D01*
X10142855Y38838523D01*
X10214284Y38838523D01*
X10217355Y38839134D01*
X10218715Y38838681D01*
X10228371Y38841325D01*
X10238202Y38843281D01*
X10239216Y38844295D01*
X10242235Y38845122D01*
X10289854Y38868932D01*
X10309119Y38883884D01*
X10324246Y38929264D01*
X10302852Y38972049D01*
X10257472Y38987175D01*
X10233952Y38980735D01*
X10199530Y38963523D01*
X10157608Y38963523D01*
X10132259Y38976197D01*
X10122793Y38985663D01*
X10113030Y39005190D01*
X10190474Y39005190D01*
X10193545Y39005801D01*
X10194905Y39005348D01*
X10204561Y39007992D01*
X10214392Y39009948D01*
X10215406Y39010962D01*
X10218425Y39011789D01*
X10266044Y39035599D01*
X10273952Y39041737D01*
X10282286Y39047305D01*
X10306096Y39071114D01*
X10311660Y39079441D01*
X10317805Y39087359D01*
X10341614Y39134977D01*
X10342440Y39137996D01*
X10343454Y39139010D01*
X10345408Y39148837D01*
X10348054Y39158498D01*
X10347601Y39159856D01*
X10348212Y39162928D01*
X10348212Y39305785D01*
X10347601Y39308856D01*
X10348054Y39310215D01*
X10345408Y39319875D01*
X10343454Y39329703D01*
X10342440Y39330716D01*
X10341614Y39333736D01*
X10317805Y39381354D01*
X10311660Y39389271D01*
X10306097Y39397598D01*
X10302672Y39401023D01*
X10437498Y39401023D01*
X10437498Y39067690D01*
X10442256Y39043772D01*
X10476080Y39009948D01*
X10523916Y39009948D01*
X10557740Y39043772D01*
X10562498Y39067690D01*
X10562498Y39162928D01*
X10651784Y39162928D01*
X10651784Y39139119D01*
X10652394Y39136049D01*
X10651941Y39134689D01*
X10654588Y39125022D01*
X10656542Y39115201D01*
X10657555Y39114187D01*
X10658382Y39111169D01*
X10682191Y39063550D01*
X10689821Y39053719D01*
X10690877Y39050551D01*
X10694404Y39047812D01*
X10697143Y39044285D01*
X10700311Y39043228D01*
X10710142Y39035599D01*
X10757761Y39011788D01*
X10760780Y39010961D01*
X10761794Y39009948D01*
X10771619Y39007993D01*
X10781281Y39005348D01*
X10782640Y39005801D01*
X10785712Y39005190D01*
X10880950Y39005190D01*
X10884021Y39005801D01*
X10885381Y39005348D01*
X10895037Y39007992D01*
X10904868Y39009948D01*
X10905882Y39010962D01*
X10908901Y39011789D01*
X10956520Y39035599D01*
X10975785Y39050551D01*
X10990912Y39095931D01*
X10969518Y39138716D01*
X10924138Y39153842D01*
X10900618Y39147402D01*
X10866196Y39130190D01*
X10800465Y39130190D01*
X10784678Y39138083D01*
X10778208Y39151023D01*
X10784678Y39163963D01*
X10800465Y39171857D01*
X10857141Y39171857D01*
X10860210Y39172467D01*
X10861571Y39172014D01*
X10871237Y39174661D01*
X10881059Y39176615D01*
X10882072Y39177628D01*
X10885091Y39178455D01*
X10932710Y39202264D01*
X10942540Y39209893D01*
X10945710Y39210950D01*
X10948449Y39214479D01*
X10951975Y39217216D01*
X10953030Y39220382D01*
X10960662Y39230216D01*
X10984471Y39277834D01*
X10985297Y39280853D01*
X10986311Y39281867D01*
X10988265Y39291694D01*
X10990911Y39301355D01*
X10990458Y39302713D01*
X10991069Y39305785D01*
X10991069Y39329595D01*
X11056545Y39329595D01*
X11056545Y39281976D01*
X11058347Y39272914D01*
X11057734Y39269847D01*
X11059478Y39267230D01*
X11061303Y39258058D01*
X11074172Y39245188D01*
X11084267Y39230046D01*
X11092902Y39226458D01*
X11095127Y39224234D01*
X11098257Y39224234D01*
X11106788Y39220690D01*
X11294640Y39183119D01*
X11294640Y39153872D01*
X11286746Y39138084D01*
X11270958Y39130190D01*
X11205227Y39130190D01*
X11170806Y39147401D01*
X11147286Y39153842D01*
X11101906Y39138716D01*
X11080513Y39095931D01*
X11095639Y39050551D01*
X11114904Y39035599D01*
X11162523Y39011788D01*
X11165542Y39010961D01*
X11166556Y39009948D01*
X11176381Y39007993D01*
X11186043Y39005348D01*
X11187402Y39005801D01*
X11190474Y39005190D01*
X11285712Y39005190D01*
X11288783Y39005801D01*
X11290143Y39005348D01*
X11299799Y39007992D01*
X11309630Y39009948D01*
X11310644Y39010962D01*
X11313663Y39011789D01*
X11361282Y39035599D01*
X11371110Y39043227D01*
X11374281Y39044284D01*
X11377020Y39047814D01*
X11380547Y39050551D01*
X11381602Y39053718D01*
X11389233Y39063550D01*
X11413042Y39111168D01*
X11413868Y39114187D01*
X11414882Y39115201D01*
X11416836Y39125028D01*
X11419482Y39134689D01*
X11419029Y39136047D01*
X11419640Y39139119D01*
X11419640Y39329595D01*
X11419029Y39332666D01*
X11419482Y39334025D01*
X11416836Y39343685D01*
X11414904Y39353404D01*
X11485117Y39353404D01*
X11485117Y39281976D01*
X11486610Y39274466D01*
X11486983Y39266818D01*
X11510792Y39171580D01*
X11513717Y39165387D01*
X11515525Y39158787D01*
X11539335Y39111168D01*
X11545475Y39103256D01*
X11551042Y39094925D01*
X11598661Y39047306D01*
X11601262Y39045567D01*
X11601904Y39044285D01*
X11610615Y39039318D01*
X11618938Y39033758D01*
X11620369Y39033758D01*
X11623090Y39032207D01*
X11694518Y39008397D01*
X11704458Y39007144D01*
X11714283Y39005190D01*
X11833331Y39005190D01*
X11857249Y39009948D01*
X11891073Y39043772D01*
X11891073Y39043773D01*
X11895831Y39067690D01*
X11895831Y39567690D01*
X11891073Y39591608D01*
X11857249Y39625432D01*
X11833331Y39630190D01*
X11714283Y39630190D01*
X11704458Y39628235D01*
X11694518Y39626983D01*
X11623090Y39603173D01*
X11620369Y39601622D01*
X11618938Y39601622D01*
X11610615Y39596061D01*
X11601904Y39591095D01*
X11601262Y39589812D01*
X11598661Y39588074D01*
X11551042Y39540455D01*
X11545475Y39532123D01*
X11539335Y39524212D01*
X11515525Y39476593D01*
X11513717Y39469992D01*
X11510792Y39463800D01*
X11486983Y39368562D01*
X11486610Y39360913D01*
X11485117Y39353404D01*
X11414904Y39353404D01*
X11414882Y39353513D01*
X11413868Y39354526D01*
X11413042Y39357546D01*
X11389233Y39405164D01*
X11381601Y39414997D01*
X11380546Y39418164D01*
X11377020Y39420900D01*
X11374281Y39424430D01*
X11371111Y39425486D01*
X11361281Y39433116D01*
X11313662Y39456925D01*
X11310643Y39457751D01*
X11309630Y39458765D01*
X11299808Y39460718D01*
X11290142Y39463366D01*
X11288781Y39462912D01*
X11285712Y39463523D01*
X11190474Y39463523D01*
X11187402Y39462912D01*
X11186044Y39463365D01*
X11176383Y39460719D01*
X11166556Y39458765D01*
X11165542Y39457751D01*
X11162523Y39456925D01*
X11114905Y39433116D01*
X11105073Y39425485D01*
X11101906Y39424430D01*
X11099169Y39420903D01*
X11095639Y39418164D01*
X11094582Y39414993D01*
X11086954Y39405165D01*
X11063144Y39357546D01*
X11062317Y39354527D01*
X11061303Y39353513D01*
X11059347Y39343682D01*
X11056703Y39334026D01*
X11057156Y39332666D01*
X11056545Y39329595D01*
X10991069Y39329595D01*
X10990458Y39332666D01*
X10990911Y39334025D01*
X10988265Y39343685D01*
X10986311Y39353513D01*
X10985297Y39354526D01*
X10984471Y39357546D01*
X10960662Y39405164D01*
X10953030Y39414997D01*
X10951975Y39418164D01*
X10948449Y39420900D01*
X10945710Y39424430D01*
X10942540Y39425486D01*
X10932710Y39433116D01*
X10885091Y39456925D01*
X10882072Y39457751D01*
X10881059Y39458765D01*
X10871237Y39460718D01*
X10861571Y39463366D01*
X10860210Y39462912D01*
X10857141Y39463523D01*
X10785712Y39463523D01*
X10782640Y39462912D01*
X10781282Y39463365D01*
X10771621Y39460719D01*
X10761794Y39458765D01*
X10760780Y39457751D01*
X10757761Y39456925D01*
X10710143Y39433116D01*
X10690877Y39418164D01*
X10675750Y39372784D01*
X10697143Y39329998D01*
X10742523Y39314871D01*
X10766043Y39321312D01*
X10800466Y39338523D01*
X10842387Y39338523D01*
X10858175Y39330628D01*
X10864644Y39317690D01*
X10858175Y39304751D01*
X10842387Y39296857D01*
X10785712Y39296857D01*
X10782640Y39296245D01*
X10781281Y39296699D01*
X10771619Y39294053D01*
X10761794Y39292099D01*
X10760780Y39291085D01*
X10757761Y39290259D01*
X10710142Y39266448D01*
X10700311Y39258818D01*
X10697143Y39257762D01*
X10694404Y39254234D01*
X10690877Y39251496D01*
X10689821Y39248327D01*
X10682191Y39238497D01*
X10658382Y39190878D01*
X10657555Y39187859D01*
X10656542Y39186846D01*
X10654588Y39177024D01*
X10651941Y39167358D01*
X10652394Y39165997D01*
X10651784Y39162928D01*
X10562498Y39162928D01*
X10562498Y39401023D01*
X10557740Y39424941D01*
X10523916Y39458765D01*
X10476080Y39458765D01*
X10442256Y39424941D01*
X10437498Y39401023D01*
X10302672Y39401023D01*
X10282287Y39421408D01*
X10273958Y39426972D01*
X10266043Y39433116D01*
X10218424Y39456925D01*
X10215405Y39457751D01*
X10214392Y39458765D01*
X10204570Y39460718D01*
X10194904Y39463366D01*
X10193543Y39462912D01*
X10190474Y39463523D01*
X10095236Y39463523D01*
X10092164Y39462912D01*
X10090806Y39463365D01*
X10081145Y39460719D01*
X10071318Y39458765D01*
X10023699Y39458765D01*
X9989875Y39424941D01*
X9985117Y39401023D01*
X9872022Y39401023D01*
X9867264Y39424941D01*
X9833440Y39458765D01*
X9785604Y39458765D01*
X9777857Y39451018D01*
X9766043Y39456925D01*
X9763024Y39457751D01*
X9762011Y39458765D01*
X9752189Y39460718D01*
X9742523Y39463366D01*
X9741162Y39462912D01*
X9738093Y39463523D01*
X9666665Y39463523D01*
X9663593Y39462912D01*
X9662235Y39463365D01*
X9652574Y39460719D01*
X9642747Y39458765D01*
X9641733Y39457751D01*
X9638714Y39456925D01*
X9591096Y39433116D01*
X9581264Y39425485D01*
X9578097Y39424430D01*
X9575360Y39420903D01*
X9571830Y39418164D01*
X9570773Y39414993D01*
X9563145Y39405165D01*
X9539335Y39357546D01*
X9538508Y39354527D01*
X9537494Y39353513D01*
X9535538Y39343682D01*
X9532894Y39334026D01*
X9533347Y39332666D01*
X9532736Y39329595D01*
X8850290Y39329595D01*
X8792721Y39387164D01*
X8776784Y39434976D01*
X8776784Y39457698D01*
X8789460Y39483049D01*
X8798926Y39492515D01*
X8824275Y39505190D01*
X8913816Y39505190D01*
X8939167Y39492513D01*
X8955804Y39475877D01*
X8976081Y39462329D01*
X9023915Y39462329D01*
X9057740Y39496154D01*
X9057740Y39543988D01*
X9044192Y39564265D01*
X9040661Y39567796D01*
X10418445Y39567796D01*
X10418446Y39519962D01*
X10431995Y39499685D01*
X10455805Y39475876D01*
X10476078Y39462330D01*
X10476080Y39462329D01*
X10476081Y39462329D01*
X10476082Y39462328D01*
X10523917Y39462329D01*
X10523921Y39462333D01*
X10544192Y39475877D01*
X10568001Y39499686D01*
X10581544Y39519956D01*
X10581549Y39519961D01*
X10581550Y39567796D01*
X10568002Y39588073D01*
X10544193Y39611883D01*
X10523916Y39625432D01*
X10476082Y39625433D01*
X10476081Y39625432D01*
X10476080Y39625432D01*
X10476077Y39625429D01*
X10455804Y39611884D01*
X10431994Y39588074D01*
X10418446Y39567797D01*
X10418445Y39567796D01*
X9040661Y39567796D01*
X9020383Y39588074D01*
X9012051Y39593640D01*
X9004140Y39599781D01*
X8956521Y39623591D01*
X8953502Y39624417D01*
X8952488Y39625432D01*
X8942657Y39627387D01*
X8933001Y39630032D01*
X8931641Y39629578D01*
X8928570Y39630190D01*
X8809522Y39630190D01*
X8806450Y39629578D01*
X8805091Y39630032D01*
X8795429Y39627386D01*
X8785604Y39625432D01*
X8784590Y39624418D01*
X8781571Y39623592D01*
X8733952Y39599781D01*
X8726040Y39593640D01*
X8717709Y39588074D01*
X8693900Y39564265D01*
X8688333Y39555933D01*
X8682193Y39548022D01*
X8658383Y39500403D01*
X8657556Y39497384D01*
X8656542Y39496370D01*
X8654586Y39486539D01*
X8651942Y39476883D01*
X8652395Y39475523D01*
X8651784Y39472452D01*
X8564422Y39472452D01*
X8560633Y39487610D01*
X8557709Y39493798D01*
X8555901Y39500403D01*
X8532090Y39548022D01*
X8525949Y39555933D01*
X8520383Y39564265D01*
X8496574Y39588074D01*
X8488242Y39593640D01*
X8480331Y39599781D01*
X8432712Y39623591D01*
X8429693Y39624417D01*
X8428679Y39625432D01*
X8418848Y39627387D01*
X8409192Y39630032D01*
X8407832Y39629578D01*
X8404761Y39630190D01*
X8357142Y39630190D01*
X8354070Y39629578D01*
X8352711Y39630032D01*
X8343049Y39627386D01*
X8333224Y39625432D01*
X8332210Y39624418D01*
X8329191Y39623592D01*
X8281572Y39599781D01*
X8273663Y39593642D01*
X8265330Y39588075D01*
X8241520Y39564266D01*
X8235953Y39555935D01*
X8229811Y39548021D01*
X8206002Y39500402D01*
X8204194Y39493800D01*
X8201270Y39487611D01*
X8177460Y39392373D01*
X8177087Y39384723D01*
X8175594Y39377214D01*
X7850291Y39377214D01*
X7840341Y39387164D01*
X7824404Y39434976D01*
X7824404Y39457698D01*
X7837080Y39483049D01*
X7846546Y39492515D01*
X7871895Y39505190D01*
X7961436Y39505190D01*
X7986787Y39492513D01*
X8003424Y39475877D01*
X8023701Y39462329D01*
X8071535Y39462329D01*
X8105360Y39496154D01*
X8105360Y39543988D01*
X8091812Y39564265D01*
X8068003Y39588074D01*
X8059671Y39593640D01*
X8051760Y39599781D01*
X8004141Y39623591D01*
X8001122Y39624417D01*
X8000108Y39625432D01*
X7990277Y39627387D01*
X7980621Y39630032D01*
X7979261Y39629578D01*
X7976190Y39630190D01*
X7857142Y39630190D01*
X7854070Y39629578D01*
X7852711Y39630032D01*
X7843049Y39627386D01*
X7833224Y39625432D01*
X7832210Y39624418D01*
X7829191Y39623592D01*
X7781572Y39599781D01*
X7773660Y39593640D01*
X7765329Y39588074D01*
X7741520Y39564265D01*
X7735953Y39555933D01*
X7729813Y39548022D01*
X7706003Y39500403D01*
X7705176Y39497384D01*
X7704162Y39496370D01*
X7702206Y39486539D01*
X7699562Y39476883D01*
X7700015Y39475523D01*
X7699404Y39472452D01*
X7619954Y39472452D01*
X7609809Y39573909D01*
X7605361Y39588493D01*
X7605361Y39591608D01*
X7603994Y39592974D01*
X7602695Y39597235D01*
X7586411Y39610557D01*
X7571537Y39625432D01*
X7567169Y39626300D01*
X7565673Y39627525D01*
X7562573Y39627215D01*
X7547619Y39630190D01*
X7309524Y39630190D01*
X7285606Y39625432D01*
X7251782Y39591608D01*
X7251782Y39543772D01*
X7285606Y39509948D01*
X7309524Y39505190D01*
X7491057Y39505190D01*
X7497604Y39439714D01*
X7380952Y39439714D01*
X7377880Y39439102D01*
X7376521Y39439556D01*
X7366859Y39436910D01*
X7357034Y39434956D01*
X7356020Y39433942D01*
X7353001Y39433116D01*
X7305382Y39409305D01*
X7297470Y39403164D01*
X7289139Y39397598D01*
X7265330Y39373789D01*
X7259763Y39365457D01*
X7253623Y39357546D01*
X7229813Y39309927D01*
X7228986Y39306908D01*
X7227972Y39305894D01*
X7226016Y39296063D01*
X7223372Y39286407D01*
X7223825Y39285047D01*
X7223214Y39281976D01*
X7129171Y39281976D01*
X7129171Y39282084D01*
X7095347Y39315908D01*
X7071429Y39320666D01*
X6690477Y39320666D01*
X6666559Y39315908D01*
X6632735Y39282084D01*
X6395833Y39282084D01*
X6395833Y39396455D01*
X6400621Y39392740D01*
X6448239Y39368931D01*
X6471760Y39362491D01*
X6517140Y39377618D01*
X6538532Y39420404D01*
X6523405Y39465783D01*
X6504140Y39480735D01*
X6465592Y39500008D01*
X6429521Y39536079D01*
X6385336Y39602359D01*
X6368110Y39619620D01*
X6361801Y39620881D01*
X6357251Y39625432D01*
X6339053Y39625432D01*
X6321205Y39629002D01*
X6315850Y39625432D01*
X6309415Y39625432D01*
X6296544Y39612561D01*
X6281403Y39602467D01*
X6280141Y39596158D01*
X6275591Y39591608D01*
X6270833Y39567690D01*
X6270833Y39130190D01*
X6190476Y39130190D01*
X6166558Y39125432D01*
X6132734Y39091608D01*
X6010407Y39091608D01*
X6032093Y39134977D01*
X6033901Y39141581D01*
X6036825Y39147770D01*
X6060634Y39243008D01*
X6061006Y39250656D01*
X6062500Y39258166D01*
X6062500Y39377214D01*
X6061006Y39384723D01*
X6060634Y39392372D01*
X6036825Y39487610D01*
X6033901Y39493798D01*
X6032093Y39500403D01*
X6008282Y39548022D01*
X6002141Y39555933D01*
X5996575Y39564265D01*
X5972766Y39588074D01*
X5964434Y39593640D01*
X5956523Y39599781D01*
X5908904Y39623591D01*
X5905885Y39624417D01*
X5904871Y39625432D01*
X5895040Y39627387D01*
X5885384Y39630032D01*
X5884024Y39629578D01*
X5880953Y39630190D01*
X5833334Y39630190D01*
X5830262Y39629578D01*
X5828903Y39630032D01*
X5819241Y39627386D01*
X5809416Y39625432D01*
X5808402Y39624418D01*
X5805383Y39623592D01*
X5757764Y39599781D01*
X5749855Y39593642D01*
X5741522Y39588075D01*
X5717712Y39564266D01*
X5712145Y39555935D01*
X5706003Y39548021D01*
X5682194Y39500402D01*
X5680386Y39493800D01*
X5677462Y39487611D01*
X5653652Y39392373D01*
X5653279Y39384723D01*
X5651786Y39377214D01*
X4707435Y39377214D01*
X4697485Y39387164D01*
X4681548Y39434976D01*
X4681548Y39457698D01*
X4694224Y39483049D01*
X4703690Y39492515D01*
X4729039Y39505190D01*
X4818580Y39505190D01*
X4843931Y39492513D01*
X4860568Y39475877D01*
X4880845Y39462329D01*
X4928679Y39462329D01*
X4962504Y39496154D01*
X4962504Y39543988D01*
X4948956Y39564265D01*
X4925147Y39588074D01*
X4916815Y39593640D01*
X4908904Y39599781D01*
X4861285Y39623591D01*
X4858266Y39624417D01*
X4857252Y39625432D01*
X4847421Y39627387D01*
X4837765Y39630032D01*
X4836405Y39629578D01*
X4833334Y39630190D01*
X4714286Y39630190D01*
X4711214Y39629578D01*
X4709855Y39630032D01*
X4700193Y39627386D01*
X4690368Y39625432D01*
X4689354Y39624418D01*
X4686335Y39623592D01*
X4638716Y39599781D01*
X4630804Y39593640D01*
X4622473Y39588074D01*
X4598664Y39564265D01*
X4593097Y39555933D01*
X4586957Y39548022D01*
X4563147Y39500403D01*
X4562320Y39497384D01*
X4561306Y39496370D01*
X4559350Y39486539D01*
X4556706Y39476883D01*
X4557159Y39475523D01*
X4556548Y39472452D01*
X4469186Y39472452D01*
X4465397Y39487610D01*
X4462473Y39493798D01*
X4460665Y39500403D01*
X4436854Y39548022D01*
X4430713Y39555933D01*
X4425147Y39564265D01*
X4401338Y39588074D01*
X4393006Y39593640D01*
X4385095Y39599781D01*
X4337476Y39623591D01*
X4334457Y39624417D01*
X4333443Y39625432D01*
X4323612Y39627387D01*
X4313956Y39630032D01*
X4312596Y39629578D01*
X4309525Y39630190D01*
X4261906Y39630190D01*
X4258834Y39629578D01*
X4257475Y39630032D01*
X4247813Y39627386D01*
X4237988Y39625432D01*
X4236974Y39624418D01*
X4233955Y39623592D01*
X4186336Y39599781D01*
X4178427Y39593642D01*
X4170094Y39588075D01*
X4146284Y39564266D01*
X4140717Y39555935D01*
X4134575Y39548021D01*
X4110766Y39500402D01*
X4108958Y39493800D01*
X4106034Y39487611D01*
X4082224Y39392373D01*
X4081851Y39384723D01*
X4080358Y39377214D01*
X4010712Y39377214D01*
X4010712Y40229913D01*
X4073212Y40229913D01*
X4073212Y40182077D01*
X4107036Y40148253D01*
X4130954Y40143495D01*
X4163819Y40143495D01*
X4189170Y40130819D01*
X4198635Y40121353D01*
X4211311Y40096003D01*
X4211311Y39872662D01*
X4216069Y39848744D01*
X4249893Y39814920D01*
X4297729Y39814920D01*
X4331553Y39848744D01*
X4336311Y39872662D01*
X4336311Y40134567D01*
X4425596Y40134567D01*
X4425596Y40086948D01*
X4427398Y40077886D01*
X4426785Y40074819D01*
X4428529Y40072202D01*
X4430354Y40063030D01*
X4443223Y40050160D01*
X4453318Y40035018D01*
X4461953Y40031430D01*
X4464178Y40029206D01*
X4467308Y40029206D01*
X4475839Y40025662D01*
X4663691Y39988091D01*
X4663691Y39958844D01*
X4655797Y39943056D01*
X4640009Y39935162D01*
X4574278Y39935162D01*
X4539857Y39952373D01*
X4516337Y39958814D01*
X4470957Y39943688D01*
X4449564Y39900903D01*
X4464690Y39855523D01*
X4483955Y39840571D01*
X4531574Y39816760D01*
X4534593Y39815933D01*
X4535607Y39814920D01*
X4545432Y39812965D01*
X4555094Y39810320D01*
X4556453Y39810773D01*
X4559525Y39810162D01*
X4654763Y39810162D01*
X4657834Y39810773D01*
X4659194Y39810320D01*
X4668850Y39812964D01*
X4678681Y39814920D01*
X4679695Y39815934D01*
X4682714Y39816761D01*
X4730333Y39840571D01*
X4740161Y39848199D01*
X4743332Y39849256D01*
X4746071Y39852786D01*
X4749598Y39855523D01*
X4750653Y39858690D01*
X4758284Y39868522D01*
X4782093Y39916140D01*
X4782919Y39919159D01*
X4783933Y39920173D01*
X4785887Y39930000D01*
X4788533Y39939661D01*
X4788080Y39941019D01*
X4788691Y39944091D01*
X4788691Y40110757D01*
X4854168Y40110757D01*
X4854168Y39967900D01*
X4854778Y39964830D01*
X4854325Y39963470D01*
X4856972Y39953803D01*
X4858926Y39943982D01*
X4859939Y39942968D01*
X4860766Y39939950D01*
X4884575Y39892331D01*
X4890717Y39884416D01*
X4896284Y39876086D01*
X4920094Y39852277D01*
X4928427Y39846709D01*
X4936336Y39840571D01*
X4983955Y39816760D01*
X4986974Y39815933D01*
X4987988Y39814920D01*
X4997813Y39812965D01*
X5007475Y39810320D01*
X5008834Y39810773D01*
X5011906Y39810162D01*
X5092263Y39810162D01*
X5092263Y39705995D01*
X5097021Y39682077D01*
X5130845Y39648253D01*
X5178681Y39648253D01*
X5212505Y39682077D01*
X5217263Y39705995D01*
X5217263Y40134567D01*
X5330358Y40134567D01*
X5330358Y39872662D01*
X5335116Y39848744D01*
X5368940Y39814920D01*
X5416776Y39814920D01*
X5450600Y39848744D01*
X5455358Y39872662D01*
X5455358Y40119813D01*
X5463252Y40135601D01*
X5479041Y40143495D01*
X5520962Y40143495D01*
X5536750Y40135600D01*
X5544644Y40119813D01*
X5544644Y39872662D01*
X5549402Y39848744D01*
X5583226Y39814920D01*
X5631062Y39814920D01*
X5664886Y39848744D01*
X5669644Y39872662D01*
X5669644Y40119813D01*
X5677538Y40135601D01*
X5693327Y40143495D01*
X5735247Y40143495D01*
X5758930Y40131653D01*
X5758930Y39872662D01*
X5763688Y39848744D01*
X5797512Y39814920D01*
X5845348Y39814920D01*
X5879172Y39848744D01*
X5883930Y39872662D01*
X5883930Y40205995D01*
X5997025Y40205995D01*
X5997025Y39872662D01*
X6001783Y39848744D01*
X6035607Y39814920D01*
X6083443Y39814920D01*
X6091189Y39822666D01*
X6103003Y39816760D01*
X6106022Y39815933D01*
X6107036Y39814920D01*
X6116861Y39812965D01*
X6126523Y39810320D01*
X6127882Y39810773D01*
X6130954Y39810162D01*
X6202382Y39810162D01*
X6205453Y39810773D01*
X6206813Y39810320D01*
X6216469Y39812964D01*
X6226300Y39814920D01*
X6227314Y39815934D01*
X6230333Y39816761D01*
X6277952Y39840571D01*
X6287781Y39848199D01*
X6290950Y39849256D01*
X6293688Y39852784D01*
X6297217Y39855523D01*
X6298273Y39858691D01*
X6305902Y39868521D01*
X6329713Y39916140D01*
X6330539Y39919159D01*
X6331553Y39920173D01*
X6333507Y39929998D01*
X6336153Y39939660D01*
X6335699Y39941019D01*
X6336311Y39944091D01*
X6336311Y40205995D01*
X6331553Y40229913D01*
X6297729Y40263737D01*
X6249893Y40263737D01*
X6216069Y40229913D01*
X6211311Y40205995D01*
X6211311Y39958844D01*
X6203417Y39943057D01*
X6187628Y39935162D01*
X6145707Y39935162D01*
X6122025Y39947003D01*
X6122025Y40205995D01*
X6117267Y40229913D01*
X6083443Y40263737D01*
X6035607Y40263737D01*
X6001783Y40229913D01*
X5997025Y40205995D01*
X5883930Y40205995D01*
X5879172Y40229913D01*
X5845348Y40263737D01*
X5797512Y40263737D01*
X5789765Y40255990D01*
X5777951Y40261897D01*
X5774932Y40262723D01*
X5773919Y40263737D01*
X5764097Y40265690D01*
X5754431Y40268338D01*
X5753070Y40267884D01*
X5750001Y40268495D01*
X5678573Y40268495D01*
X5675501Y40267884D01*
X5674143Y40268337D01*
X5664482Y40265691D01*
X5654655Y40263737D01*
X5653641Y40262723D01*
X5650622Y40261897D01*
X5607144Y40240158D01*
X5563666Y40261897D01*
X5560647Y40262723D01*
X5559634Y40263737D01*
X5549812Y40265690D01*
X5540146Y40268338D01*
X5538785Y40267884D01*
X5535716Y40268495D01*
X5464287Y40268495D01*
X5461215Y40267884D01*
X5459857Y40268337D01*
X5450196Y40265691D01*
X5440369Y40263737D01*
X5439355Y40262723D01*
X5436336Y40261897D01*
X5388718Y40238088D01*
X5378886Y40230457D01*
X5375719Y40229402D01*
X5372982Y40225875D01*
X5369452Y40223136D01*
X5368395Y40219965D01*
X5360767Y40210137D01*
X5336957Y40162518D01*
X5336130Y40159499D01*
X5335116Y40158485D01*
X5333160Y40148654D01*
X5330516Y40138998D01*
X5330969Y40137638D01*
X5330358Y40134567D01*
X5217263Y40134567D01*
X5217263Y40205995D01*
X5212505Y40229913D01*
X5178681Y40263737D01*
X5131062Y40263737D01*
X5121240Y40265690D01*
X5111574Y40268338D01*
X5110213Y40267884D01*
X5107144Y40268495D01*
X5011906Y40268495D01*
X5008834Y40267884D01*
X5007476Y40268337D01*
X4997815Y40265691D01*
X4987988Y40263737D01*
X4986974Y40262723D01*
X4983955Y40261897D01*
X4936337Y40238088D01*
X4928419Y40231943D01*
X4920093Y40226380D01*
X4896283Y40202570D01*
X4890718Y40194241D01*
X4884575Y40186326D01*
X4860766Y40138707D01*
X4859939Y40135688D01*
X4858926Y40134675D01*
X4856972Y40124853D01*
X4854325Y40115187D01*
X4854778Y40113826D01*
X4854168Y40110757D01*
X4788691Y40110757D01*
X4788691Y40134567D01*
X4788080Y40137638D01*
X4788533Y40138997D01*
X4785887Y40148657D01*
X4783933Y40158485D01*
X4782919Y40159498D01*
X4782093Y40162518D01*
X4758284Y40210136D01*
X4750652Y40219969D01*
X4749597Y40223136D01*
X4746071Y40225872D01*
X4743332Y40229402D01*
X4740162Y40230458D01*
X4730332Y40238088D01*
X4682713Y40261897D01*
X4679694Y40262723D01*
X4678681Y40263737D01*
X4668859Y40265690D01*
X4659193Y40268338D01*
X4657832Y40267884D01*
X4654763Y40268495D01*
X4559525Y40268495D01*
X4556453Y40267884D01*
X4555095Y40268337D01*
X4545434Y40265691D01*
X4535607Y40263737D01*
X4534593Y40262723D01*
X4531574Y40261897D01*
X4483956Y40238088D01*
X4474124Y40230457D01*
X4470957Y40229402D01*
X4468220Y40225875D01*
X4464690Y40223136D01*
X4463633Y40219965D01*
X4456005Y40210137D01*
X4432195Y40162518D01*
X4431368Y40159499D01*
X4430354Y40158485D01*
X4428398Y40148654D01*
X4425754Y40138998D01*
X4426207Y40137638D01*
X4425596Y40134567D01*
X4336311Y40134567D01*
X4336311Y40205995D01*
X4331553Y40229913D01*
X4297729Y40263737D01*
X4249893Y40263737D01*
X4234209Y40248053D01*
X4206523Y40261897D01*
X4203504Y40262723D01*
X4202491Y40263737D01*
X4192669Y40265690D01*
X4183003Y40268338D01*
X4181642Y40267884D01*
X4178573Y40268495D01*
X4130954Y40268495D01*
X4107036Y40263737D01*
X4073212Y40229913D01*
X4010712Y40229913D01*
X4010712Y40372662D01*
X6449406Y40372662D01*
X6449406Y40015519D01*
X6451360Y40005693D01*
X6452613Y39995755D01*
X6476422Y39924327D01*
X6477973Y39921606D01*
X6477973Y39920174D01*
X6483537Y39911845D01*
X6488500Y39903141D01*
X6489781Y39902500D01*
X6491521Y39899897D01*
X6539140Y39852278D01*
X6541743Y39850538D01*
X6542384Y39849257D01*
X6551088Y39844294D01*
X6559417Y39838730D01*
X6560849Y39838730D01*
X6563570Y39837179D01*
X6634999Y39813369D01*
X6644937Y39812116D01*
X6654763Y39810162D01*
X6702382Y39810162D01*
X6726300Y39814920D01*
X6760124Y39848744D01*
X6760124Y39896580D01*
X6726300Y39930404D01*
X6702382Y39935162D01*
X6664907Y39935162D01*
X6617094Y39951099D01*
X6590342Y39977851D01*
X6574406Y40025662D01*
X6574406Y40182186D01*
X7187500Y40182186D01*
X7187500Y40063138D01*
X7188993Y40055628D01*
X7189366Y40047979D01*
X7213176Y39952741D01*
X7216100Y39946551D01*
X7217908Y39939950D01*
X7241717Y39892331D01*
X7247859Y39884416D01*
X7253426Y39876086D01*
X7277236Y39852277D01*
X7285569Y39846709D01*
X7293478Y39840571D01*
X7341097Y39816760D01*
X7344116Y39815933D01*
X7345130Y39814920D01*
X7354955Y39812965D01*
X7364617Y39810320D01*
X7365976Y39810773D01*
X7369048Y39810162D01*
X7416667Y39810162D01*
X7419738Y39810773D01*
X7421098Y39810320D01*
X7430754Y39812964D01*
X7440585Y39814920D01*
X7441599Y39815934D01*
X7444618Y39816761D01*
X7492237Y39840571D01*
X7500148Y39846711D01*
X7508480Y39852278D01*
X7532289Y39876087D01*
X7537855Y39884418D01*
X7543996Y39892330D01*
X7567807Y39939949D01*
X7569615Y39946553D01*
X7572539Y39952742D01*
X7596348Y40047980D01*
X7596720Y40055628D01*
X7598214Y40063138D01*
X7598214Y40086948D01*
X7663690Y40086948D01*
X7663690Y39967900D01*
X7664301Y39964828D01*
X7663848Y39963469D01*
X7666492Y39953812D01*
X7668448Y39943982D01*
X7669462Y39942967D01*
X7670289Y39939949D01*
X7694099Y39892330D01*
X7700239Y39884418D01*
X7705806Y39876087D01*
X7729615Y39852278D01*
X7737946Y39846711D01*
X7745858Y39840571D01*
X7793477Y39816760D01*
X7796496Y39815933D01*
X7797510Y39814920D01*
X7807335Y39812965D01*
X7816997Y39810320D01*
X7818356Y39810773D01*
X7821428Y39810162D01*
X7940476Y39810162D01*
X7943547Y39810773D01*
X7944907Y39810320D01*
X7954563Y39812964D01*
X7964394Y39814920D01*
X7965408Y39815934D01*
X7968427Y39816761D01*
X8016046Y39840571D01*
X8023957Y39846711D01*
X8032289Y39852278D01*
X8056098Y39876087D01*
X8069646Y39896364D01*
X8069646Y39944198D01*
X8035821Y39978023D01*
X7987987Y39978023D01*
X7967710Y39964475D01*
X7951073Y39947838D01*
X7925722Y39935162D01*
X7836181Y39935162D01*
X7810832Y39947836D01*
X7801366Y39957302D01*
X7788690Y39982653D01*
X7788690Y40072194D01*
X7801366Y40097545D01*
X7810832Y40107011D01*
X7836181Y40119686D01*
X7925722Y40119686D01*
X7951073Y40107009D01*
X7967710Y40090373D01*
X7987987Y40076825D01*
X7991292Y40076825D01*
X7993850Y40074732D01*
X8014780Y40076825D01*
X8035821Y40076825D01*
X8038158Y40079162D01*
X8041449Y40079492D01*
X8047549Y40086948D01*
X8139880Y40086948D01*
X8139880Y39967900D01*
X8140491Y39964828D01*
X8140038Y39963469D01*
X8142682Y39953812D01*
X8144638Y39943982D01*
X8145652Y39942967D01*
X8146479Y39939949D01*
X8170289Y39892330D01*
X8176429Y39884418D01*
X8181996Y39876087D01*
X8205805Y39852278D01*
X8214136Y39846711D01*
X8222048Y39840571D01*
X8269667Y39816760D01*
X8272686Y39815933D01*
X8273700Y39814920D01*
X8283525Y39812965D01*
X8293187Y39810320D01*
X8294546Y39810773D01*
X8297618Y39810162D01*
X8392856Y39810162D01*
X8395927Y39810773D01*
X8397287Y39810320D01*
X8406943Y39812964D01*
X8416774Y39814920D01*
X8417788Y39815934D01*
X8420807Y39816761D01*
X8468426Y39840571D01*
X8476334Y39846709D01*
X8484668Y39852277D01*
X8508478Y39876086D01*
X8514042Y39884413D01*
X8520187Y39892331D01*
X8543996Y39939949D01*
X8544822Y39942968D01*
X8545836Y39943982D01*
X8547790Y39953809D01*
X8550436Y39963470D01*
X8549983Y39964828D01*
X8550594Y39967900D01*
X8550594Y40158376D01*
X8549100Y40165885D01*
X8548728Y40173534D01*
X8524919Y40268772D01*
X8520831Y40277424D01*
X8616070Y40277424D01*
X8616070Y40253614D01*
X8616681Y40250542D01*
X8616228Y40249183D01*
X8618872Y40239526D01*
X8620828Y40229696D01*
X8621842Y40228681D01*
X8622669Y40225663D01*
X8646479Y40178044D01*
X8652619Y40170132D01*
X8658186Y40161801D01*
X8661610Y40158376D01*
X8658185Y40154950D01*
X8652617Y40146616D01*
X8646479Y40138708D01*
X8622669Y40091089D01*
X8621842Y40088070D01*
X8620828Y40087056D01*
X8618872Y40077225D01*
X8616228Y40067569D01*
X8616681Y40066209D01*
X8616070Y40063138D01*
X8616070Y39967900D01*
X8616681Y39964828D01*
X8616228Y39963469D01*
X8618872Y39953812D01*
X8620828Y39943982D01*
X8621842Y39942967D01*
X8622669Y39939949D01*
X8646479Y39892330D01*
X8652619Y39884418D01*
X8658186Y39876087D01*
X8681995Y39852278D01*
X8690326Y39846711D01*
X8698238Y39840571D01*
X8745857Y39816760D01*
X8748876Y39815933D01*
X8749890Y39814920D01*
X8759715Y39812965D01*
X8769377Y39810320D01*
X8770736Y39810773D01*
X8773808Y39810162D01*
X8869046Y39810162D01*
X8872117Y39810773D01*
X8873477Y39810320D01*
X8883133Y39812964D01*
X8892964Y39814920D01*
X8893978Y39815934D01*
X8896997Y39816761D01*
X8944616Y39840571D01*
X8952524Y39846709D01*
X8960858Y39852277D01*
X8984668Y39876086D01*
X8990232Y39884413D01*
X8996377Y39892331D01*
X8998502Y39896580D01*
X9097018Y39896580D01*
X9097018Y39848744D01*
X9130842Y39814920D01*
X9154760Y39810162D01*
X9440474Y39810162D01*
X9464392Y39814920D01*
X9498216Y39848744D01*
X9498216Y39896580D01*
X9464392Y39930404D01*
X9440474Y39935162D01*
X9360117Y39935162D01*
X9360117Y40134567D01*
X9973212Y40134567D01*
X9973212Y39872662D01*
X9977970Y39848744D01*
X10011794Y39814920D01*
X10059630Y39814920D01*
X10093454Y39848744D01*
X10098212Y39872662D01*
X10098212Y40119813D01*
X10106106Y40135601D01*
X10121895Y40143495D01*
X10163816Y40143495D01*
X10179604Y40135600D01*
X10187498Y40119813D01*
X10187498Y39872662D01*
X10192256Y39848744D01*
X10226080Y39814920D01*
X10273916Y39814920D01*
X10307740Y39848744D01*
X10312498Y39872662D01*
X10312498Y40119813D01*
X10320392Y40135601D01*
X10336181Y40143495D01*
X10378101Y40143495D01*
X10401784Y40131653D01*
X10401784Y39872662D01*
X10406542Y39848744D01*
X10440366Y39814920D01*
X10488202Y39814920D01*
X10522026Y39848744D01*
X10526784Y39872662D01*
X10526784Y40110757D01*
X10616070Y40110757D01*
X10616070Y39967900D01*
X10616680Y39964830D01*
X10616227Y39963470D01*
X10618874Y39953803D01*
X10620828Y39943982D01*
X10621841Y39942968D01*
X10622668Y39939950D01*
X10646477Y39892331D01*
X10652619Y39884416D01*
X10658186Y39876086D01*
X10681996Y39852277D01*
X10690329Y39846709D01*
X10698238Y39840571D01*
X10745857Y39816760D01*
X10748876Y39815933D01*
X10749890Y39814920D01*
X10759715Y39812965D01*
X10769377Y39810320D01*
X10770736Y39810773D01*
X10773808Y39810162D01*
X10845236Y39810162D01*
X10848307Y39810773D01*
X10849667Y39810320D01*
X10859323Y39812964D01*
X10869154Y39814920D01*
X10870168Y39815934D01*
X10873187Y39816761D01*
X10920806Y39840571D01*
X10928714Y39846709D01*
X10937048Y39852277D01*
X10960858Y39876086D01*
X10966422Y39884413D01*
X10972567Y39892331D01*
X10996376Y39939949D01*
X10997202Y39942968D01*
X10998216Y39943982D01*
X11000170Y39953809D01*
X11002816Y39963470D01*
X11002363Y39964828D01*
X11002974Y39967900D01*
X11002974Y40110757D01*
X11002363Y40113828D01*
X11002816Y40115187D01*
X11000170Y40124847D01*
X10998216Y40134675D01*
X10997202Y40135688D01*
X10996376Y40138708D01*
X10972567Y40186326D01*
X10966422Y40194243D01*
X10960859Y40202570D01*
X10937049Y40226380D01*
X10928720Y40231944D01*
X10920805Y40238088D01*
X10873186Y40261897D01*
X10870167Y40262723D01*
X10869154Y40263737D01*
X10859332Y40265690D01*
X10849666Y40268338D01*
X10848305Y40267884D01*
X10845236Y40268495D01*
X10773808Y40268495D01*
X10770736Y40267884D01*
X10769378Y40268337D01*
X10759717Y40265691D01*
X10749890Y40263737D01*
X10748876Y40262723D01*
X10745857Y40261897D01*
X10698239Y40238088D01*
X10690321Y40231943D01*
X10681995Y40226380D01*
X10658185Y40202570D01*
X10652620Y40194241D01*
X10646477Y40186326D01*
X10622668Y40138707D01*
X10621841Y40135688D01*
X10620828Y40134675D01*
X10618874Y40124853D01*
X10616227Y40115187D01*
X10616680Y40113826D01*
X10616070Y40110757D01*
X10526784Y40110757D01*
X10526784Y40205995D01*
X10522026Y40229913D01*
X10488202Y40263737D01*
X10440366Y40263737D01*
X10432619Y40255990D01*
X10420805Y40261897D01*
X10417786Y40262723D01*
X10416773Y40263737D01*
X10406951Y40265690D01*
X10397285Y40268338D01*
X10395924Y40267884D01*
X10392855Y40268495D01*
X10321427Y40268495D01*
X10318355Y40267884D01*
X10316997Y40268337D01*
X10307336Y40265691D01*
X10297509Y40263737D01*
X10296495Y40262723D01*
X10293476Y40261897D01*
X10249998Y40240158D01*
X10206520Y40261897D01*
X10203501Y40262723D01*
X10202488Y40263737D01*
X10192666Y40265690D01*
X10183000Y40268338D01*
X10181639Y40267884D01*
X10178570Y40268495D01*
X10107141Y40268495D01*
X10104069Y40267884D01*
X10102711Y40268337D01*
X10093050Y40265691D01*
X10083223Y40263737D01*
X10082209Y40262723D01*
X10079190Y40261897D01*
X10031572Y40238088D01*
X10021740Y40230457D01*
X10018573Y40229402D01*
X10015836Y40225875D01*
X10012306Y40223136D01*
X10011249Y40219965D01*
X10003621Y40210137D01*
X9979811Y40162518D01*
X9978984Y40159499D01*
X9977970Y40158485D01*
X9976014Y40148654D01*
X9973370Y40138998D01*
X9973823Y40137638D01*
X9973212Y40134567D01*
X9360117Y40134567D01*
X9360117Y40201427D01*
X9364905Y40197712D01*
X9412523Y40173903D01*
X9436044Y40167463D01*
X9481424Y40182590D01*
X9502816Y40225376D01*
X9487689Y40270755D01*
X9468424Y40285707D01*
X9429876Y40304980D01*
X9393805Y40341051D01*
X9372732Y40372662D01*
X11092260Y40372662D01*
X11092260Y39872662D01*
X11097018Y39848744D01*
X11130842Y39814920D01*
X11178461Y39814920D01*
X11188286Y39812965D01*
X11197948Y39810320D01*
X11199307Y39810773D01*
X11202379Y39810162D01*
X11297617Y39810162D01*
X11300688Y39810773D01*
X11302048Y39810320D01*
X11311704Y39812964D01*
X11321535Y39814920D01*
X11322549Y39815934D01*
X11325568Y39816761D01*
X11373187Y39840571D01*
X11381095Y39846709D01*
X11389429Y39852277D01*
X11405384Y39868231D01*
X11473370Y39868231D01*
X11494762Y39825447D01*
X11540143Y39810320D01*
X11582927Y39831712D01*
X11595005Y39852898D01*
X11628379Y39953019D01*
X11776378Y39953019D01*
X11809752Y39852898D01*
X11821830Y39831712D01*
X11864614Y39810320D01*
X11909995Y39825447D01*
X11931387Y39868231D01*
X11928338Y39892426D01*
X11761672Y40392426D01*
X11749594Y40413612D01*
X11745417Y40415700D01*
X11743329Y40419877D01*
X11724534Y40426142D01*
X11706810Y40435004D01*
X11702379Y40433527D01*
X11697948Y40435004D01*
X11680224Y40426142D01*
X11661429Y40419877D01*
X11659340Y40415700D01*
X11655164Y40413612D01*
X11643086Y40392426D01*
X11476419Y39892426D01*
X11473370Y39868231D01*
X11405384Y39868231D01*
X11413239Y39876086D01*
X11418803Y39884413D01*
X11424948Y39892331D01*
X11448757Y39939949D01*
X11449583Y39942968D01*
X11450597Y39943982D01*
X11452551Y39953809D01*
X11455197Y39963470D01*
X11454744Y39964828D01*
X11455355Y39967900D01*
X11455355Y40110757D01*
X11454744Y40113828D01*
X11455197Y40115187D01*
X11452551Y40124847D01*
X11450597Y40134675D01*
X11449583Y40135688D01*
X11448757Y40138708D01*
X11424948Y40186326D01*
X11418803Y40194243D01*
X11413240Y40202570D01*
X11389430Y40226380D01*
X11381101Y40231944D01*
X11373186Y40238088D01*
X11325567Y40261897D01*
X11322548Y40262723D01*
X11321535Y40263737D01*
X11311713Y40265690D01*
X11302047Y40268338D01*
X11300686Y40267884D01*
X11297617Y40268495D01*
X11217260Y40268495D01*
X11217260Y40372662D01*
X11212502Y40396580D01*
X11178678Y40430404D01*
X11130842Y40430404D01*
X11097018Y40396580D01*
X11092260Y40372662D01*
X9372732Y40372662D01*
X9349620Y40407331D01*
X9332394Y40424592D01*
X9326085Y40425853D01*
X9321535Y40430404D01*
X9303337Y40430404D01*
X9285489Y40433974D01*
X9280134Y40430404D01*
X9273699Y40430404D01*
X9260828Y40417533D01*
X9245687Y40407439D01*
X9244425Y40401130D01*
X9239875Y40396580D01*
X9235117Y40372662D01*
X9235117Y39935162D01*
X9154760Y39935162D01*
X9130842Y39930404D01*
X9097018Y39896580D01*
X8998502Y39896580D01*
X9020186Y39939949D01*
X9021012Y39942968D01*
X9022026Y39943982D01*
X9023980Y39953809D01*
X9026626Y39963470D01*
X9026173Y39964828D01*
X9026784Y39967900D01*
X9026784Y40063138D01*
X9026173Y40066209D01*
X9026626Y40067568D01*
X9023980Y40077228D01*
X9022026Y40087056D01*
X9021012Y40088069D01*
X9020186Y40091089D01*
X8996377Y40138707D01*
X8990232Y40146624D01*
X8984669Y40154951D01*
X8981243Y40158376D01*
X8984668Y40161800D01*
X8990232Y40170127D01*
X8996377Y40178045D01*
X9020186Y40225663D01*
X9021012Y40228682D01*
X9022026Y40229696D01*
X9023980Y40239523D01*
X9026626Y40249184D01*
X9026173Y40250542D01*
X9026784Y40253614D01*
X9026784Y40277424D01*
X9026173Y40280495D01*
X9026626Y40281854D01*
X9023980Y40291514D01*
X9022026Y40301342D01*
X9021012Y40302355D01*
X9020186Y40305375D01*
X8996377Y40352993D01*
X8990232Y40360910D01*
X8984668Y40369238D01*
X8960858Y40393047D01*
X8952524Y40398614D01*
X8944616Y40404753D01*
X8896997Y40428563D01*
X8893978Y40429389D01*
X8892964Y40430404D01*
X8883133Y40432359D01*
X8873477Y40435004D01*
X8872117Y40434550D01*
X8869046Y40435162D01*
X8773808Y40435162D01*
X8770736Y40434550D01*
X8769377Y40435004D01*
X8759715Y40432358D01*
X8749890Y40430404D01*
X8748876Y40429390D01*
X8745857Y40428564D01*
X8698238Y40404753D01*
X8690326Y40398612D01*
X8681995Y40393046D01*
X8658186Y40369237D01*
X8652619Y40360905D01*
X8646479Y40352994D01*
X8622669Y40305375D01*
X8621842Y40302356D01*
X8620828Y40301342D01*
X8618872Y40291511D01*
X8616228Y40281855D01*
X8616681Y40280495D01*
X8616070Y40277424D01*
X8520831Y40277424D01*
X8520360Y40278420D01*
X8516288Y40288282D01*
X8468669Y40359712D01*
X8464296Y40364093D01*
X8460859Y40369238D01*
X8437049Y40393047D01*
X8428715Y40398614D01*
X8420807Y40404753D01*
X8373188Y40428563D01*
X8370169Y40429389D01*
X8369155Y40430404D01*
X8359324Y40432359D01*
X8349668Y40435004D01*
X8348308Y40434550D01*
X8345237Y40435162D01*
X8249999Y40435162D01*
X8226081Y40430404D01*
X8192257Y40396580D01*
X8192257Y40348744D01*
X8226081Y40314920D01*
X8249999Y40310162D01*
X8330483Y40310162D01*
X8355835Y40297485D01*
X8368095Y40285225D01*
X8395467Y40244166D01*
X8392856Y40244686D01*
X8297618Y40244686D01*
X8294546Y40244074D01*
X8293187Y40244528D01*
X8283525Y40241882D01*
X8273700Y40239928D01*
X8272686Y40238914D01*
X8269667Y40238088D01*
X8222048Y40214277D01*
X8214136Y40208136D01*
X8205805Y40202570D01*
X8181996Y40178761D01*
X8176429Y40170429D01*
X8170289Y40162518D01*
X8146479Y40114899D01*
X8145652Y40111880D01*
X8144638Y40110866D01*
X8142682Y40101035D01*
X8140038Y40091379D01*
X8140491Y40090019D01*
X8139880Y40086948D01*
X8047549Y40086948D01*
X8054771Y40095775D01*
X8069646Y40110650D01*
X8069646Y40113955D01*
X8071739Y40116514D01*
X8074094Y40140786D01*
X8050285Y40378881D01*
X8045837Y40393465D01*
X8045837Y40396580D01*
X8044470Y40397946D01*
X8043171Y40402207D01*
X8026887Y40415529D01*
X8012013Y40430404D01*
X8007645Y40431272D01*
X8006149Y40432497D01*
X8003049Y40432187D01*
X7988095Y40435162D01*
X7750000Y40435162D01*
X7726082Y40430404D01*
X7692258Y40396580D01*
X7692258Y40348744D01*
X7726082Y40314920D01*
X7750000Y40310162D01*
X7931533Y40310162D01*
X7938080Y40244686D01*
X7821428Y40244686D01*
X7818356Y40244074D01*
X7816997Y40244528D01*
X7807335Y40241882D01*
X7797510Y40239928D01*
X7796496Y40238914D01*
X7793477Y40238088D01*
X7745858Y40214277D01*
X7737946Y40208136D01*
X7729615Y40202570D01*
X7705806Y40178761D01*
X7700239Y40170429D01*
X7694099Y40162518D01*
X7670289Y40114899D01*
X7669462Y40111880D01*
X7668448Y40110866D01*
X7666492Y40101035D01*
X7663848Y40091379D01*
X7664301Y40090019D01*
X7663690Y40086948D01*
X7598214Y40086948D01*
X7598214Y40182186D01*
X7596720Y40189695D01*
X7596348Y40197344D01*
X7572539Y40292582D01*
X7569615Y40298770D01*
X7567807Y40305375D01*
X7543996Y40352994D01*
X7537855Y40360905D01*
X7532289Y40369237D01*
X7508480Y40393046D01*
X7500148Y40398612D01*
X7492237Y40404753D01*
X7444618Y40428563D01*
X7441599Y40429389D01*
X7440585Y40430404D01*
X7430754Y40432359D01*
X7421098Y40435004D01*
X7419738Y40434550D01*
X7416667Y40435162D01*
X7369048Y40435162D01*
X7365976Y40434550D01*
X7364617Y40435004D01*
X7354955Y40432358D01*
X7345130Y40430404D01*
X7344116Y40429390D01*
X7341097Y40428564D01*
X7293478Y40404753D01*
X7285569Y40398614D01*
X7277236Y40393047D01*
X7253426Y40369238D01*
X7247859Y40360907D01*
X7241717Y40352993D01*
X7217908Y40305374D01*
X7216100Y40298772D01*
X7213176Y40292583D01*
X7189366Y40197345D01*
X7188993Y40189695D01*
X7187500Y40182186D01*
X6574406Y40182186D01*
X6574406Y40372662D01*
X6569648Y40396580D01*
X6535824Y40430404D01*
X6487988Y40430404D01*
X6454164Y40396580D01*
X6449406Y40372662D01*
X4010712Y40372662D01*
X4010712Y40497662D01*
X11993887Y40497662D01*
X11993887Y38776023D01*
G37*
%LPC*%
D11*
%TO.C,MP4*%
X14000000Y2000000D03*
%TD*%
%TO.C,MP3*%
X14000000Y78000000D03*
%TD*%
%TO.C,MP2*%
X2000000Y78000000D03*
%TD*%
%TO.C,MP1*%
X2000000Y2000000D03*
%TD*%
%LPD*%
M02*
