%TF.GenerationSoftware,KiCad,Pcbnew,9.0.4*%
%TF.CreationDate,2025-10-20T17:14:21-05:00*%
%TF.ProjectId,Molecule_18650_Jumper,4d6f6c65-6375-46c6-955f-31383635305f,rev?*%
%TF.SameCoordinates,Original*%
%TF.FileFunction,Copper,L2,Bot*%
%TF.FilePolarity,Positive*%
%FSLAX46Y46*%
G04 Gerber Fmt 4.6, Leading zero omitted, Abs format (unit mm)*
G04 Created by KiCad (PCBNEW 9.0.4) date 2025-10-20 17:14:21*
%MOMM*%
%LPD*%
G01*
G04 APERTURE LIST*
%TA.AperFunction,ComponentPad*%
%ADD10C,1.600000*%
%TD*%
G04 APERTURE END LIST*
D10*
%TO.P,MP4,1*%
%TO.N,/jumper*%
X14000000Y2000000D03*
%TD*%
%TO.P,MP3,1*%
%TO.N,/jumper*%
X14000000Y78000000D03*
%TD*%
%TO.P,MP2,1*%
%TO.N,/jumper*%
X2000000Y78000000D03*
%TD*%
%TO.P,MP1,1*%
%TO.N,/jumper*%
X2000000Y2000000D03*
%TD*%
%TA.AperFunction,Conductor*%
%TO.N,/jumper*%
G36*
X14004417Y79599184D02*
G01*
X14023369Y79597828D01*
X14218788Y79583851D01*
X14236299Y79581333D01*
X14441960Y79536595D01*
X14458936Y79531611D01*
X14656150Y79458053D01*
X14672242Y79450703D01*
X14856968Y79349836D01*
X14871853Y79340271D01*
X15040353Y79214133D01*
X15053723Y79202547D01*
X15202547Y79053723D01*
X15214133Y79040353D01*
X15340271Y78871853D01*
X15349836Y78856968D01*
X15450703Y78672242D01*
X15458053Y78656150D01*
X15531611Y78458936D01*
X15536594Y78441963D01*
X15536595Y78441960D01*
X15581333Y78236299D01*
X15583851Y78218788D01*
X15599184Y78004419D01*
X15599500Y77995572D01*
X15599500Y2004427D01*
X15599184Y1995580D01*
X15583851Y1781211D01*
X15581333Y1763700D01*
X15536595Y1558039D01*
X15531611Y1541063D01*
X15458053Y1343849D01*
X15450703Y1327757D01*
X15349836Y1143031D01*
X15340271Y1128146D01*
X15214133Y959646D01*
X15202547Y946276D01*
X15053723Y797452D01*
X15040355Y785867D01*
X14871848Y659724D01*
X14856968Y650163D01*
X14672242Y549296D01*
X14656150Y541946D01*
X14458928Y468385D01*
X14441969Y463406D01*
X14236296Y418665D01*
X14218791Y416148D01*
X14012013Y401359D01*
X14004418Y400816D01*
X13995572Y400500D01*
X2004428Y400500D01*
X1995582Y400816D01*
X1989378Y401259D01*
X1781206Y416148D01*
X1763705Y418665D01*
X1558026Y463407D01*
X1541075Y468384D01*
X1343844Y541948D01*
X1327757Y549296D01*
X1143015Y650172D01*
X1128157Y659720D01*
X1062237Y709067D01*
X1840437Y709067D01*
X1840438Y709066D01*
X1897682Y700000D01*
X2102317Y700000D01*
X2159560Y709066D01*
X2159561Y709067D01*
X13840437Y709067D01*
X13840438Y709066D01*
X13897682Y700000D01*
X14102317Y700000D01*
X14159560Y709066D01*
X14159561Y709068D01*
X14000001Y868629D01*
X14000000Y868629D01*
X13840437Y709067D01*
X2159561Y709067D01*
X2159561Y709068D01*
X2000001Y868629D01*
X2000000Y868629D01*
X1840437Y709067D01*
X1062237Y709067D01*
X959637Y785873D01*
X946283Y797445D01*
X797445Y946283D01*
X785873Y959637D01*
X659720Y1128157D01*
X650166Y1143025D01*
X549295Y1327757D01*
X541946Y1343849D01*
X468384Y1541075D01*
X463407Y1558026D01*
X418665Y1763705D01*
X416148Y1781212D01*
X407817Y1897688D01*
X400815Y1995582D01*
X400500Y2004427D01*
X400500Y2102317D01*
X700000Y2102317D01*
X700000Y1897682D01*
X709066Y1840438D01*
X709067Y1840437D01*
X868629Y1999999D01*
X868629Y2000000D01*
X789638Y2078991D01*
X1400000Y2078991D01*
X1400000Y1921009D01*
X1440889Y1768409D01*
X1519881Y1631592D01*
X1631592Y1519881D01*
X1768409Y1440889D01*
X1921009Y1400000D01*
X2078991Y1400000D01*
X2231591Y1440889D01*
X2368408Y1519881D01*
X2480119Y1631592D01*
X2559111Y1768409D01*
X2600000Y1921009D01*
X2600000Y1999999D01*
X3131370Y1999999D01*
X3290932Y1840438D01*
X3300000Y1897688D01*
X3300000Y2102310D01*
X3299999Y2102317D01*
X12700000Y2102317D01*
X12700000Y1897682D01*
X12709066Y1840438D01*
X12709067Y1840437D01*
X12868629Y1999999D01*
X12868629Y2000000D01*
X12789638Y2078991D01*
X13400000Y2078991D01*
X13400000Y1921009D01*
X13440889Y1768409D01*
X13519881Y1631592D01*
X13631592Y1519881D01*
X13768409Y1440889D01*
X13921009Y1400000D01*
X14078991Y1400000D01*
X14231591Y1440889D01*
X14368408Y1519881D01*
X14480119Y1631592D01*
X14559111Y1768409D01*
X14600000Y1921009D01*
X14600000Y1999999D01*
X15131370Y1999999D01*
X15290932Y1840438D01*
X15300000Y1897688D01*
X15300000Y2102310D01*
X15290931Y2159559D01*
X15131370Y1999999D01*
X14600000Y1999999D01*
X14600000Y2078991D01*
X14559111Y2231591D01*
X14480119Y2368408D01*
X14368408Y2480119D01*
X14231591Y2559111D01*
X14078991Y2600000D01*
X13921009Y2600000D01*
X13768409Y2559111D01*
X13631592Y2480119D01*
X13519881Y2368408D01*
X13440889Y2231591D01*
X13400000Y2078991D01*
X12789638Y2078991D01*
X12709068Y2159561D01*
X12709066Y2159560D01*
X12700000Y2102317D01*
X3299999Y2102317D01*
X3290931Y2159559D01*
X3131370Y1999999D01*
X2600000Y1999999D01*
X2600000Y2078991D01*
X2559111Y2231591D01*
X2480119Y2368408D01*
X2368408Y2480119D01*
X2231591Y2559111D01*
X2078991Y2600000D01*
X1921009Y2600000D01*
X1768409Y2559111D01*
X1631592Y2480119D01*
X1519881Y2368408D01*
X1440889Y2231591D01*
X1400000Y2078991D01*
X789638Y2078991D01*
X709068Y2159561D01*
X709066Y2159560D01*
X700000Y2102317D01*
X400500Y2102317D01*
X400500Y3290932D01*
X1840438Y3290932D01*
X1999999Y3131370D01*
X2159560Y3290931D01*
X2159554Y3290932D01*
X13840438Y3290932D01*
X13999999Y3131370D01*
X14159560Y3290931D01*
X14102311Y3300000D01*
X13897688Y3300000D01*
X13840438Y3290932D01*
X2159554Y3290932D01*
X2102311Y3300000D01*
X1897688Y3300000D01*
X1840438Y3290932D01*
X400500Y3290932D01*
X400500Y76709067D01*
X1840437Y76709067D01*
X1840438Y76709066D01*
X1897682Y76700000D01*
X2102317Y76700000D01*
X2159560Y76709066D01*
X2159561Y76709067D01*
X13840437Y76709067D01*
X13840438Y76709066D01*
X13897682Y76700000D01*
X14102317Y76700000D01*
X14159560Y76709066D01*
X14159561Y76709068D01*
X14000001Y76868629D01*
X14000000Y76868629D01*
X13840437Y76709067D01*
X2159561Y76709067D01*
X2159561Y76709068D01*
X2000001Y76868629D01*
X2000000Y76868629D01*
X1840437Y76709067D01*
X400500Y76709067D01*
X400500Y77995572D01*
X400816Y78004418D01*
X407818Y78102317D01*
X700000Y78102317D01*
X700000Y77897682D01*
X709066Y77840438D01*
X709067Y77840437D01*
X868629Y77999999D01*
X868629Y78000000D01*
X789638Y78078991D01*
X1400000Y78078991D01*
X1400000Y77921009D01*
X1440889Y77768409D01*
X1519881Y77631592D01*
X1631592Y77519881D01*
X1768409Y77440889D01*
X1921009Y77400000D01*
X2078991Y77400000D01*
X2231591Y77440889D01*
X2368408Y77519881D01*
X2480119Y77631592D01*
X2559111Y77768409D01*
X2600000Y77921009D01*
X2600000Y77999999D01*
X3131370Y77999999D01*
X3290932Y77840438D01*
X3300000Y77897688D01*
X3300000Y78102310D01*
X3299999Y78102317D01*
X12700000Y78102317D01*
X12700000Y77897682D01*
X12709066Y77840438D01*
X12709067Y77840437D01*
X12868629Y77999999D01*
X12868629Y78000000D01*
X12789638Y78078991D01*
X13400000Y78078991D01*
X13400000Y77921009D01*
X13440889Y77768409D01*
X13519881Y77631592D01*
X13631592Y77519881D01*
X13768409Y77440889D01*
X13921009Y77400000D01*
X14078991Y77400000D01*
X14231591Y77440889D01*
X14368408Y77519881D01*
X14480119Y77631592D01*
X14559111Y77768409D01*
X14600000Y77921009D01*
X14600000Y77999999D01*
X15131370Y77999999D01*
X15290932Y77840438D01*
X15300000Y77897688D01*
X15300000Y78102310D01*
X15290931Y78159559D01*
X15131370Y77999999D01*
X14600000Y77999999D01*
X14600000Y78078991D01*
X14559111Y78231591D01*
X14480119Y78368408D01*
X14368408Y78480119D01*
X14231591Y78559111D01*
X14078991Y78600000D01*
X13921009Y78600000D01*
X13768409Y78559111D01*
X13631592Y78480119D01*
X13519881Y78368408D01*
X13440889Y78231591D01*
X13400000Y78078991D01*
X12789638Y78078991D01*
X12709068Y78159561D01*
X12709066Y78159560D01*
X12700000Y78102317D01*
X3299999Y78102317D01*
X3290931Y78159559D01*
X3131370Y77999999D01*
X2600000Y77999999D01*
X2600000Y78078991D01*
X2559111Y78231591D01*
X2480119Y78368408D01*
X2368408Y78480119D01*
X2231591Y78559111D01*
X2078991Y78600000D01*
X1921009Y78600000D01*
X1768409Y78559111D01*
X1631592Y78480119D01*
X1519881Y78368408D01*
X1440889Y78231591D01*
X1400000Y78078991D01*
X789638Y78078991D01*
X709068Y78159561D01*
X709066Y78159560D01*
X700000Y78102317D01*
X407818Y78102317D01*
X408799Y78116030D01*
X416148Y78218787D01*
X418666Y78236299D01*
X463406Y78441968D01*
X468387Y78458934D01*
X541946Y78656153D01*
X549293Y78672241D01*
X650165Y78856972D01*
X659730Y78871855D01*
X785863Y79040350D01*
X797449Y79053721D01*
X946278Y79202550D01*
X959649Y79214136D01*
X1062237Y79290932D01*
X1840438Y79290932D01*
X1999999Y79131370D01*
X2159560Y79290931D01*
X2159554Y79290932D01*
X13840438Y79290932D01*
X13999999Y79131370D01*
X14159560Y79290931D01*
X14102311Y79300000D01*
X13897688Y79300000D01*
X13840438Y79290932D01*
X2159554Y79290932D01*
X2102311Y79300000D01*
X1897688Y79300000D01*
X1840438Y79290932D01*
X1062237Y79290932D01*
X1128144Y79340269D01*
X1143027Y79349834D01*
X1172292Y79365814D01*
X1327758Y79450706D01*
X1343852Y79458056D01*
X1541061Y79531610D01*
X1558036Y79536594D01*
X1763700Y79581333D01*
X1781211Y79583851D01*
X1974407Y79597669D01*
X1995582Y79599184D01*
X2004428Y79599500D01*
X2057583Y79599500D01*
X13942417Y79599500D01*
X13995572Y79599500D01*
X14004417Y79599184D01*
G37*
%TD.AperFunction*%
%TD*%
M02*
