M48
; DRILL file {KiCad 9.0.4} date 2025-10-28T13:54:02-0500
; FORMAT={-:-/ absolute / inch / decimal}
; #@! TF.CreationDate,2025-10-28T13:54:02-05:00
; #@! TF.GenerationSoftware,Kicad,Pcbnew,9.0.4
; #@! TF.FileFunction,Plated,1,4,PTH
FMAT,2
INCH
; #@! TA.AperFunction,Plated,PTH,ViaDrill
T1C0.0079
; #@! TA.AperFunction,Plated,PTH,ViaDrill
T2C0.0100
; #@! TA.AperFunction,Plated,PTH,ComponentDrill
T3C0.0319
; #@! TA.AperFunction,Plated,PTH,ComponentDrill
T4C0.0350
; #@! TA.AperFunction,Plated,PTH,ComponentDrill
T5C0.0400
; #@! TA.AperFunction,Plated,PTH,ComponentDrill
T6C0.0402
; #@! TA.AperFunction,Plated,PTH,ComponentDrill
T7C0.0433
; #@! TA.AperFunction,Plated,PTH,ComponentDrill
T8C0.0453
; #@! TA.AperFunction,Plated,PTH,ComponentDrill
T9C0.0500
; #@! TA.AperFunction,Plated,PTH,ComponentDrill
T10C0.0630
; #@! TA.AperFunction,Plated,PTH,ComponentDrill
T11C0.1358
%
G90
G05
T1
X-1.9076Y12.2411
X-1.9076Y12.2011
X-1.9076Y12.1611
X-1.9076Y12.1211
X-1.8676Y12.2411
X-1.8676Y12.2011
X-1.8676Y12.1611
X-1.8676Y12.1211
X-1.865Y11.4811
X-1.865Y10.9611
X-1.865Y10.4611
X-1.865Y9.9611
X-1.8276Y12.2411
X-1.8276Y12.2011
X-1.8276Y12.1611
X-1.8276Y12.1211
X-1.8276Y11.5185
X-1.8276Y11.4811
X-1.8276Y11.4437
X-1.8276Y10.9985
X-1.8276Y10.9611
X-1.8276Y10.9237
X-1.8276Y10.4985
X-1.8276Y10.4611
X-1.8276Y10.4237
X-1.8276Y9.9985
X-1.8276Y9.9611
X-1.8276Y9.9237
X-1.7902Y11.4811
X-1.7902Y10.9611
X-1.7902Y10.4611
X-1.7902Y9.9611
T2
X-2.3626Y9.5011
X-2.3626Y9.4611
X-2.3238Y8.9686
X-2.2946Y11.6771
X-2.1846Y9.1457
X-2.1376Y12.3461
X-2.1211Y11.7161
X-2.1211Y9.9011
X-2.1026Y11.0311
X-2.0811Y10.5311
X-2.0526Y11.5911
X-1.9946Y11.8771
X-1.9695Y8.8771
X-1.9676Y11.0311
X-1.9676Y10.5311
X-1.9676Y10.0311
X-1.9552Y9.0771
X-1.8946Y9.6771
X-1.8946Y8.8771
X-1.7946Y11.8771
X-1.7626Y11.4961
X-1.7626Y11.4661
X-1.7626Y10.9761
X-1.7626Y10.9461
X-1.7626Y10.4761
X-1.7626Y10.4461
X-1.7626Y9.9761
X-1.7626Y9.9461
X-1.7526Y12.1811
X-1.7526Y12.1311
X-1.7526Y12.0811
X-1.7526Y12.0511
X-1.7526Y12.0211
X-1.7381Y12.2861
X-1.7226Y12.1811
X-1.7226Y12.1311
X-1.7226Y12.0811
X-1.7226Y12.0511
X-1.7226Y12.0211
X-1.6946Y9.6771
X-1.6946Y8.8771
X-1.6776Y11.3661
X-1.5626Y11.6011
X-1.5626Y11.5711
X-1.5626Y11.5411
X-1.5626Y10.8911
X-1.5626Y10.3911
X-1.5626Y9.8861
X-1.5526Y12.6561
X-1.5526Y12.6261
X-1.5526Y12.5961
X-1.5526Y12.5661
X-1.5226Y12.7461
X-1.5226Y12.7161
X-1.5226Y12.6861
X-1.5226Y12.6561
X-1.5226Y12.6261
X-1.5226Y12.5961
X-1.5126Y12.4561
X-1.5076Y11.9361
X-1.4976Y12.4811
X-1.4976Y11.6761
X-1.4976Y11.6461
X-1.4976Y11.6161
X-1.4946Y9.6771
X-1.4946Y8.8771
X-1.4876Y11.5211
X-1.4826Y12.4561
X-1.4676Y12.4811
X-1.4526Y12.4561
X-1.4081Y12.6466
X-1.2946Y10.8771
X-1.2946Y9.6771
X-1.2946Y8.8771
X-1.2576Y12.7461
X-1.2576Y12.7161
X-1.2576Y12.6861
X-1.2326Y10.8811
X-1.2326Y10.8511
X-1.2326Y10.8211
X-1.2026Y12.2111
X-1.2026Y12.1111
X-1.2026Y12.0111
X-1.1781Y12.4637
X-1.1026Y12.3111
X-1.1026Y12.2111
X-1.1026Y12.1111
X-1.1026Y12.0111
X-1.0946Y9.6771
X-1.0946Y8.8771
X-1.0676Y10.7611
X-1.0026Y12.3111
X-1.0026Y12.2111
X-1.0026Y12.1111
X-1.0026Y12.0111
X-0.9946Y9.8771
X-0.9946Y9.0771
X-0.9676Y10.7611
X-0.9126Y12.7661
X-0.9026Y12.3111
X-0.9026Y12.2111
X-0.9026Y12.1111
X-0.9026Y12.0111
X-0.8946Y8.8771
X-0.8426Y12.7661
X-0.8291Y11.8226
X-0.8026Y12.3111
X-0.8026Y12.2111
X-0.8026Y12.1111
X-0.8026Y12.0111
X-0.7946Y11.4771
X-0.7946Y10.2771
X-0.7946Y9.0771
X-0.7052Y11.8911
X-0.7026Y12.3111
X-0.7026Y12.2111
X-0.7026Y12.1111
X-0.7026Y12.0111
X-0.6946Y9.2771
X-0.6946Y8.8771
X-0.6926Y12.7661
X-0.6626Y12.7661
X-0.6326Y12.7661
X-0.5946Y9.0771
X-0.4946Y10.4771
X-0.4946Y9.2771
X-0.4476Y10.7711
X-0.4476Y10.6761
X-0.4476Y10.5811
X-0.4476Y10.4861
X-0.4275Y9.5461
X-0.4148Y12.4161
X-0.4148Y12.1161
X-0.4076Y12.5361
X-0.4076Y12.5061
X-0.3776Y12.5361
X-0.3776Y12.5061
X-0.3776Y12.4761
X-0.2946Y9.2771
X-0.2946Y8.8771
X-0.2826Y12.3161
X-0.2826Y12.2861
X-0.2826Y12.2561
X-0.2826Y12.0361
X-0.2826Y12.0061
X-0.2826Y11.9761
X-0.2826Y9.5905
X-0.2825Y9.6534
X-0.2526Y12.3761
X-0.2526Y12.3461
X-0.2526Y12.3161
X-0.2526Y12.0811
X-0.2526Y12.0511
X-0.2526Y11.9611
X-0.2526Y11.9311
X-0.2526Y10.8782
X-0.2328Y12.8375
X-0.2226Y12.3161
X-0.2226Y12.2861
X-0.2226Y12.2561
X-0.2226Y12.0361
X-0.2226Y12.0061
X-0.2226Y11.9761
X-0.2076Y10.4411
X-0.1946Y9.8771
X-0.1946Y9.4771
X-0.1628Y12.8375
X-0.0976Y10.9211
X-0.0976Y10.4511
X-0.0946Y12.0771
X-0.0946Y9.6771
X-0.0946Y9.2771
X-0.0726Y12.5561
X-0.0726Y12.4961
X-0.0626Y9.0546
X-0.0576Y10.3061
X-0.0426Y12.5561
X-0.0426Y12.5261
X-0.0426Y12.4961
X-0.0376Y10.0161
X-0.0291Y10.1611
X-0.0226Y10.3061
X-0.0026Y10.9211
X0.0054Y12.6771
X0.0054Y11.8771
X0.0274Y9.1561
X0.0574Y12.0061
X0.0574Y11.9461
X0.0624Y9.0546
X0.0774Y9.6576
X0.0774Y9.5946
X0.0874Y12.0061
X0.0874Y11.9461
X0.0924Y10.9211
X0.1054Y12.4771
X0.1054Y8.8771
X0.1174Y12.0061
X0.1174Y11.9761
X0.1174Y11.9461
X0.1174Y10.3411
X0.1224Y9.5561
X0.1674Y9.5946
X0.1675Y9.6576
X0.1874Y10.9211
X0.1874Y10.4011
X0.1974Y10.2661
X0.2024Y9.8161
X0.2054Y12.6771
X0.2054Y12.2771
X0.2054Y11.8771
X0.2174Y10.0111
X0.2374Y10.3511
X0.2374Y10.0361
X0.2674Y10.0461
X0.2724Y10.3011
X0.2724Y10.2111
X0.2774Y10.0761
X0.2824Y10.9211
X0.3054Y8.8771
X0.3074Y10.3209
X0.3268Y9.9105
X0.3274Y10.1447
X0.3274Y9.9734
X0.3774Y10.9211
X0.4054Y11.4771
X0.4054Y9.0771
X0.4174Y9.9105
X0.4175Y9.9734
X0.4324Y10.2861
X0.4474Y10.0861
X0.4474Y10.0561
X0.4724Y10.9211
X0.4774Y10.0861
X0.4774Y10.0561
X0.5054Y10.0771
X0.5054Y8.8771
X0.5474Y10.3561
X0.5474Y10.3261
X0.5474Y10.2961
X0.5474Y10.2661
X0.5574Y11.7661
X0.5674Y10.9211
X0.6054Y11.4771
X0.6054Y9.0771
X0.6074Y12.4711
X0.6624Y10.9211
X0.6974Y10.3396
X0.7054Y8.8771
X0.7224Y9.8511
X0.7695Y10.7311
X0.8054Y12.2771
X0.8054Y9.0771
X0.8124Y10.5811
X0.8124Y10.4861
X0.8624Y11.9811
X0.8974Y8.9346
X0.9054Y12.0771
X0.9054Y10.4771
X0.9224Y9.8511
X0.9317Y9.1503
X1.0124Y8.9346
X1.1274Y8.9346
X1.1974Y9.1511
X1.2524Y9.1511
X1.2724Y11.8311
X1.2724Y11.5311
X1.3374Y9.3761
X1.3524Y12.0811
X1.3774Y9.1011
X1.3974Y11.5311
X1.4024Y9.0561
X1.4024Y9.0161
X1.4074Y9.2611
X1.4074Y9.1261
X1.4174Y9.8511
X1.4589Y11.1911
X1.4589Y10.9911
X1.4589Y10.7911
X1.4589Y10.5911
X1.4724Y9.4761
X1.4724Y9.2611
X1.5024Y9.2611
X1.5324Y9.2611
X1.5474Y10.5511
X1.5674Y10.1711
X1.5674Y9.3211
X1.5924Y10.0061
X1.6054Y12.2771
X1.6124Y10.5137
X1.6174Y10.1861
X1.6174Y9.3211
X1.6342Y10.0061
X1.6488Y10.1461
X1.6759Y10.0061
X1.6974Y12.5961
X1.6974Y9.7411
X1.6974Y9.6911
X1.6974Y9.6211
X1.7024Y9.4611
X1.7024Y9.4175
X1.7054Y12.4771
X1.7054Y11.2771
X1.7061Y10.6711
X1.7124Y12.7611
X1.7361Y10.1861
X1.7674Y11.4411
X1.7674Y9.1611
X1.7754Y8.9319
X1.7824Y12.7611
X1.8054Y12.2771
X1.8054Y11.8771
X1.8054Y11.4771
X1.8054Y11.0771
X1.8064Y8.9319
X1.8108Y10.6711
X1.8124Y9.1611
X1.8224Y9.0311
X1.8374Y9.4811
X1.8574Y10.5261
X1.8581Y10.6711
X1.8774Y9.4811
X1.8824Y10.5511
X1.8874Y9.8011
X1.9054Y12.4771
X1.9054Y11.6771
X1.9054Y11.2771
X1.9224Y9.7161
X1.9224Y9.4811
X1.9274Y9.7611
X1.9424Y9.8011
X1.9524Y9.6831
X1.9524Y9.6438
X1.9624Y9.4811
X1.9924Y9.0761
X1.9974Y12.5961
X2.0054Y11.8771
X2.0054Y11.4771
X2.0054Y11.0771
X2.0072Y9.5911
X2.0124Y12.7611
X2.0824Y12.7611
X2.1054Y12.4771
X2.1411Y9.6311
X2.1447Y12.6497
X2.1974Y11.0961
X2.1974Y10.9461
X2.2024Y9.8061
X2.2024Y9.7761
X2.2054Y12.2771
X2.2054Y11.8771
X2.2054Y11.4771
X2.2274Y11.0961
X2.2274Y10.9461
X2.2524Y12.1161
X2.2524Y11.9161
X2.2574Y11.0961
X2.2574Y10.9461
X2.3054Y12.4771
X2.3424Y9.8361
X2.3524Y9.5311
X2.3524Y9.5011
X2.3624Y9.7961
X2.3674Y9.5611
X2.3874Y9.6611
X2.4054Y12.2771
X2.4054Y11.4771
X2.4054Y11.0771
X2.4424Y9.9861
X2.4524Y12.0961
X2.4524Y12.0661
X2.4524Y12.0361
X2.4524Y11.9961
X2.4524Y11.9661
X2.4524Y11.9361
X2.4596Y12.6694
T3
X-2.2626Y12.0319
X-2.2626Y11.4807
X-2.2626Y11.3429
X-2.2626Y11.083
X-2.2626Y10.9452
X-2.2626Y10.8074
X-2.2626Y10.6696
X-2.2586Y11.8941
X-2.2586Y11.7563
X-2.2586Y11.6185
X-2.2586Y10.5319
X-2.2586Y10.2799
X-2.2586Y10.0004
X-2.2586Y9.8626
X-2.2586Y9.7248
X-2.2586Y9.583
X-2.2586Y10.1382
X-2.0276Y12.0861
X-1.6576Y11.7411
X-1.6176Y12.3361
X-1.3526Y11.6861
X-1.1926Y12.6661
X-1.1126Y12.3661
X-0.7026Y11.6611
X-0.7026Y11.5011
X-0.7026Y10.3561
X-0.7026Y10.2361
X-0.4076Y9.3211
X-0.2676Y11.8561
X-0.2176Y10.3361
X-0.2176Y10.2561
X-0.1576Y10.1061
X-0.1576Y9.9711
X-0.0526Y9.8661
X0.0374Y9.3211
X0.0524Y9.8661
X0.4124Y12.0111
X0.4124Y11.8111
X0.4124Y11.6111
X0.6874Y10.2611
X0.6874Y10.1311
X0.6924Y12.2211
X0.6924Y12.0111
X0.6924Y11.8111
X0.6924Y11.6111
X0.8324Y10.4011
X0.8974Y10.2611
X0.8974Y10.1373
X1.1674Y11.2811
X1.1674Y11.0811
X1.1674Y10.8811
X1.1674Y10.6811
X1.7224Y10.3111
T4
X-0.3476Y10.1061
X-0.3476Y9.9711
X-0.2476Y10.1061
X-0.2476Y9.9711
T5
X0.2974Y9.3211
X0.3874Y12.6611
X0.3974Y9.3211
X0.4874Y12.6611
X0.4974Y9.3211
X0.5874Y12.6611
X0.5974Y9.3211
X0.6874Y12.6611
X0.6974Y9.5211
X0.6974Y9.3211
X0.7874Y12.6611
X0.7974Y9.5211
X0.7974Y9.3211
X0.8974Y9.5211
X0.8974Y9.3211
X0.9674Y12.6611
X0.9974Y9.5211
X0.9974Y9.3211
X1.0674Y12.6611
X1.0974Y9.5211
X1.0974Y9.3211
X1.1674Y12.6611
X1.1974Y9.5211
X1.1974Y9.3211
X1.2674Y12.6611
X1.2924Y11.2811
X1.2924Y11.0811
X1.2924Y10.8811
X1.2924Y10.6811
X1.2924Y10.4811
X1.2924Y10.2811
X1.2974Y9.5211
X1.2974Y9.3211
X1.3674Y12.6611
X1.3924Y11.2811
X1.3924Y11.0811
X1.3924Y10.8811
X1.3924Y10.6811
X1.3924Y10.4811
X1.3924Y10.2811
X1.4674Y12.6611
X1.6474Y12.6611
X1.7474Y12.6611
X1.8474Y12.6611
X1.9474Y12.6611
X2.0474Y12.6611
X2.4524Y10.8161
X2.4524Y10.7161
X2.4524Y10.6161
X2.4524Y10.5161
X2.4524Y10.4161
T6
X2.323Y12.1661
X2.323Y12.0661
X2.323Y11.9661
X2.323Y11.8661
X2.4474Y9.8111
X2.4474Y9.7111
X2.4474Y9.6111
X2.4474Y9.5111
T7
X-0.3342Y12.7481
X-0.1964Y12.7481
X-0.0587Y12.7481
X0.0791Y12.7481
T8
X2.0274Y9.4411
X2.1274Y9.4411
T9
X-1.0166Y12.6456
X-0.8786Y12.6456
T10
X-2.2576Y12.2361
X-2.2576Y9.3861
X-1.7626Y11.9411
X-1.6526Y9.7611
X-0.5776Y9.3211
X0.8974Y12.3111
X1.3024Y8.9111
X1.6524Y9.1111
T11
X-2.127Y12.7481
X-2.127Y8.9686
X2.2825Y12.7481
X2.2825Y8.9686
M30
