%TF.GenerationSoftware,KiCad,Pcbnew,9.0.4*%
%TF.CreationDate,2025-10-28T13:54:02-05:00*%
%TF.ProjectId,Molecule_BQ76952 - v2,4d6f6c65-6375-46c6-955f-425137363935,rev?*%
%TF.SameCoordinates,Original*%
%TF.FileFunction,Soldermask,Top*%
%TF.FilePolarity,Negative*%
%FSLAX46Y46*%
G04 Gerber Fmt 4.6, Leading zero omitted, Abs format (unit mm)*
G04 Created by KiCad (PCBNEW 9.0.4) date 2025-10-28 13:54:02*
%MOMM*%
%LPD*%
G01*
G04 APERTURE LIST*
G04 Aperture macros list*
%AMRoundRect*
0 Rectangle with rounded corners*
0 $1 Rounding radius*
0 $2 $3 $4 $5 $6 $7 $8 $9 X,Y pos of 4 corners*
0 Add a 4 corners polygon primitive as box body*
4,1,4,$2,$3,$4,$5,$6,$7,$8,$9,$2,$3,0*
0 Add four circle primitives for the rounded corners*
1,1,$1+$1,$2,$3*
1,1,$1+$1,$4,$5*
1,1,$1+$1,$6,$7*
1,1,$1+$1,$8,$9*
0 Add four rect primitives between the rounded corners*
20,1,$1+$1,$2,$3,$4,$5,0*
20,1,$1+$1,$4,$5,$6,$7,0*
20,1,$1+$1,$6,$7,$8,$9,0*
20,1,$1+$1,$8,$9,$2,$3,0*%
%AMFreePoly0*
4,1,15,1.899497,1.449497,1.904091,1.444432,3.054091,0.044432,3.069666,-0.006830,3.044432,-0.054091,3.000000,-0.070000,0.000000,-0.070000,-0.049497,-0.049497,-0.070000,0.000000,-0.054091,0.044432,1.095909,1.444432,1.143170,1.469666,1.150000,1.470000,1.850000,1.470000,1.899497,1.449497,1.899497,1.449497,$1*%
%AMFreePoly1*
4,1,13,0.035355,0.835355,0.050000,0.800000,0.050000,0.000000,0.035355,-0.035355,0.000000,-0.050000,-0.500000,-0.050000,-0.535355,-0.035355,-0.550000,0.000000,-0.550000,0.800000,-0.535355,0.835355,-0.500000,0.850000,0.000000,0.850000,0.035355,0.835355,0.035355,0.835355,$1*%
%AMFreePoly2*
4,1,21,3.897855,0.901855,3.912500,0.866500,3.912500,-0.866500,3.897855,-0.901855,3.862500,-0.916500,0.737500,-0.916500,0.702145,-0.901855,0.687500,-0.866500,0.687500,-0.500000,-0.737500,-0.500000,-0.772855,-0.485355,-0.787500,-0.450000,-0.787500,0.450000,-0.772855,0.485355,-0.737500,0.500000,0.687500,0.500000,0.687500,0.866500,0.702145,0.901855,0.737500,0.916500,3.862500,0.916500,
3.897855,0.901855,3.897855,0.901855,$1*%
G04 Aperture macros list end*
%ADD10C,0.203200*%
%ADD11C,1.400000*%
%ADD12RoundRect,0.050000X0.575000X0.375000X-0.575000X0.375000X-0.575000X-0.375000X0.575000X-0.375000X0*%
%ADD13RoundRect,0.050000X0.475000X0.700000X-0.475000X0.700000X-0.475000X-0.700000X0.475000X-0.700000X0*%
%ADD14C,0.900000*%
%ADD15C,2.000000*%
%ADD16C,5.300000*%
%ADD17RoundRect,0.050000X-0.225000X-0.690000X0.225000X-0.690000X0.225000X0.690000X-0.225000X0.690000X0*%
%ADD18RoundRect,0.050000X-0.737500X-1.050000X0.737500X-1.050000X0.737500X1.050000X-0.737500X1.050000X0*%
%ADD19RoundRect,0.050000X-1.187500X-0.975000X1.187500X-0.975000X1.187500X0.975000X-1.187500X0.975000X0*%
%ADD20RoundRect,0.050000X-0.587500X-0.975000X0.587500X-0.975000X0.587500X0.975000X-0.587500X0.975000X0*%
%ADD21RoundRect,0.051000X0.799000X0.799000X-0.799000X0.799000X-0.799000X-0.799000X0.799000X-0.799000X0*%
%ADD22C,1.700000*%
%ADD23RoundRect,0.050000X-0.775000X-0.775000X0.775000X-0.775000X0.775000X0.775000X-0.775000X0.775000X0*%
%ADD24C,1.650000*%
%ADD25RoundRect,0.056000X0.744000X0.744000X-0.744000X0.744000X-0.744000X-0.744000X0.744000X-0.744000X0*%
%ADD26C,1.600000*%
%ADD27RoundRect,0.050000X0.444500X0.254000X-0.444500X0.254000X-0.444500X-0.254000X0.444500X-0.254000X0*%
%ADD28RoundRect,0.050000X0.300000X0.400000X-0.300000X0.400000X-0.300000X-0.400000X0.300000X-0.400000X0*%
%ADD29RoundRect,0.050000X-0.800000X-0.550000X0.800000X-0.550000X0.800000X0.550000X-0.800000X0.550000X0*%
%ADD30RoundRect,0.050000X-0.500000X0.475000X-0.500000X-0.475000X0.500000X-0.475000X0.500000X0.475000X0*%
%ADD31RoundRect,0.050000X0.825500X0.825500X-0.825500X0.825500X-0.825500X-0.825500X0.825500X-0.825500X0*%
%ADD32C,1.751000*%
%ADD33RoundRect,0.050000X-0.475000X-0.500000X0.475000X-0.500000X0.475000X0.500000X-0.475000X0.500000X0*%
%ADD34RoundRect,0.050000X0.635000X0.800100X-0.635000X0.800100X-0.635000X-0.800100X0.635000X-0.800100X0*%
%ADD35RoundRect,0.050000X-0.925000X-0.650000X0.925000X-0.650000X0.925000X0.650000X-0.925000X0.650000X0*%
%ADD36RoundRect,0.050000X-0.254000X0.444500X-0.254000X-0.444500X0.254000X-0.444500X0.254000X0.444500X0*%
%ADD37RoundRect,0.050000X0.400000X-0.300000X0.400000X0.300000X-0.400000X0.300000X-0.400000X-0.300000X0*%
%ADD38C,2.309800*%
%ADD39RoundRect,0.050000X0.650000X-0.925000X0.650000X0.925000X-0.650000X0.925000X-0.650000X-0.925000X0*%
%ADD40RoundRect,0.050000X-0.650000X0.925000X-0.650000X-0.925000X0.650000X-0.925000X0.650000X0.925000X0*%
%ADD41RoundRect,0.050000X0.400000X-0.400000X0.400000X0.400000X-0.400000X0.400000X-0.400000X-0.400000X0*%
%ADD42RoundRect,0.050000X-0.444500X-0.254000X0.444500X-0.254000X0.444500X0.254000X-0.444500X0.254000X0*%
%ADD43RoundRect,0.050000X1.700000X0.650000X-1.700000X0.650000X-1.700000X-0.650000X1.700000X-0.650000X0*%
%ADD44RoundRect,0.054800X-0.630200X-1.475200X0.630200X-1.475200X0.630200X1.475200X-0.630200X1.475200X0*%
%ADD45O,0.400000X1.550000*%
%ADD46O,1.550000X0.400000*%
%ADD47RoundRect,0.050000X-1.700000X-0.650000X1.700000X-0.650000X1.700000X0.650000X-1.700000X0.650000X0*%
%ADD48RoundRect,0.050000X-0.300000X-0.400000X0.300000X-0.400000X0.300000X0.400000X-0.300000X0.400000X0*%
%ADD49RoundRect,0.050000X0.500000X-0.475000X0.500000X0.475000X-0.500000X0.475000X-0.500000X-0.475000X0*%
%ADD50RoundRect,0.050000X0.650000X-1.700000X0.650000X1.700000X-0.650000X1.700000X-0.650000X-1.700000X0*%
%ADD51RoundRect,0.437500X-0.437500X-0.437500X0.437500X-0.437500X0.437500X0.437500X-0.437500X0.437500X0*%
%ADD52C,1.750000*%
%ADD53RoundRect,0.050000X-0.800100X0.635000X-0.800100X-0.635000X0.800100X-0.635000X0.800100X0.635000X0*%
%ADD54RoundRect,0.050000X-0.635000X-0.800100X0.635000X-0.800100X0.635000X0.800100X-0.635000X0.800100X0*%
%ADD55RoundRect,0.050000X-0.775000X0.775000X-0.775000X-0.775000X0.775000X-0.775000X0.775000X0.775000X0*%
%ADD56RoundRect,0.050000X0.600000X0.325000X-0.600000X0.325000X-0.600000X-0.325000X0.600000X-0.325000X0*%
%ADD57RoundRect,0.050000X0.250000X0.350000X-0.250000X0.350000X-0.250000X-0.350000X0.250000X-0.350000X0*%
%ADD58RoundRect,0.050000X2.250000X2.350000X-2.250000X2.350000X-2.250000X-2.350000X2.250000X-2.350000X0*%
%ADD59RoundRect,0.054800X1.475200X-0.630200X1.475200X0.630200X-1.475200X0.630200X-1.475200X-0.630200X0*%
%ADD60RoundRect,0.050000X-0.400000X0.300000X-0.400000X-0.300000X0.400000X-0.300000X0.400000X0.300000X0*%
%ADD61RoundRect,0.050000X0.800100X-0.635000X0.800100X0.635000X-0.800100X0.635000X-0.800100X-0.635000X0*%
%ADD62RoundRect,0.050000X0.457500X0.610000X-0.457500X0.610000X-0.457500X-0.610000X0.457500X-0.610000X0*%
%ADD63RoundRect,0.050000X-0.600000X-0.325000X0.600000X-0.325000X0.600000X0.325000X-0.600000X0.325000X0*%
%ADD64RoundRect,0.050000X-0.250000X-0.350000X0.250000X-0.350000X0.250000X0.350000X-0.250000X0.350000X0*%
%ADD65RoundRect,0.050000X-2.250000X-2.350000X2.250000X-2.350000X2.250000X2.350000X-2.250000X2.350000X0*%
%ADD66RoundRect,0.050000X-1.400000X-0.750000X1.400000X-0.750000X1.400000X0.750000X-1.400000X0.750000X0*%
%ADD67RoundRect,0.050000X-1.400000X-0.500000X1.400000X-0.500000X1.400000X0.500000X-1.400000X0.500000X0*%
%ADD68RoundRect,0.050000X0.775000X-0.775000X0.775000X0.775000X-0.775000X0.775000X-0.775000X-0.775000X0*%
%ADD69RoundRect,0.050000X-0.950000X-3.800000X0.950000X-3.800000X0.950000X3.800000X-0.950000X3.800000X0*%
%ADD70RoundRect,0.050000X-0.750000X-0.750000X0.750000X-0.750000X0.750000X0.750000X-0.750000X0.750000X0*%
%ADD71RoundRect,0.052800X1.267200X1.267200X-1.267200X1.267200X-1.267200X-1.267200X1.267200X-1.267200X0*%
%ADD72C,2.640000*%
%ADD73RoundRect,0.050000X-0.400000X-0.170000X0.400000X-0.170000X0.400000X0.170000X-0.400000X0.170000X0*%
%ADD74RoundRect,0.050000X-0.325000X-0.170000X0.325000X-0.170000X0.325000X0.170000X-0.325000X0.170000X0*%
%ADD75RoundRect,0.050000X-0.855000X-1.145000X0.855000X-1.145000X0.855000X1.145000X-0.855000X1.145000X0*%
%ADD76O,1.150000X0.500000*%
%ADD77RoundRect,0.059500X-0.490500X0.290500X-0.490500X-0.290500X0.490500X-0.290500X0.490500X0.290500X0*%
%ADD78C,1.100000*%
%ADD79RoundRect,0.050000X0.825000X-0.825000X0.825000X0.825000X-0.825000X0.825000X-0.825000X-0.825000X0*%
%ADD80RoundRect,0.050000X1.400000X0.500000X-1.400000X0.500000X-1.400000X-0.500000X1.400000X-0.500000X0*%
%ADD81RoundRect,0.070000X0.600000X-3.700000X0.600000X3.700000X-0.600000X3.700000X-0.600000X-3.700000X0*%
%ADD82RoundRect,0.070000X1.500000X-0.375000X1.500000X0.375000X-1.500000X0.375000X-1.500000X-0.375000X0*%
%ADD83FreePoly0,0.000000*%
%ADD84RoundRect,0.050000X0.750000X-0.425000X0.750000X0.425000X-0.750000X0.425000X-0.750000X-0.425000X0*%
%ADD85FreePoly1,0.000000*%
%ADD86RoundRect,0.050000X1.300000X0.200000X-1.300000X0.200000X-1.300000X-0.200000X1.300000X-0.200000X0*%
%ADD87RoundRect,0.076000X-0.635000X0.304800X-0.635000X-0.304800X0.635000X-0.304800X0.635000X0.304800X0*%
%ADD88RoundRect,0.076000X-0.609600X0.304800X-0.609600X-0.304800X0.609600X-0.304800X0.609600X0.304800X0*%
%ADD89RoundRect,0.076000X1.905000X1.955800X-1.905000X1.955800X-1.905000X-1.955800X1.905000X-1.955800X0*%
%ADD90RoundRect,0.128250X-0.221750X0.096750X-0.221750X-0.096750X0.221750X-0.096750X0.221750X0.096750X0*%
%ADD91RoundRect,0.128250X-0.096750X-0.221750X0.096750X-0.221750X0.096750X0.221750X-0.096750X0.221750X0*%
%ADD92RoundRect,0.250000X0.250000X-0.450000X0.250000X0.450000X-0.250000X0.450000X-0.250000X-0.450000X0*%
%ADD93FreePoly2,90.000000*%
%ADD94RoundRect,0.175000X0.612500X0.175000X-0.612500X0.175000X-0.612500X-0.175000X0.612500X-0.175000X0*%
%ADD95RoundRect,0.175000X-0.175000X0.612500X-0.175000X-0.612500X0.175000X-0.612500X0.175000X0.612500X0*%
G04 APERTURE END LIST*
D10*
X-45746174Y203522575D02*
X-44875316Y203522575D01*
X-45310745Y201998575D02*
X-45310745Y203522575D01*
X-44149602Y201998575D02*
X-44294745Y202071147D01*
X-44294745Y202071147D02*
X-44367316Y202143718D01*
X-44367316Y202143718D02*
X-44439888Y202288861D01*
X-44439888Y202288861D02*
X-44439888Y202724289D01*
X-44439888Y202724289D02*
X-44367316Y202869432D01*
X-44367316Y202869432D02*
X-44294745Y202942004D01*
X-44294745Y202942004D02*
X-44149602Y203014575D01*
X-44149602Y203014575D02*
X-43931888Y203014575D01*
X-43931888Y203014575D02*
X-43786745Y202942004D01*
X-43786745Y202942004D02*
X-43714173Y202869432D01*
X-43714173Y202869432D02*
X-43641602Y202724289D01*
X-43641602Y202724289D02*
X-43641602Y202288861D01*
X-43641602Y202288861D02*
X-43714173Y202143718D01*
X-43714173Y202143718D02*
X-43786745Y202071147D01*
X-43786745Y202071147D02*
X-43931888Y201998575D01*
X-43931888Y201998575D02*
X-44149602Y201998575D01*
X-42988459Y203014575D02*
X-42988459Y201490575D01*
X-42988459Y202942004D02*
X-42843316Y203014575D01*
X-42843316Y203014575D02*
X-42553031Y203014575D01*
X-42553031Y203014575D02*
X-42407888Y202942004D01*
X-42407888Y202942004D02*
X-42335316Y202869432D01*
X-42335316Y202869432D02*
X-42262745Y202724289D01*
X-42262745Y202724289D02*
X-42262745Y202288861D01*
X-42262745Y202288861D02*
X-42335316Y202143718D01*
X-42335316Y202143718D02*
X-42407888Y202071147D01*
X-42407888Y202071147D02*
X-42553031Y201998575D01*
X-42553031Y201998575D02*
X-42843316Y201998575D01*
X-42843316Y201998575D02*
X-42988459Y202071147D01*
X-40521031Y202071147D02*
X-40303316Y201998575D01*
X-40303316Y201998575D02*
X-39940459Y201998575D01*
X-39940459Y201998575D02*
X-39795316Y202071147D01*
X-39795316Y202071147D02*
X-39722745Y202143718D01*
X-39722745Y202143718D02*
X-39650174Y202288861D01*
X-39650174Y202288861D02*
X-39650174Y202434004D01*
X-39650174Y202434004D02*
X-39722745Y202579147D01*
X-39722745Y202579147D02*
X-39795316Y202651718D01*
X-39795316Y202651718D02*
X-39940459Y202724289D01*
X-39940459Y202724289D02*
X-40230745Y202796861D01*
X-40230745Y202796861D02*
X-40375888Y202869432D01*
X-40375888Y202869432D02*
X-40448459Y202942004D01*
X-40448459Y202942004D02*
X-40521031Y203087147D01*
X-40521031Y203087147D02*
X-40521031Y203232289D01*
X-40521031Y203232289D02*
X-40448459Y203377432D01*
X-40448459Y203377432D02*
X-40375888Y203450004D01*
X-40375888Y203450004D02*
X-40230745Y203522575D01*
X-40230745Y203522575D02*
X-39867888Y203522575D01*
X-39867888Y203522575D02*
X-39650174Y203450004D01*
X-38779316Y201998575D02*
X-38924459Y202071147D01*
X-38924459Y202071147D02*
X-38997030Y202143718D01*
X-38997030Y202143718D02*
X-39069602Y202288861D01*
X-39069602Y202288861D02*
X-39069602Y202724289D01*
X-39069602Y202724289D02*
X-38997030Y202869432D01*
X-38997030Y202869432D02*
X-38924459Y202942004D01*
X-38924459Y202942004D02*
X-38779316Y203014575D01*
X-38779316Y203014575D02*
X-38561602Y203014575D01*
X-38561602Y203014575D02*
X-38416459Y202942004D01*
X-38416459Y202942004D02*
X-38343887Y202869432D01*
X-38343887Y202869432D02*
X-38271316Y202724289D01*
X-38271316Y202724289D02*
X-38271316Y202288861D01*
X-38271316Y202288861D02*
X-38343887Y202143718D01*
X-38343887Y202143718D02*
X-38416459Y202071147D01*
X-38416459Y202071147D02*
X-38561602Y201998575D01*
X-38561602Y201998575D02*
X-38779316Y201998575D01*
X-37400459Y201998575D02*
X-37545602Y202071147D01*
X-37545602Y202071147D02*
X-37618173Y202216289D01*
X-37618173Y202216289D02*
X-37618173Y203522575D01*
X-36166744Y201998575D02*
X-36166744Y203522575D01*
X-36166744Y202071147D02*
X-36311887Y201998575D01*
X-36311887Y201998575D02*
X-36602173Y201998575D01*
X-36602173Y201998575D02*
X-36747316Y202071147D01*
X-36747316Y202071147D02*
X-36819887Y202143718D01*
X-36819887Y202143718D02*
X-36892459Y202288861D01*
X-36892459Y202288861D02*
X-36892459Y202724289D01*
X-36892459Y202724289D02*
X-36819887Y202869432D01*
X-36819887Y202869432D02*
X-36747316Y202942004D01*
X-36747316Y202942004D02*
X-36602173Y203014575D01*
X-36602173Y203014575D02*
X-36311887Y203014575D01*
X-36311887Y203014575D02*
X-36166744Y202942004D01*
X-34860459Y202071147D02*
X-35005602Y201998575D01*
X-35005602Y201998575D02*
X-35295887Y201998575D01*
X-35295887Y201998575D02*
X-35441030Y202071147D01*
X-35441030Y202071147D02*
X-35513602Y202216289D01*
X-35513602Y202216289D02*
X-35513602Y202796861D01*
X-35513602Y202796861D02*
X-35441030Y202942004D01*
X-35441030Y202942004D02*
X-35295887Y203014575D01*
X-35295887Y203014575D02*
X-35005602Y203014575D01*
X-35005602Y203014575D02*
X-34860459Y202942004D01*
X-34860459Y202942004D02*
X-34787887Y202796861D01*
X-34787887Y202796861D02*
X-34787887Y202651718D01*
X-34787887Y202651718D02*
X-35513602Y202506575D01*
X-34134744Y201998575D02*
X-34134744Y203014575D01*
X-34134744Y202724289D02*
X-34062173Y202869432D01*
X-34062173Y202869432D02*
X-33989601Y202942004D01*
X-33989601Y202942004D02*
X-33844459Y203014575D01*
X-33844459Y203014575D02*
X-33699316Y203014575D01*
X-45746174Y203522575D02*
X-44875316Y203522575D01*
X-45310745Y201998575D02*
X-45310745Y203522575D01*
X-44149602Y201998575D02*
X-44294745Y202071147D01*
X-44294745Y202071147D02*
X-44367316Y202143718D01*
X-44367316Y202143718D02*
X-44439888Y202288861D01*
X-44439888Y202288861D02*
X-44439888Y202724289D01*
X-44439888Y202724289D02*
X-44367316Y202869432D01*
X-44367316Y202869432D02*
X-44294745Y202942004D01*
X-44294745Y202942004D02*
X-44149602Y203014575D01*
X-44149602Y203014575D02*
X-43931888Y203014575D01*
X-43931888Y203014575D02*
X-43786745Y202942004D01*
X-43786745Y202942004D02*
X-43714173Y202869432D01*
X-43714173Y202869432D02*
X-43641602Y202724289D01*
X-43641602Y202724289D02*
X-43641602Y202288861D01*
X-43641602Y202288861D02*
X-43714173Y202143718D01*
X-43714173Y202143718D02*
X-43786745Y202071147D01*
X-43786745Y202071147D02*
X-43931888Y201998575D01*
X-43931888Y201998575D02*
X-44149602Y201998575D01*
X-42988459Y203014575D02*
X-42988459Y201490575D01*
X-42988459Y202942004D02*
X-42843316Y203014575D01*
X-42843316Y203014575D02*
X-42553031Y203014575D01*
X-42553031Y203014575D02*
X-42407888Y202942004D01*
X-42407888Y202942004D02*
X-42335316Y202869432D01*
X-42335316Y202869432D02*
X-42262745Y202724289D01*
X-42262745Y202724289D02*
X-42262745Y202288861D01*
X-42262745Y202288861D02*
X-42335316Y202143718D01*
X-42335316Y202143718D02*
X-42407888Y202071147D01*
X-42407888Y202071147D02*
X-42553031Y201998575D01*
X-42553031Y201998575D02*
X-42843316Y201998575D01*
X-42843316Y201998575D02*
X-42988459Y202071147D01*
X-40521031Y202071147D02*
X-40303316Y201998575D01*
X-40303316Y201998575D02*
X-39940459Y201998575D01*
X-39940459Y201998575D02*
X-39795316Y202071147D01*
X-39795316Y202071147D02*
X-39722745Y202143718D01*
X-39722745Y202143718D02*
X-39650174Y202288861D01*
X-39650174Y202288861D02*
X-39650174Y202434004D01*
X-39650174Y202434004D02*
X-39722745Y202579147D01*
X-39722745Y202579147D02*
X-39795316Y202651718D01*
X-39795316Y202651718D02*
X-39940459Y202724289D01*
X-39940459Y202724289D02*
X-40230745Y202796861D01*
X-40230745Y202796861D02*
X-40375888Y202869432D01*
X-40375888Y202869432D02*
X-40448459Y202942004D01*
X-40448459Y202942004D02*
X-40521031Y203087147D01*
X-40521031Y203087147D02*
X-40521031Y203232289D01*
X-40521031Y203232289D02*
X-40448459Y203377432D01*
X-40448459Y203377432D02*
X-40375888Y203450004D01*
X-40375888Y203450004D02*
X-40230745Y203522575D01*
X-40230745Y203522575D02*
X-39867888Y203522575D01*
X-39867888Y203522575D02*
X-39650174Y203450004D01*
X-38779316Y201998575D02*
X-38924459Y202071147D01*
X-38924459Y202071147D02*
X-38997030Y202143718D01*
X-38997030Y202143718D02*
X-39069602Y202288861D01*
X-39069602Y202288861D02*
X-39069602Y202724289D01*
X-39069602Y202724289D02*
X-38997030Y202869432D01*
X-38997030Y202869432D02*
X-38924459Y202942004D01*
X-38924459Y202942004D02*
X-38779316Y203014575D01*
X-38779316Y203014575D02*
X-38561602Y203014575D01*
X-38561602Y203014575D02*
X-38416459Y202942004D01*
X-38416459Y202942004D02*
X-38343887Y202869432D01*
X-38343887Y202869432D02*
X-38271316Y202724289D01*
X-38271316Y202724289D02*
X-38271316Y202288861D01*
X-38271316Y202288861D02*
X-38343887Y202143718D01*
X-38343887Y202143718D02*
X-38416459Y202071147D01*
X-38416459Y202071147D02*
X-38561602Y201998575D01*
X-38561602Y201998575D02*
X-38779316Y201998575D01*
X-37400459Y201998575D02*
X-37545602Y202071147D01*
X-37545602Y202071147D02*
X-37618173Y202216289D01*
X-37618173Y202216289D02*
X-37618173Y203522575D01*
X-36166744Y201998575D02*
X-36166744Y203522575D01*
X-36166744Y202071147D02*
X-36311887Y201998575D01*
X-36311887Y201998575D02*
X-36602173Y201998575D01*
X-36602173Y201998575D02*
X-36747316Y202071147D01*
X-36747316Y202071147D02*
X-36819887Y202143718D01*
X-36819887Y202143718D02*
X-36892459Y202288861D01*
X-36892459Y202288861D02*
X-36892459Y202724289D01*
X-36892459Y202724289D02*
X-36819887Y202869432D01*
X-36819887Y202869432D02*
X-36747316Y202942004D01*
X-36747316Y202942004D02*
X-36602173Y203014575D01*
X-36602173Y203014575D02*
X-36311887Y203014575D01*
X-36311887Y203014575D02*
X-36166744Y202942004D01*
X-34860459Y202071147D02*
X-35005602Y201998575D01*
X-35005602Y201998575D02*
X-35295887Y201998575D01*
X-35295887Y201998575D02*
X-35441030Y202071147D01*
X-35441030Y202071147D02*
X-35513602Y202216289D01*
X-35513602Y202216289D02*
X-35513602Y202796861D01*
X-35513602Y202796861D02*
X-35441030Y202942004D01*
X-35441030Y202942004D02*
X-35295887Y203014575D01*
X-35295887Y203014575D02*
X-35005602Y203014575D01*
X-35005602Y203014575D02*
X-34860459Y202942004D01*
X-34860459Y202942004D02*
X-34787887Y202796861D01*
X-34787887Y202796861D02*
X-34787887Y202651718D01*
X-34787887Y202651718D02*
X-35513602Y202506575D01*
X-34134744Y201998575D02*
X-34134744Y203014575D01*
X-34134744Y202724289D02*
X-34062173Y202869432D01*
X-34062173Y202869432D02*
X-33989601Y202942004D01*
X-33989601Y202942004D02*
X-33844459Y203014575D01*
X-33844459Y203014575D02*
X-33699316Y203014575D01*
%TO.C,NT5*%
G36*
X55827000Y279785500D02*
G01*
X57327000Y279785500D01*
X57327000Y280085500D01*
X55827000Y280085500D01*
X55827000Y279785500D01*
G37*
%TD*%
D11*
%TO.C,MC5*%
X-57369200Y261109080D03*
%TD*%
D12*
%TO.C,S3*%
X62470000Y255171500D03*
X59320000Y255171500D03*
X59320000Y252121500D03*
X62470000Y252121500D03*
D13*
X58820000Y253646500D03*
X62970000Y253646500D03*
D14*
X60895000Y254546500D03*
X60895000Y252746500D03*
%TD*%
D15*
%TO.C,FID3*%
X58355000Y237771500D03*
%TD*%
%TO.C,FID2*%
X-47055000Y230151500D03*
%TD*%
%TO.C,FID1*%
X58355090Y311541730D03*
%TD*%
D16*
%TO.C,MP4*%
X57975000Y227801500D03*
%TD*%
D17*
%TO.C,J26*%
X44482000Y227961500D03*
X45132000Y227961500D03*
X45782000Y227961500D03*
X46432000Y227961500D03*
X47082000Y227961500D03*
D18*
X43319500Y227601500D03*
X48244500Y227601500D03*
D19*
X42869500Y225301500D03*
D20*
X44944500Y225301500D03*
X46619500Y225301500D03*
D19*
X48694500Y225301500D03*
%TD*%
D21*
%TO.C,J9*%
X2010170Y323801500D03*
D22*
X-1489830Y323801500D03*
X-4989830Y323801500D03*
X-8489830Y323801500D03*
%TD*%
D16*
%TO.C,MP2*%
X-54025000Y323801500D03*
%TD*%
D11*
%TO.C,MC16*%
X-57469200Y305609080D03*
%TD*%
D23*
%TO.C,J24*%
X17715000Y241835500D03*
D24*
X20255000Y241835500D03*
X22795000Y241835500D03*
X25335000Y241835500D03*
X27875000Y241835500D03*
X30415000Y241835500D03*
X32955000Y241835500D03*
%TD*%
D25*
%TO.C,J20*%
X35368020Y266219520D03*
D26*
X32828020Y266219520D03*
%TD*%
D27*
%TO.C,C6*%
X10602990Y268886500D03*
X10602990Y270410500D03*
%TD*%
D28*
%TO.C,R115*%
X46036000Y230567500D03*
X46036000Y231767500D03*
%TD*%
D29*
%TO.C,C1*%
X15048000Y264363500D03*
X15048000Y260963500D03*
%TD*%
D27*
%TO.C,C4*%
X10602990Y266346500D03*
X10602990Y267870500D03*
%TD*%
D30*
%TO.C,C26*%
X862000Y257329500D03*
X-738000Y257329500D03*
%TD*%
%TO.C,C47*%
X-40921080Y294032410D03*
X-42521080Y294032410D03*
%TD*%
D31*
%TO.C,RT2*%
X-6288000Y253265500D03*
D32*
X-8828000Y253265500D03*
%TD*%
D33*
%TO.C,R31*%
X-54294000Y316041500D03*
X-54294000Y314441500D03*
%TD*%
D34*
%TO.C,C12*%
X10349000Y255551500D03*
X8317000Y255551500D03*
%TD*%
D35*
%TO.C,R8*%
X14413010Y276305510D03*
X14413010Y273405510D03*
%TD*%
D30*
%TO.C,R66*%
X-40921080Y292635410D03*
X-42521080Y292635410D03*
%TD*%
D36*
%TO.C,C8*%
X8317010Y269140510D03*
X6793010Y269140510D03*
%TD*%
D35*
%TO.C,R17*%
X-65000Y276305500D03*
X-65000Y273405500D03*
%TD*%
D37*
%TO.C,R119*%
X48484000Y231675500D03*
X49684000Y231675500D03*
%TD*%
D38*
%TO.C,TP16*%
X22795000Y312701500D03*
%TD*%
D11*
%TO.C,MC7*%
X-57469200Y271009080D03*
%TD*%
D39*
%TO.C,R24*%
X-10278000Y266346500D03*
X-7378000Y266346500D03*
%TD*%
D33*
%TO.C,R42*%
X-21147000Y302833500D03*
X-21147000Y301233500D03*
%TD*%
D40*
%TO.C,R4*%
X19546020Y271172510D03*
X16646020Y271172510D03*
%TD*%
D41*
%TO.C,D15*%
X26732000Y226938500D03*
X26732000Y228538500D03*
%TD*%
D42*
%TO.C,C21*%
X-4509990Y269267510D03*
X-4509990Y267743510D03*
%TD*%
D33*
%TO.C,R35*%
X-29021000Y318327500D03*
X-29021000Y316727500D03*
%TD*%
D38*
%TO.C,TP17*%
X-14670000Y236755500D03*
%TD*%
D43*
%TO.C,R9*%
X-23814000Y283716500D03*
X-23814000Y289616500D03*
%TD*%
D28*
%TO.C,C70*%
X60006000Y246696500D03*
X60006000Y247896500D03*
%TD*%
D38*
%TO.C,TP9*%
X-57342000Y238406500D03*
%TD*%
D35*
%TO.C,R19*%
X-5018000Y273405500D03*
X-5018000Y276305500D03*
%TD*%
D44*
%TO.C,J6*%
X570120Y244397590D03*
X3110120Y240797590D03*
X5650120Y244397590D03*
%TD*%
%TO.C,J13*%
X18350000Y252525500D03*
X20890000Y248925500D03*
X23430000Y252525500D03*
%TD*%
D45*
%TO.C,U1*%
X7765000Y266126500D03*
X7265000Y266126500D03*
X6765000Y266126500D03*
X6265000Y266126500D03*
X5765000Y266126500D03*
X5265000Y266126500D03*
X4765000Y266126500D03*
X4265000Y266126500D03*
X3765000Y266126500D03*
X3265000Y266126500D03*
X2765000Y266126500D03*
X2265000Y266126500D03*
D46*
X790000Y264651500D03*
X790000Y264151500D03*
X790000Y263651500D03*
X790000Y263151500D03*
X790000Y262651500D03*
X790000Y262151500D03*
X790000Y261651500D03*
X790000Y261151500D03*
X790000Y260651500D03*
X790000Y260151500D03*
X790000Y259651500D03*
X790000Y259151500D03*
D45*
X2265000Y257676500D03*
X2765000Y257676500D03*
X3265000Y257676500D03*
X3765000Y257676500D03*
X4265000Y257676500D03*
X4765000Y257676500D03*
X5265000Y257676500D03*
X5765000Y257676500D03*
X6265000Y257676500D03*
X6765000Y257676500D03*
X7265000Y257676500D03*
X7765000Y257676500D03*
D46*
X9240000Y259151500D03*
X9240000Y259651500D03*
X9240000Y260151500D03*
X9240000Y260651500D03*
X9240000Y261151500D03*
X9240000Y261651500D03*
X9240000Y262151500D03*
X9240000Y262651500D03*
X9240000Y263151500D03*
X9240000Y263651500D03*
X9240000Y264151500D03*
X9240000Y264651500D03*
%TD*%
D25*
%TO.C,J10*%
X35368020Y286539530D03*
D26*
X32828020Y286539530D03*
%TD*%
D30*
%TO.C,C13*%
X10768020Y257456510D03*
X9168020Y257456510D03*
%TD*%
D43*
%TO.C,R6*%
X-28005000Y294511500D03*
X-28005000Y300411500D03*
%TD*%
D47*
%TO.C,R39*%
X-40832000Y306126500D03*
X-40832000Y300226500D03*
%TD*%
D48*
%TO.C,C68*%
X44131000Y240403500D03*
X44131000Y239203500D03*
%TD*%
D24*
%TO.C,J25*%
X32955000Y236755500D03*
X30415000Y236755500D03*
X27875000Y236755500D03*
X25335000Y236755500D03*
X22795000Y236755500D03*
X20255000Y236755500D03*
X17715000Y236755500D03*
X15175000Y236755500D03*
X12635000Y236755500D03*
X10095000Y236755500D03*
D23*
X7555000Y236755500D03*
%TD*%
D25*
%TO.C,J12*%
X35368020Y281459520D03*
D26*
X32828020Y281459520D03*
%TD*%
D28*
%TO.C,R120*%
X23811000Y229932500D03*
X23811000Y231132500D03*
%TD*%
D49*
%TO.C,R28*%
X-10136000Y262536500D03*
X-8536000Y262536500D03*
%TD*%
D50*
%TO.C,R40*%
X-15969000Y299366500D03*
X-10069000Y299366500D03*
%TD*%
D38*
%TO.C,TP1*%
X-57342000Y310796500D03*
%TD*%
D51*
%TO.C,J27*%
X51497000Y239803500D03*
D52*
X54037000Y239803500D03*
%TD*%
D27*
%TO.C,C23*%
X-3239990Y263933510D03*
X-3239990Y265457510D03*
%TD*%
D11*
%TO.C,MC12*%
X-57469200Y291609080D03*
%TD*%
D38*
%TO.C,TP44*%
X33082000Y226341500D03*
%TD*%
D27*
%TO.C,C5*%
X11872990Y267616500D03*
X11872990Y269140500D03*
%TD*%
D53*
%TO.C,C3*%
X11365000Y264949500D03*
X11365000Y262917500D03*
%TD*%
D25*
%TO.C,J21*%
X35368020Y261139530D03*
D26*
X32828020Y261139530D03*
%TD*%
D54*
%TO.C,C25*%
X-954000Y255551500D03*
X1078000Y255551500D03*
%TD*%
D35*
%TO.C,R11*%
X12000010Y276305510D03*
X12000010Y273405510D03*
%TD*%
D55*
%TO.C,J29*%
X62165000Y249201500D03*
D24*
X62165000Y246661500D03*
X62165000Y244121500D03*
X62165000Y241581500D03*
%TD*%
D39*
%TO.C,R21*%
X-10278000Y273585500D03*
X-7378000Y273585500D03*
%TD*%
D38*
%TO.C,TP43*%
X41972000Y231421500D03*
%TD*%
D33*
%TO.C,R43*%
X-33593000Y300293500D03*
X-33593000Y298693500D03*
%TD*%
D39*
%TO.C,R23*%
X-10278000Y268759500D03*
X-7378000Y268759500D03*
%TD*%
D11*
%TO.C,MC2*%
X-57369200Y250509080D03*
%TD*%
D56*
%TO.C,Q8*%
X-37307000Y306986500D03*
X-37307000Y305716500D03*
X-37307000Y304446500D03*
X-37307000Y303176500D03*
D57*
X-31307000Y303081500D03*
X-31307000Y304406500D03*
X-31307000Y305756500D03*
X-31307000Y307081500D03*
D58*
X-33807000Y305081500D03*
%TD*%
D29*
%TO.C,C71*%
X-30037000Y278206500D03*
X-30037000Y274806500D03*
%TD*%
D59*
%TO.C,J19*%
X32298010Y301779520D03*
X35898010Y304319520D03*
X32298010Y306859520D03*
%TD*%
D38*
%TO.C,TP14*%
X-41975000Y247931500D03*
%TD*%
D60*
%TO.C,C59*%
X47194800Y270308900D03*
X45994800Y270308900D03*
%TD*%
D61*
%TO.C,C63*%
X38797000Y232056500D03*
X38797000Y234088500D03*
%TD*%
D40*
%TO.C,R48*%
X-51574000Y309399500D03*
X-54474000Y309399500D03*
%TD*%
D48*
%TO.C,R116*%
X47179000Y231767500D03*
X47179000Y230567500D03*
%TD*%
D25*
%TO.C,J15*%
X35368020Y276379530D03*
D26*
X32828020Y276379530D03*
%TD*%
D35*
%TO.C,R7*%
X16826010Y276305510D03*
X16826010Y273405510D03*
%TD*%
D62*
%TO.C,D8*%
X-42215580Y295810410D03*
X-38940580Y295810410D03*
%TD*%
D37*
%TO.C,C65*%
X32990000Y231167500D03*
X34190000Y231167500D03*
%TD*%
D35*
%TO.C,R16*%
X2348000Y276305500D03*
X2348000Y273405500D03*
%TD*%
D11*
%TO.C,MC15*%
X-57369200Y302109080D03*
%TD*%
D23*
%TO.C,J2*%
X9841000Y321591500D03*
D24*
X12381000Y321591500D03*
X14921000Y321591500D03*
X17461000Y321591500D03*
X20001000Y321591500D03*
%TD*%
D63*
%TO.C,Q9*%
X-10535000Y310796500D03*
X-10535000Y312066500D03*
X-10535000Y313336500D03*
X-10535000Y314606500D03*
D64*
X-16535000Y314701500D03*
X-16535000Y313376500D03*
X-16535000Y312026500D03*
X-16535000Y310701500D03*
D65*
X-14035000Y312701500D03*
%TD*%
D35*
%TO.C,R18*%
X-2478000Y276305500D03*
X-2478000Y273405500D03*
%TD*%
D11*
%TO.C,MC6*%
X-57369200Y267509080D03*
%TD*%
D41*
%TO.C,D14*%
X23811000Y226938500D03*
X23811000Y228538500D03*
%TD*%
D25*
%TO.C,J18*%
X35368020Y271299520D03*
D26*
X32828020Y271299520D03*
%TD*%
D35*
%TO.C,R12*%
X9587010Y276305510D03*
X9587010Y273405510D03*
%TD*%
D49*
%TO.C,R59*%
X-42521000Y291238500D03*
X-40921000Y291238500D03*
%TD*%
D54*
%TO.C,C64*%
X32574000Y229516500D03*
X34606000Y229516500D03*
%TD*%
D37*
%TO.C,R117*%
X47087000Y229389500D03*
X48287000Y229389500D03*
%TD*%
D28*
%TO.C,C62*%
X37146000Y232472500D03*
X37146000Y233672500D03*
%TD*%
D59*
%TO.C,J16*%
X32298020Y291619520D03*
X35898020Y294159520D03*
X32298020Y296699520D03*
%TD*%
D66*
%TO.C,R30*%
X-13781000Y263070500D03*
X-13781000Y259970500D03*
%TD*%
D67*
%TO.C,S1*%
X-5124000Y231516500D03*
X676000Y231516500D03*
X-5124000Y227516510D03*
X676000Y227516510D03*
%TD*%
D11*
%TO.C,MC14*%
X-57369200Y298609080D03*
%TD*%
D35*
%TO.C,R14*%
X4761000Y276305500D03*
X4761000Y273405500D03*
%TD*%
D40*
%TO.C,R2*%
X19546020Y266346510D03*
X16646020Y266346510D03*
%TD*%
%TO.C,R3*%
X19546020Y268759510D03*
X16646020Y268759510D03*
%TD*%
D33*
%TO.C,R1*%
X16826000Y264225500D03*
X16826000Y262625500D03*
%TD*%
D11*
%TO.C,MC8*%
X-57469200Y274509080D03*
%TD*%
D36*
%TO.C,C19*%
X-1843000Y269140500D03*
X-3367000Y269140500D03*
%TD*%
D35*
%TO.C,R13*%
X7174000Y276305500D03*
X7174000Y273405500D03*
%TD*%
D49*
%TO.C,R113*%
X44347000Y265228900D03*
X45947000Y265228900D03*
%TD*%
D11*
%TO.C,MC3*%
X-57369200Y254009080D03*
%TD*%
D62*
%TO.C,D2*%
X-26213500Y302795500D03*
X-22938500Y302795500D03*
%TD*%
D36*
%TO.C,C10*%
X5777010Y269140510D03*
X4253010Y269140510D03*
%TD*%
D43*
%TO.C,R5*%
X-23814000Y294511500D03*
X-23814000Y300411500D03*
%TD*%
D36*
%TO.C,C14*%
X3237010Y269140510D03*
X1713010Y269140510D03*
%TD*%
%TO.C,C18*%
X-572990Y270410510D03*
X-2096990Y270410510D03*
%TD*%
D30*
%TO.C,R112*%
X41121000Y265711500D03*
X39521000Y265711500D03*
%TD*%
D36*
%TO.C,C11*%
X4507010Y270410510D03*
X2983010Y270410510D03*
%TD*%
D11*
%TO.C,MC10*%
X-57469200Y281509080D03*
%TD*%
D36*
%TO.C,C16*%
X1967010Y270410510D03*
X443010Y270410510D03*
%TD*%
D11*
%TO.C,MC17*%
X-57369200Y243409080D03*
%TD*%
D60*
%TO.C,C69*%
X44096000Y257710500D03*
X42896000Y257710500D03*
%TD*%
D68*
%TO.C,J28*%
X62292000Y264568500D03*
D24*
X62292000Y267108500D03*
X62292000Y269648500D03*
X62292000Y272188500D03*
X62292000Y274728500D03*
%TD*%
D69*
%TO.C,R46*%
X-37683000Y312320500D03*
X-34583000Y312320500D03*
%TD*%
D44*
%TO.C,J11*%
X6920120Y252525590D03*
X9460120Y248925590D03*
X12000120Y252525590D03*
%TD*%
D70*
%TO.C,J5*%
X24573000Y321591500D03*
D26*
X27113000Y321591500D03*
X29653000Y321591500D03*
X32193000Y321591500D03*
X34733000Y321591500D03*
X37273000Y321591500D03*
%TD*%
D28*
%TO.C,R122*%
X29653000Y229932500D03*
X29653000Y231132500D03*
%TD*%
D71*
%TO.C,J8*%
X-22315230Y321197840D03*
D72*
X-25820430Y321197840D03*
%TD*%
D31*
%TO.C,RT1*%
X-6288000Y256694500D03*
D32*
X-8828000Y256694500D03*
%TD*%
D73*
%TO.C,Q3*%
X-35765500Y323836500D03*
X-35765500Y323186500D03*
X-35765500Y322536500D03*
X-35765500Y321886500D03*
D74*
X-32690500Y321886500D03*
X-32690500Y322536500D03*
X-32690500Y323186500D03*
X-32690500Y323836500D03*
D75*
X-33870490Y322861500D03*
%TD*%
D76*
%TO.C,U10*%
X42029000Y268997900D03*
X42029000Y268347900D03*
X42029000Y267697900D03*
X42029000Y267047900D03*
X45979000Y267047900D03*
X45979000Y267697900D03*
X45979000Y268347900D03*
X45979000Y268997900D03*
%TD*%
D44*
%TO.C,J7*%
X-10859880Y244397590D03*
X-8319880Y240797590D03*
X-5779880Y244397590D03*
%TD*%
D77*
%TO.C,U14*%
X35727000Y232630500D03*
X35727000Y233580500D03*
X35727000Y234530500D03*
X32977000Y234530500D03*
X32977000Y232630500D03*
%TD*%
D63*
%TO.C,Q7*%
X-10535000Y303176500D03*
X-10535000Y304446500D03*
X-10535000Y305716500D03*
X-10535000Y306986500D03*
D64*
X-16535000Y307081500D03*
X-16535000Y305756500D03*
X-16535000Y304406500D03*
X-16535000Y303081500D03*
D65*
X-14035000Y305081500D03*
%TD*%
D78*
%TO.C,TP45*%
X58863000Y241835500D03*
%TD*%
D45*
%TO.C,U11*%
X49008000Y255926500D03*
X48508000Y255926500D03*
X48008000Y255926500D03*
X47508000Y255926500D03*
X47008000Y255926500D03*
X46508000Y255926500D03*
X46008000Y255926500D03*
X45508000Y255926500D03*
X45008000Y255926500D03*
X44508000Y255926500D03*
X44008000Y255926500D03*
X43508000Y255926500D03*
X43008000Y255926500D03*
X42508000Y255926500D03*
X42008000Y255926500D03*
X41508000Y255926500D03*
X41008000Y255926500D03*
X40508000Y255926500D03*
X40008000Y255926500D03*
X39508000Y255926500D03*
D46*
X37533000Y253951500D03*
X37533000Y253451500D03*
X37533000Y252951500D03*
X37533000Y252451500D03*
X37533000Y251951500D03*
X37533000Y251451500D03*
X37533000Y250951500D03*
X37533000Y250451500D03*
X37533000Y249951500D03*
X37533000Y249451500D03*
X37533000Y248951500D03*
X37533000Y248451500D03*
X37533000Y247951500D03*
X37533000Y247451500D03*
X37533000Y246951500D03*
X37533000Y246451500D03*
X37533000Y245951500D03*
X37533000Y245451500D03*
X37533000Y244951500D03*
X37533000Y244451500D03*
D45*
X39508000Y242476500D03*
X40008000Y242476500D03*
X40508000Y242476500D03*
X41008000Y242476500D03*
X41508000Y242476500D03*
X42008000Y242476500D03*
X42508000Y242476500D03*
X43008000Y242476500D03*
X43508000Y242476500D03*
X44008000Y242476500D03*
X44508000Y242476500D03*
X45008000Y242476500D03*
X45508000Y242476500D03*
X46008000Y242476500D03*
X46508000Y242476500D03*
X47008000Y242476500D03*
X47508000Y242476500D03*
X48008000Y242476500D03*
X48508000Y242476500D03*
X49008000Y242476500D03*
D46*
X50983000Y244451500D03*
X50983000Y244951500D03*
X50983000Y245451500D03*
X50983000Y245951500D03*
X50983000Y246451500D03*
X50983000Y246951500D03*
X50983000Y247451500D03*
X50983000Y247951500D03*
X50983000Y248451500D03*
X50983000Y248951500D03*
X50983000Y249451500D03*
X50983000Y249951500D03*
X50983000Y250451500D03*
X50983000Y250951500D03*
X50983000Y251451500D03*
X50983000Y251951500D03*
X50983000Y252451500D03*
X50983000Y252951500D03*
X50983000Y253451500D03*
X50983000Y253951500D03*
%TD*%
D28*
%TO.C,R121*%
X26732000Y229932500D03*
X26732000Y231132500D03*
%TD*%
D42*
%TO.C,C22*%
X-3239990Y267997510D03*
X-3239990Y266473510D03*
%TD*%
D60*
%TO.C,R118*%
X49684000Y230532500D03*
X48484000Y230532500D03*
%TD*%
D39*
%TO.C,R22*%
X-10278000Y271172500D03*
X-7378000Y271172500D03*
%TD*%
D79*
%TO.C,J17*%
X59004930Y301398410D03*
D52*
X59004930Y303938410D03*
X59004930Y306478410D03*
X59004930Y309018410D03*
%TD*%
D41*
%TO.C,D16*%
X29653000Y226938500D03*
X29653000Y228538500D03*
%TD*%
D36*
%TO.C,C7*%
X9587010Y270410510D03*
X8063010Y270410510D03*
%TD*%
D80*
%TO.C,S2*%
X-11389000Y227516510D03*
X-17189000Y227516510D03*
X-11389000Y231516500D03*
X-17189000Y231516500D03*
%TD*%
D11*
%TO.C,MC13*%
X-57369200Y295109080D03*
%TD*%
D28*
%TO.C,R114*%
X44893000Y230567500D03*
X44893000Y231767500D03*
%TD*%
D50*
%TO.C,R33*%
X-40480000Y318924510D03*
X-34580000Y318924510D03*
%TD*%
D37*
%TO.C,C61*%
X38705000Y257710500D03*
X39905000Y257710500D03*
%TD*%
D42*
%TO.C,C24*%
X-4509990Y266727510D03*
X-4509990Y265203510D03*
%TD*%
D81*
%TO.C,F1*%
X-50502000Y318416500D03*
D82*
X-48451950Y312841500D03*
D83*
X-49952000Y313216500D03*
D81*
X-46402000Y318416500D03*
%TD*%
D11*
%TO.C,MC1*%
X-57369200Y247009080D03*
%TD*%
D28*
%TO.C,R123*%
X58863000Y246696500D03*
X58863000Y247896500D03*
%TD*%
D33*
%TO.C,C2*%
X13143000Y264352500D03*
X13143000Y262752500D03*
%TD*%
D11*
%TO.C,MC11*%
X-57469200Y288109080D03*
%TD*%
%TO.C,MC4*%
X-57369199Y257509080D03*
%TD*%
D43*
%TO.C,R10*%
X-28005000Y283716500D03*
X-28005000Y289616500D03*
%TD*%
D84*
%TO.C,NT5*%
X56577000Y279135500D03*
X56577000Y280735500D03*
%TD*%
D85*
%TO.C,Y1*%
X53491000Y246793500D03*
X55591800Y246793500D03*
D86*
X54291000Y247193500D03*
D85*
X53491000Y248293500D03*
X55591800Y248293500D03*
D86*
X54291000Y248693500D03*
D85*
X53491000Y249793500D03*
X55591800Y249793500D03*
D86*
X54291000Y250193500D03*
%TD*%
D36*
%TO.C,C9*%
X7047010Y270410510D03*
X5523010Y270410510D03*
%TD*%
%TO.C,C17*%
X697010Y269140510D03*
X-826990Y269140510D03*
%TD*%
D41*
%TO.C,D3*%
X-52770000Y314314500D03*
X-52770000Y315914500D03*
%TD*%
D60*
%TO.C,C58*%
X43334000Y270308900D03*
X42134000Y270308900D03*
%TD*%
D87*
%TO.C,Q12*%
X-44146700Y307494500D03*
X-44146700Y308764500D03*
X-44146700Y310034500D03*
X-44146700Y311304500D03*
D88*
X-49709310Y311304500D03*
X-49709310Y310034500D03*
X-49709310Y308764500D03*
X-49709310Y307494500D03*
D89*
X-47499490Y309399500D03*
%TD*%
D49*
%TO.C,R27*%
X-10136000Y260504500D03*
X-8536000Y260504500D03*
%TD*%
D11*
%TO.C,MC9*%
X-57469200Y278009080D03*
%TD*%
D23*
%TO.C,J22*%
X41845000Y321591500D03*
D24*
X44385000Y321591500D03*
X46925000Y321591500D03*
X49465000Y321591500D03*
X52005000Y321591500D03*
%TD*%
D37*
%TO.C,C60*%
X53183000Y245391500D03*
X54383000Y245391500D03*
%TD*%
D39*
%TO.C,R45*%
X-54474000Y311812500D03*
X-51574000Y311812500D03*
%TD*%
D38*
%TO.C,TP15*%
X-44769000Y303303500D03*
%TD*%
D90*
%TO.C,U15*%
X60133000Y244116300D03*
X60133000Y243466300D03*
%TD*%
D91*
%TO.C,U16*%
X59046000Y245391500D03*
X59696000Y245391500D03*
%TD*%
D16*
%TO.C,MP1*%
X-54025000Y227801500D03*
%TD*%
%TO.C,MP3*%
X57975000Y323801500D03*
%TD*%
D11*
%TO.C,TP2*%
X21144000Y264187500D03*
%TD*%
%TO.C,TP3*%
X17461000Y260631500D03*
%TD*%
%TO.C,TP4*%
X17461000Y257329500D03*
%TD*%
%TO.C,TP5*%
X22795000Y257488490D03*
%TD*%
%TO.C,TP6*%
X950990Y236755500D03*
%TD*%
%TO.C,TP7*%
X-4002000Y256694500D03*
%TD*%
%TO.C,TP8*%
X-4002000Y253265500D03*
%TD*%
%TO.C,TP18*%
X22795000Y260631500D03*
%TD*%
%TO.C,TP19*%
X-17845000Y259996500D03*
%TD*%
%TO.C,TP20*%
X-30291000Y321718500D03*
%TD*%
%TO.C,TP21*%
X-41086000Y313336500D03*
%TD*%
%TO.C,TP22*%
X-6796000Y301144500D03*
%TD*%
%TO.C,TP23*%
X-28259000Y314098500D03*
%TD*%
%TO.C,TP24*%
X-51500000Y306986500D03*
%TD*%
%TO.C,TP25*%
X-17845000Y292127500D03*
%TD*%
%TO.C,TP26*%
X-34355000Y296826500D03*
%TD*%
%TO.C,TP27*%
X-17845000Y296191500D03*
%TD*%
%TO.C,TP28*%
X10476000Y305081500D03*
%TD*%
%TO.C,TP29*%
X-42102000Y298223500D03*
%TD*%
%TO.C,TP30*%
X10476000Y294921500D03*
%TD*%
%TO.C,TP31*%
X17588000Y300001500D03*
%TD*%
%TO.C,TP32*%
X17588000Y294921500D03*
%TD*%
%TO.C,TP33*%
X17588000Y310415500D03*
%TD*%
%TO.C,TP34*%
X10476000Y300001500D03*
%TD*%
%TO.C,TP35*%
X17588000Y305081500D03*
%TD*%
%TO.C,TP36*%
X-17845000Y263044500D03*
%TD*%
D92*
%TO.C,Q1*%
X-27812000Y275064500D03*
D93*
X-26312000Y275152000D03*
D92*
X-24812000Y275064500D03*
%TD*%
D94*
%TO.C,Q2*%
X-31004500Y316577500D03*
X-31004500Y318477500D03*
X-32879500Y317527500D03*
%TD*%
%TO.C,Q5*%
X-35703500Y298924500D03*
X-35703500Y300824500D03*
X-37578500Y299874500D03*
%TD*%
D95*
%TO.C,Q6*%
X-17911000Y302590000D03*
X-19811000Y302590000D03*
X-18861000Y300715000D03*
%TD*%
D11*
%TO.C,TP10*%
X-1335000Y250598500D03*
%TD*%
%TO.C,TP11*%
X-10352000Y236755500D03*
%TD*%
%TO.C,TP12*%
X-5526000Y260504500D03*
%TD*%
%TO.C,TP13*%
X-5526000Y262536500D03*
%TD*%
%TO.C,TP37*%
X29653020Y286539530D03*
%TD*%
%TO.C,TP38*%
X29653020Y281459520D03*
%TD*%
%TO.C,TP39*%
X29653020Y276379530D03*
%TD*%
%TO.C,TP40*%
X29653020Y271299520D03*
%TD*%
%TO.C,TP41*%
X1332000Y250598500D03*
%TD*%
%TO.C,TP42*%
X43750000Y261901500D03*
%TD*%
M02*
