%TF.GenerationSoftware,KiCad,Pcbnew,9.0.4*%
%TF.CreationDate,2025-10-20T17:15:32-05:00*%
%TF.ProjectId,Molecule_18650_Battery,4d6f6c65-6375-46c6-955f-31383635305f,rev?*%
%TF.SameCoordinates,Original*%
%TF.FileFunction,Copper,L1,Top*%
%TF.FilePolarity,Positive*%
%FSLAX46Y46*%
G04 Gerber Fmt 4.6, Leading zero omitted, Abs format (unit mm)*
G04 Created by KiCad (PCBNEW 9.0.4) date 2025-10-20 17:15:32*
%MOMM*%
%LPD*%
G01*
G04 APERTURE LIST*
%TA.AperFunction,ComponentPad*%
%ADD10C,2.745000*%
%TD*%
%TA.AperFunction,ComponentPad*%
%ADD11R,2.745000X2.745000*%
%TD*%
%TA.AperFunction,ComponentPad*%
%ADD12C,1.600000*%
%TD*%
G04 APERTURE END LIST*
D10*
%TO.P,BT2,3,3*%
%TO.N,/NEG*%
X7960000Y9880000D03*
%TO.P,BT2,2,2*%
X10500000Y17500000D03*
D11*
%TO.P,BT2,1,1*%
X5420000Y17500000D03*
%TD*%
D12*
%TO.P,MP1,1*%
%TO.N,/NEG*%
X2000000Y2000000D03*
%TD*%
%TO.P,MP4,1*%
%TO.N,/NEG*%
X14000000Y2000000D03*
%TD*%
%TO.P,MP2,1*%
%TO.N,/POS*%
X2000000Y78000000D03*
%TD*%
%TO.P,MP3,1*%
%TO.N,/POS*%
X14000000Y77500000D03*
%TD*%
D11*
%TO.P,BT1,1,1*%
%TO.N,/POS*%
X10500000Y62880000D03*
D10*
%TO.P,BT1,2,2*%
X5420000Y62880000D03*
%TO.P,BT1,3,3*%
X7960000Y70500000D03*
%TD*%
%TA.AperFunction,Conductor*%
%TO.N,/POS*%
G36*
X14004417Y79599184D02*
G01*
X14023369Y79597828D01*
X14218788Y79583851D01*
X14236299Y79581333D01*
X14441960Y79536595D01*
X14458936Y79531611D01*
X14656150Y79458053D01*
X14672242Y79450703D01*
X14856968Y79349836D01*
X14871853Y79340271D01*
X15040353Y79214133D01*
X15053723Y79202547D01*
X15202547Y79053723D01*
X15214133Y79040353D01*
X15340271Y78871853D01*
X15349836Y78856968D01*
X15450703Y78672242D01*
X15458053Y78656150D01*
X15531611Y78458936D01*
X15536594Y78441963D01*
X15536595Y78441960D01*
X15581333Y78236299D01*
X15583851Y78218788D01*
X15599184Y78004419D01*
X15599500Y77995572D01*
X15599500Y60104000D01*
X15579815Y60036961D01*
X15527011Y59991206D01*
X15475500Y59980000D01*
X524500Y59980000D01*
X457461Y59999685D01*
X411706Y60052489D01*
X400500Y60104000D01*
X400500Y77995572D01*
X400816Y78004418D01*
X416148Y78218787D01*
X416148Y78218788D01*
X418666Y78236299D01*
X463406Y78441968D01*
X468387Y78458934D01*
X541946Y78656153D01*
X549293Y78672241D01*
X650165Y78856972D01*
X659730Y78871855D01*
X785863Y79040350D01*
X797449Y79053721D01*
X946278Y79202550D01*
X959649Y79214136D01*
X1128144Y79340269D01*
X1143027Y79349834D01*
X1327758Y79450706D01*
X1343852Y79458056D01*
X1541061Y79531610D01*
X1558036Y79536594D01*
X1763700Y79581333D01*
X1781211Y79583851D01*
X1974407Y79597669D01*
X1995582Y79599184D01*
X2004428Y79599500D01*
X2057583Y79599500D01*
X13942417Y79599500D01*
X13995572Y79599500D01*
X14004417Y79599184D01*
G37*
%TD.AperFunction*%
%TD*%
M02*
