%TF.GenerationSoftware,KiCad,Pcbnew,9.0.4*%
%TF.CreationDate,2025-10-20T17:15:32-05:00*%
%TF.ProjectId,Molecule_18650_Battery,4d6f6c65-6375-46c6-955f-31383635305f,rev?*%
%TF.SameCoordinates,Original*%
%TF.FileFunction,Copper,L2,Bot*%
%TF.FilePolarity,Positive*%
%FSLAX46Y46*%
G04 Gerber Fmt 4.6, Leading zero omitted, Abs format (unit mm)*
G04 Created by KiCad (PCBNEW 9.0.4) date 2025-10-20 17:15:32*
%MOMM*%
%LPD*%
G01*
G04 APERTURE LIST*
%TA.AperFunction,ComponentPad*%
%ADD10C,2.745000*%
%TD*%
%TA.AperFunction,ComponentPad*%
%ADD11R,2.745000X2.745000*%
%TD*%
%TA.AperFunction,ComponentPad*%
%ADD12C,1.600000*%
%TD*%
G04 APERTURE END LIST*
D10*
%TO.P,BT2,3,3*%
%TO.N,/NEG*%
X7960000Y9880000D03*
%TO.P,BT2,2,2*%
X10500000Y17500000D03*
D11*
%TO.P,BT2,1,1*%
X5420000Y17500000D03*
%TD*%
D12*
%TO.P,MP1,1*%
%TO.N,/NEG*%
X2000000Y2000000D03*
%TD*%
%TO.P,MP4,1*%
%TO.N,/NEG*%
X14000000Y2000000D03*
%TD*%
%TO.P,MP2,1*%
%TO.N,/POS*%
X2000000Y78000000D03*
%TD*%
%TO.P,MP3,1*%
%TO.N,/POS*%
X14000000Y77500000D03*
%TD*%
D11*
%TO.P,BT1,1,1*%
%TO.N,/POS*%
X10500000Y62880000D03*
D10*
%TO.P,BT1,2,2*%
X5420000Y62880000D03*
%TO.P,BT1,3,3*%
X7960000Y70500000D03*
%TD*%
%TA.AperFunction,Conductor*%
%TO.N,/NEG*%
G36*
X15542539Y20000315D02*
G01*
X15588294Y19947511D01*
X15599500Y19896000D01*
X15599500Y2004427D01*
X15599184Y1995580D01*
X15583851Y1781211D01*
X15581333Y1763700D01*
X15536595Y1558039D01*
X15531611Y1541063D01*
X15458053Y1343849D01*
X15450703Y1327757D01*
X15349836Y1143031D01*
X15340271Y1128146D01*
X15214133Y959646D01*
X15202547Y946276D01*
X15053723Y797452D01*
X15040355Y785867D01*
X14871848Y659724D01*
X14856968Y650163D01*
X14672242Y549296D01*
X14656150Y541946D01*
X14458928Y468385D01*
X14441969Y463406D01*
X14236296Y418665D01*
X14218791Y416148D01*
X14012013Y401359D01*
X14004418Y400816D01*
X13995572Y400500D01*
X2004428Y400500D01*
X1995582Y400816D01*
X1989378Y401259D01*
X1781206Y416148D01*
X1763705Y418665D01*
X1558026Y463407D01*
X1541075Y468384D01*
X1343844Y541948D01*
X1327757Y549296D01*
X1143025Y650166D01*
X1128157Y659720D01*
X959637Y785873D01*
X946283Y797445D01*
X797445Y946283D01*
X785873Y959637D01*
X659720Y1128157D01*
X650166Y1143025D01*
X549295Y1327757D01*
X541946Y1343849D01*
X468384Y1541075D01*
X463407Y1558026D01*
X418665Y1763705D01*
X416148Y1781212D01*
X400816Y1995581D01*
X400500Y2004427D01*
X400500Y19896000D01*
X420185Y19963039D01*
X472989Y20008794D01*
X524500Y20020000D01*
X15475500Y20020000D01*
X15542539Y20000315D01*
G37*
%TD.AperFunction*%
%TD*%
M02*
