%TF.GenerationSoftware,KiCad,Pcbnew,9.0.4*%
%TF.CreationDate,2025-10-20T17:15:32-05:00*%
%TF.ProjectId,Molecule_18650_Battery,4d6f6c65-6375-46c6-955f-31383635305f,rev?*%
%TF.SameCoordinates,Original*%
%TF.FileFunction,Legend,Top*%
%TF.FilePolarity,Positive*%
%FSLAX46Y46*%
G04 Gerber Fmt 4.6, Leading zero omitted, Abs format (unit mm)*
G04 Created by KiCad (PCBNEW 9.0.4) date 2025-10-20 17:15:32*
%MOMM*%
%LPD*%
G01*
G04 APERTURE LIST*
%ADD10C,0.300000*%
%ADD11C,0.125000*%
%ADD12C,0.100000*%
%ADD13C,0.200000*%
%ADD14C,0.000000*%
%ADD15C,0.050000*%
%ADD16C,2.745000*%
%ADD17R,2.745000X2.745000*%
%ADD18C,1.600000*%
G04 APERTURE END LIST*
D10*
X7164510Y59270600D02*
X8307368Y59270600D01*
X7735939Y58699171D02*
X7735939Y59842028D01*
X7714510Y21170600D02*
X8857368Y21170600D01*
X6054510Y2099171D02*
X6054510Y3599171D01*
X6054510Y3599171D02*
X6911653Y2099171D01*
X6911653Y2099171D02*
X6911653Y3599171D01*
X7625939Y2884885D02*
X8125939Y2884885D01*
X8340225Y2099171D02*
X7625939Y2099171D01*
X7625939Y2099171D02*
X7625939Y3599171D01*
X7625939Y3599171D02*
X8340225Y3599171D01*
X9768797Y3527742D02*
X9625940Y3599171D01*
X9625940Y3599171D02*
X9411654Y3599171D01*
X9411654Y3599171D02*
X9197368Y3527742D01*
X9197368Y3527742D02*
X9054511Y3384885D01*
X9054511Y3384885D02*
X8983082Y3242028D01*
X8983082Y3242028D02*
X8911654Y2956314D01*
X8911654Y2956314D02*
X8911654Y2742028D01*
X8911654Y2742028D02*
X8983082Y2456314D01*
X8983082Y2456314D02*
X9054511Y2313457D01*
X9054511Y2313457D02*
X9197368Y2170600D01*
X9197368Y2170600D02*
X9411654Y2099171D01*
X9411654Y2099171D02*
X9554511Y2099171D01*
X9554511Y2099171D02*
X9768797Y2170600D01*
X9768797Y2170600D02*
X9840225Y2242028D01*
X9840225Y2242028D02*
X9840225Y2742028D01*
X9840225Y2742028D02*
X9554511Y2742028D01*
X6154510Y75499171D02*
X6154510Y76999171D01*
X6154510Y76999171D02*
X6725939Y76999171D01*
X6725939Y76999171D02*
X6868796Y76927742D01*
X6868796Y76927742D02*
X6940225Y76856314D01*
X6940225Y76856314D02*
X7011653Y76713457D01*
X7011653Y76713457D02*
X7011653Y76499171D01*
X7011653Y76499171D02*
X6940225Y76356314D01*
X6940225Y76356314D02*
X6868796Y76284885D01*
X6868796Y76284885D02*
X6725939Y76213457D01*
X6725939Y76213457D02*
X6154510Y76213457D01*
X7940225Y76999171D02*
X8225939Y76999171D01*
X8225939Y76999171D02*
X8368796Y76927742D01*
X8368796Y76927742D02*
X8511653Y76784885D01*
X8511653Y76784885D02*
X8583082Y76499171D01*
X8583082Y76499171D02*
X8583082Y75999171D01*
X8583082Y75999171D02*
X8511653Y75713457D01*
X8511653Y75713457D02*
X8368796Y75570600D01*
X8368796Y75570600D02*
X8225939Y75499171D01*
X8225939Y75499171D02*
X7940225Y75499171D01*
X7940225Y75499171D02*
X7797368Y75570600D01*
X7797368Y75570600D02*
X7654510Y75713457D01*
X7654510Y75713457D02*
X7583082Y75999171D01*
X7583082Y75999171D02*
X7583082Y76499171D01*
X7583082Y76499171D02*
X7654510Y76784885D01*
X7654510Y76784885D02*
X7797368Y76927742D01*
X7797368Y76927742D02*
X7940225Y76999171D01*
X9154511Y75570600D02*
X9368797Y75499171D01*
X9368797Y75499171D02*
X9725939Y75499171D01*
X9725939Y75499171D02*
X9868797Y75570600D01*
X9868797Y75570600D02*
X9940225Y75642028D01*
X9940225Y75642028D02*
X10011654Y75784885D01*
X10011654Y75784885D02*
X10011654Y75927742D01*
X10011654Y75927742D02*
X9940225Y76070600D01*
X9940225Y76070600D02*
X9868797Y76142028D01*
X9868797Y76142028D02*
X9725939Y76213457D01*
X9725939Y76213457D02*
X9440225Y76284885D01*
X9440225Y76284885D02*
X9297368Y76356314D01*
X9297368Y76356314D02*
X9225939Y76427742D01*
X9225939Y76427742D02*
X9154511Y76570600D01*
X9154511Y76570600D02*
X9154511Y76713457D01*
X9154511Y76713457D02*
X9225939Y76856314D01*
X9225939Y76856314D02*
X9297368Y76927742D01*
X9297368Y76927742D02*
X9440225Y76999171D01*
X9440225Y76999171D02*
X9797368Y76999171D01*
X9797368Y76999171D02*
X10011654Y76927742D01*
D11*
G36*
X3528454Y43430190D02*
G01*
X3462850Y43430190D01*
X3437500Y43442865D01*
X3428034Y43452330D01*
X3415359Y43477682D01*
X3415359Y43591031D01*
X3428035Y43616383D01*
X3437499Y43625847D01*
X3462851Y43638523D01*
X3528454Y43638523D01*
X3528454Y43430190D01*
G37*
G36*
X3982504Y43625847D02*
G01*
X3991968Y43616382D01*
X4004644Y43591031D01*
X4004644Y43477681D01*
X3991969Y43452331D01*
X3982504Y43442866D01*
X3957152Y43430190D01*
X3915231Y43430190D01*
X3889881Y43442865D01*
X3880415Y43452330D01*
X3867740Y43477682D01*
X3867740Y43591031D01*
X3880416Y43616383D01*
X3889880Y43625847D01*
X3915232Y43638523D01*
X3957152Y43638523D01*
X3982504Y43625847D01*
G37*
G36*
X6053933Y43625847D02*
G01*
X6063397Y43616382D01*
X6076073Y43591031D01*
X6076073Y43477681D01*
X6063398Y43452331D01*
X6053933Y43442866D01*
X6028581Y43430190D01*
X5986660Y43430190D01*
X5961310Y43442865D01*
X5951844Y43452330D01*
X5939169Y43477682D01*
X5939169Y43591031D01*
X5951845Y43616383D01*
X5961309Y43625847D01*
X5986661Y43638523D01*
X6028581Y43638523D01*
X6053933Y43625847D01*
G37*
G36*
X6757218Y43631347D02*
G01*
X6653455Y43610594D01*
X6653455Y43614841D01*
X6661349Y43630629D01*
X6677137Y43638523D01*
X6742867Y43638523D01*
X6757218Y43631347D01*
G37*
G36*
X8328646Y43631347D02*
G01*
X8224883Y43610594D01*
X8224883Y43614841D01*
X8232777Y43630629D01*
X8248565Y43638523D01*
X8314295Y43638523D01*
X8328646Y43631347D01*
G37*
G36*
X9649169Y43578228D02*
G01*
X9658634Y43568762D01*
X9671310Y43543412D01*
X9671310Y43477681D01*
X9658635Y43452332D01*
X9649169Y43442866D01*
X9623818Y43430190D01*
X9558087Y43430190D01*
X9532737Y43442865D01*
X9523271Y43452330D01*
X9510596Y43477682D01*
X9510596Y43543412D01*
X9523272Y43568764D01*
X9532736Y43578228D01*
X9558088Y43590904D01*
X9623818Y43590904D01*
X9649169Y43578228D01*
G37*
G36*
X9649169Y43792513D02*
G01*
X9658635Y43783047D01*
X9669885Y43760547D01*
X9658635Y43738046D01*
X9649169Y43728580D01*
X9623818Y43715904D01*
X9558087Y43715904D01*
X9532737Y43728579D01*
X9523271Y43738044D01*
X9512020Y43760547D01*
X9523271Y43783049D01*
X9532737Y43792514D01*
X9558087Y43805190D01*
X9623818Y43805190D01*
X9649169Y43792513D01*
G37*
G36*
X10125359Y43602037D02*
G01*
X10134825Y43592571D01*
X10147500Y43567222D01*
X10147500Y43477681D01*
X10134825Y43452332D01*
X10125359Y43442866D01*
X10100008Y43430190D01*
X10034277Y43430190D01*
X10008927Y43442865D01*
X9999461Y43452330D01*
X9986786Y43477682D01*
X9986786Y43567222D01*
X9999461Y43592573D01*
X10008927Y43602038D01*
X10034277Y43614714D01*
X10100008Y43614714D01*
X10125359Y43602037D01*
G37*
G36*
X11053930Y43792513D02*
G01*
X11063395Y43783048D01*
X11079599Y43750639D01*
X11099880Y43669518D01*
X11099880Y43565861D01*
X11079599Y43484740D01*
X11063395Y43452331D01*
X11053930Y43442866D01*
X11028578Y43430190D01*
X11010466Y43430190D01*
X10985117Y43442864D01*
X10975651Y43452330D01*
X10959445Y43484740D01*
X10939166Y43565859D01*
X10939166Y43669520D01*
X10959445Y43750639D01*
X10975651Y43783049D01*
X10985117Y43792515D01*
X11010466Y43805190D01*
X11028578Y43805190D01*
X11053930Y43792513D01*
G37*
G36*
X12400071Y43631347D02*
G01*
X12296308Y43610594D01*
X12296308Y43614841D01*
X12304202Y43630629D01*
X12319990Y43638523D01*
X12385720Y43638523D01*
X12400071Y43631347D01*
G37*
G36*
X3075669Y43573047D02*
G01*
X3011002Y43573047D01*
X3043335Y43670046D01*
X3075669Y43573047D01*
G37*
G36*
X13144365Y43242690D02*
G01*
X2751827Y43242690D01*
X2751827Y43363259D01*
X2814327Y43363259D01*
X2835719Y43320475D01*
X2881100Y43305348D01*
X2923884Y43326740D01*
X2935962Y43347926D01*
X2969336Y43448047D01*
X3117335Y43448047D01*
X3150709Y43347926D01*
X3162787Y43326740D01*
X3205571Y43305348D01*
X3250952Y43320475D01*
X3272344Y43363259D01*
X3269295Y43387455D01*
X3196518Y43605785D01*
X3290359Y43605785D01*
X3290359Y43462928D01*
X3290969Y43459858D01*
X3290516Y43458498D01*
X3293163Y43448831D01*
X3295117Y43439010D01*
X3296130Y43437996D01*
X3296957Y43434978D01*
X3320766Y43387359D01*
X3326908Y43379444D01*
X3332475Y43371114D01*
X3356285Y43347305D01*
X3364618Y43341737D01*
X3372527Y43335599D01*
X3420146Y43311788D01*
X3423165Y43310961D01*
X3424179Y43309948D01*
X3434004Y43307993D01*
X3443666Y43305348D01*
X3445025Y43305801D01*
X3448097Y43305190D01*
X3543335Y43305190D01*
X3546406Y43305801D01*
X3547766Y43305348D01*
X3557422Y43307992D01*
X3567253Y43309948D01*
X3614872Y43309948D01*
X3648696Y43343772D01*
X3653454Y43367690D01*
X3653454Y43605785D01*
X3742740Y43605785D01*
X3742740Y43462928D01*
X3743350Y43459858D01*
X3742897Y43458498D01*
X3745544Y43448831D01*
X3747498Y43439010D01*
X3748511Y43437996D01*
X3749338Y43434978D01*
X3773147Y43387359D01*
X3779289Y43379444D01*
X3784856Y43371114D01*
X3808666Y43347305D01*
X3816999Y43341737D01*
X3824908Y43335599D01*
X3872527Y43311788D01*
X3875546Y43310961D01*
X3876560Y43309948D01*
X3886385Y43307993D01*
X3896047Y43305348D01*
X3897406Y43305801D01*
X3900478Y43305190D01*
X3971906Y43305190D01*
X3974977Y43305801D01*
X3976337Y43305348D01*
X3985993Y43307992D01*
X3995824Y43309948D01*
X3996838Y43310962D01*
X3999857Y43311789D01*
X4047476Y43335599D01*
X4055384Y43341737D01*
X4063718Y43347305D01*
X4087528Y43371114D01*
X4093092Y43379441D01*
X4099237Y43387359D01*
X4123046Y43434977D01*
X4123872Y43437996D01*
X4124886Y43439010D01*
X4126840Y43448837D01*
X4129486Y43458498D01*
X4129033Y43459856D01*
X4129644Y43462928D01*
X4129644Y43605785D01*
X4129033Y43608856D01*
X4129486Y43610215D01*
X4126840Y43619875D01*
X4124886Y43629703D01*
X4123872Y43630716D01*
X4123046Y43633736D01*
X4099237Y43681354D01*
X4093092Y43689271D01*
X4087529Y43697598D01*
X4084104Y43701023D01*
X4218930Y43701023D01*
X4218930Y43367690D01*
X4223688Y43343772D01*
X4257512Y43309948D01*
X4305348Y43309948D01*
X4339172Y43343772D01*
X4343930Y43367690D01*
X4343930Y43626681D01*
X4367613Y43638523D01*
X4409533Y43638523D01*
X4425322Y43630628D01*
X4433216Y43614841D01*
X4433216Y43367690D01*
X4437974Y43343772D01*
X4471798Y43309948D01*
X4519634Y43309948D01*
X4553458Y43343772D01*
X4558216Y43367690D01*
X4558216Y43614841D01*
X4566110Y43630629D01*
X4581898Y43638523D01*
X4623819Y43638523D01*
X4639608Y43630628D01*
X4647502Y43614841D01*
X4647502Y43367690D01*
X4652260Y43343772D01*
X4686084Y43309948D01*
X4733920Y43309948D01*
X4767744Y43343772D01*
X4772502Y43367690D01*
X4772502Y43629595D01*
X4771890Y43632666D01*
X4772344Y43634026D01*
X4769698Y43643687D01*
X4767744Y43653513D01*
X4766730Y43654526D01*
X4765904Y43657546D01*
X4742093Y43705165D01*
X4734463Y43714995D01*
X4733407Y43718164D01*
X4729879Y43720902D01*
X4727141Y43724430D01*
X4723972Y43725485D01*
X4714142Y43733116D01*
X4666523Y43756925D01*
X4663504Y43757751D01*
X4662491Y43758765D01*
X4652669Y43760718D01*
X4643003Y43763366D01*
X4641642Y43762912D01*
X4638573Y43763523D01*
X4567144Y43763523D01*
X4564072Y43762912D01*
X4562714Y43763365D01*
X4553053Y43760719D01*
X4543226Y43758765D01*
X4542212Y43757751D01*
X4539193Y43756925D01*
X4495715Y43735186D01*
X4452237Y43756925D01*
X4449218Y43757751D01*
X4448205Y43758765D01*
X4438383Y43760718D01*
X4428717Y43763366D01*
X4427356Y43762912D01*
X4424287Y43763523D01*
X4352859Y43763523D01*
X4349787Y43762912D01*
X4348429Y43763365D01*
X4338768Y43760719D01*
X4328941Y43758765D01*
X4327927Y43757751D01*
X4324908Y43756925D01*
X4313094Y43751018D01*
X4305348Y43758765D01*
X4257512Y43758765D01*
X4223688Y43724941D01*
X4218930Y43701023D01*
X4084104Y43701023D01*
X4063719Y43721408D01*
X4055390Y43726972D01*
X4047475Y43733116D01*
X3999856Y43756925D01*
X3996837Y43757751D01*
X3995824Y43758765D01*
X3986002Y43760718D01*
X3976336Y43763366D01*
X3974975Y43762912D01*
X3971906Y43763523D01*
X3900478Y43763523D01*
X3897406Y43762912D01*
X3896048Y43763365D01*
X3886387Y43760719D01*
X3876560Y43758765D01*
X3875546Y43757751D01*
X3872527Y43756925D01*
X3824909Y43733116D01*
X3816991Y43726971D01*
X3808665Y43721408D01*
X3784855Y43697598D01*
X3779290Y43689269D01*
X3773147Y43681354D01*
X3749338Y43633735D01*
X3748511Y43630716D01*
X3747498Y43629703D01*
X3745544Y43619881D01*
X3742897Y43610215D01*
X3743350Y43608854D01*
X3742740Y43605785D01*
X3653454Y43605785D01*
X3653454Y43867690D01*
X5266549Y43867690D01*
X5266549Y43367690D01*
X5271307Y43343772D01*
X5305131Y43309948D01*
X5352967Y43309948D01*
X5386791Y43343772D01*
X5391549Y43367690D01*
X5391549Y43585968D01*
X5439080Y43484117D01*
X5448608Y43471130D01*
X5449624Y43468337D01*
X5451196Y43467603D01*
X5453506Y43464455D01*
X5473601Y43457147D01*
X5492972Y43448108D01*
X5495716Y43449105D01*
X5498460Y43448108D01*
X5517830Y43457147D01*
X5537926Y43464455D01*
X5540235Y43467603D01*
X5541808Y43468337D01*
X5542823Y43471130D01*
X5552352Y43484117D01*
X5599882Y43585966D01*
X5599882Y43367690D01*
X5604640Y43343772D01*
X5638464Y43309948D01*
X5686300Y43309948D01*
X5720124Y43343772D01*
X5724882Y43367690D01*
X5724882Y43605785D01*
X5814169Y43605785D01*
X5814169Y43462928D01*
X5814779Y43459858D01*
X5814326Y43458498D01*
X5816973Y43448831D01*
X5818927Y43439010D01*
X5819940Y43437996D01*
X5820767Y43434978D01*
X5844576Y43387359D01*
X5850718Y43379444D01*
X5856285Y43371114D01*
X5880095Y43347305D01*
X5888428Y43341737D01*
X5896337Y43335599D01*
X5943956Y43311788D01*
X5946975Y43310961D01*
X5947989Y43309948D01*
X5957814Y43307993D01*
X5967476Y43305348D01*
X5968835Y43305801D01*
X5971907Y43305190D01*
X6043335Y43305190D01*
X6046406Y43305801D01*
X6047766Y43305348D01*
X6057422Y43307992D01*
X6067253Y43309948D01*
X6068267Y43310962D01*
X6071286Y43311789D01*
X6118905Y43335599D01*
X6126813Y43341737D01*
X6135147Y43347305D01*
X6158957Y43371114D01*
X6164521Y43379441D01*
X6170666Y43387359D01*
X6194475Y43434977D01*
X6195301Y43437996D01*
X6196315Y43439010D01*
X6198269Y43448837D01*
X6200915Y43458498D01*
X6200462Y43459856D01*
X6201073Y43462928D01*
X6201073Y43605785D01*
X6200462Y43608856D01*
X6200915Y43610215D01*
X6198269Y43619875D01*
X6196315Y43629703D01*
X6195301Y43630716D01*
X6194475Y43633736D01*
X6170666Y43681354D01*
X6164521Y43689271D01*
X6158958Y43697598D01*
X6135148Y43721408D01*
X6126819Y43726972D01*
X6118904Y43733116D01*
X6071285Y43756925D01*
X6068266Y43757751D01*
X6067253Y43758765D01*
X6057431Y43760718D01*
X6047765Y43763366D01*
X6046404Y43762912D01*
X6043335Y43763523D01*
X5971907Y43763523D01*
X5968835Y43762912D01*
X5967477Y43763365D01*
X5957816Y43760719D01*
X5947989Y43758765D01*
X5946975Y43757751D01*
X5943956Y43756925D01*
X5896338Y43733116D01*
X5888420Y43726971D01*
X5880094Y43721408D01*
X5856284Y43697598D01*
X5850719Y43689269D01*
X5844576Y43681354D01*
X5820767Y43633735D01*
X5819940Y43630716D01*
X5818927Y43629703D01*
X5816973Y43619881D01*
X5814326Y43610215D01*
X5814779Y43608854D01*
X5814169Y43605785D01*
X5724882Y43605785D01*
X5724882Y43867690D01*
X6290359Y43867690D01*
X6290359Y43439119D01*
X6290970Y43436047D01*
X6290517Y43434688D01*
X6293161Y43425031D01*
X6295117Y43415201D01*
X6296131Y43414186D01*
X6296958Y43411168D01*
X6320768Y43363549D01*
X6328396Y43353719D01*
X6329453Y43350551D01*
X6332981Y43347812D01*
X6335720Y43344284D01*
X6338888Y43343227D01*
X6348718Y43335599D01*
X6396337Y43311788D01*
X6419857Y43305348D01*
X6465237Y43320474D01*
X6486631Y43363259D01*
X6471504Y43408639D01*
X6452239Y43423591D01*
X6423254Y43438083D01*
X6415359Y43453872D01*
X6415359Y43629595D01*
X6528455Y43629595D01*
X6528455Y43439119D01*
X6529065Y43436049D01*
X6528612Y43434689D01*
X6531259Y43425022D01*
X6533213Y43415201D01*
X6534226Y43414187D01*
X6535053Y43411169D01*
X6558862Y43363550D01*
X6566492Y43353719D01*
X6567548Y43350551D01*
X6571075Y43347812D01*
X6573814Y43344285D01*
X6576982Y43343228D01*
X6586813Y43335599D01*
X6634432Y43311788D01*
X6637451Y43310961D01*
X6638465Y43309948D01*
X6648290Y43307993D01*
X6657952Y43305348D01*
X6659311Y43305801D01*
X6662383Y43305190D01*
X6757621Y43305190D01*
X6760692Y43305801D01*
X6762052Y43305348D01*
X6771708Y43307992D01*
X6781539Y43309948D01*
X6782553Y43310962D01*
X6785572Y43311789D01*
X6833191Y43335599D01*
X6852456Y43350551D01*
X6867583Y43395931D01*
X6846189Y43438716D01*
X6800809Y43453842D01*
X6777289Y43447402D01*
X6742867Y43430190D01*
X6677136Y43430190D01*
X6661349Y43438083D01*
X6653455Y43453873D01*
X6653455Y43483119D01*
X6841307Y43520690D01*
X6849837Y43524234D01*
X6852968Y43524234D01*
X6855192Y43526458D01*
X6863827Y43530046D01*
X6873921Y43545187D01*
X6886792Y43558058D01*
X6888616Y43567230D01*
X6890361Y43569847D01*
X6889747Y43572914D01*
X6891550Y43581976D01*
X6891550Y43605785D01*
X6957026Y43605785D01*
X6957026Y43462928D01*
X6957636Y43459858D01*
X6957183Y43458498D01*
X6959830Y43448831D01*
X6961784Y43439010D01*
X6962797Y43437996D01*
X6963624Y43434978D01*
X6987433Y43387359D01*
X6993575Y43379444D01*
X6999142Y43371114D01*
X7022952Y43347305D01*
X7031285Y43341737D01*
X7039194Y43335599D01*
X7086813Y43311788D01*
X7089832Y43310961D01*
X7090846Y43309948D01*
X7100671Y43307993D01*
X7110333Y43305348D01*
X7111692Y43305801D01*
X7114764Y43305190D01*
X7210002Y43305190D01*
X7213073Y43305801D01*
X7214433Y43305348D01*
X7224089Y43307992D01*
X7233920Y43309948D01*
X7234934Y43310962D01*
X7237953Y43311789D01*
X7285572Y43335599D01*
X7304837Y43350551D01*
X7319964Y43395931D01*
X7298570Y43438716D01*
X7253190Y43453842D01*
X7229670Y43447402D01*
X7195248Y43430190D01*
X7129517Y43430190D01*
X7104167Y43442865D01*
X7094701Y43452330D01*
X7082026Y43477682D01*
X7082026Y43591031D01*
X7094702Y43616383D01*
X7104166Y43625847D01*
X7129518Y43638523D01*
X7195248Y43638523D01*
X7229670Y43621312D01*
X7253191Y43614872D01*
X7298571Y43629999D01*
X7319963Y43672785D01*
X7310550Y43701023D01*
X7409406Y43701023D01*
X7409406Y43439119D01*
X7410017Y43436047D01*
X7409564Y43434688D01*
X7412208Y43425031D01*
X7414164Y43415201D01*
X7415178Y43414186D01*
X7416005Y43411168D01*
X7439815Y43363549D01*
X7447443Y43353719D01*
X7448500Y43350551D01*
X7452028Y43347812D01*
X7454767Y43344284D01*
X7457935Y43343227D01*
X7467765Y43335599D01*
X7515384Y43311788D01*
X7518403Y43310961D01*
X7519417Y43309948D01*
X7529242Y43307993D01*
X7538904Y43305348D01*
X7540263Y43305801D01*
X7543335Y43305190D01*
X7614763Y43305190D01*
X7617834Y43305801D01*
X7619194Y43305348D01*
X7628850Y43307992D01*
X7638681Y43309948D01*
X7639695Y43310962D01*
X7642714Y43311789D01*
X7654526Y43317695D01*
X7662274Y43309948D01*
X7710110Y43309948D01*
X7743934Y43343772D01*
X7748692Y43367690D01*
X7748692Y43701023D01*
X7743934Y43724941D01*
X7710110Y43758765D01*
X7662274Y43758765D01*
X7628450Y43724941D01*
X7623692Y43701023D01*
X7623692Y43442032D01*
X7600009Y43430190D01*
X7558088Y43430190D01*
X7542301Y43438083D01*
X7534406Y43453872D01*
X7534406Y43701023D01*
X7529648Y43724941D01*
X7495824Y43758765D01*
X7447988Y43758765D01*
X7414164Y43724941D01*
X7409406Y43701023D01*
X7310550Y43701023D01*
X7304836Y43718164D01*
X7285571Y43733116D01*
X7237952Y43756925D01*
X7234933Y43757751D01*
X7233920Y43758765D01*
X7224098Y43760718D01*
X7214432Y43763366D01*
X7213071Y43762912D01*
X7210002Y43763523D01*
X7114764Y43763523D01*
X7111692Y43762912D01*
X7110334Y43763365D01*
X7100673Y43760719D01*
X7090846Y43758765D01*
X7089832Y43757751D01*
X7086813Y43756925D01*
X7039195Y43733116D01*
X7031277Y43726971D01*
X7022951Y43721408D01*
X6999141Y43697598D01*
X6993576Y43689269D01*
X6987433Y43681354D01*
X6963624Y43633735D01*
X6962797Y43630716D01*
X6961784Y43629703D01*
X6959830Y43619881D01*
X6957183Y43610215D01*
X6957636Y43608854D01*
X6957026Y43605785D01*
X6891550Y43605785D01*
X6891550Y43629595D01*
X6890938Y43632666D01*
X6891392Y43634026D01*
X6888746Y43643687D01*
X6886792Y43653513D01*
X6885778Y43654526D01*
X6884952Y43657546D01*
X6861141Y43705165D01*
X6853511Y43714995D01*
X6852455Y43718164D01*
X6848927Y43720902D01*
X6846189Y43724430D01*
X6843020Y43725485D01*
X6833190Y43733116D01*
X6785571Y43756925D01*
X6782552Y43757751D01*
X6781539Y43758765D01*
X6771717Y43760718D01*
X6762051Y43763366D01*
X6760690Y43762912D01*
X6757621Y43763523D01*
X6662383Y43763523D01*
X6659311Y43762912D01*
X6657953Y43763365D01*
X6648292Y43760719D01*
X6638465Y43758765D01*
X6637451Y43757751D01*
X6634432Y43756925D01*
X6586814Y43733116D01*
X6576980Y43725484D01*
X6573814Y43724429D01*
X6571077Y43720903D01*
X6567548Y43718164D01*
X6566491Y43714994D01*
X6558862Y43705164D01*
X6535053Y43657545D01*
X6534226Y43654526D01*
X6533213Y43653513D01*
X6531259Y43643691D01*
X6528612Y43634025D01*
X6529065Y43632664D01*
X6528455Y43629595D01*
X6415359Y43629595D01*
X6415359Y43867690D01*
X7861787Y43867690D01*
X7861787Y43439119D01*
X7862398Y43436047D01*
X7861945Y43434688D01*
X7864589Y43425031D01*
X7866545Y43415201D01*
X7867559Y43414186D01*
X7868386Y43411168D01*
X7892196Y43363549D01*
X7899824Y43353719D01*
X7900881Y43350551D01*
X7904409Y43347812D01*
X7907148Y43344284D01*
X7910316Y43343227D01*
X7920146Y43335599D01*
X7967765Y43311788D01*
X7991285Y43305348D01*
X8036665Y43320474D01*
X8058059Y43363259D01*
X8042932Y43408639D01*
X8023667Y43423591D01*
X7994682Y43438083D01*
X7986787Y43453872D01*
X7986787Y43629595D01*
X8099883Y43629595D01*
X8099883Y43439119D01*
X8100493Y43436049D01*
X8100040Y43434689D01*
X8102687Y43425022D01*
X8104641Y43415201D01*
X8105654Y43414187D01*
X8106481Y43411169D01*
X8130290Y43363550D01*
X8137920Y43353719D01*
X8138976Y43350551D01*
X8142503Y43347812D01*
X8145242Y43344285D01*
X8148410Y43343228D01*
X8158241Y43335599D01*
X8205860Y43311788D01*
X8208879Y43310961D01*
X8209893Y43309948D01*
X8219718Y43307993D01*
X8229380Y43305348D01*
X8230739Y43305801D01*
X8233811Y43305190D01*
X8329049Y43305190D01*
X8332120Y43305801D01*
X8333480Y43305348D01*
X8343136Y43307992D01*
X8352967Y43309948D01*
X8353981Y43310962D01*
X8357000Y43311789D01*
X8404619Y43335599D01*
X8423884Y43350551D01*
X8439011Y43395931D01*
X8417617Y43438716D01*
X8372237Y43453842D01*
X8348717Y43447402D01*
X8314295Y43430190D01*
X8248564Y43430190D01*
X8232777Y43438083D01*
X8224883Y43453873D01*
X8224883Y43483119D01*
X8412735Y43520690D01*
X8421265Y43524234D01*
X8424396Y43524234D01*
X8426620Y43526458D01*
X8435255Y43530046D01*
X8445349Y43545187D01*
X8458220Y43558058D01*
X8460044Y43567230D01*
X8461789Y43569847D01*
X8461175Y43572914D01*
X8462978Y43581976D01*
X8462978Y43629595D01*
X8462366Y43632666D01*
X8462820Y43634026D01*
X8460174Y43643687D01*
X8458220Y43653513D01*
X8457206Y43654526D01*
X8456380Y43657546D01*
X8432569Y43705165D01*
X8424939Y43714995D01*
X8423883Y43718164D01*
X8420998Y43720403D01*
X8909563Y43720403D01*
X8930956Y43677617D01*
X8976336Y43662490D01*
X8999856Y43668931D01*
X9047475Y43692740D01*
X9052263Y43696456D01*
X9052263Y43430190D01*
X8971906Y43430190D01*
X8947988Y43425432D01*
X8914164Y43391608D01*
X8914164Y43343772D01*
X8947988Y43309948D01*
X8971906Y43305190D01*
X9257620Y43305190D01*
X9281538Y43309948D01*
X9315362Y43343772D01*
X9315362Y43391608D01*
X9281538Y43425432D01*
X9257620Y43430190D01*
X9177263Y43430190D01*
X9177263Y43772452D01*
X9385596Y43772452D01*
X9385596Y43748642D01*
X9386206Y43745572D01*
X9385753Y43744212D01*
X9388400Y43734545D01*
X9390354Y43724724D01*
X9391367Y43723710D01*
X9392194Y43720692D01*
X9416003Y43673073D01*
X9422145Y43665158D01*
X9427712Y43656828D01*
X9431136Y43653404D01*
X9427711Y43649979D01*
X9422146Y43641650D01*
X9416003Y43633735D01*
X9392194Y43586116D01*
X9391367Y43583097D01*
X9390354Y43582084D01*
X9388400Y43572262D01*
X9385753Y43562596D01*
X9386206Y43561235D01*
X9385596Y43558166D01*
X9385596Y43462928D01*
X9386206Y43459858D01*
X9385753Y43458498D01*
X9388400Y43448831D01*
X9390354Y43439010D01*
X9391367Y43437996D01*
X9392194Y43434978D01*
X9416003Y43387359D01*
X9422145Y43379444D01*
X9427712Y43371114D01*
X9451522Y43347305D01*
X9459855Y43341737D01*
X9467764Y43335599D01*
X9515383Y43311788D01*
X9518402Y43310961D01*
X9519416Y43309948D01*
X9529241Y43307993D01*
X9538903Y43305348D01*
X9540262Y43305801D01*
X9543334Y43305190D01*
X9638572Y43305190D01*
X9641643Y43305801D01*
X9643003Y43305348D01*
X9652659Y43307992D01*
X9662490Y43309948D01*
X9663504Y43310962D01*
X9666523Y43311789D01*
X9714142Y43335599D01*
X9722053Y43341739D01*
X9730385Y43347306D01*
X9754194Y43371115D01*
X9759760Y43379446D01*
X9765901Y43387358D01*
X9789712Y43434977D01*
X9790538Y43437996D01*
X9791552Y43439010D01*
X9793506Y43448835D01*
X9796152Y43458497D01*
X9795698Y43459856D01*
X9796310Y43462928D01*
X9796310Y43558166D01*
X9795698Y43561237D01*
X9796152Y43562597D01*
X9793506Y43572258D01*
X9791552Y43582084D01*
X9790538Y43583097D01*
X9789712Y43586117D01*
X9765901Y43633736D01*
X9759762Y43641644D01*
X9754195Y43649978D01*
X9750769Y43653404D01*
X9861786Y43653404D01*
X9861786Y43462928D01*
X9862396Y43459858D01*
X9861943Y43458498D01*
X9864590Y43448831D01*
X9866544Y43439010D01*
X9867557Y43437996D01*
X9868384Y43434978D01*
X9892193Y43387359D01*
X9898335Y43379444D01*
X9903902Y43371114D01*
X9927712Y43347305D01*
X9936045Y43341737D01*
X9943954Y43335599D01*
X9991573Y43311788D01*
X9994592Y43310961D01*
X9995606Y43309948D01*
X10005431Y43307993D01*
X10015093Y43305348D01*
X10016452Y43305801D01*
X10019524Y43305190D01*
X10114762Y43305190D01*
X10117833Y43305801D01*
X10119193Y43305348D01*
X10128849Y43307992D01*
X10138680Y43309948D01*
X10139694Y43310962D01*
X10142713Y43311789D01*
X10190332Y43335599D01*
X10198243Y43341739D01*
X10206575Y43347306D01*
X10230384Y43371115D01*
X10235950Y43379446D01*
X10242091Y43387358D01*
X10265902Y43434977D01*
X10266728Y43437996D01*
X10267742Y43439010D01*
X10269696Y43448835D01*
X10272342Y43458497D01*
X10271888Y43459856D01*
X10272500Y43462928D01*
X10272500Y43581976D01*
X10271888Y43585047D01*
X10272342Y43586407D01*
X10269696Y43596068D01*
X10267742Y43605894D01*
X10266728Y43606907D01*
X10265902Y43609927D01*
X10252958Y43635814D01*
X10338286Y43635814D01*
X10340641Y43611541D01*
X10342734Y43608982D01*
X10342734Y43605678D01*
X10357603Y43590808D01*
X10370931Y43574519D01*
X10374222Y43574189D01*
X10376559Y43571853D01*
X10397596Y43571853D01*
X10418530Y43569760D01*
X10421088Y43571853D01*
X10424393Y43571853D01*
X10444670Y43585401D01*
X10461308Y43602039D01*
X10486657Y43614714D01*
X10576198Y43614714D01*
X10601549Y43602037D01*
X10611015Y43592571D01*
X10623690Y43567222D01*
X10623690Y43477681D01*
X10611015Y43452332D01*
X10601549Y43442866D01*
X10576198Y43430190D01*
X10486657Y43430190D01*
X10461308Y43442864D01*
X10444670Y43459503D01*
X10424393Y43473051D01*
X10376559Y43473051D01*
X10342734Y43439226D01*
X10342734Y43391392D01*
X10356282Y43371115D01*
X10380091Y43347306D01*
X10388422Y43341739D01*
X10396334Y43335599D01*
X10443953Y43311788D01*
X10446972Y43310961D01*
X10447986Y43309948D01*
X10457811Y43307993D01*
X10467473Y43305348D01*
X10468832Y43305801D01*
X10471904Y43305190D01*
X10590952Y43305190D01*
X10594023Y43305801D01*
X10595383Y43305348D01*
X10605039Y43307992D01*
X10614870Y43309948D01*
X10615884Y43310962D01*
X10618903Y43311789D01*
X10666522Y43335599D01*
X10674433Y43341739D01*
X10682765Y43347306D01*
X10706574Y43371115D01*
X10712140Y43379446D01*
X10718281Y43387358D01*
X10742092Y43434977D01*
X10742918Y43437996D01*
X10743932Y43439010D01*
X10745886Y43448835D01*
X10748532Y43458497D01*
X10748078Y43459856D01*
X10748690Y43462928D01*
X10748690Y43581976D01*
X10748078Y43585047D01*
X10748532Y43586407D01*
X10745886Y43596068D01*
X10743932Y43605894D01*
X10742918Y43606907D01*
X10742092Y43609927D01*
X10718281Y43657546D01*
X10712140Y43665457D01*
X10706574Y43673789D01*
X10703149Y43677214D01*
X10814166Y43677214D01*
X10814166Y43558166D01*
X10815659Y43550656D01*
X10816032Y43543008D01*
X10839841Y43447770D01*
X10842766Y43441577D01*
X10844574Y43434977D01*
X10868384Y43387358D01*
X10874524Y43379446D01*
X10880091Y43371115D01*
X10903900Y43347306D01*
X10912231Y43341739D01*
X10920143Y43335599D01*
X10967762Y43311788D01*
X10970781Y43310961D01*
X10971795Y43309948D01*
X10981620Y43307993D01*
X10991282Y43305348D01*
X10992641Y43305801D01*
X10995713Y43305190D01*
X11043332Y43305190D01*
X11046403Y43305801D01*
X11047763Y43305348D01*
X11057419Y43307992D01*
X11067250Y43309948D01*
X11068264Y43310962D01*
X11071283Y43311789D01*
X11118902Y43335599D01*
X11126810Y43341737D01*
X11135144Y43347305D01*
X11158954Y43371114D01*
X11164518Y43379441D01*
X11170663Y43387359D01*
X11194472Y43434977D01*
X11196279Y43441578D01*
X11199204Y43447769D01*
X11223014Y43543007D01*
X11223386Y43550656D01*
X11224880Y43558166D01*
X11224880Y43653404D01*
X11671308Y43653404D01*
X11671308Y43581976D01*
X11672801Y43574466D01*
X11673174Y43566818D01*
X11696983Y43471580D01*
X11699908Y43465387D01*
X11701716Y43458787D01*
X11725526Y43411168D01*
X11731666Y43403256D01*
X11737233Y43394925D01*
X11784852Y43347306D01*
X11787453Y43345567D01*
X11788095Y43344285D01*
X11796806Y43339318D01*
X11805129Y43333758D01*
X11806560Y43333758D01*
X11809281Y43332207D01*
X11880709Y43308397D01*
X11890649Y43307144D01*
X11900474Y43305190D01*
X11948093Y43305190D01*
X11957918Y43307144D01*
X11967857Y43308397D01*
X12039287Y43332207D01*
X12042008Y43333758D01*
X12043439Y43333758D01*
X12051761Y43339318D01*
X12060473Y43344285D01*
X12061114Y43345567D01*
X12063716Y43347306D01*
X12087525Y43371115D01*
X12101073Y43391392D01*
X12101073Y43439226D01*
X12067248Y43473051D01*
X12019414Y43473051D01*
X11999137Y43459503D01*
X11985761Y43446127D01*
X11937950Y43430190D01*
X11910618Y43430190D01*
X11862806Y43446127D01*
X11832793Y43476140D01*
X11816587Y43508550D01*
X11796308Y43589669D01*
X11796308Y43629595D01*
X12171308Y43629595D01*
X12171308Y43439119D01*
X12171918Y43436049D01*
X12171465Y43434689D01*
X12174112Y43425022D01*
X12176066Y43415201D01*
X12177079Y43414187D01*
X12177906Y43411169D01*
X12201715Y43363550D01*
X12209345Y43353719D01*
X12210401Y43350551D01*
X12213928Y43347812D01*
X12216667Y43344285D01*
X12219835Y43343228D01*
X12229666Y43335599D01*
X12277285Y43311788D01*
X12280304Y43310961D01*
X12281318Y43309948D01*
X12291143Y43307993D01*
X12300805Y43305348D01*
X12302164Y43305801D01*
X12305236Y43305190D01*
X12400474Y43305190D01*
X12403545Y43305801D01*
X12404905Y43305348D01*
X12414561Y43307992D01*
X12424392Y43309948D01*
X12425406Y43310962D01*
X12428425Y43311789D01*
X12476044Y43335599D01*
X12495309Y43350551D01*
X12510436Y43395931D01*
X12489042Y43438716D01*
X12443662Y43453842D01*
X12420142Y43447402D01*
X12385720Y43430190D01*
X12319989Y43430190D01*
X12304202Y43438083D01*
X12296308Y43453873D01*
X12296308Y43483119D01*
X12484160Y43520690D01*
X12492690Y43524234D01*
X12495821Y43524234D01*
X12498045Y43526458D01*
X12506680Y43530046D01*
X12516774Y43545187D01*
X12529645Y43558058D01*
X12531469Y43567230D01*
X12533214Y43569847D01*
X12532600Y43572914D01*
X12534403Y43581976D01*
X12534403Y43629595D01*
X12533791Y43632666D01*
X12534245Y43634026D01*
X12531599Y43643687D01*
X12529645Y43653513D01*
X12528631Y43654526D01*
X12527805Y43657546D01*
X12503994Y43705165D01*
X12496364Y43714995D01*
X12495308Y43718164D01*
X12491780Y43720902D01*
X12489042Y43724430D01*
X12485873Y43725485D01*
X12476043Y43733116D01*
X12428424Y43756925D01*
X12425405Y43757751D01*
X12424392Y43758765D01*
X12414570Y43760718D01*
X12404904Y43763366D01*
X12403543Y43762912D01*
X12400474Y43763523D01*
X12305236Y43763523D01*
X12302164Y43762912D01*
X12300806Y43763365D01*
X12291145Y43760719D01*
X12281318Y43758765D01*
X12280304Y43757751D01*
X12277285Y43756925D01*
X12229667Y43733116D01*
X12219833Y43725484D01*
X12216667Y43724429D01*
X12213930Y43720903D01*
X12210401Y43718164D01*
X12209344Y43714994D01*
X12201715Y43705164D01*
X12177906Y43657545D01*
X12177079Y43654526D01*
X12176066Y43653513D01*
X12174112Y43643691D01*
X12171465Y43634025D01*
X12171918Y43632664D01*
X12171308Y43629595D01*
X11796308Y43629595D01*
X11796308Y43645710D01*
X11816587Y43726829D01*
X11832793Y43759239D01*
X11862806Y43789252D01*
X11910618Y43805190D01*
X11937950Y43805190D01*
X11985761Y43789252D01*
X11999137Y43775877D01*
X12019414Y43762329D01*
X12067248Y43762329D01*
X12101073Y43796154D01*
X12101073Y43843988D01*
X12087525Y43864265D01*
X12084100Y43867690D01*
X12623688Y43867690D01*
X12623688Y43439119D01*
X12624299Y43436047D01*
X12623846Y43434688D01*
X12626490Y43425031D01*
X12628446Y43415201D01*
X12629460Y43414186D01*
X12630287Y43411168D01*
X12654097Y43363549D01*
X12661725Y43353719D01*
X12662782Y43350551D01*
X12666310Y43347812D01*
X12669049Y43344284D01*
X12672217Y43343227D01*
X12682047Y43335599D01*
X12729666Y43311788D01*
X12753186Y43305348D01*
X12798566Y43320474D01*
X12819960Y43363259D01*
X12804833Y43408639D01*
X12785568Y43423591D01*
X12756583Y43438083D01*
X12748688Y43453872D01*
X12748688Y43867690D01*
X12885593Y43867690D01*
X12885593Y43439119D01*
X12886204Y43436047D01*
X12885751Y43434688D01*
X12888395Y43425031D01*
X12890351Y43415201D01*
X12891365Y43414186D01*
X12892192Y43411168D01*
X12916002Y43363549D01*
X12923630Y43353719D01*
X12924687Y43350551D01*
X12928215Y43347812D01*
X12930954Y43344284D01*
X12934122Y43343227D01*
X12943952Y43335599D01*
X12991571Y43311788D01*
X13015091Y43305348D01*
X13060471Y43320474D01*
X13081865Y43363259D01*
X13066738Y43408639D01*
X13047473Y43423591D01*
X13018488Y43438083D01*
X13010593Y43453872D01*
X13010593Y43867690D01*
X13005835Y43891608D01*
X12972011Y43925432D01*
X12924175Y43925432D01*
X12890351Y43891608D01*
X12885593Y43867690D01*
X12748688Y43867690D01*
X12743930Y43891608D01*
X12710106Y43925432D01*
X12662270Y43925432D01*
X12628446Y43891608D01*
X12623688Y43867690D01*
X12084100Y43867690D01*
X12063716Y43888074D01*
X12061114Y43889812D01*
X12060473Y43891095D01*
X12051761Y43896061D01*
X12043439Y43901622D01*
X12042008Y43901622D01*
X12039287Y43903173D01*
X11967857Y43926983D01*
X11957918Y43928235D01*
X11948093Y43930190D01*
X11900474Y43930190D01*
X11890649Y43928235D01*
X11880709Y43926983D01*
X11809281Y43903173D01*
X11806560Y43901622D01*
X11805129Y43901622D01*
X11796806Y43896061D01*
X11788095Y43891095D01*
X11787453Y43889812D01*
X11784852Y43888074D01*
X11737233Y43840455D01*
X11731666Y43832123D01*
X11725526Y43824212D01*
X11701716Y43776593D01*
X11699908Y43769992D01*
X11696983Y43763800D01*
X11673174Y43668562D01*
X11672801Y43660913D01*
X11671308Y43653404D01*
X11224880Y43653404D01*
X11224880Y43677214D01*
X11223386Y43684723D01*
X11223014Y43692373D01*
X11199204Y43787611D01*
X11196279Y43793801D01*
X11194472Y43800403D01*
X11170663Y43848021D01*
X11164518Y43855938D01*
X11158954Y43864266D01*
X11135144Y43888075D01*
X11126810Y43893642D01*
X11118902Y43899781D01*
X11071283Y43923591D01*
X11068264Y43924417D01*
X11067250Y43925432D01*
X11057419Y43927387D01*
X11047763Y43930032D01*
X11046403Y43929578D01*
X11043332Y43930190D01*
X10995713Y43930190D01*
X10992641Y43929578D01*
X10991282Y43930032D01*
X10981620Y43927386D01*
X10971795Y43925432D01*
X10970781Y43924418D01*
X10967762Y43923592D01*
X10920143Y43899781D01*
X10912231Y43893640D01*
X10903900Y43888074D01*
X10880091Y43864265D01*
X10874524Y43855933D01*
X10868384Y43848022D01*
X10844574Y43800403D01*
X10842766Y43793802D01*
X10839841Y43787610D01*
X10816032Y43692372D01*
X10815659Y43684723D01*
X10814166Y43677214D01*
X10703149Y43677214D01*
X10682765Y43697598D01*
X10674433Y43703164D01*
X10666522Y43709305D01*
X10618903Y43733115D01*
X10615884Y43733941D01*
X10614870Y43734956D01*
X10605039Y43736911D01*
X10595383Y43739556D01*
X10594023Y43739102D01*
X10590952Y43739714D01*
X10474300Y43739714D01*
X10480847Y43805190D01*
X10662380Y43805190D01*
X10686298Y43809948D01*
X10720122Y43843772D01*
X10720122Y43891608D01*
X10686298Y43925432D01*
X10662380Y43930190D01*
X10424285Y43930190D01*
X10409330Y43927215D01*
X10406231Y43927525D01*
X10404734Y43926300D01*
X10400367Y43925432D01*
X10385489Y43910554D01*
X10369209Y43897234D01*
X10367910Y43892975D01*
X10366543Y43891608D01*
X10366543Y43888492D01*
X10362095Y43873908D01*
X10338286Y43635814D01*
X10252958Y43635814D01*
X10242091Y43657546D01*
X10235950Y43665457D01*
X10230384Y43673789D01*
X10206575Y43697598D01*
X10198243Y43703164D01*
X10190332Y43709305D01*
X10142713Y43733115D01*
X10139694Y43733941D01*
X10138680Y43734956D01*
X10128849Y43736911D01*
X10119193Y43739556D01*
X10117833Y43739102D01*
X10114762Y43739714D01*
X10019524Y43739714D01*
X10016911Y43739194D01*
X10044282Y43780251D01*
X10056546Y43792514D01*
X10081896Y43805190D01*
X10162381Y43805190D01*
X10186299Y43809948D01*
X10220123Y43843772D01*
X10220123Y43891608D01*
X10186299Y43925432D01*
X10162381Y43930190D01*
X10067143Y43930190D01*
X10064071Y43929578D01*
X10062712Y43930032D01*
X10053050Y43927386D01*
X10043225Y43925432D01*
X10042211Y43924418D01*
X10039192Y43923592D01*
X9991573Y43899781D01*
X9983664Y43893642D01*
X9975331Y43888075D01*
X9951521Y43864266D01*
X9948083Y43859121D01*
X9943711Y43854740D01*
X9896092Y43783311D01*
X9892017Y43773444D01*
X9887461Y43763800D01*
X9863652Y43668562D01*
X9863279Y43660913D01*
X9861786Y43653404D01*
X9750769Y43653404D01*
X9754194Y43656829D01*
X9759760Y43665160D01*
X9765901Y43673072D01*
X9789712Y43720691D01*
X9790538Y43723710D01*
X9791552Y43724724D01*
X9793506Y43734549D01*
X9796152Y43744211D01*
X9795698Y43745570D01*
X9796310Y43748642D01*
X9796310Y43772452D01*
X9795698Y43775523D01*
X9796152Y43776883D01*
X9793506Y43786544D01*
X9791552Y43796370D01*
X9790538Y43797383D01*
X9789712Y43800403D01*
X9765901Y43848022D01*
X9759760Y43855933D01*
X9754194Y43864265D01*
X9730385Y43888074D01*
X9722053Y43893640D01*
X9714142Y43899781D01*
X9666523Y43923591D01*
X9663504Y43924417D01*
X9662490Y43925432D01*
X9652659Y43927387D01*
X9643003Y43930032D01*
X9641643Y43929578D01*
X9638572Y43930190D01*
X9543334Y43930190D01*
X9540262Y43929578D01*
X9538903Y43930032D01*
X9529241Y43927386D01*
X9519416Y43925432D01*
X9518402Y43924418D01*
X9515383Y43923592D01*
X9467764Y43899781D01*
X9459855Y43893642D01*
X9451522Y43888075D01*
X9427712Y43864266D01*
X9422145Y43855935D01*
X9416003Y43848021D01*
X9392194Y43800402D01*
X9391367Y43797383D01*
X9390354Y43796370D01*
X9388400Y43786548D01*
X9385753Y43776882D01*
X9386206Y43775521D01*
X9385596Y43772452D01*
X9177263Y43772452D01*
X9177263Y43867690D01*
X9172505Y43891608D01*
X9167954Y43896158D01*
X9166693Y43902467D01*
X9151551Y43912561D01*
X9138681Y43925432D01*
X9132246Y43925432D01*
X9126891Y43929002D01*
X9109041Y43925432D01*
X9090845Y43925432D01*
X9086296Y43920883D01*
X9079986Y43919621D01*
X9062760Y43902359D01*
X9018572Y43836077D01*
X8982504Y43800009D01*
X8943956Y43780735D01*
X8924690Y43765783D01*
X8909563Y43720403D01*
X8420998Y43720403D01*
X8420355Y43720902D01*
X8417617Y43724430D01*
X8414448Y43725485D01*
X8404618Y43733116D01*
X8356999Y43756925D01*
X8353980Y43757751D01*
X8352967Y43758765D01*
X8343145Y43760718D01*
X8333479Y43763366D01*
X8332118Y43762912D01*
X8329049Y43763523D01*
X8233811Y43763523D01*
X8230739Y43762912D01*
X8229381Y43763365D01*
X8219720Y43760719D01*
X8209893Y43758765D01*
X8208879Y43757751D01*
X8205860Y43756925D01*
X8158242Y43733116D01*
X8148408Y43725484D01*
X8145242Y43724429D01*
X8142505Y43720903D01*
X8138976Y43718164D01*
X8137919Y43714994D01*
X8130290Y43705164D01*
X8106481Y43657545D01*
X8105654Y43654526D01*
X8104641Y43653513D01*
X8102687Y43643691D01*
X8100040Y43634025D01*
X8100493Y43632664D01*
X8099883Y43629595D01*
X7986787Y43629595D01*
X7986787Y43867690D01*
X7982029Y43891608D01*
X7948205Y43925432D01*
X7900369Y43925432D01*
X7866545Y43891608D01*
X7861787Y43867690D01*
X6415359Y43867690D01*
X6410601Y43891608D01*
X6376777Y43925432D01*
X6328941Y43925432D01*
X6295117Y43891608D01*
X6290359Y43867690D01*
X5724882Y43867690D01*
X5720124Y43891608D01*
X5712270Y43899461D01*
X5708474Y43909901D01*
X5696018Y43915713D01*
X5686300Y43925432D01*
X5675193Y43925432D01*
X5665126Y43930130D01*
X5652207Y43925432D01*
X5638464Y43925432D01*
X5630611Y43917579D01*
X5620172Y43913783D01*
X5605746Y43894121D01*
X5495715Y43658340D01*
X5385685Y43894120D01*
X5371259Y43913782D01*
X5360821Y43917577D01*
X5352967Y43925432D01*
X5339222Y43925432D01*
X5326305Y43930129D01*
X5316240Y43925432D01*
X5305131Y43925432D01*
X5295410Y43915711D01*
X5282957Y43909900D01*
X5279161Y43899462D01*
X5271307Y43891608D01*
X5266549Y43867690D01*
X3653454Y43867690D01*
X3648696Y43891608D01*
X3614872Y43925432D01*
X3567036Y43925432D01*
X3533212Y43891608D01*
X3528454Y43867690D01*
X3528454Y43763523D01*
X3448097Y43763523D01*
X3445025Y43762912D01*
X3443667Y43763365D01*
X3434006Y43760719D01*
X3424179Y43758765D01*
X3423165Y43757751D01*
X3420146Y43756925D01*
X3372528Y43733116D01*
X3364610Y43726971D01*
X3356284Y43721408D01*
X3332474Y43697598D01*
X3326909Y43689269D01*
X3320766Y43681354D01*
X3296957Y43633735D01*
X3296130Y43630716D01*
X3295117Y43629703D01*
X3293163Y43619881D01*
X3290516Y43610215D01*
X3290969Y43608854D01*
X3290359Y43605785D01*
X3196518Y43605785D01*
X3102628Y43887454D01*
X3090550Y43908640D01*
X3086373Y43910728D01*
X3084285Y43914905D01*
X3065490Y43921170D01*
X3047766Y43930032D01*
X3043335Y43928555D01*
X3038904Y43930032D01*
X3021180Y43921170D01*
X3002385Y43914905D01*
X3000296Y43910728D01*
X2996120Y43908640D01*
X2984042Y43887454D01*
X2817376Y43387454D01*
X2814327Y43363259D01*
X2751827Y43363259D01*
X2751827Y43992690D01*
X13144365Y43992690D01*
X13144365Y43242690D01*
G37*
D12*
%TO.C,BT2*%
X5420000Y19800000D02*
G75*
G02*
X5420000Y19900000I0J50000D01*
G01*
X5420000Y19900000D02*
G75*
G02*
X5420000Y19800000I0J-50000D01*
G01*
D13*
X15705001Y9760000D02*
X15705000Y19280000D01*
X15705000Y19280000D02*
X215000Y19280002D01*
X13525001Y6279999D02*
X2395000Y6280000D01*
X13525000Y9759997D02*
X13525001Y6279999D01*
X9960003Y9759999D02*
X15705001Y9760000D01*
D12*
X5420000Y19800000D02*
X5420000Y19800000D01*
X5420000Y19900000D02*
X5420000Y19900000D01*
D13*
X2395000Y6280000D02*
X2395000Y9760000D01*
X215000Y9760002D02*
X5960000Y9760000D01*
X215000Y19280002D02*
X215000Y9760002D01*
D14*
%TO.C,REF\u002A\u002A*%
G36*
X5800000Y45000000D02*
G01*
X5800345Y44999973D01*
X5800684Y44999930D01*
X5801019Y44999870D01*
X5801347Y44999794D01*
X5801669Y44999703D01*
X5801985Y44999596D01*
X5802293Y44999474D01*
X5802594Y44999338D01*
X5802887Y44999187D01*
X5803172Y44999024D01*
X5803447Y44998847D01*
X5803714Y44998657D01*
X5803970Y44998455D01*
X5804217Y44998241D01*
X5804453Y44998016D01*
X5804678Y44997780D01*
X5804892Y44997534D01*
X5805094Y44997277D01*
X5805284Y44997010D01*
X5805460Y44996735D01*
X5805624Y44996450D01*
X5805774Y44996157D01*
X5805911Y44995856D01*
X5806033Y44995548D01*
X5806140Y44995232D01*
X5806231Y44994910D01*
X5806307Y44994582D01*
X5806367Y44994247D01*
X5806410Y44993908D01*
X5806437Y44993563D01*
X5806445Y44993214D01*
X5806445Y44681937D01*
X5806124Y44672591D01*
X5805422Y44663349D01*
X5804338Y44654223D01*
X5802869Y44645225D01*
X5801014Y44636366D01*
X5798772Y44627659D01*
X5796140Y44619115D01*
X5793118Y44610746D01*
X5789704Y44602563D01*
X5785897Y44594579D01*
X5781694Y44586806D01*
X5777094Y44579255D01*
X5772095Y44571937D01*
X5766697Y44564866D01*
X5760896Y44558052D01*
X5754693Y44551508D01*
X5746595Y44543921D01*
X5738092Y44536944D01*
X5729206Y44530576D01*
X5719959Y44524813D01*
X5710374Y44519652D01*
X5700471Y44515091D01*
X5690273Y44511127D01*
X5679803Y44507756D01*
X5669081Y44504975D01*
X5658131Y44502783D01*
X5646975Y44501175D01*
X5635633Y44500150D01*
X5624130Y44499704D01*
X5612485Y44499834D01*
X5600722Y44500537D01*
X5588863Y44501811D01*
X5576929Y44503653D01*
X5564943Y44506059D01*
X5552926Y44509027D01*
X5540901Y44512554D01*
X5516915Y44521273D01*
X5493160Y44532193D01*
X5469813Y44545291D01*
X5458348Y44552649D01*
X5447050Y44560543D01*
X5435943Y44568970D01*
X5425048Y44577927D01*
X5414387Y44587411D01*
X5403983Y44597419D01*
X5403982Y44597482D01*
X5393980Y44607887D01*
X5384502Y44618548D01*
X5375550Y44629443D01*
X5367128Y44640550D01*
X5359238Y44651847D01*
X5351884Y44663313D01*
X5345068Y44674924D01*
X5338793Y44686660D01*
X5333062Y44698497D01*
X5327878Y44710415D01*
X5323244Y44722390D01*
X5319163Y44734401D01*
X5315637Y44746426D01*
X5312670Y44758442D01*
X5310264Y44770429D01*
X5308423Y44782362D01*
X5307149Y44794222D01*
X5306445Y44805985D01*
X5306314Y44817629D01*
X5306759Y44829133D01*
X5307782Y44840474D01*
X5309388Y44851631D01*
X5311578Y44862581D01*
X5314355Y44873302D01*
X5317723Y44883773D01*
X5321684Y44893970D01*
X5326242Y44903873D01*
X5331398Y44913459D01*
X5337156Y44922706D01*
X5343519Y44931592D01*
X5350490Y44940095D01*
X5358072Y44948193D01*
X5364779Y44954551D01*
X5371771Y44960483D01*
X5379035Y44965991D01*
X5386558Y44971076D01*
X5394327Y44975743D01*
X5402330Y44979991D01*
X5410553Y44983825D01*
X5418984Y44987245D01*
X5427611Y44990255D01*
X5436419Y44992856D01*
X5445396Y44995051D01*
X5454530Y44996842D01*
X5463808Y44998230D01*
X5473217Y44999220D01*
X5482743Y44999812D01*
X5492374Y45000009D01*
X5799651Y45000009D01*
X5800000Y45000000D01*
G37*
G36*
X6000469Y45500056D02*
G01*
X6012232Y45499353D01*
X6024092Y45498079D01*
X6036026Y45496237D01*
X6048012Y45493831D01*
X6060028Y45490863D01*
X6072053Y45487336D01*
X6096039Y45478617D01*
X6119794Y45467697D01*
X6143141Y45454599D01*
X6154607Y45447241D01*
X6165904Y45439347D01*
X6177011Y45430920D01*
X6187906Y45421963D01*
X6198567Y45412480D01*
X6208972Y45402471D01*
X6208972Y45402408D01*
X6218974Y45392003D01*
X6228453Y45381342D01*
X6237404Y45370447D01*
X6245827Y45359340D01*
X6253716Y45348043D01*
X6261071Y45336577D01*
X6267887Y45324966D01*
X6274162Y45313230D01*
X6279892Y45301393D01*
X6285076Y45289475D01*
X6289710Y45277500D01*
X6293792Y45265489D01*
X6297317Y45253464D01*
X6300284Y45241448D01*
X6302690Y45229462D01*
X6304531Y45217528D01*
X6305806Y45205668D01*
X6306510Y45193905D01*
X6306641Y45182261D01*
X6306196Y45170757D01*
X6305172Y45159416D01*
X6303567Y45148259D01*
X6301377Y45137309D01*
X6298599Y45126588D01*
X6295231Y45116117D01*
X6291270Y45105920D01*
X6286713Y45096017D01*
X6281557Y45086431D01*
X6275798Y45077184D01*
X6269435Y45068298D01*
X6262464Y45059795D01*
X6254882Y45051697D01*
X6248175Y45045339D01*
X6241184Y45039407D01*
X6233920Y45033900D01*
X6226397Y45028814D01*
X6218627Y45024148D01*
X6210625Y45019899D01*
X6202401Y45016065D01*
X6193970Y45012645D01*
X6185344Y45009635D01*
X6176536Y45007034D01*
X6167558Y45004839D01*
X6158424Y45003049D01*
X6149146Y45001660D01*
X6139738Y45000670D01*
X6130212Y45000078D01*
X6120580Y44999882D01*
X5813303Y44999882D01*
X5812954Y44999890D01*
X5812610Y44999917D01*
X5812270Y44999960D01*
X5811936Y45000020D01*
X5811607Y45000096D01*
X5811285Y45000188D01*
X5810970Y45000294D01*
X5810661Y45000416D01*
X5810360Y45000553D01*
X5810067Y45000703D01*
X5809783Y45000867D01*
X5809507Y45001044D01*
X5809241Y45001233D01*
X5808984Y45001435D01*
X5808737Y45001649D01*
X5808501Y45001874D01*
X5808276Y45002110D01*
X5808062Y45002357D01*
X5807861Y45002613D01*
X5807671Y45002880D01*
X5807494Y45003156D01*
X5807330Y45003440D01*
X5807180Y45003733D01*
X5807044Y45004034D01*
X5806922Y45004342D01*
X5806815Y45004658D01*
X5806723Y45004980D01*
X5806647Y45005308D01*
X5806587Y45005643D01*
X5806544Y45005982D01*
X5806518Y45006327D01*
X5806509Y45006676D01*
X5806509Y45317953D01*
X5806830Y45327299D01*
X5807532Y45336541D01*
X5808617Y45345667D01*
X5810086Y45354665D01*
X5811941Y45363524D01*
X5814183Y45372231D01*
X5816814Y45380775D01*
X5819836Y45389144D01*
X5823250Y45397327D01*
X5827058Y45405311D01*
X5831261Y45413084D01*
X5835861Y45420635D01*
X5840859Y45427953D01*
X5846258Y45435024D01*
X5852058Y45441838D01*
X5858261Y45448382D01*
X5866359Y45455969D01*
X5874862Y45462946D01*
X5883748Y45469314D01*
X5892995Y45475077D01*
X5902581Y45480238D01*
X5912484Y45484799D01*
X5922681Y45488763D01*
X5933152Y45492134D01*
X5943873Y45494915D01*
X5954823Y45497107D01*
X5965980Y45498715D01*
X5977321Y45499740D01*
X5988825Y45500186D01*
X6000469Y45500056D01*
G37*
G36*
X8435733Y45406109D02*
G01*
X8450883Y45405404D01*
X8465865Y45404238D01*
X8480672Y45402617D01*
X8495300Y45400547D01*
X8509739Y45398035D01*
X8523985Y45395087D01*
X8538031Y45391710D01*
X8551869Y45387911D01*
X8565494Y45383696D01*
X8578898Y45379072D01*
X8592076Y45374044D01*
X8605020Y45368620D01*
X8617724Y45362807D01*
X8630182Y45356610D01*
X8642387Y45350036D01*
X8654332Y45343093D01*
X8666010Y45335785D01*
X8677416Y45328121D01*
X8688543Y45320105D01*
X8699383Y45311746D01*
X8709931Y45303049D01*
X8720179Y45294021D01*
X8730122Y45284669D01*
X8739752Y45274999D01*
X8749064Y45265017D01*
X8758050Y45254731D01*
X8766704Y45244146D01*
X8775019Y45233269D01*
X8782989Y45222107D01*
X8790607Y45210667D01*
X8797867Y45198954D01*
X8797867Y45199081D01*
X8799116Y45197726D01*
X8800395Y45196480D01*
X8801700Y45195340D01*
X8803027Y45194299D01*
X8804370Y45193355D01*
X8805725Y45192502D01*
X8807087Y45191737D01*
X8808452Y45191055D01*
X8809816Y45190452D01*
X8811173Y45189923D01*
X8812519Y45189465D01*
X8813850Y45189072D01*
X8815160Y45188741D01*
X8816446Y45188466D01*
X8817702Y45188245D01*
X8818925Y45188072D01*
X8821250Y45187854D01*
X8823384Y45187777D01*
X8825291Y45187807D01*
X8826933Y45187910D01*
X8828274Y45188050D01*
X8829278Y45188193D01*
X8830125Y45188350D01*
X8830981Y45188574D01*
X8833283Y45189345D01*
X8834851Y45189982D01*
X8836631Y45190811D01*
X8838573Y45191851D01*
X8840626Y45193120D01*
X8842741Y45194637D01*
X8843806Y45195494D01*
X8844868Y45196420D01*
X8845920Y45197418D01*
X8846957Y45198489D01*
X8847971Y45199635D01*
X8848957Y45200860D01*
X8849909Y45202165D01*
X8850820Y45203553D01*
X8851684Y45205027D01*
X8852495Y45206587D01*
X8853246Y45208237D01*
X8853931Y45209980D01*
X8854545Y45211816D01*
X8855080Y45213750D01*
X8855207Y45213242D01*
X8855207Y45361895D01*
X8855248Y45363510D01*
X8855369Y45365104D01*
X8855568Y45366675D01*
X8855844Y45368220D01*
X8856194Y45369738D01*
X8856617Y45371227D01*
X8857110Y45372685D01*
X8857671Y45374110D01*
X8858299Y45375500D01*
X8858991Y45376852D01*
X8859746Y45378166D01*
X8860562Y45379439D01*
X8861436Y45380668D01*
X8862367Y45381853D01*
X8863353Y45382991D01*
X8864391Y45384080D01*
X8865480Y45385119D01*
X8866618Y45386104D01*
X8867803Y45387035D01*
X8869033Y45387910D01*
X8870306Y45388725D01*
X8871619Y45389480D01*
X8872972Y45390173D01*
X8874362Y45390800D01*
X8875786Y45391362D01*
X8877244Y45391855D01*
X8878733Y45392277D01*
X8880251Y45392627D01*
X8881797Y45392903D01*
X8883367Y45393102D01*
X8884961Y45393223D01*
X8886577Y45393264D01*
X9135814Y45393264D01*
X9136983Y45393241D01*
X9138145Y45393173D01*
X9139299Y45393061D01*
X9140443Y45392906D01*
X9141576Y45392707D01*
X9142698Y45392466D01*
X9143807Y45392184D01*
X9144902Y45391861D01*
X9145983Y45391498D01*
X9147047Y45391096D01*
X9148094Y45390655D01*
X9149123Y45390177D01*
X9150134Y45389661D01*
X9151123Y45389109D01*
X9152092Y45388521D01*
X9153038Y45387898D01*
X9153961Y45387241D01*
X9154859Y45386551D01*
X9155732Y45385828D01*
X9156578Y45385072D01*
X9157396Y45384286D01*
X9158185Y45383468D01*
X9158945Y45382621D01*
X9159674Y45381745D01*
X9160371Y45380840D01*
X9161034Y45379907D01*
X9161664Y45378948D01*
X9162258Y45377962D01*
X9162816Y45376950D01*
X9163337Y45375914D01*
X9163819Y45374853D01*
X9164262Y45373770D01*
X9356921Y44875231D01*
X9356947Y44875162D01*
X9356978Y44875098D01*
X9357013Y44875038D01*
X9357052Y44874984D01*
X9357094Y44874934D01*
X9357140Y44874888D01*
X9357189Y44874847D01*
X9357240Y44874811D01*
X9357294Y44874780D01*
X9357351Y44874753D01*
X9357408Y44874730D01*
X9357468Y44874712D01*
X9357528Y44874698D01*
X9357590Y44874689D01*
X9357652Y44874684D01*
X9357715Y44874683D01*
X9357777Y44874687D01*
X9357839Y44874695D01*
X9357901Y44874707D01*
X9357961Y44874723D01*
X9358021Y44874744D01*
X9358079Y44874768D01*
X9358135Y44874797D01*
X9358189Y44874829D01*
X9358241Y44874866D01*
X9358289Y44874906D01*
X9358335Y44874951D01*
X9358378Y44874999D01*
X9358417Y44875052D01*
X9358452Y44875108D01*
X9358482Y44875167D01*
X9358509Y44875231D01*
X9546723Y45373515D01*
X9547648Y45375684D01*
X9548727Y45377755D01*
X9549951Y45379724D01*
X9551312Y45381584D01*
X9552803Y45383329D01*
X9554413Y45384954D01*
X9556136Y45386453D01*
X9557962Y45387819D01*
X9559883Y45389046D01*
X9561892Y45390130D01*
X9563979Y45391063D01*
X9566136Y45391839D01*
X9568354Y45392454D01*
X9570626Y45392900D01*
X9572944Y45393172D01*
X9575297Y45393264D01*
X9823202Y45393264D01*
X9824817Y45393223D01*
X9826411Y45393102D01*
X9827982Y45392903D01*
X9829527Y45392627D01*
X9831045Y45392277D01*
X9832534Y45391855D01*
X9833992Y45391362D01*
X9835417Y45390800D01*
X9836807Y45390173D01*
X9838159Y45389480D01*
X9839473Y45388725D01*
X9840746Y45387910D01*
X9841975Y45387035D01*
X9843160Y45386104D01*
X9844298Y45385119D01*
X9845387Y45384080D01*
X9846426Y45382991D01*
X9847412Y45381853D01*
X9848342Y45380668D01*
X9849217Y45379438D01*
X9850032Y45378166D01*
X9850787Y45376852D01*
X9851480Y45375500D01*
X9852108Y45374110D01*
X9852669Y45372685D01*
X9853162Y45371227D01*
X9853584Y45369738D01*
X9853934Y45368220D01*
X9854210Y45366675D01*
X9854409Y45365104D01*
X9854531Y45363510D01*
X9854571Y45361895D01*
X9854571Y44564970D01*
X9854531Y44563355D01*
X9854409Y44561761D01*
X9854210Y44560190D01*
X9853934Y44558645D01*
X9853584Y44557127D01*
X9853162Y44555638D01*
X9852669Y44554180D01*
X9852108Y44552755D01*
X9851480Y44551366D01*
X9850787Y44550013D01*
X9850032Y44548699D01*
X9849217Y44547427D01*
X9848342Y44546197D01*
X9847412Y44545012D01*
X9846426Y44543874D01*
X9845387Y44542785D01*
X9844298Y44541746D01*
X9843160Y44540761D01*
X9841975Y44539830D01*
X9840746Y44538956D01*
X9839473Y44538140D01*
X9838159Y44537385D01*
X9836807Y44536693D01*
X9835417Y44536065D01*
X9833992Y44535503D01*
X9832534Y44535010D01*
X9831045Y44534588D01*
X9829527Y44534238D01*
X9827982Y44533962D01*
X9826411Y44533763D01*
X9824817Y44533642D01*
X9823202Y44533601D01*
X9629083Y44533601D01*
X9627468Y44533642D01*
X9625874Y44533763D01*
X9624303Y44533962D01*
X9622758Y44534238D01*
X9621239Y44534588D01*
X9619750Y44535010D01*
X9618293Y44535503D01*
X9616868Y44536065D01*
X9615478Y44536693D01*
X9614125Y44537385D01*
X9612812Y44538140D01*
X9611539Y44538956D01*
X9610309Y44539830D01*
X9609124Y44540761D01*
X9607986Y44541746D01*
X9606897Y44542785D01*
X9605859Y44543874D01*
X9604873Y44545012D01*
X9603942Y44546197D01*
X9603068Y44547427D01*
X9602252Y44548699D01*
X9601497Y44550013D01*
X9600805Y44551366D01*
X9600177Y44552755D01*
X9599616Y44554180D01*
X9599123Y44555638D01*
X9598700Y44557127D01*
X9598350Y44558645D01*
X9598075Y44560190D01*
X9597875Y44561761D01*
X9597754Y44563355D01*
X9597714Y44564970D01*
X9597714Y44927110D01*
X9597710Y44927198D01*
X9597698Y44927280D01*
X9597680Y44927358D01*
X9597656Y44927431D01*
X9597625Y44927500D01*
X9597588Y44927564D01*
X9597547Y44927623D01*
X9597500Y44927677D01*
X9597449Y44927726D01*
X9597395Y44927771D01*
X9597336Y44927810D01*
X9597275Y44927844D01*
X9597211Y44927873D01*
X9597144Y44927896D01*
X9597076Y44927915D01*
X9597007Y44927928D01*
X9596937Y44927936D01*
X9596866Y44927938D01*
X9596795Y44927935D01*
X9596724Y44927926D01*
X9596655Y44927911D01*
X9596586Y44927891D01*
X9596519Y44927865D01*
X9596454Y44927834D01*
X9596392Y44927796D01*
X9596333Y44927753D01*
X9596277Y44927703D01*
X9596225Y44927648D01*
X9596177Y44927586D01*
X9596133Y44927519D01*
X9596095Y44927445D01*
X9596063Y44927364D01*
X9468491Y44554239D01*
X9467608Y44551977D01*
X9466562Y44549815D01*
X9465360Y44547759D01*
X9464012Y44545817D01*
X9462527Y44543993D01*
X9460912Y44542295D01*
X9459177Y44540729D01*
X9457331Y44539300D01*
X9455382Y44538016D01*
X9453339Y44536883D01*
X9451211Y44535906D01*
X9449006Y44535093D01*
X9446734Y44534450D01*
X9444403Y44533983D01*
X9442021Y44533698D01*
X9439598Y44533601D01*
X9271324Y44533601D01*
X9270102Y44533625D01*
X9268890Y44533698D01*
X9267690Y44533817D01*
X9266501Y44533983D01*
X9265326Y44534194D01*
X9264164Y44534450D01*
X9263018Y44534750D01*
X9261889Y44535093D01*
X9260777Y44535479D01*
X9259683Y44535906D01*
X9258609Y44536375D01*
X9257555Y44536883D01*
X9256523Y44537430D01*
X9255514Y44538016D01*
X9254528Y44538640D01*
X9253567Y44539300D01*
X9252632Y44539997D01*
X9251724Y44540729D01*
X9250844Y44541495D01*
X9249993Y44542295D01*
X9249172Y44543128D01*
X9248383Y44543993D01*
X9247625Y44544890D01*
X9246901Y44545817D01*
X9246211Y44546774D01*
X9245556Y44547759D01*
X9244938Y44548773D01*
X9244357Y44549815D01*
X9243815Y44550883D01*
X9243313Y44551977D01*
X9242851Y44553095D01*
X9242431Y44554239D01*
X9113653Y44930921D01*
X9113620Y44931006D01*
X9113582Y44931085D01*
X9113539Y44931157D01*
X9113491Y44931222D01*
X9113439Y44931281D01*
X9113383Y44931332D01*
X9113323Y44931378D01*
X9113261Y44931417D01*
X9113196Y44931449D01*
X9113129Y44931476D01*
X9113061Y44931496D01*
X9112991Y44931510D01*
X9112920Y44931518D01*
X9112849Y44931520D01*
X9112779Y44931517D01*
X9112708Y44931508D01*
X9112639Y44931493D01*
X9112571Y44931473D01*
X9112505Y44931447D01*
X9112440Y44931417D01*
X9112379Y44931381D01*
X9112321Y44931339D01*
X9112266Y44931293D01*
X9112215Y44931242D01*
X9112169Y44931186D01*
X9112127Y44931125D01*
X9112090Y44931060D01*
X9112060Y44930990D01*
X9112035Y44930916D01*
X9112017Y44930837D01*
X9112006Y44930754D01*
X9112002Y44930667D01*
X9112002Y44564970D01*
X9111961Y44563355D01*
X9111840Y44561761D01*
X9111641Y44560190D01*
X9111365Y44558645D01*
X9111015Y44557127D01*
X9110592Y44555638D01*
X9110099Y44554180D01*
X9109538Y44552755D01*
X9108910Y44551366D01*
X9108218Y44550013D01*
X9107463Y44548699D01*
X9106647Y44547427D01*
X9105773Y44546197D01*
X9104842Y44545012D01*
X9103856Y44543874D01*
X9102818Y44542785D01*
X9101729Y44541746D01*
X9100591Y44540761D01*
X9099406Y44539830D01*
X9098176Y44538956D01*
X9096904Y44538140D01*
X9095590Y44537385D01*
X9094237Y44536693D01*
X9092848Y44536065D01*
X9091423Y44535503D01*
X9089965Y44535010D01*
X9088476Y44534588D01*
X9086958Y44534238D01*
X9085412Y44533962D01*
X9083842Y44533763D01*
X9082248Y44533642D01*
X9080633Y44533601D01*
X8886513Y44533601D01*
X8884898Y44533642D01*
X8883304Y44533763D01*
X8881734Y44533962D01*
X8880188Y44534238D01*
X8878670Y44534588D01*
X8877181Y44535010D01*
X8875723Y44535503D01*
X8874298Y44536065D01*
X8872909Y44536693D01*
X8871556Y44537385D01*
X8870243Y44538140D01*
X8868970Y44538956D01*
X8867740Y44539830D01*
X8866555Y44540761D01*
X8865417Y44541746D01*
X8864328Y44542785D01*
X8863290Y44543874D01*
X8862304Y44545012D01*
X8861373Y44546197D01*
X8860499Y44547427D01*
X8859683Y44548699D01*
X8858928Y44550013D01*
X8858236Y44551366D01*
X8857608Y44552755D01*
X8857047Y44554180D01*
X8856554Y44555638D01*
X8856131Y44557127D01*
X8855781Y44558645D01*
X8855505Y44560190D01*
X8855306Y44561761D01*
X8855185Y44563355D01*
X8855144Y44564970D01*
X8855144Y44718894D01*
X8855017Y44718386D01*
X8854488Y44720319D01*
X8853879Y44722156D01*
X8853198Y44723898D01*
X8852450Y44725549D01*
X8851642Y44727109D01*
X8850781Y44728582D01*
X8849872Y44729970D01*
X8848921Y44731276D01*
X8847936Y44732500D01*
X8846922Y44733647D01*
X8845885Y44734718D01*
X8844833Y44735715D01*
X8843770Y44736641D01*
X8842704Y44737499D01*
X8841641Y44738289D01*
X8840587Y44739016D01*
X8838530Y44740285D01*
X8836585Y44741325D01*
X8834801Y44742154D01*
X8833229Y44742791D01*
X8831919Y44743254D01*
X8830921Y44743562D01*
X8830062Y44743786D01*
X8829215Y44743942D01*
X8826871Y44744226D01*
X8825229Y44744328D01*
X8823324Y44744359D01*
X8821192Y44744282D01*
X8818870Y44744064D01*
X8816394Y44743669D01*
X8813802Y44743064D01*
X8811131Y44742212D01*
X8809776Y44741684D01*
X8808416Y44741080D01*
X8807054Y44740398D01*
X8805696Y44739633D01*
X8804345Y44738781D01*
X8803006Y44737837D01*
X8801684Y44736796D01*
X8800384Y44735655D01*
X8799110Y44734409D01*
X8797867Y44733055D01*
X8797867Y44733372D01*
X8782989Y44710149D01*
X8766704Y44688044D01*
X8749064Y44667109D01*
X8730121Y44647397D01*
X8709929Y44628961D01*
X8688540Y44611852D01*
X8666006Y44596124D01*
X8642379Y44581829D01*
X8617713Y44569020D01*
X8592061Y44557747D01*
X8565473Y44548066D01*
X8538004Y44540027D01*
X8509706Y44533683D01*
X8480630Y44529086D01*
X8450831Y44526290D01*
X8420360Y44525346D01*
X8396971Y44525897D01*
X8373968Y44527536D01*
X8351375Y44530238D01*
X8329215Y44533980D01*
X8307511Y44538740D01*
X8286287Y44544494D01*
X8265565Y44551218D01*
X8245369Y44558890D01*
X8225723Y44567486D01*
X8206648Y44576983D01*
X8188170Y44587358D01*
X8170310Y44598587D01*
X8153093Y44610648D01*
X8136541Y44623516D01*
X8120678Y44637170D01*
X8105526Y44651584D01*
X8099517Y44657719D01*
X8093634Y44663976D01*
X8087879Y44670356D01*
X8082254Y44676855D01*
X8076759Y44683473D01*
X8071397Y44690207D01*
X8066169Y44697057D01*
X8061077Y44704019D01*
X8056121Y44711094D01*
X8051303Y44718278D01*
X8046626Y44725570D01*
X8042090Y44732969D01*
X8037697Y44740473D01*
X8033448Y44748081D01*
X8029345Y44755789D01*
X8025389Y44763598D01*
X8024297Y44765387D01*
X8023142Y44767063D01*
X8021931Y44768632D01*
X8020671Y44770096D01*
X8019368Y44771459D01*
X8018028Y44772725D01*
X8016658Y44773897D01*
X8015263Y44774979D01*
X8013851Y44775974D01*
X8012428Y44776886D01*
X8011000Y44777720D01*
X8009573Y44778477D01*
X8008154Y44779163D01*
X8006749Y44779780D01*
X8005364Y44780332D01*
X8004006Y44780823D01*
X8001396Y44781635D01*
X7998969Y44782245D01*
X7996776Y44782682D01*
X7994868Y44782976D01*
X7993295Y44783153D01*
X7992109Y44783245D01*
X7991100Y44783283D01*
X7990051Y44783251D01*
X7987187Y44782979D01*
X7985207Y44782670D01*
X7982932Y44782202D01*
X7980415Y44781541D01*
X7977709Y44780656D01*
X7974867Y44779512D01*
X7971941Y44778077D01*
X7970463Y44777240D01*
X7968985Y44776318D01*
X7967512Y44775307D01*
X7966052Y44774202D01*
X7964610Y44772999D01*
X7963194Y44771695D01*
X7961810Y44770285D01*
X7960465Y44768765D01*
X7959165Y44767131D01*
X7957917Y44765378D01*
X7956727Y44763504D01*
X7955603Y44761503D01*
X7955603Y44761884D01*
X7951865Y44754476D01*
X7947984Y44747161D01*
X7943962Y44739941D01*
X7939799Y44732816D01*
X7935495Y44725791D01*
X7931052Y44718865D01*
X7926470Y44712041D01*
X7921750Y44705321D01*
X7916892Y44698707D01*
X7911897Y44692200D01*
X7906765Y44685802D01*
X7901498Y44679516D01*
X7896096Y44673343D01*
X7890559Y44667285D01*
X7884889Y44661344D01*
X7879086Y44655521D01*
X7863479Y44640997D01*
X7847150Y44627363D01*
X7830116Y44614624D01*
X7812396Y44602787D01*
X7794006Y44591860D01*
X7774964Y44581848D01*
X7755289Y44572758D01*
X7734996Y44564597D01*
X7714105Y44557371D01*
X7692632Y44551088D01*
X7670595Y44545753D01*
X7648012Y44541373D01*
X7624900Y44537955D01*
X7601277Y44535505D01*
X7577161Y44534031D01*
X7552569Y44533538D01*
X7040568Y44533538D01*
X7039552Y44533555D01*
X7038542Y44533608D01*
X7037538Y44533696D01*
X7036541Y44533819D01*
X7035552Y44533975D01*
X7034571Y44534165D01*
X7033600Y44534388D01*
X7032639Y44534644D01*
X7031690Y44534932D01*
X7030753Y44535252D01*
X7029829Y44535603D01*
X7028918Y44535985D01*
X7028022Y44536398D01*
X7027142Y44536841D01*
X7026278Y44537314D01*
X7025431Y44537816D01*
X7024602Y44538347D01*
X7023793Y44538906D01*
X7023002Y44539493D01*
X7022233Y44540108D01*
X7021485Y44540749D01*
X7020759Y44541418D01*
X7020056Y44542113D01*
X7019378Y44542833D01*
X7018724Y44543579D01*
X7018096Y44544350D01*
X7017494Y44545146D01*
X7016920Y44545965D01*
X7016374Y44546809D01*
X7015857Y44547675D01*
X7015370Y44548564D01*
X7014914Y44549476D01*
X7007716Y44563325D01*
X6999620Y44576534D01*
X6990660Y44589069D01*
X6980870Y44600894D01*
X6970282Y44611975D01*
X6958929Y44622276D01*
X6946845Y44631763D01*
X6934063Y44640400D01*
X6920615Y44648152D01*
X6906535Y44654985D01*
X6891856Y44660862D01*
X6876611Y44665749D01*
X6860833Y44669612D01*
X6844556Y44672414D01*
X6827812Y44674121D01*
X6810635Y44674698D01*
X6801992Y44674553D01*
X6793449Y44674119D01*
X6785012Y44673402D01*
X6776683Y44672405D01*
X6768468Y44671134D01*
X6760371Y44669593D01*
X6752396Y44667785D01*
X6744548Y44665716D01*
X6736831Y44663389D01*
X6729249Y44660810D01*
X6721808Y44657983D01*
X6714510Y44654911D01*
X6707361Y44651600D01*
X6700365Y44648054D01*
X6693526Y44644277D01*
X6686849Y44640273D01*
X6680339Y44636048D01*
X6673998Y44631605D01*
X6667833Y44626949D01*
X6661847Y44622084D01*
X6656044Y44617015D01*
X6650430Y44611746D01*
X6645008Y44606282D01*
X6639783Y44600626D01*
X6634759Y44594784D01*
X6629941Y44588760D01*
X6625332Y44582557D01*
X6620938Y44576181D01*
X6616763Y44569637D01*
X6612811Y44562927D01*
X6609086Y44556057D01*
X6605593Y44549032D01*
X6604675Y44547277D01*
X6603640Y44545613D01*
X6602495Y44544041D01*
X6601246Y44542565D01*
X6599900Y44541189D01*
X6598464Y44539915D01*
X6596944Y44538748D01*
X6595346Y44537689D01*
X6593678Y44536742D01*
X6591945Y44535912D01*
X6590155Y44535200D01*
X6588314Y44534610D01*
X6586429Y44534146D01*
X6584506Y44533810D01*
X6582553Y44533606D01*
X6580574Y44533538D01*
X6405124Y44533538D01*
X6403814Y44533560D01*
X6402504Y44533628D01*
X6401198Y44533742D01*
X6399897Y44533903D01*
X6398603Y44534111D01*
X6397319Y44534368D01*
X6396047Y44534674D01*
X6394789Y44535030D01*
X6393548Y44535436D01*
X6392325Y44535894D01*
X6391122Y44536404D01*
X6389943Y44536967D01*
X6388790Y44537583D01*
X6387663Y44538253D01*
X6386567Y44538979D01*
X6385502Y44539761D01*
X6383539Y44541398D01*
X6381748Y44543160D01*
X6380128Y44545034D01*
X6378682Y44547009D01*
X6377411Y44549075D01*
X6376316Y44551220D01*
X6375398Y44553431D01*
X6374660Y44555699D01*
X6374101Y44558011D01*
X6373724Y44560357D01*
X6373529Y44562725D01*
X6373519Y44565103D01*
X6373693Y44567480D01*
X6374055Y44569846D01*
X6374604Y44572188D01*
X6375342Y44574495D01*
X6446572Y44769885D01*
X6486012Y44878070D01*
X6745519Y44878070D01*
X6745520Y44877871D01*
X6745527Y44877677D01*
X6745540Y44877487D01*
X6745560Y44877302D01*
X6745585Y44877121D01*
X6745615Y44876944D01*
X6745690Y44876604D01*
X6745781Y44876283D01*
X6745885Y44875981D01*
X6746000Y44875699D01*
X6746122Y44875436D01*
X6746249Y44875194D01*
X6746377Y44874973D01*
X6746504Y44874774D01*
X6746626Y44874596D01*
X6746925Y44874237D01*
X6747102Y44874043D01*
X6747298Y44873844D01*
X6747514Y44873642D01*
X6747750Y44873442D01*
X6748007Y44873245D01*
X6748285Y44873056D01*
X6748585Y44872877D01*
X6748907Y44872712D01*
X6749251Y44872564D01*
X6749618Y44872435D01*
X6750008Y44872330D01*
X6750423Y44872250D01*
X6750639Y44872221D01*
X6750862Y44872200D01*
X6751090Y44872187D01*
X6751325Y44872183D01*
X6879913Y44872183D01*
X6880154Y44872187D01*
X6880388Y44872200D01*
X6880615Y44872221D01*
X6880836Y44872250D01*
X6881051Y44872286D01*
X6881259Y44872330D01*
X6881461Y44872379D01*
X6881656Y44872435D01*
X6881845Y44872497D01*
X6882028Y44872564D01*
X6882205Y44872636D01*
X6882376Y44872712D01*
X6882541Y44872793D01*
X6882700Y44872877D01*
X6882853Y44872965D01*
X6883001Y44873056D01*
X6883142Y44873150D01*
X6883278Y44873245D01*
X6883533Y44873442D01*
X6883765Y44873642D01*
X6883976Y44873844D01*
X6884166Y44874043D01*
X6884335Y44874237D01*
X6884483Y44874422D01*
X6884612Y44874596D01*
X6884580Y44874628D01*
X6884548Y44874660D01*
X6884671Y44874838D01*
X6884797Y44875040D01*
X6884925Y44875263D01*
X6885051Y44875509D01*
X6885173Y44875775D01*
X6885286Y44876061D01*
X6885389Y44876367D01*
X6885477Y44876692D01*
X6885548Y44877034D01*
X6885599Y44877393D01*
X6885627Y44877769D01*
X6885629Y44878160D01*
X6885601Y44878566D01*
X6885541Y44878986D01*
X6885445Y44879420D01*
X6885383Y44879642D01*
X6885310Y44879867D01*
X6820604Y45073986D01*
X6820492Y45074299D01*
X6820372Y45074595D01*
X6820243Y45074875D01*
X6820106Y45075140D01*
X6819962Y45075389D01*
X6819811Y45075623D01*
X6819654Y45075842D01*
X6819492Y45076048D01*
X6819323Y45076240D01*
X6819150Y45076419D01*
X6818973Y45076585D01*
X6818792Y45076739D01*
X6818608Y45076881D01*
X6818421Y45077011D01*
X6818231Y45077131D01*
X6818040Y45077240D01*
X6817847Y45077340D01*
X6817654Y45077429D01*
X6817267Y45077581D01*
X6816883Y45077701D01*
X6816505Y45077790D01*
X6816138Y45077854D01*
X6815786Y45077894D01*
X6815453Y45077916D01*
X6815143Y45077923D01*
X6814843Y45077916D01*
X6814517Y45077892D01*
X6814171Y45077848D01*
X6813807Y45077780D01*
X6813431Y45077686D01*
X6813047Y45077561D01*
X6812658Y45077403D01*
X6812463Y45077311D01*
X6812269Y45077209D01*
X6812077Y45077096D01*
X6811885Y45076974D01*
X6811696Y45076840D01*
X6811510Y45076695D01*
X6811327Y45076539D01*
X6811148Y45076370D01*
X6810973Y45076188D01*
X6810803Y45075994D01*
X6810638Y45075787D01*
X6810480Y45075565D01*
X6810327Y45075329D01*
X6810182Y45075079D01*
X6810044Y45074813D01*
X6809915Y45074533D01*
X6809794Y45074236D01*
X6809682Y45073923D01*
X6745801Y44879803D01*
X6745734Y44879573D01*
X6745678Y44879346D01*
X6745630Y44879124D01*
X6745591Y44878905D01*
X6745561Y44878690D01*
X6745540Y44878479D01*
X6745526Y44878272D01*
X6745519Y44878070D01*
X6486012Y44878070D01*
X6666490Y45373135D01*
X6667393Y45375338D01*
X6668455Y45377442D01*
X6669666Y45379443D01*
X6671018Y45381333D01*
X6672503Y45383107D01*
X6674111Y45384758D01*
X6675835Y45386280D01*
X6677666Y45387668D01*
X6679595Y45388915D01*
X6681613Y45390016D01*
X6683713Y45390964D01*
X6685885Y45391753D01*
X6688121Y45392377D01*
X6690413Y45392831D01*
X6692751Y45393107D01*
X6695128Y45393201D01*
X6937381Y45393201D01*
X6938579Y45393177D01*
X6939769Y45393106D01*
X6940948Y45392990D01*
X6942117Y45392828D01*
X6943273Y45392621D01*
X6944417Y45392371D01*
X6945546Y45392078D01*
X6946660Y45391743D01*
X6947758Y45391366D01*
X6948839Y45390949D01*
X6949901Y45390492D01*
X6950944Y45389996D01*
X6951966Y45389461D01*
X6952966Y45388890D01*
X6953944Y45388281D01*
X6954899Y45387636D01*
X6955828Y45386957D01*
X6956732Y45386242D01*
X6957609Y45385495D01*
X6958458Y45384714D01*
X6959278Y45383902D01*
X6960068Y45383058D01*
X6960826Y45382183D01*
X6961553Y45381279D01*
X6962247Y45380346D01*
X6962906Y45379385D01*
X6963530Y45378397D01*
X6964117Y45377382D01*
X6964667Y45376341D01*
X6965179Y45375275D01*
X6965651Y45374185D01*
X6966083Y45373071D01*
X7161345Y44835417D01*
X7161154Y44836369D01*
X7162315Y44834776D01*
X7163496Y44833302D01*
X7164695Y44831945D01*
X7165906Y44830698D01*
X7167127Y44829557D01*
X7168354Y44828519D01*
X7169583Y44827578D01*
X7170809Y44826729D01*
X7172030Y44825969D01*
X7173242Y44825292D01*
X7174440Y44824694D01*
X7175622Y44824171D01*
X7176782Y44823718D01*
X7177918Y44823330D01*
X7179026Y44823003D01*
X7180101Y44822732D01*
X7181141Y44822513D01*
X7182141Y44822342D01*
X7184006Y44822121D01*
X7185668Y44822035D01*
X7187095Y44822046D01*
X7188258Y44822118D01*
X7189126Y44822215D01*
X7189856Y44822336D01*
X7190557Y44822523D01*
X7192439Y44823203D01*
X7193719Y44823783D01*
X7195171Y44824552D01*
X7196752Y44825534D01*
X7198421Y44826749D01*
X7200137Y44828220D01*
X7201000Y44829058D01*
X7201859Y44829969D01*
X7202709Y44830955D01*
X7203545Y44832019D01*
X7204361Y44833163D01*
X7205153Y44834391D01*
X7205915Y44835704D01*
X7206643Y44837107D01*
X7207330Y44838601D01*
X7207972Y44840190D01*
X7208564Y44841876D01*
X7209101Y44843662D01*
X7209576Y44845551D01*
X7209986Y44847545D01*
X7209986Y45160600D01*
X7466843Y45160600D01*
X7466843Y44769885D01*
X7466852Y44769547D01*
X7466877Y44769214D01*
X7466919Y44768885D01*
X7466976Y44768562D01*
X7467049Y44768243D01*
X7467137Y44767931D01*
X7467240Y44767625D01*
X7467357Y44767326D01*
X7467489Y44767034D01*
X7467633Y44766749D01*
X7467791Y44766472D01*
X7467962Y44766204D01*
X7468145Y44765945D01*
X7468340Y44765695D01*
X7468547Y44765455D01*
X7468764Y44765225D01*
X7468993Y44765006D01*
X7469232Y44764798D01*
X7469481Y44764601D01*
X7469739Y44764416D01*
X7470007Y44764243D01*
X7470284Y44764083D01*
X7470569Y44763936D01*
X7470862Y44763803D01*
X7471162Y44763684D01*
X7471470Y44763580D01*
X7471785Y44763490D01*
X7472106Y44763416D01*
X7472433Y44763357D01*
X7472766Y44763315D01*
X7473104Y44763289D01*
X7473447Y44763281D01*
X7534979Y44763281D01*
X7547061Y44763490D01*
X7558813Y44764117D01*
X7570231Y44765159D01*
X7581313Y44766613D01*
X7592055Y44768477D01*
X7602452Y44770748D01*
X7612502Y44773423D01*
X7622201Y44776499D01*
X7631546Y44779975D01*
X7640532Y44783848D01*
X7649157Y44788114D01*
X7657417Y44792772D01*
X7665309Y44797818D01*
X7672828Y44803251D01*
X7679972Y44809067D01*
X7686736Y44815263D01*
X7693118Y44821838D01*
X7699113Y44828789D01*
X7704719Y44836112D01*
X7709932Y44843806D01*
X7714748Y44851867D01*
X7719163Y44860294D01*
X7723175Y44869083D01*
X7726780Y44878232D01*
X7729973Y44887739D01*
X7732752Y44897600D01*
X7735114Y44907813D01*
X7737054Y44918375D01*
X7738569Y44929285D01*
X7739655Y44940538D01*
X7740309Y44952133D01*
X7740528Y44964068D01*
X7740484Y44966481D01*
X8240972Y44966481D01*
X8241173Y44954843D01*
X8241764Y44943506D01*
X8242738Y44932475D01*
X8244094Y44921755D01*
X8245826Y44911349D01*
X8247930Y44901263D01*
X8250404Y44891500D01*
X8253242Y44882065D01*
X8256441Y44872963D01*
X8259997Y44864198D01*
X8263906Y44855775D01*
X8268164Y44847698D01*
X8272767Y44839971D01*
X8277710Y44832599D01*
X8282991Y44825587D01*
X8288605Y44818938D01*
X8294548Y44812658D01*
X8300816Y44806751D01*
X8307405Y44801221D01*
X8314311Y44796072D01*
X8321531Y44791310D01*
X8329060Y44786939D01*
X8336894Y44782962D01*
X8345029Y44779386D01*
X8353462Y44776213D01*
X8362189Y44773449D01*
X8371204Y44771098D01*
X8380506Y44769164D01*
X8390089Y44767652D01*
X8399949Y44766567D01*
X8410083Y44765913D01*
X8420486Y44765694D01*
X8430739Y44765918D01*
X8440741Y44766588D01*
X8450488Y44767698D01*
X8459975Y44769242D01*
X8469196Y44771216D01*
X8478147Y44773612D01*
X8486823Y44776427D01*
X8495219Y44779654D01*
X8503330Y44783287D01*
X8511151Y44787322D01*
X8518678Y44791753D01*
X8525905Y44796575D01*
X8532827Y44801781D01*
X8539440Y44807366D01*
X8545738Y44813325D01*
X8551717Y44819653D01*
X8557372Y44826343D01*
X8562697Y44833390D01*
X8567689Y44840790D01*
X8572341Y44848535D01*
X8576650Y44856621D01*
X8580610Y44865043D01*
X8584215Y44873794D01*
X8587463Y44882869D01*
X8590346Y44892263D01*
X8592861Y44901970D01*
X8595003Y44911985D01*
X8596766Y44922302D01*
X8598146Y44932915D01*
X8599138Y44943820D01*
X8599737Y44955010D01*
X8599937Y44966481D01*
X8599744Y44977929D01*
X8599164Y44989125D01*
X8598201Y45000058D01*
X8596858Y45010722D01*
X8595136Y45021109D01*
X8593039Y45031210D01*
X8590569Y45041017D01*
X8587729Y45050523D01*
X8584522Y45059719D01*
X8580949Y45068598D01*
X8577014Y45077151D01*
X8572720Y45085370D01*
X8568068Y45093248D01*
X8563061Y45100777D01*
X8557703Y45107948D01*
X8551995Y45114753D01*
X8550470Y45116445D01*
X8548939Y45118095D01*
X8547396Y45119709D01*
X8545836Y45121294D01*
X8539895Y45126920D01*
X8533672Y45132200D01*
X8527175Y45137131D01*
X8520409Y45141712D01*
X8513379Y45145939D01*
X8506093Y45149812D01*
X8498555Y45153326D01*
X8490773Y45156480D01*
X8482752Y45159272D01*
X8474498Y45161700D01*
X8466017Y45163760D01*
X8457315Y45165451D01*
X8448399Y45166770D01*
X8439274Y45167715D01*
X8429947Y45168284D01*
X8420423Y45168474D01*
X8410178Y45168257D01*
X8400165Y45167606D01*
X8390392Y45166526D01*
X8380865Y45165018D01*
X8371593Y45163087D01*
X8362582Y45160735D01*
X8353840Y45157966D01*
X8345374Y45154782D01*
X8337191Y45151186D01*
X8329300Y45147182D01*
X8321706Y45142773D01*
X8314419Y45137961D01*
X8307444Y45132750D01*
X8300789Y45127143D01*
X8294462Y45121143D01*
X8288470Y45114753D01*
X8282819Y45107970D01*
X8277514Y45100818D01*
X8272556Y45093306D01*
X8267948Y45085442D01*
X8263694Y45077233D01*
X8259796Y45068687D01*
X8256255Y45059813D01*
X8253077Y45050618D01*
X8250262Y45041111D01*
X8247813Y45031299D01*
X8245734Y45021191D01*
X8244027Y45010794D01*
X8242694Y45000116D01*
X8241739Y44989166D01*
X8241164Y44977952D01*
X8240972Y44966481D01*
X7740484Y44966481D01*
X7740309Y44976008D01*
X7739655Y44987623D01*
X7738569Y44998908D01*
X7737054Y45009861D01*
X7735114Y45020476D01*
X7732752Y45030752D01*
X7729973Y45040684D01*
X7726780Y45050270D01*
X7723175Y45059505D01*
X7719163Y45068386D01*
X7714748Y45076910D01*
X7709932Y45085073D01*
X7704719Y45092871D01*
X7699113Y45100302D01*
X7693118Y45107362D01*
X7686736Y45114047D01*
X7679972Y45120353D01*
X7672828Y45126278D01*
X7665309Y45131818D01*
X7657417Y45136969D01*
X7649157Y45141728D01*
X7640532Y45146092D01*
X7631546Y45150056D01*
X7622201Y45153618D01*
X7612502Y45156774D01*
X7602452Y45159520D01*
X7592055Y45161853D01*
X7581313Y45163770D01*
X7570231Y45165267D01*
X7558813Y45166341D01*
X7547061Y45166988D01*
X7534979Y45167204D01*
X7473447Y45167204D01*
X7473110Y45167195D01*
X7472777Y45167170D01*
X7472448Y45167127D01*
X7472124Y45167069D01*
X7471806Y45166994D01*
X7471494Y45166905D01*
X7471188Y45166800D01*
X7470889Y45166681D01*
X7470596Y45166548D01*
X7470312Y45166401D01*
X7470035Y45166241D01*
X7469767Y45166069D01*
X7469508Y45165884D01*
X7469258Y45165687D01*
X7469018Y45165479D01*
X7468788Y45165259D01*
X7468569Y45165029D01*
X7468360Y45164789D01*
X7468164Y45164539D01*
X7467979Y45164280D01*
X7467806Y45164012D01*
X7467646Y45163736D01*
X7467499Y45163451D01*
X7467366Y45163159D01*
X7467247Y45162860D01*
X7467143Y45162554D01*
X7467053Y45162241D01*
X7466979Y45161923D01*
X7466920Y45161599D01*
X7466878Y45161271D01*
X7466852Y45160937D01*
X7466843Y45160600D01*
X7209986Y45160600D01*
X7209986Y45361832D01*
X7210027Y45363447D01*
X7210148Y45365041D01*
X7210347Y45366611D01*
X7210623Y45368157D01*
X7210973Y45369675D01*
X7211395Y45371164D01*
X7211888Y45372622D01*
X7212450Y45374046D01*
X7213077Y45375436D01*
X7213770Y45376789D01*
X7214525Y45378102D01*
X7215340Y45379375D01*
X7216215Y45380605D01*
X7217146Y45381790D01*
X7218131Y45382928D01*
X7219170Y45384017D01*
X7220259Y45385055D01*
X7221397Y45386041D01*
X7222582Y45386972D01*
X7223812Y45387846D01*
X7225084Y45388662D01*
X7226398Y45389417D01*
X7227751Y45390109D01*
X7229140Y45390737D01*
X7230565Y45391298D01*
X7232023Y45391791D01*
X7233512Y45392214D01*
X7235030Y45392564D01*
X7236575Y45392839D01*
X7238146Y45393039D01*
X7239740Y45393160D01*
X7241355Y45393201D01*
X7552759Y45393201D01*
X7570206Y45392954D01*
X7587395Y45392219D01*
X7604320Y45391000D01*
X7620977Y45389304D01*
X7637358Y45387135D01*
X7653459Y45384499D01*
X7669273Y45381402D01*
X7684794Y45377849D01*
X7700018Y45373846D01*
X7714938Y45369399D01*
X7729548Y45364512D01*
X7743842Y45359192D01*
X7757815Y45353443D01*
X7771462Y45347272D01*
X7784775Y45340685D01*
X7797750Y45333685D01*
X7810381Y45326280D01*
X7822661Y45318474D01*
X7834585Y45310274D01*
X7846148Y45301684D01*
X7857344Y45292710D01*
X7868166Y45283358D01*
X7878609Y45273633D01*
X7888667Y45263541D01*
X7898335Y45253088D01*
X7907606Y45242278D01*
X7916475Y45231118D01*
X7924937Y45219613D01*
X7932984Y45207768D01*
X7940612Y45195589D01*
X7947815Y45183082D01*
X7954587Y45170252D01*
X7955723Y45168481D01*
X7956923Y45166821D01*
X7958181Y45165267D01*
X7959491Y45163817D01*
X7960845Y45162467D01*
X7962237Y45161214D01*
X7963661Y45160053D01*
X7965109Y45158982D01*
X7966576Y45157996D01*
X7968055Y45157092D01*
X7969539Y45156267D01*
X7971021Y45155517D01*
X7972495Y45154838D01*
X7973955Y45154227D01*
X7976804Y45153194D01*
X7979515Y45152390D01*
X7982036Y45151786D01*
X7984314Y45151352D01*
X7986296Y45151062D01*
X7987930Y45150886D01*
X7989162Y45150796D01*
X7990210Y45150758D01*
X7991304Y45150790D01*
X7994289Y45151062D01*
X7996354Y45151371D01*
X7998726Y45151839D01*
X8001351Y45152499D01*
X8004172Y45153385D01*
X8007137Y45154529D01*
X8010187Y45155963D01*
X8013270Y45157723D01*
X8014806Y45158734D01*
X8016330Y45159839D01*
X8017833Y45161042D01*
X8019311Y45162346D01*
X8020754Y45163756D01*
X8022158Y45165276D01*
X8023514Y45166910D01*
X8024816Y45168662D01*
X8026058Y45170537D01*
X8027231Y45172538D01*
X8027231Y45172221D01*
X8041507Y45198175D01*
X8057456Y45222918D01*
X8075013Y45246386D01*
X8094114Y45268515D01*
X8114696Y45289241D01*
X8136693Y45308500D01*
X8160042Y45326228D01*
X8184679Y45342361D01*
X8210539Y45356835D01*
X8237558Y45369587D01*
X8265673Y45380552D01*
X8294818Y45389667D01*
X8324929Y45396868D01*
X8355944Y45402090D01*
X8387796Y45405271D01*
X8420423Y45406345D01*
X8435733Y45406109D01*
G37*
D15*
%TO.C,MP1*%
X2900000Y2000000D02*
G75*
G02*
X1100000Y2000000I-900000J0D01*
G01*
X1100000Y2000000D02*
G75*
G02*
X2900000Y2000000I900000J0D01*
G01*
%TO.C,MP4*%
X14900000Y2000000D02*
G75*
G02*
X13100000Y2000000I-900000J0D01*
G01*
X13100000Y2000000D02*
G75*
G02*
X14900000Y2000000I900000J0D01*
G01*
%TO.C,MP2*%
X2900000Y78000000D02*
G75*
G02*
X1100000Y78000000I-900000J0D01*
G01*
X1100000Y78000000D02*
G75*
G02*
X2900000Y78000000I900000J0D01*
G01*
%TO.C,MP3*%
X14900000Y77500000D02*
G75*
G02*
X13100000Y77500000I-900000J0D01*
G01*
X13100000Y77500000D02*
G75*
G02*
X14900000Y77500000I900000J0D01*
G01*
D13*
%TO.C,BT1*%
X214999Y70620000D02*
X215000Y61100000D01*
X215000Y61100000D02*
X15705001Y61100000D01*
X2394999Y70620001D02*
X2395000Y74100001D01*
X2395000Y74100001D02*
X13525000Y74100000D01*
X5959999Y70620000D02*
X214999Y70620000D01*
D12*
X10500000Y60580000D02*
X10500000Y60580000D01*
X10500000Y60480000D02*
X10500000Y60480000D01*
D13*
X13525000Y74100000D02*
X13525000Y70620000D01*
X15705001Y70619999D02*
X9960000Y70620000D01*
X15705001Y61100000D02*
X15705001Y70619999D01*
D12*
X10500000Y60580000D02*
G75*
G02*
X10500000Y60480000I0J-50000D01*
G01*
X10500000Y60480000D02*
G75*
G02*
X10500000Y60580000I-1J50000D01*
G01*
%TD*%
%LPC*%
D16*
%TO.C,BT2*%
X7960000Y9880000D03*
X10500000Y17500000D03*
D17*
X5420000Y17500000D03*
%TD*%
D18*
%TO.C,MP1*%
X2000000Y2000000D03*
%TD*%
%TO.C,MP4*%
X14000000Y2000000D03*
%TD*%
%TO.C,MP2*%
X2000000Y78000000D03*
%TD*%
%TO.C,MP3*%
X14000000Y77500000D03*
%TD*%
D17*
%TO.C,BT1*%
X10500000Y62880000D03*
D16*
X5420000Y62880000D03*
X7960000Y70500000D03*
%TD*%
%LPD*%
M02*
