%TF.GenerationSoftware,KiCad,Pcbnew,9.0.4*%
%TF.CreationDate,2025-10-07T18:00:58-05:00*%
%TF.ProjectId,Molecule_EVE_LF105_Prismatic,4d6f6c65-6375-46c6-955f-4556455f4c46,rev?*%
%TF.SameCoordinates,Original*%
%TF.FileFunction,Legend,Top*%
%TF.FilePolarity,Positive*%
%FSLAX46Y46*%
G04 Gerber Fmt 4.6, Leading zero omitted, Abs format (unit mm)*
G04 Created by KiCad (PCBNEW 9.0.4) date 2025-10-07 18:00:58*
%MOMM*%
%LPD*%
G01*
G04 APERTURE LIST*
%ADD10C,0.300000*%
%ADD11C,0.254000*%
%ADD12C,0.050000*%
%ADD13C,0.100000*%
%ADD14C,0.000000*%
%ADD15C,4.400000*%
%ADD16C,2.970000*%
%ADD17C,5.200000*%
%ADD18C,5.300000*%
G04 APERTURE END LIST*
D10*
G36*
X38875434Y213504463D02*
G01*
X38912438Y213467459D01*
X38965616Y213361101D01*
X39028573Y213109277D01*
X39028573Y212789064D01*
X38965616Y212537240D01*
X38912438Y212430882D01*
X38875434Y212393878D01*
X38786020Y212349171D01*
X38713983Y212349171D01*
X38624569Y212393878D01*
X38587565Y212430881D01*
X38534384Y212537241D01*
X38471430Y212789063D01*
X38471430Y213109278D01*
X38534384Y213361100D01*
X38587565Y213467460D01*
X38624569Y213504463D01*
X38713983Y213549171D01*
X38786020Y213549171D01*
X38875434Y213504463D01*
G37*
G36*
X49242858Y212363305D02*
G01*
X49214590Y212349171D01*
X48928268Y212349171D01*
X48861803Y212382403D01*
X48828572Y212448866D01*
X48828572Y212520904D01*
X48861803Y212587367D01*
X48928268Y212620600D01*
X49242858Y212620600D01*
X49242858Y212363305D01*
G37*
G36*
X56066769Y213015938D02*
G01*
X56092944Y212963587D01*
X55685715Y212882141D01*
X55685715Y212949475D01*
X55718946Y213015938D01*
X55785411Y213049171D01*
X56000305Y213049171D01*
X56066769Y213015938D01*
G37*
G36*
X61600000Y212363305D02*
G01*
X61571732Y212349171D01*
X61285410Y212349171D01*
X61218945Y212382403D01*
X61185714Y212448866D01*
X61185714Y212520904D01*
X61218945Y212587367D01*
X61285410Y212620600D01*
X61600000Y212620600D01*
X61600000Y212363305D01*
G37*
G36*
X65495339Y213015938D02*
G01*
X65521514Y212963587D01*
X65114285Y212882141D01*
X65114285Y212949475D01*
X65147516Y213015938D01*
X65213981Y213049171D01*
X65428875Y213049171D01*
X65495339Y213015938D01*
G37*
G36*
X43018290Y213504463D02*
G01*
X43055294Y213467459D01*
X43100000Y213378047D01*
X43100000Y213234580D01*
X43055293Y213145167D01*
X43018288Y213108162D01*
X42928876Y213063457D01*
X42542857Y213063457D01*
X42542857Y213549171D01*
X42928876Y213549171D01*
X43018290Y213504463D01*
G37*
G36*
X67063784Y211882504D02*
G01*
X34147620Y211882504D01*
X34147620Y213699171D01*
X34314287Y213699171D01*
X34314287Y212199171D01*
X34317169Y212169907D01*
X34339567Y212115835D01*
X34380951Y212074451D01*
X34435023Y212052053D01*
X34464287Y212049171D01*
X35178573Y212049171D01*
X35207837Y212052053D01*
X35261909Y212074451D01*
X35303293Y212115835D01*
X35325691Y212169907D01*
X35325691Y212228435D01*
X35303293Y212282507D01*
X35261909Y212323891D01*
X35207837Y212346289D01*
X35178573Y212349171D01*
X34614287Y212349171D01*
X34614287Y213699171D01*
X35528573Y213699171D01*
X35528573Y212199171D01*
X35531455Y212169907D01*
X35553853Y212115835D01*
X35595237Y212074451D01*
X35649309Y212052053D01*
X35707837Y212052053D01*
X35761909Y212074451D01*
X35803293Y212115835D01*
X35825691Y212169907D01*
X35828573Y212199171D01*
X35828573Y212834885D01*
X36178573Y212834885D01*
X36207837Y212837767D01*
X36261909Y212860165D01*
X36303293Y212901549D01*
X36325691Y212955621D01*
X36325691Y213014149D01*
X36303293Y213068221D01*
X36261909Y213109605D01*
X36207837Y213132003D01*
X36178573Y213134885D01*
X35828573Y213134885D01*
X35828573Y213289362D01*
X36744037Y213289362D01*
X36748185Y213230982D01*
X36774360Y213178633D01*
X36818575Y213140286D01*
X36874097Y213121778D01*
X36932477Y213125926D01*
X36959941Y213136436D01*
X37102798Y213207864D01*
X37115391Y213215791D01*
X37119051Y213217307D01*
X37123170Y213220688D01*
X37127684Y213223529D01*
X37130280Y213226522D01*
X37141782Y213235962D01*
X37171430Y213265610D01*
X37171430Y212349171D01*
X36892859Y212349171D01*
X36863595Y212346289D01*
X36809523Y212323891D01*
X36768139Y212282507D01*
X36745741Y212228435D01*
X36745741Y212169907D01*
X36768139Y212115835D01*
X36809523Y212074451D01*
X36863595Y212052053D01*
X36892859Y212049171D01*
X37750002Y212049171D01*
X37779266Y212052053D01*
X37833338Y212074451D01*
X37874722Y212115835D01*
X37897120Y212169907D01*
X37897120Y212228435D01*
X37874722Y212282507D01*
X37833338Y212323891D01*
X37779266Y212346289D01*
X37750002Y212349171D01*
X37471430Y212349171D01*
X37471430Y213127742D01*
X38171430Y213127742D01*
X38171430Y212770600D01*
X38171932Y212765496D01*
X38171607Y212763309D01*
X38173226Y212752358D01*
X38174312Y212741336D01*
X38175159Y212739291D01*
X38175909Y212734220D01*
X38247337Y212448505D01*
X38248108Y212446346D01*
X38248185Y212445266D01*
X38252843Y212433091D01*
X38257230Y212420814D01*
X38257874Y212419943D01*
X38258694Y212417803D01*
X38330123Y212274946D01*
X38338051Y212262350D01*
X38339567Y212258692D01*
X38342946Y212254574D01*
X38345788Y212250060D01*
X38348782Y212247463D01*
X38358222Y212235961D01*
X38429651Y212164533D01*
X38441151Y212155094D01*
X38443748Y212152101D01*
X38448260Y212149260D01*
X38452381Y212145879D01*
X38456040Y212144363D01*
X38468634Y212136436D01*
X38611490Y212065007D01*
X38638954Y212054498D01*
X38644328Y212054116D01*
X38649309Y212052053D01*
X38678573Y212049171D01*
X38821430Y212049171D01*
X38850694Y212052053D01*
X38855674Y212054116D01*
X38861049Y212054498D01*
X38888512Y212065007D01*
X39031369Y212136436D01*
X39043964Y212144364D01*
X39047621Y212145879D01*
X39051738Y212149258D01*
X39056255Y212152101D01*
X39058852Y212155095D01*
X39070352Y212164533D01*
X39141781Y212235961D01*
X39151223Y212247466D01*
X39154215Y212250061D01*
X39157054Y212254571D01*
X39160436Y212258692D01*
X39161951Y212262351D01*
X39169880Y212274946D01*
X39241308Y212417804D01*
X39242125Y212419940D01*
X39242772Y212420813D01*
X39247158Y212433092D01*
X39251818Y212445267D01*
X39251894Y212446349D01*
X39252665Y212448505D01*
X39324094Y212734219D01*
X39324844Y212739291D01*
X39325691Y212741336D01*
X39326776Y212752355D01*
X39328396Y212763308D01*
X39328070Y212765496D01*
X39328573Y212770600D01*
X39328573Y212970405D01*
X39600701Y212970405D01*
X39602883Y212963173D01*
X39602883Y212955621D01*
X39611274Y212935361D01*
X39617608Y212914373D01*
X39622389Y212908528D01*
X39625281Y212901549D01*
X39640785Y212886045D01*
X39654669Y212869076D01*
X39661325Y212865504D01*
X39666667Y212860164D01*
X39686921Y212851774D01*
X39706244Y212841409D01*
X39713761Y212840657D01*
X39720739Y212837767D01*
X39742662Y212837767D01*
X39764481Y212835585D01*
X39771712Y212837767D01*
X39779265Y212837767D01*
X39799524Y212846158D01*
X39820513Y212852492D01*
X39826357Y212857273D01*
X39833337Y212860165D01*
X39856068Y212878820D01*
X39910284Y212933036D01*
X39999696Y212977742D01*
X40286020Y212977742D01*
X40375433Y212933035D01*
X40412436Y212896031D01*
X40457144Y212806617D01*
X40457144Y212520295D01*
X40412437Y212430882D01*
X40375433Y212393878D01*
X40286019Y212349171D01*
X39999697Y212349171D01*
X39910283Y212393878D01*
X39856067Y212448094D01*
X39833336Y212466749D01*
X39779264Y212489146D01*
X39720738Y212489146D01*
X39666666Y212466749D01*
X39625280Y212425363D01*
X39602883Y212371291D01*
X39602883Y212312765D01*
X39625280Y212258693D01*
X39643935Y212235962D01*
X39715363Y212164534D01*
X39726865Y212155093D01*
X39729461Y212152101D01*
X39733970Y212149262D01*
X39738093Y212145879D01*
X39741755Y212144362D01*
X39754347Y212136436D01*
X39897205Y212065007D01*
X39924668Y212054497D01*
X39930045Y212054114D01*
X39935023Y212052053D01*
X39964287Y212049171D01*
X40321429Y212049171D01*
X40350693Y212052053D01*
X40355670Y212054114D01*
X40361048Y212054497D01*
X40388511Y212065007D01*
X40531369Y212136436D01*
X40543962Y212144363D01*
X40547622Y212145879D01*
X40551741Y212149260D01*
X40556255Y212152101D01*
X40558851Y212155094D01*
X40570353Y212164534D01*
X40641781Y212235962D01*
X40651221Y212247464D01*
X40654214Y212250060D01*
X40657052Y212254569D01*
X40660436Y212258692D01*
X40661952Y212262354D01*
X40669879Y212274946D01*
X40741308Y212417802D01*
X40751817Y212445266D01*
X40752198Y212450640D01*
X40754262Y212455621D01*
X40757144Y212484885D01*
X40757144Y212842028D01*
X40754262Y212871292D01*
X40752198Y212876272D01*
X40751817Y212881647D01*
X40741308Y212909111D01*
X40669879Y213051967D01*
X40661951Y213064560D01*
X40660436Y213068220D01*
X40657054Y213072340D01*
X40654214Y213076853D01*
X40651220Y213079449D01*
X40641782Y213090950D01*
X40570354Y213162379D01*
X40558848Y213171821D01*
X40556254Y213174813D01*
X40551743Y213177652D01*
X40547623Y213181034D01*
X40543963Y213182549D01*
X40531369Y213190478D01*
X40388510Y213261906D01*
X40361047Y213272416D01*
X40355671Y213272797D01*
X40350693Y213274860D01*
X40321429Y213277742D01*
X39964287Y213277742D01*
X39935023Y213274860D01*
X39930044Y213272797D01*
X39929536Y213272761D01*
X39957178Y213549171D01*
X40535715Y213549171D01*
X40564979Y213552053D01*
X40619051Y213574451D01*
X40660435Y213615835D01*
X40682833Y213669907D01*
X40682833Y213699171D01*
X42242857Y213699171D01*
X42242857Y212199171D01*
X42245739Y212169907D01*
X42268137Y212115835D01*
X42309521Y212074451D01*
X42363593Y212052053D01*
X42422121Y212052053D01*
X42476193Y212074451D01*
X42517577Y212115835D01*
X42539975Y212169907D01*
X42542857Y212199171D01*
X42542857Y212763457D01*
X42964286Y212763457D01*
X42993550Y212766339D01*
X42998528Y212768401D01*
X43003904Y212768783D01*
X43031368Y212779293D01*
X43174225Y212850721D01*
X43186818Y212858648D01*
X43190478Y212860164D01*
X43194597Y212863545D01*
X43199111Y212866386D01*
X43201707Y212869379D01*
X43213209Y212878819D01*
X43284638Y212950248D01*
X43294079Y212961752D01*
X43297071Y212964347D01*
X43299909Y212968856D01*
X43303293Y212972979D01*
X43304809Y212976640D01*
X43312736Y212989232D01*
X43384164Y213132090D01*
X43394674Y213159553D01*
X43395055Y213164928D01*
X43397118Y213169907D01*
X43400000Y213199171D01*
X43742857Y213199171D01*
X43742857Y212199171D01*
X43745739Y212169907D01*
X43768137Y212115835D01*
X43809521Y212074451D01*
X43863593Y212052053D01*
X43922121Y212052053D01*
X43976193Y212074451D01*
X44017577Y212115835D01*
X44039975Y212169907D01*
X44042857Y212199171D01*
X44042857Y212878046D01*
X44087564Y212967460D01*
X44124568Y213004463D01*
X44213982Y213049171D01*
X44321429Y213049171D01*
X44350693Y213052053D01*
X44404765Y213074451D01*
X44446149Y213115835D01*
X44468547Y213169907D01*
X44468547Y213199171D01*
X44671428Y213199171D01*
X44671428Y212199171D01*
X44674310Y212169907D01*
X44696708Y212115835D01*
X44738092Y212074451D01*
X44792164Y212052053D01*
X44850692Y212052053D01*
X44904764Y212074451D01*
X44946148Y212115835D01*
X44968546Y212169907D01*
X44971428Y212199171D01*
X44971428Y212984885D01*
X45314286Y212984885D01*
X45314286Y212913457D01*
X45317168Y212884193D01*
X45319230Y212879214D01*
X45319612Y212873839D01*
X45330122Y212846375D01*
X45401550Y212703518D01*
X45404630Y212698623D01*
X45405400Y212696316D01*
X45407892Y212693441D01*
X45417215Y212678632D01*
X45431423Y212666309D01*
X45443746Y212652101D01*
X45458555Y212642778D01*
X45461430Y212640286D01*
X45463737Y212639516D01*
X45468632Y212636436D01*
X45611490Y212565007D01*
X45638953Y212554497D01*
X45644330Y212554114D01*
X45649308Y212552053D01*
X45678572Y212549171D01*
X45857447Y212549171D01*
X45923911Y212515938D01*
X45957143Y212449474D01*
X45957143Y212448867D01*
X45923911Y212382403D01*
X45857447Y212349171D01*
X45642553Y212349171D01*
X45531368Y212404764D01*
X45503905Y212415273D01*
X45445525Y212419422D01*
X45390002Y212400915D01*
X45345787Y212362568D01*
X45319613Y212310219D01*
X45315464Y212251839D01*
X45333971Y212196316D01*
X45372318Y212152101D01*
X45397204Y212136436D01*
X45540060Y212065007D01*
X45567524Y212054498D01*
X45572898Y212054116D01*
X45577879Y212052053D01*
X45607143Y212049171D01*
X45892857Y212049171D01*
X45922121Y212052053D01*
X45927101Y212054116D01*
X45932476Y212054498D01*
X45959939Y212065007D01*
X46102796Y212136436D01*
X46107686Y212139514D01*
X46109998Y212140285D01*
X46112876Y212142781D01*
X46127682Y212152101D01*
X46140003Y212166308D01*
X46154213Y212178632D01*
X46163535Y212193441D01*
X46166028Y212196316D01*
X46166797Y212198623D01*
X46169878Y212203518D01*
X46241307Y212346374D01*
X46251816Y212373838D01*
X46252197Y212379212D01*
X46254261Y212384193D01*
X46257143Y212413457D01*
X46257143Y212484885D01*
X46254261Y212514149D01*
X46252197Y212519129D01*
X46251816Y212524504D01*
X46241307Y212551968D01*
X46169878Y212694824D01*
X46166797Y212699718D01*
X46166028Y212702026D01*
X46163535Y212704900D01*
X46154213Y212719710D01*
X46140003Y212732033D01*
X46127682Y212746241D01*
X46112876Y212755560D01*
X46109998Y212758057D01*
X46107686Y212758827D01*
X46102796Y212761906D01*
X45959939Y212833335D01*
X45932476Y212843844D01*
X45927101Y212844225D01*
X45922121Y212846289D01*
X45892857Y212849171D01*
X45713982Y212849171D01*
X45647517Y212882403D01*
X45614286Y212948866D01*
X45614286Y212949475D01*
X45647517Y213015938D01*
X45713982Y213049171D01*
X45857447Y213049171D01*
X45968631Y212993578D01*
X45996095Y212983069D01*
X46054475Y212978920D01*
X46109997Y212997427D01*
X46154213Y213035774D01*
X46180387Y213088123D01*
X46184536Y213146503D01*
X46166980Y213199171D01*
X46600000Y213199171D01*
X46600000Y212199171D01*
X46602882Y212169907D01*
X46625280Y212115835D01*
X46666664Y212074451D01*
X46720736Y212052053D01*
X46779264Y212052053D01*
X46833336Y212074451D01*
X46874720Y212115835D01*
X46897118Y212169907D01*
X46900000Y212199171D01*
X46900000Y212994181D01*
X46910282Y213004463D01*
X46999696Y213049171D01*
X47143162Y213049171D01*
X47209626Y213015938D01*
X47242858Y212949474D01*
X47242858Y212199171D01*
X47245740Y212169907D01*
X47268138Y212115835D01*
X47309522Y212074451D01*
X47363594Y212052053D01*
X47422122Y212052053D01*
X47476194Y212074451D01*
X47517578Y212115835D01*
X47539976Y212169907D01*
X47542858Y212199171D01*
X47542858Y212949475D01*
X47576089Y213015938D01*
X47642553Y213049171D01*
X47786019Y213049171D01*
X47852483Y213015938D01*
X47885715Y212949474D01*
X47885715Y212199171D01*
X47888597Y212169907D01*
X47910995Y212115835D01*
X47952379Y212074451D01*
X48006451Y212052053D01*
X48064979Y212052053D01*
X48119051Y212074451D01*
X48160435Y212115835D01*
X48182833Y212169907D01*
X48185715Y212199171D01*
X48185715Y212556314D01*
X48528572Y212556314D01*
X48528572Y212413457D01*
X48531454Y212384193D01*
X48533516Y212379214D01*
X48533898Y212373839D01*
X48544408Y212346375D01*
X48615836Y212203518D01*
X48618916Y212198623D01*
X48619686Y212196316D01*
X48622178Y212193441D01*
X48631501Y212178632D01*
X48645709Y212166309D01*
X48658032Y212152101D01*
X48672841Y212142778D01*
X48675716Y212140286D01*
X48678023Y212139516D01*
X48682918Y212136436D01*
X48825776Y212065007D01*
X48853239Y212054497D01*
X48858616Y212054114D01*
X48863594Y212052053D01*
X48892858Y212049171D01*
X49250000Y212049171D01*
X49279264Y212052053D01*
X49284241Y212054114D01*
X49289619Y212054497D01*
X49317082Y212065007D01*
X49323986Y212068459D01*
X49363594Y212052053D01*
X49422122Y212052053D01*
X49476194Y212074451D01*
X49517578Y212115835D01*
X49539976Y212169907D01*
X49542858Y212199171D01*
X49542858Y212984885D01*
X49539976Y213014149D01*
X49537912Y213019129D01*
X49537531Y213024504D01*
X49527022Y213051968D01*
X49455593Y213194824D01*
X49452512Y213199718D01*
X49451743Y213202026D01*
X49449250Y213204900D01*
X49439928Y213219710D01*
X49429867Y213228435D01*
X49745740Y213228435D01*
X49745740Y213169907D01*
X49768138Y213115835D01*
X49809522Y213074451D01*
X49863594Y213052053D01*
X49892858Y213049171D01*
X49957143Y213049171D01*
X49957143Y212413457D01*
X49960025Y212384193D01*
X49962088Y212379212D01*
X49962470Y212373838D01*
X49972979Y212346375D01*
X50044408Y212203518D01*
X50047486Y212198627D01*
X50048257Y212196316D01*
X50050753Y212193437D01*
X50060073Y212178632D01*
X50074280Y212166310D01*
X50086604Y212152101D01*
X50101413Y212142778D01*
X50104288Y212140286D01*
X50106595Y212139516D01*
X50111490Y212136436D01*
X50254346Y212065007D01*
X50281810Y212054498D01*
X50287184Y212054116D01*
X50292165Y212052053D01*
X50321429Y212049171D01*
X50464286Y212049171D01*
X50493550Y212052053D01*
X50547622Y212074451D01*
X50589006Y212115835D01*
X50611404Y212169907D01*
X50611404Y212228435D01*
X50589006Y212282507D01*
X50547622Y212323891D01*
X50493550Y212346289D01*
X50464286Y212349171D01*
X50356839Y212349171D01*
X50290375Y212382402D01*
X50257143Y212448867D01*
X50257143Y213049171D01*
X50464286Y213049171D01*
X50493550Y213052053D01*
X50547622Y213074451D01*
X50589006Y213115835D01*
X50611404Y213169907D01*
X50611404Y213199171D01*
X50814286Y213199171D01*
X50814286Y212199171D01*
X50817168Y212169907D01*
X50839566Y212115835D01*
X50880950Y212074451D01*
X50935022Y212052053D01*
X50993550Y212052053D01*
X51047622Y212074451D01*
X51089006Y212115835D01*
X51111404Y212169907D01*
X51114286Y212199171D01*
X51114286Y212913457D01*
X51457144Y212913457D01*
X51457144Y212484885D01*
X51460026Y212455621D01*
X51462088Y212450642D01*
X51462470Y212445267D01*
X51472980Y212417803D01*
X51544408Y212274946D01*
X51552336Y212262350D01*
X51553852Y212258692D01*
X51557231Y212254574D01*
X51560073Y212250060D01*
X51563067Y212247463D01*
X51572507Y212235961D01*
X51643936Y212164533D01*
X51655436Y212155094D01*
X51658033Y212152101D01*
X51662545Y212149260D01*
X51666666Y212145879D01*
X51670325Y212144363D01*
X51682919Y212136436D01*
X51825775Y212065007D01*
X51853239Y212054498D01*
X51858613Y212054116D01*
X51863594Y212052053D01*
X51892858Y212049171D01*
X52178572Y212049171D01*
X52207836Y212052053D01*
X52212813Y212054114D01*
X52218191Y212054497D01*
X52245654Y212065007D01*
X52388512Y212136436D01*
X52413398Y212152101D01*
X52451744Y212196316D01*
X52470252Y212251838D01*
X52466104Y212310219D01*
X52439929Y212362568D01*
X52395714Y212400914D01*
X52340191Y212419422D01*
X52281811Y212415274D01*
X52254348Y212404764D01*
X52143162Y212349171D01*
X51928268Y212349171D01*
X51838854Y212393878D01*
X51801849Y212430883D01*
X51757144Y212520294D01*
X51757144Y212878047D01*
X51801849Y212967458D01*
X51838854Y213004463D01*
X51928268Y213049171D01*
X52143162Y213049171D01*
X52254348Y212993578D01*
X52281811Y212983068D01*
X52340191Y212978920D01*
X52395714Y212997428D01*
X52439929Y213035774D01*
X52450199Y213056314D01*
X53885715Y213056314D01*
X53885715Y212842028D01*
X53886217Y212836924D01*
X53885892Y212834737D01*
X53887511Y212823786D01*
X53888597Y212812764D01*
X53889444Y212810719D01*
X53890194Y212805648D01*
X53961622Y212519934D01*
X53962393Y212517775D01*
X53962470Y212516695D01*
X53967128Y212504520D01*
X53971515Y212492243D01*
X53972159Y212491372D01*
X53972979Y212489232D01*
X54044408Y212346375D01*
X54052335Y212333781D01*
X54053851Y212330122D01*
X54057232Y212326002D01*
X54060073Y212321489D01*
X54063066Y212318892D01*
X54072506Y212307391D01*
X54215363Y212164534D01*
X54238093Y212145879D01*
X54243074Y212143815D01*
X54247144Y212140286D01*
X54273995Y212128298D01*
X54488280Y212056869D01*
X54502789Y212053569D01*
X54506451Y212052053D01*
X54511759Y212051530D01*
X54516954Y212050349D01*
X54520903Y212050629D01*
X54535715Y212049171D01*
X54678572Y212049171D01*
X54693383Y212050629D01*
X54697333Y212050349D01*
X54702527Y212051530D01*
X54707836Y212052053D01*
X54711498Y212053570D01*
X54726006Y212056869D01*
X54940292Y212128297D01*
X54967143Y212140286D01*
X54971213Y212143816D01*
X54976193Y212145879D01*
X54998924Y212164534D01*
X55070352Y212235962D01*
X55089007Y212258692D01*
X55111403Y212312765D01*
X55111403Y212371291D01*
X55089007Y212425363D01*
X55047621Y212466749D01*
X54993549Y212489145D01*
X54935023Y212489145D01*
X54880950Y212466749D01*
X54858220Y212448094D01*
X54811830Y212401704D01*
X54654232Y212349171D01*
X54560058Y212349171D01*
X54402456Y212401704D01*
X54301850Y212502310D01*
X54248669Y212608670D01*
X54185715Y212860491D01*
X54185715Y212984885D01*
X55385715Y212984885D01*
X55385715Y212413457D01*
X55388597Y212384193D01*
X55390659Y212379214D01*
X55391041Y212373839D01*
X55401551Y212346375D01*
X55472979Y212203518D01*
X55476059Y212198623D01*
X55476829Y212196316D01*
X55479321Y212193441D01*
X55488644Y212178632D01*
X55502852Y212166309D01*
X55515175Y212152101D01*
X55529984Y212142778D01*
X55532859Y212140286D01*
X55535166Y212139516D01*
X55540061Y212136436D01*
X55682919Y212065007D01*
X55710382Y212054497D01*
X55715759Y212054114D01*
X55720737Y212052053D01*
X55750001Y212049171D01*
X56035715Y212049171D01*
X56064979Y212052053D01*
X56069959Y212054116D01*
X56075334Y212054498D01*
X56102797Y212065007D01*
X56245654Y212136436D01*
X56270540Y212152101D01*
X56308886Y212196316D01*
X56327394Y212251839D01*
X56323245Y212310219D01*
X56297071Y212362568D01*
X56252855Y212400915D01*
X56197333Y212419422D01*
X56138953Y212415273D01*
X56111489Y212404764D01*
X56000305Y212349171D01*
X55785411Y212349171D01*
X55718946Y212382403D01*
X55685715Y212448866D01*
X55685715Y212576200D01*
X56279264Y212694910D01*
X56279265Y212694910D01*
X56279419Y212694941D01*
X56307549Y212703506D01*
X56319760Y212711684D01*
X56333337Y212717308D01*
X56343838Y212727809D01*
X56356179Y212736074D01*
X56364331Y212748302D01*
X56374721Y212758692D01*
X56380403Y212772411D01*
X56388643Y212784770D01*
X56391495Y212799187D01*
X56397119Y212812764D01*
X56400001Y212842028D01*
X56400001Y212842179D01*
X56400002Y212842185D01*
X56400001Y212842189D01*
X56400001Y212984885D01*
X56397119Y213014149D01*
X56395055Y213019129D01*
X56394674Y213024504D01*
X56384165Y213051968D01*
X56312736Y213194824D01*
X56309655Y213199718D01*
X56308886Y213202026D01*
X56306393Y213204900D01*
X56297071Y213219710D01*
X56282861Y213232033D01*
X56270540Y213246241D01*
X56255734Y213255560D01*
X56252856Y213258057D01*
X56250544Y213258827D01*
X56245654Y213261906D01*
X56102797Y213333335D01*
X56075334Y213343844D01*
X56069959Y213344225D01*
X56064979Y213346289D01*
X56035715Y213349171D01*
X55750001Y213349171D01*
X55720737Y213346289D01*
X55715759Y213344227D01*
X55710382Y213343845D01*
X55682919Y213333335D01*
X55540061Y213261906D01*
X55535166Y213258825D01*
X55532859Y213258056D01*
X55529984Y213255563D01*
X55515175Y213246241D01*
X55502852Y213232032D01*
X55488644Y213219710D01*
X55479321Y213204900D01*
X55476829Y213202026D01*
X55476059Y213199718D01*
X55472979Y213194824D01*
X55401551Y213051967D01*
X55391041Y213024503D01*
X55390659Y213019127D01*
X55388597Y213014149D01*
X55385715Y212984885D01*
X54185715Y212984885D01*
X54185715Y213037850D01*
X54248669Y213289671D01*
X54301850Y213396031D01*
X54402456Y213496637D01*
X54560058Y213549171D01*
X54654232Y213549171D01*
X54811830Y213496637D01*
X54858220Y213450248D01*
X54880950Y213431593D01*
X54935023Y213409197D01*
X54993549Y213409197D01*
X55047621Y213431593D01*
X55089007Y213472979D01*
X55111403Y213527051D01*
X55111403Y213585577D01*
X55089007Y213639650D01*
X55070352Y213662380D01*
X55033561Y213699171D01*
X56742857Y213699171D01*
X56742857Y212413457D01*
X56745739Y212384193D01*
X56747802Y212379212D01*
X56748184Y212373838D01*
X56758693Y212346375D01*
X56830122Y212203518D01*
X56833200Y212198627D01*
X56833971Y212196316D01*
X56836467Y212193437D01*
X56845787Y212178632D01*
X56859994Y212166310D01*
X56872318Y212152101D01*
X56887127Y212142778D01*
X56890002Y212140286D01*
X56892309Y212139516D01*
X56897204Y212136436D01*
X57040060Y212065007D01*
X57067524Y212054498D01*
X57125904Y212050349D01*
X57181426Y212068856D01*
X57225642Y212107203D01*
X57251816Y212159552D01*
X57255965Y212217932D01*
X57237457Y212273455D01*
X57199111Y212317670D01*
X57174225Y212333335D01*
X57076089Y212382402D01*
X57042857Y212448867D01*
X57042857Y213699171D01*
X57528571Y213699171D01*
X57528571Y212413457D01*
X57531453Y212384193D01*
X57533516Y212379212D01*
X57533898Y212373838D01*
X57544407Y212346375D01*
X57615836Y212203518D01*
X57618914Y212198627D01*
X57619685Y212196316D01*
X57622181Y212193437D01*
X57631501Y212178632D01*
X57645708Y212166310D01*
X57658032Y212152101D01*
X57672841Y212142778D01*
X57675716Y212140286D01*
X57678023Y212139516D01*
X57682918Y212136436D01*
X57825774Y212065007D01*
X57853238Y212054498D01*
X57911618Y212050349D01*
X57967140Y212068856D01*
X58011356Y212107203D01*
X58037530Y212159552D01*
X58041679Y212217932D01*
X58023171Y212273455D01*
X57984825Y212317670D01*
X57959939Y212333335D01*
X57861803Y212382402D01*
X57828571Y212448867D01*
X57828571Y213056314D01*
X59385714Y213056314D01*
X59385714Y212842028D01*
X59386216Y212836924D01*
X59385891Y212834737D01*
X59387510Y212823786D01*
X59388596Y212812764D01*
X59389443Y212810719D01*
X59390193Y212805648D01*
X59461621Y212519934D01*
X59462392Y212517775D01*
X59462469Y212516695D01*
X59467127Y212504520D01*
X59471514Y212492243D01*
X59472158Y212491372D01*
X59472978Y212489232D01*
X59544407Y212346375D01*
X59552334Y212333781D01*
X59553850Y212330122D01*
X59557231Y212326002D01*
X59560072Y212321489D01*
X59563065Y212318892D01*
X59572505Y212307391D01*
X59715362Y212164534D01*
X59738092Y212145879D01*
X59743073Y212143815D01*
X59747143Y212140286D01*
X59773994Y212128298D01*
X59988279Y212056869D01*
X60002788Y212053569D01*
X60006450Y212052053D01*
X60011758Y212051530D01*
X60016953Y212050349D01*
X60020902Y212050629D01*
X60035714Y212049171D01*
X60178571Y212049171D01*
X60193382Y212050629D01*
X60197332Y212050349D01*
X60202526Y212051530D01*
X60207835Y212052053D01*
X60211497Y212053570D01*
X60226005Y212056869D01*
X60440291Y212128297D01*
X60467142Y212140286D01*
X60471212Y212143816D01*
X60476192Y212145879D01*
X60498923Y212164534D01*
X60570351Y212235962D01*
X60589006Y212258692D01*
X60611402Y212312765D01*
X60611402Y212371291D01*
X60589006Y212425363D01*
X60547620Y212466749D01*
X60493548Y212489145D01*
X60435022Y212489145D01*
X60380949Y212466749D01*
X60358219Y212448094D01*
X60311829Y212401704D01*
X60154231Y212349171D01*
X60060057Y212349171D01*
X59902455Y212401704D01*
X59801849Y212502310D01*
X59774846Y212556314D01*
X60885714Y212556314D01*
X60885714Y212413457D01*
X60888596Y212384193D01*
X60890658Y212379214D01*
X60891040Y212373839D01*
X60901550Y212346375D01*
X60972978Y212203518D01*
X60976058Y212198623D01*
X60976828Y212196316D01*
X60979320Y212193441D01*
X60988643Y212178632D01*
X61002851Y212166309D01*
X61015174Y212152101D01*
X61029983Y212142778D01*
X61032858Y212140286D01*
X61035165Y212139516D01*
X61040060Y212136436D01*
X61182918Y212065007D01*
X61210381Y212054497D01*
X61215758Y212054114D01*
X61220736Y212052053D01*
X61250000Y212049171D01*
X61607142Y212049171D01*
X61636406Y212052053D01*
X61641383Y212054114D01*
X61646761Y212054497D01*
X61674224Y212065007D01*
X61681128Y212068459D01*
X61720736Y212052053D01*
X61779264Y212052053D01*
X61833336Y212074451D01*
X61874720Y212115835D01*
X61897118Y212169907D01*
X61900000Y212199171D01*
X61900000Y212984885D01*
X61897118Y213014149D01*
X61895054Y213019129D01*
X61894673Y213024504D01*
X61884164Y213051968D01*
X61812735Y213194824D01*
X61809998Y213199171D01*
X62314285Y213199171D01*
X62314285Y212199171D01*
X62317167Y212169907D01*
X62339565Y212115835D01*
X62380949Y212074451D01*
X62435021Y212052053D01*
X62493549Y212052053D01*
X62547621Y212074451D01*
X62589005Y212115835D01*
X62611403Y212169907D01*
X62614285Y212199171D01*
X62614285Y212878046D01*
X62658992Y212967460D01*
X62695996Y213004463D01*
X62785410Y213049171D01*
X62892857Y213049171D01*
X62922121Y213052053D01*
X62976193Y213074451D01*
X63017577Y213115835D01*
X63039975Y213169907D01*
X63039975Y213199171D01*
X63242856Y213199171D01*
X63242856Y212199171D01*
X63245738Y212169907D01*
X63268136Y212115835D01*
X63309520Y212074451D01*
X63363592Y212052053D01*
X63422120Y212052053D01*
X63476192Y212074451D01*
X63517576Y212115835D01*
X63539974Y212169907D01*
X63542856Y212199171D01*
X63542856Y212878046D01*
X63587563Y212967460D01*
X63624567Y213004463D01*
X63713981Y213049171D01*
X63821428Y213049171D01*
X63850692Y213052053D01*
X63904764Y213074451D01*
X63946148Y213115835D01*
X63968546Y213169907D01*
X63968546Y213199171D01*
X64171427Y213199171D01*
X64171427Y212199171D01*
X64174309Y212169907D01*
X64196707Y212115835D01*
X64238091Y212074451D01*
X64292163Y212052053D01*
X64350691Y212052053D01*
X64404763Y212074451D01*
X64446147Y212115835D01*
X64468545Y212169907D01*
X64471427Y212199171D01*
X64471427Y212984885D01*
X64814285Y212984885D01*
X64814285Y212413457D01*
X64817167Y212384193D01*
X64819229Y212379214D01*
X64819611Y212373839D01*
X64830121Y212346375D01*
X64901549Y212203518D01*
X64904629Y212198623D01*
X64905399Y212196316D01*
X64907891Y212193441D01*
X64917214Y212178632D01*
X64931422Y212166309D01*
X64943745Y212152101D01*
X64958554Y212142778D01*
X64961429Y212140286D01*
X64963736Y212139516D01*
X64968631Y212136436D01*
X65111489Y212065007D01*
X65138952Y212054497D01*
X65144329Y212054114D01*
X65149307Y212052053D01*
X65178571Y212049171D01*
X65464285Y212049171D01*
X65493549Y212052053D01*
X65498529Y212054116D01*
X65503904Y212054498D01*
X65531367Y212065007D01*
X65674224Y212136436D01*
X65699110Y212152101D01*
X65737456Y212196316D01*
X65755964Y212251839D01*
X65751815Y212310219D01*
X65725641Y212362568D01*
X65681425Y212400915D01*
X65625903Y212419422D01*
X65567523Y212415273D01*
X65540059Y212404764D01*
X65428875Y212349171D01*
X65213981Y212349171D01*
X65147516Y212382403D01*
X65114285Y212448866D01*
X65114285Y212576200D01*
X65707834Y212694910D01*
X65707835Y212694910D01*
X65707989Y212694941D01*
X65736119Y212703506D01*
X65748330Y212711684D01*
X65761907Y212717308D01*
X65772408Y212727809D01*
X65784749Y212736074D01*
X65792901Y212748302D01*
X65803291Y212758692D01*
X65808973Y212772411D01*
X65817213Y212784770D01*
X65820065Y212799187D01*
X65825689Y212812764D01*
X65828571Y212842028D01*
X65828571Y212842179D01*
X65828572Y212842185D01*
X65828571Y212842189D01*
X65828571Y212984885D01*
X65825689Y213014149D01*
X65823625Y213019129D01*
X65823244Y213024504D01*
X65812735Y213051968D01*
X65741306Y213194824D01*
X65738569Y213199171D01*
X66171427Y213199171D01*
X66171427Y212199171D01*
X66174309Y212169907D01*
X66196707Y212115835D01*
X66238091Y212074451D01*
X66292163Y212052053D01*
X66350691Y212052053D01*
X66404763Y212074451D01*
X66446147Y212115835D01*
X66468545Y212169907D01*
X66471427Y212199171D01*
X66471427Y212878046D01*
X66516134Y212967460D01*
X66553138Y213004463D01*
X66642552Y213049171D01*
X66749999Y213049171D01*
X66779263Y213052053D01*
X66833335Y213074451D01*
X66874719Y213115835D01*
X66897117Y213169907D01*
X66897117Y213228435D01*
X66874719Y213282507D01*
X66833335Y213323891D01*
X66779263Y213346289D01*
X66749999Y213349171D01*
X66607142Y213349171D01*
X66577878Y213346289D01*
X66572897Y213344225D01*
X66567523Y213343844D01*
X66540059Y213333335D01*
X66443566Y213285087D01*
X66404763Y213323891D01*
X66350691Y213346289D01*
X66292163Y213346289D01*
X66238091Y213323891D01*
X66196707Y213282507D01*
X66174309Y213228435D01*
X66171427Y213199171D01*
X65738569Y213199171D01*
X65738225Y213199718D01*
X65737456Y213202026D01*
X65734963Y213204900D01*
X65725641Y213219710D01*
X65711431Y213232033D01*
X65699110Y213246241D01*
X65684304Y213255560D01*
X65681426Y213258057D01*
X65679114Y213258827D01*
X65674224Y213261906D01*
X65531367Y213333335D01*
X65503904Y213343844D01*
X65498529Y213344225D01*
X65493549Y213346289D01*
X65464285Y213349171D01*
X65178571Y213349171D01*
X65149307Y213346289D01*
X65144329Y213344227D01*
X65138952Y213343845D01*
X65111489Y213333335D01*
X64968631Y213261906D01*
X64963736Y213258825D01*
X64961429Y213258056D01*
X64958554Y213255563D01*
X64943745Y213246241D01*
X64931422Y213232032D01*
X64917214Y213219710D01*
X64907891Y213204900D01*
X64905399Y213202026D01*
X64904629Y213199718D01*
X64901549Y213194824D01*
X64830121Y213051967D01*
X64819611Y213024503D01*
X64819229Y213019127D01*
X64817167Y213014149D01*
X64814285Y212984885D01*
X64471427Y212984885D01*
X64471427Y213199171D01*
X64468545Y213228435D01*
X64446147Y213282507D01*
X64404763Y213323891D01*
X64350691Y213346289D01*
X64292163Y213346289D01*
X64238091Y213323891D01*
X64196707Y213282507D01*
X64174309Y213228435D01*
X64171427Y213199171D01*
X63968546Y213199171D01*
X63968546Y213228435D01*
X63946148Y213282507D01*
X63904764Y213323891D01*
X63850692Y213346289D01*
X63821428Y213349171D01*
X63678571Y213349171D01*
X63649307Y213346289D01*
X63644326Y213344225D01*
X63638952Y213343844D01*
X63611488Y213333335D01*
X63514995Y213285087D01*
X63476192Y213323891D01*
X63422120Y213346289D01*
X63363592Y213346289D01*
X63309520Y213323891D01*
X63268136Y213282507D01*
X63245738Y213228435D01*
X63242856Y213199171D01*
X63039975Y213199171D01*
X63039975Y213228435D01*
X63017577Y213282507D01*
X62976193Y213323891D01*
X62922121Y213346289D01*
X62892857Y213349171D01*
X62750000Y213349171D01*
X62720736Y213346289D01*
X62715755Y213344225D01*
X62710381Y213343844D01*
X62682917Y213333335D01*
X62586424Y213285087D01*
X62547621Y213323891D01*
X62493549Y213346289D01*
X62435021Y213346289D01*
X62380949Y213323891D01*
X62339565Y213282507D01*
X62317167Y213228435D01*
X62314285Y213199171D01*
X61809998Y213199171D01*
X61809654Y213199718D01*
X61808885Y213202026D01*
X61806392Y213204900D01*
X61797070Y213219710D01*
X61782860Y213232033D01*
X61770539Y213246241D01*
X61755733Y213255560D01*
X61752855Y213258057D01*
X61750543Y213258827D01*
X61745653Y213261906D01*
X61602796Y213333335D01*
X61575333Y213343844D01*
X61569958Y213344225D01*
X61564978Y213346289D01*
X61535714Y213349171D01*
X61250000Y213349171D01*
X61220736Y213346289D01*
X61215758Y213344227D01*
X61210381Y213343845D01*
X61182918Y213333335D01*
X61040060Y213261906D01*
X61015174Y213246241D01*
X60976828Y213202026D01*
X60958320Y213146504D01*
X60962468Y213088123D01*
X60988643Y213035774D01*
X61032858Y212997428D01*
X61088380Y212978920D01*
X61146761Y212983068D01*
X61174224Y212993578D01*
X61285410Y213049171D01*
X61500304Y213049171D01*
X61566768Y213015938D01*
X61600000Y212949474D01*
X61600000Y212934733D01*
X61571733Y212920600D01*
X61250000Y212920600D01*
X61220736Y212917718D01*
X61215758Y212915656D01*
X61210381Y212915274D01*
X61182918Y212904764D01*
X61040060Y212833335D01*
X61035165Y212830254D01*
X61032858Y212829485D01*
X61029983Y212826992D01*
X61015174Y212817670D01*
X61002851Y212803461D01*
X60988643Y212791139D01*
X60979320Y212776329D01*
X60976828Y212773455D01*
X60976058Y212771147D01*
X60972978Y212766253D01*
X60901550Y212623396D01*
X60891040Y212595932D01*
X60890658Y212590556D01*
X60888596Y212585578D01*
X60885714Y212556314D01*
X59774846Y212556314D01*
X59748668Y212608670D01*
X59685714Y212860491D01*
X59685714Y213037850D01*
X59748668Y213289671D01*
X59801849Y213396031D01*
X59902455Y213496637D01*
X60060057Y213549171D01*
X60154231Y213549171D01*
X60311829Y213496637D01*
X60358219Y213450248D01*
X60380949Y213431593D01*
X60435022Y213409197D01*
X60493548Y213409197D01*
X60547620Y213431593D01*
X60589006Y213472979D01*
X60611402Y213527051D01*
X60611402Y213585577D01*
X60589006Y213639650D01*
X60574763Y213657004D01*
X64102881Y213657004D01*
X64102881Y213598478D01*
X64108225Y213585578D01*
X64125278Y213544407D01*
X64143933Y213521676D01*
X64215361Y213450248D01*
X64238091Y213431593D01*
X64260488Y213422316D01*
X64292163Y213409196D01*
X64350691Y213409196D01*
X64388925Y213425033D01*
X64404762Y213431593D01*
X64404766Y213431597D01*
X64427492Y213450247D01*
X64498921Y213521675D01*
X64517576Y213544406D01*
X64517577Y213544407D01*
X64539974Y213598479D01*
X64539974Y213657005D01*
X64517577Y213711077D01*
X64498922Y213733808D01*
X64427493Y213805237D01*
X64404762Y213823892D01*
X64371151Y213837814D01*
X64350691Y213846289D01*
X64292163Y213846289D01*
X64271703Y213837814D01*
X64238092Y213823892D01*
X64238091Y213823891D01*
X64215360Y213805236D01*
X64143932Y213733807D01*
X64125282Y213711081D01*
X64125278Y213711077D01*
X64105108Y213662380D01*
X64102881Y213657004D01*
X60574763Y213657004D01*
X60570351Y213662380D01*
X60498923Y213733808D01*
X60476192Y213752463D01*
X60471212Y213754525D01*
X60467142Y213758056D01*
X60440291Y213770045D01*
X60226005Y213841473D01*
X60211497Y213844771D01*
X60207835Y213846289D01*
X60202526Y213846811D01*
X60197332Y213847993D01*
X60193382Y213847712D01*
X60178571Y213849171D01*
X60035714Y213849171D01*
X60020902Y213847712D01*
X60016953Y213847993D01*
X60011758Y213846811D01*
X60006450Y213846289D01*
X60002788Y213844772D01*
X59988279Y213841473D01*
X59773994Y213770044D01*
X59747143Y213758056D01*
X59743073Y213754526D01*
X59738092Y213752463D01*
X59715362Y213733808D01*
X59572505Y213590951D01*
X59563065Y213579449D01*
X59560072Y213576853D01*
X59557231Y213572339D01*
X59553850Y213568220D01*
X59552334Y213564560D01*
X59544407Y213551967D01*
X59472978Y213409110D01*
X59472158Y213406969D01*
X59471514Y213406099D01*
X59467127Y213393821D01*
X59462469Y213381647D01*
X59462392Y213380566D01*
X59461621Y213378408D01*
X59390193Y213092694D01*
X59389443Y213087622D01*
X59388596Y213085578D01*
X59387510Y213074555D01*
X59385891Y213063605D01*
X59386216Y213061417D01*
X59385714Y213056314D01*
X57828571Y213056314D01*
X57828571Y213699171D01*
X57825689Y213728435D01*
X57803291Y213782507D01*
X57761907Y213823891D01*
X57707835Y213846289D01*
X57649307Y213846289D01*
X57595235Y213823891D01*
X57553851Y213782507D01*
X57531453Y213728435D01*
X57528571Y213699171D01*
X57042857Y213699171D01*
X57039975Y213728435D01*
X57017577Y213782507D01*
X56976193Y213823891D01*
X56922121Y213846289D01*
X56863593Y213846289D01*
X56809521Y213823891D01*
X56768137Y213782507D01*
X56745739Y213728435D01*
X56742857Y213699171D01*
X55033561Y213699171D01*
X54998924Y213733808D01*
X54976193Y213752463D01*
X54971213Y213754525D01*
X54967143Y213758056D01*
X54940292Y213770045D01*
X54726006Y213841473D01*
X54711498Y213844771D01*
X54707836Y213846289D01*
X54702527Y213846811D01*
X54697333Y213847993D01*
X54693383Y213847712D01*
X54678572Y213849171D01*
X54535715Y213849171D01*
X54520903Y213847712D01*
X54516954Y213847993D01*
X54511759Y213846811D01*
X54506451Y213846289D01*
X54502789Y213844772D01*
X54488280Y213841473D01*
X54273995Y213770044D01*
X54247144Y213758056D01*
X54243074Y213754526D01*
X54238093Y213752463D01*
X54215363Y213733808D01*
X54072506Y213590951D01*
X54063066Y213579449D01*
X54060073Y213576853D01*
X54057232Y213572339D01*
X54053851Y213568220D01*
X54052335Y213564560D01*
X54044408Y213551967D01*
X53972979Y213409110D01*
X53972159Y213406969D01*
X53971515Y213406099D01*
X53967128Y213393821D01*
X53962470Y213381647D01*
X53962393Y213380566D01*
X53961622Y213378408D01*
X53890194Y213092694D01*
X53889444Y213087622D01*
X53888597Y213085578D01*
X53887511Y213074555D01*
X53885892Y213063605D01*
X53886217Y213061417D01*
X53885715Y213056314D01*
X52450199Y213056314D01*
X52466104Y213088123D01*
X52470252Y213146504D01*
X52451744Y213202026D01*
X52413398Y213246241D01*
X52388512Y213261906D01*
X52245654Y213333335D01*
X52218191Y213343845D01*
X52212813Y213344227D01*
X52207836Y213346289D01*
X52178572Y213349171D01*
X51892858Y213349171D01*
X51863594Y213346289D01*
X51858613Y213344225D01*
X51853239Y213343844D01*
X51825775Y213333335D01*
X51682919Y213261906D01*
X51670325Y213253978D01*
X51666666Y213252463D01*
X51662545Y213249081D01*
X51658033Y213246241D01*
X51655436Y213243247D01*
X51643936Y213233809D01*
X51572507Y213162381D01*
X51563067Y213150878D01*
X51560073Y213148282D01*
X51557231Y213143767D01*
X51553852Y213139650D01*
X51552336Y213135991D01*
X51544408Y213123396D01*
X51472980Y212980539D01*
X51462470Y212953075D01*
X51462088Y212947699D01*
X51460026Y212942721D01*
X51457144Y212913457D01*
X51114286Y212913457D01*
X51114286Y213199171D01*
X51111404Y213228435D01*
X51089006Y213282507D01*
X51047622Y213323891D01*
X50993550Y213346289D01*
X50935022Y213346289D01*
X50880950Y213323891D01*
X50839566Y213282507D01*
X50817168Y213228435D01*
X50814286Y213199171D01*
X50611404Y213199171D01*
X50611404Y213228435D01*
X50589006Y213282507D01*
X50547622Y213323891D01*
X50493550Y213346289D01*
X50464286Y213349171D01*
X50257143Y213349171D01*
X50257143Y213657004D01*
X50745740Y213657004D01*
X50745740Y213598478D01*
X50751084Y213585578D01*
X50768137Y213544407D01*
X50786792Y213521676D01*
X50858220Y213450248D01*
X50880950Y213431593D01*
X50903347Y213422316D01*
X50935022Y213409196D01*
X50993550Y213409196D01*
X51031784Y213425033D01*
X51047621Y213431593D01*
X51047625Y213431597D01*
X51070351Y213450247D01*
X51141780Y213521675D01*
X51160435Y213544406D01*
X51160436Y213544407D01*
X51182833Y213598479D01*
X51182833Y213657005D01*
X51160436Y213711077D01*
X51141781Y213733808D01*
X51070352Y213805237D01*
X51047621Y213823892D01*
X51014010Y213837814D01*
X50993550Y213846289D01*
X50935022Y213846289D01*
X50914562Y213837814D01*
X50880951Y213823892D01*
X50880950Y213823891D01*
X50858219Y213805236D01*
X50786791Y213733807D01*
X50768141Y213711081D01*
X50768137Y213711077D01*
X50747967Y213662380D01*
X50745740Y213657004D01*
X50257143Y213657004D01*
X50257143Y213699171D01*
X50254261Y213728435D01*
X50231863Y213782507D01*
X50190479Y213823891D01*
X50136407Y213846289D01*
X50077879Y213846289D01*
X50023807Y213823891D01*
X49982423Y213782507D01*
X49960025Y213728435D01*
X49957143Y213699171D01*
X49957143Y213349171D01*
X49892858Y213349171D01*
X49863594Y213346289D01*
X49809522Y213323891D01*
X49768138Y213282507D01*
X49745740Y213228435D01*
X49429867Y213228435D01*
X49425718Y213232033D01*
X49413397Y213246241D01*
X49398591Y213255560D01*
X49395713Y213258057D01*
X49393401Y213258827D01*
X49388511Y213261906D01*
X49245654Y213333335D01*
X49218191Y213343844D01*
X49212816Y213344225D01*
X49207836Y213346289D01*
X49178572Y213349171D01*
X48892858Y213349171D01*
X48863594Y213346289D01*
X48858616Y213344227D01*
X48853239Y213343845D01*
X48825776Y213333335D01*
X48682918Y213261906D01*
X48658032Y213246241D01*
X48619686Y213202026D01*
X48601178Y213146504D01*
X48605326Y213088123D01*
X48631501Y213035774D01*
X48675716Y212997428D01*
X48731238Y212978920D01*
X48789619Y212983068D01*
X48817082Y212993578D01*
X48928268Y213049171D01*
X49143162Y213049171D01*
X49209626Y213015938D01*
X49242858Y212949474D01*
X49242858Y212934733D01*
X49214591Y212920600D01*
X48892858Y212920600D01*
X48863594Y212917718D01*
X48858616Y212915656D01*
X48853239Y212915274D01*
X48825776Y212904764D01*
X48682918Y212833335D01*
X48678023Y212830254D01*
X48675716Y212829485D01*
X48672841Y212826992D01*
X48658032Y212817670D01*
X48645709Y212803461D01*
X48631501Y212791139D01*
X48622178Y212776329D01*
X48619686Y212773455D01*
X48618916Y212771147D01*
X48615836Y212766253D01*
X48544408Y212623396D01*
X48533898Y212595932D01*
X48533516Y212590556D01*
X48531454Y212585578D01*
X48528572Y212556314D01*
X48185715Y212556314D01*
X48185715Y212984885D01*
X48182833Y213014149D01*
X48180769Y213019129D01*
X48180388Y213024504D01*
X48169879Y213051968D01*
X48098450Y213194824D01*
X48095369Y213199718D01*
X48094600Y213202026D01*
X48092107Y213204900D01*
X48082785Y213219710D01*
X48068575Y213232033D01*
X48056254Y213246241D01*
X48041448Y213255560D01*
X48038570Y213258057D01*
X48036258Y213258827D01*
X48031368Y213261906D01*
X47888511Y213333335D01*
X47861048Y213343844D01*
X47855673Y213344225D01*
X47850693Y213346289D01*
X47821429Y213349171D01*
X47607143Y213349171D01*
X47577879Y213346289D01*
X47572898Y213344225D01*
X47567524Y213343844D01*
X47540060Y213333335D01*
X47397204Y213261906D01*
X47392857Y213259170D01*
X47388511Y213261906D01*
X47245654Y213333335D01*
X47218191Y213343844D01*
X47212816Y213344225D01*
X47207836Y213346289D01*
X47178572Y213349171D01*
X46964286Y213349171D01*
X46935022Y213346289D01*
X46930041Y213344225D01*
X46924667Y213343844D01*
X46897203Y213333335D01*
X46848329Y213308897D01*
X46833336Y213323891D01*
X46779264Y213346289D01*
X46720736Y213346289D01*
X46666664Y213323891D01*
X46625280Y213282507D01*
X46602882Y213228435D01*
X46600000Y213199171D01*
X46166980Y213199171D01*
X46166028Y213202026D01*
X46127682Y213246241D01*
X46102796Y213261906D01*
X45959939Y213333335D01*
X45932476Y213343844D01*
X45927101Y213344225D01*
X45922121Y213346289D01*
X45892857Y213349171D01*
X45678572Y213349171D01*
X45649308Y213346289D01*
X45644330Y213344227D01*
X45638953Y213343845D01*
X45611490Y213333335D01*
X45468632Y213261906D01*
X45463737Y213258825D01*
X45461430Y213258056D01*
X45458555Y213255563D01*
X45443746Y213246241D01*
X45431423Y213232032D01*
X45417215Y213219710D01*
X45407892Y213204900D01*
X45405400Y213202026D01*
X45404630Y213199718D01*
X45401550Y213194824D01*
X45330122Y213051967D01*
X45319612Y213024503D01*
X45319230Y213019127D01*
X45317168Y213014149D01*
X45314286Y212984885D01*
X44971428Y212984885D01*
X44971428Y213199171D01*
X44968546Y213228435D01*
X44946148Y213282507D01*
X44904764Y213323891D01*
X44850692Y213346289D01*
X44792164Y213346289D01*
X44738092Y213323891D01*
X44696708Y213282507D01*
X44674310Y213228435D01*
X44671428Y213199171D01*
X44468547Y213199171D01*
X44468547Y213228435D01*
X44446149Y213282507D01*
X44404765Y213323891D01*
X44350693Y213346289D01*
X44321429Y213349171D01*
X44178572Y213349171D01*
X44149308Y213346289D01*
X44144327Y213344225D01*
X44138953Y213343844D01*
X44111489Y213333335D01*
X44014996Y213285087D01*
X43976193Y213323891D01*
X43922121Y213346289D01*
X43863593Y213346289D01*
X43809521Y213323891D01*
X43768137Y213282507D01*
X43745739Y213228435D01*
X43742857Y213199171D01*
X43400000Y213199171D01*
X43400000Y213413457D01*
X43397118Y213442721D01*
X43395055Y213447699D01*
X43394674Y213453075D01*
X43384164Y213480538D01*
X43312736Y213623396D01*
X43304807Y213635990D01*
X43303292Y213639650D01*
X43299910Y213643770D01*
X43297071Y213648281D01*
X43294079Y213650875D01*
X43289049Y213657004D01*
X44602882Y213657004D01*
X44602882Y213598478D01*
X44608226Y213585578D01*
X44625279Y213544407D01*
X44643934Y213521676D01*
X44715362Y213450248D01*
X44738092Y213431593D01*
X44760489Y213422316D01*
X44792164Y213409196D01*
X44850692Y213409196D01*
X44888926Y213425033D01*
X44904763Y213431593D01*
X44904767Y213431597D01*
X44927493Y213450247D01*
X44998922Y213521675D01*
X45017577Y213544406D01*
X45017578Y213544407D01*
X45039975Y213598479D01*
X45039975Y213657005D01*
X45017578Y213711077D01*
X44998923Y213733808D01*
X44927494Y213805237D01*
X44904763Y213823892D01*
X44871152Y213837814D01*
X44850692Y213846289D01*
X44792164Y213846289D01*
X44771704Y213837814D01*
X44738093Y213823892D01*
X44738092Y213823891D01*
X44715361Y213805236D01*
X44643933Y213733807D01*
X44625283Y213711081D01*
X44625279Y213711077D01*
X44605109Y213662380D01*
X44602882Y213657004D01*
X43289049Y213657004D01*
X43284637Y213662381D01*
X43213208Y213733809D01*
X43201708Y213743246D01*
X43199111Y213746241D01*
X43194594Y213749083D01*
X43190477Y213752463D01*
X43186820Y213753977D01*
X43174225Y213761906D01*
X43031368Y213833335D01*
X43003905Y213843844D01*
X42998530Y213844225D01*
X42993550Y213846289D01*
X42964286Y213849171D01*
X42392857Y213849171D01*
X42363593Y213846289D01*
X42309521Y213823891D01*
X42268137Y213782507D01*
X42245739Y213728435D01*
X42242857Y213699171D01*
X40682833Y213699171D01*
X40682833Y213728435D01*
X40660435Y213782507D01*
X40619051Y213823891D01*
X40564979Y213846289D01*
X40535715Y213849171D01*
X39821429Y213849171D01*
X39810602Y213848104D01*
X39806949Y213848470D01*
X39803381Y213847393D01*
X39792165Y213846289D01*
X39771902Y213837895D01*
X39750917Y213831564D01*
X39745072Y213826782D01*
X39738093Y213823891D01*
X39722587Y213808385D01*
X39705620Y213794503D01*
X39702049Y213787847D01*
X39696709Y213782507D01*
X39688317Y213762249D01*
X39677953Y213742928D01*
X39675738Y213731880D01*
X39674311Y213728435D01*
X39674311Y213724760D01*
X39672173Y213714096D01*
X39600745Y212999810D01*
X39600701Y212970405D01*
X39328573Y212970405D01*
X39328573Y213127742D01*
X39328070Y213132845D01*
X39328396Y213135034D01*
X39326776Y213145986D01*
X39325691Y213157006D01*
X39324844Y213159050D01*
X39324094Y213164123D01*
X39252665Y213449837D01*
X39251894Y213451992D01*
X39251818Y213453075D01*
X39247158Y213465249D01*
X39242772Y213477529D01*
X39242125Y213478401D01*
X39241308Y213480538D01*
X39169880Y213623396D01*
X39161951Y213635990D01*
X39160436Y213639650D01*
X39157054Y213643770D01*
X39154215Y213648281D01*
X39151223Y213650875D01*
X39141781Y213662381D01*
X39070352Y213733809D01*
X39058852Y213743246D01*
X39056255Y213746241D01*
X39051738Y213749083D01*
X39047621Y213752463D01*
X39043964Y213753977D01*
X39031369Y213761906D01*
X38888512Y213833335D01*
X38861049Y213843844D01*
X38855674Y213844225D01*
X38850694Y213846289D01*
X38821430Y213849171D01*
X38678573Y213849171D01*
X38649309Y213846289D01*
X38644328Y213844225D01*
X38638954Y213843844D01*
X38611490Y213833335D01*
X38468634Y213761906D01*
X38456040Y213753978D01*
X38452381Y213752463D01*
X38448260Y213749081D01*
X38443748Y213746241D01*
X38441151Y213743247D01*
X38429651Y213733809D01*
X38358222Y213662381D01*
X38348782Y213650878D01*
X38345788Y213648282D01*
X38342946Y213643767D01*
X38339567Y213639650D01*
X38338051Y213635991D01*
X38330123Y213623396D01*
X38258694Y213480539D01*
X38257874Y213478398D01*
X38257230Y213477528D01*
X38252843Y213465250D01*
X38248185Y213453076D01*
X38248108Y213451995D01*
X38247337Y213449837D01*
X38175909Y213164122D01*
X38175159Y213159050D01*
X38174312Y213157006D01*
X38173226Y213145983D01*
X38171607Y213135033D01*
X38171932Y213132845D01*
X38171430Y213127742D01*
X37471430Y213127742D01*
X37471430Y213699171D01*
X37471419Y213699276D01*
X37471430Y213699329D01*
X37471399Y213699482D01*
X37468548Y213728435D01*
X37462864Y213742155D01*
X37459952Y213756718D01*
X37451773Y213768930D01*
X37446150Y213782507D01*
X37435651Y213793005D01*
X37427386Y213805348D01*
X37415155Y213813502D01*
X37404766Y213823891D01*
X37391047Y213829573D01*
X37378687Y213837814D01*
X37364268Y213840666D01*
X37350694Y213846289D01*
X37335843Y213846289D01*
X37321273Y213849171D01*
X37306863Y213846289D01*
X37292166Y213846289D01*
X37278444Y213840605D01*
X37263883Y213837693D01*
X37251670Y213829514D01*
X37238094Y213823891D01*
X37227595Y213813392D01*
X37215253Y213805127D01*
X37196821Y213782618D01*
X37196710Y213782507D01*
X37196689Y213782456D01*
X37196623Y213782376D01*
X37062003Y213580447D01*
X36946861Y213465305D01*
X36825777Y213404764D01*
X36800892Y213389099D01*
X36762545Y213344884D01*
X36744037Y213289362D01*
X35828573Y213289362D01*
X35828573Y213549171D01*
X36392859Y213549171D01*
X36422123Y213552053D01*
X36476195Y213574451D01*
X36517579Y213615835D01*
X36539977Y213669907D01*
X36539977Y213728435D01*
X36517579Y213782507D01*
X36476195Y213823891D01*
X36422123Y213846289D01*
X36392859Y213849171D01*
X35678573Y213849171D01*
X35649309Y213846289D01*
X35595237Y213823891D01*
X35553853Y213782507D01*
X35531455Y213728435D01*
X35528573Y213699171D01*
X34614287Y213699171D01*
X34611405Y213728435D01*
X34589007Y213782507D01*
X34547623Y213823891D01*
X34493551Y213846289D01*
X34435023Y213846289D01*
X34380951Y213823891D01*
X34339567Y213782507D01*
X34317169Y213728435D01*
X34314287Y213699171D01*
X34147620Y213699171D01*
X34147620Y214015838D01*
X67063784Y214015838D01*
X67063784Y211882504D01*
G37*
D11*
X41760237Y224925681D02*
X41760237Y226195681D01*
X43090714Y225046634D02*
X43030238Y224986158D01*
X43030238Y224986158D02*
X42848809Y224925681D01*
X42848809Y224925681D02*
X42727857Y224925681D01*
X42727857Y224925681D02*
X42546428Y224986158D01*
X42546428Y224986158D02*
X42425476Y225107110D01*
X42425476Y225107110D02*
X42364999Y225228062D01*
X42364999Y225228062D02*
X42304523Y225469967D01*
X42304523Y225469967D02*
X42304523Y225651396D01*
X42304523Y225651396D02*
X42364999Y225893300D01*
X42364999Y225893300D02*
X42425476Y226014253D01*
X42425476Y226014253D02*
X42546428Y226135205D01*
X42546428Y226135205D02*
X42727857Y226195681D01*
X42727857Y226195681D02*
X42848809Y226195681D01*
X42848809Y226195681D02*
X43030238Y226135205D01*
X43030238Y226135205D02*
X43090714Y226074729D01*
X43574523Y226074729D02*
X43634999Y226135205D01*
X43634999Y226135205D02*
X43755952Y226195681D01*
X43755952Y226195681D02*
X44058333Y226195681D01*
X44058333Y226195681D02*
X44179285Y226135205D01*
X44179285Y226135205D02*
X44239761Y226074729D01*
X44239761Y226074729D02*
X44300238Y225953777D01*
X44300238Y225953777D02*
X44300238Y225832824D01*
X44300238Y225832824D02*
X44239761Y225651396D01*
X44239761Y225651396D02*
X43514047Y224925681D01*
X43514047Y224925681D02*
X44300238Y224925681D01*
X58260237Y224925681D02*
X58260237Y226195681D01*
X59590714Y225046634D02*
X59530238Y224986158D01*
X59530238Y224986158D02*
X59348809Y224925681D01*
X59348809Y224925681D02*
X59227857Y224925681D01*
X59227857Y224925681D02*
X59046428Y224986158D01*
X59046428Y224986158D02*
X58925476Y225107110D01*
X58925476Y225107110D02*
X58864999Y225228062D01*
X58864999Y225228062D02*
X58804523Y225469967D01*
X58804523Y225469967D02*
X58804523Y225651396D01*
X58804523Y225651396D02*
X58864999Y225893300D01*
X58864999Y225893300D02*
X58925476Y226014253D01*
X58925476Y226014253D02*
X59046428Y226135205D01*
X59046428Y226135205D02*
X59227857Y226195681D01*
X59227857Y226195681D02*
X59348809Y226195681D01*
X59348809Y226195681D02*
X59530238Y226135205D01*
X59530238Y226135205D02*
X59590714Y226074729D01*
X60800238Y224925681D02*
X60074523Y224925681D01*
X60437380Y224925681D02*
X60437380Y226195681D01*
X60437380Y226195681D02*
X60316428Y226014253D01*
X60316428Y226014253D02*
X60195476Y225893300D01*
X60195476Y225893300D02*
X60074523Y225832824D01*
D12*
%TO.C,MC4*%
X29400000Y227000000D02*
G75*
G02*
X24600000Y227000000I-2400000J0D01*
G01*
X24600000Y227000000D02*
G75*
G02*
X29400000Y227000000I2400000J0D01*
G01*
D13*
%TO.C,IC2*%
X36560000Y227600000D02*
X36560000Y223400000D01*
X49440000Y227600000D02*
X49440000Y223100000D01*
%TO.C,IC1*%
X53060000Y227600000D02*
X53060000Y223400000D01*
X65940000Y227600000D02*
X65940000Y223100000D01*
D12*
%TO.C,MP2*%
X5700000Y227000000D02*
G75*
G02*
X300000Y227000000I-2700000J0D01*
G01*
X300000Y227000000D02*
G75*
G02*
X5700000Y227000000I2700000J0D01*
G01*
%TO.C,MP3*%
X101700000Y227000000D02*
G75*
G02*
X96300000Y227000000I-2700000J0D01*
G01*
X96300000Y227000000D02*
G75*
G02*
X101700000Y227000000I2700000J0D01*
G01*
%TO.C,MC2*%
X77400000Y227000000D02*
G75*
G02*
X72600000Y227000000I-2400000J0D01*
G01*
X72600000Y227000000D02*
G75*
G02*
X77400000Y227000000I2400000J0D01*
G01*
%TO.C,MC1*%
X85400000Y227000000D02*
G75*
G02*
X80600000Y227000000I-2400000J0D01*
G01*
X80600000Y227000000D02*
G75*
G02*
X85400000Y227000000I2400000J0D01*
G01*
%TO.C,MC3*%
X21400000Y227000000D02*
G75*
G02*
X16600000Y227000000I-2400000J0D01*
G01*
X16600000Y227000000D02*
G75*
G02*
X21400000Y227000000I2400000J0D01*
G01*
%TO.C,MP1*%
X5700000Y3000000D02*
G75*
G02*
X300000Y3000000I-2700000J0D01*
G01*
X300000Y3000000D02*
G75*
G02*
X5700000Y3000000I2700000J0D01*
G01*
%TO.C,MP4*%
X101700000Y3000000D02*
G75*
G02*
X96300000Y3000000I-2700000J0D01*
G01*
X96300000Y3000000D02*
G75*
G02*
X101700000Y3000000I2700000J0D01*
G01*
D14*
%TO.C,REF\u002A\u002A*%
G36*
X48300000Y216000000D02*
G01*
X48300345Y215999973D01*
X48300684Y215999930D01*
X48301019Y215999870D01*
X48301347Y215999794D01*
X48301669Y215999703D01*
X48301985Y215999596D01*
X48302293Y215999474D01*
X48302594Y215999338D01*
X48302887Y215999187D01*
X48303172Y215999024D01*
X48303447Y215998847D01*
X48303714Y215998657D01*
X48303970Y215998455D01*
X48304217Y215998241D01*
X48304453Y215998016D01*
X48304678Y215997780D01*
X48304892Y215997534D01*
X48305094Y215997277D01*
X48305284Y215997010D01*
X48305460Y215996735D01*
X48305624Y215996450D01*
X48305774Y215996157D01*
X48305911Y215995856D01*
X48306033Y215995548D01*
X48306140Y215995232D01*
X48306231Y215994910D01*
X48306307Y215994582D01*
X48306367Y215994247D01*
X48306410Y215993908D01*
X48306437Y215993563D01*
X48306445Y215993214D01*
X48306445Y215681937D01*
X48306124Y215672591D01*
X48305422Y215663349D01*
X48304338Y215654223D01*
X48302869Y215645225D01*
X48301014Y215636366D01*
X48298772Y215627659D01*
X48296140Y215619115D01*
X48293118Y215610746D01*
X48289704Y215602563D01*
X48285897Y215594579D01*
X48281694Y215586806D01*
X48277094Y215579255D01*
X48272095Y215571937D01*
X48266697Y215564866D01*
X48260896Y215558052D01*
X48254693Y215551508D01*
X48246595Y215543921D01*
X48238092Y215536944D01*
X48229206Y215530576D01*
X48219959Y215524813D01*
X48210374Y215519652D01*
X48200471Y215515091D01*
X48190273Y215511127D01*
X48179803Y215507756D01*
X48169081Y215504975D01*
X48158131Y215502783D01*
X48146975Y215501175D01*
X48135633Y215500150D01*
X48124130Y215499704D01*
X48112485Y215499834D01*
X48100722Y215500537D01*
X48088863Y215501811D01*
X48076929Y215503653D01*
X48064943Y215506059D01*
X48052926Y215509027D01*
X48040901Y215512554D01*
X48016915Y215521273D01*
X47993160Y215532193D01*
X47969813Y215545291D01*
X47958348Y215552649D01*
X47947050Y215560543D01*
X47935943Y215568970D01*
X47925048Y215577927D01*
X47914387Y215587411D01*
X47903983Y215597419D01*
X47903982Y215597482D01*
X47893980Y215607887D01*
X47884502Y215618548D01*
X47875550Y215629443D01*
X47867128Y215640550D01*
X47859238Y215651847D01*
X47851884Y215663313D01*
X47845068Y215674924D01*
X47838793Y215686660D01*
X47833062Y215698497D01*
X47827878Y215710415D01*
X47823244Y215722390D01*
X47819163Y215734401D01*
X47815637Y215746426D01*
X47812670Y215758442D01*
X47810264Y215770429D01*
X47808423Y215782362D01*
X47807149Y215794222D01*
X47806445Y215805985D01*
X47806314Y215817629D01*
X47806759Y215829133D01*
X47807782Y215840474D01*
X47809388Y215851631D01*
X47811578Y215862581D01*
X47814355Y215873302D01*
X47817723Y215883773D01*
X47821684Y215893970D01*
X47826242Y215903873D01*
X47831398Y215913459D01*
X47837156Y215922706D01*
X47843519Y215931592D01*
X47850490Y215940095D01*
X47858072Y215948193D01*
X47864779Y215954551D01*
X47871771Y215960483D01*
X47879035Y215965991D01*
X47886558Y215971076D01*
X47894327Y215975743D01*
X47902330Y215979991D01*
X47910553Y215983825D01*
X47918984Y215987245D01*
X47927611Y215990255D01*
X47936419Y215992856D01*
X47945396Y215995051D01*
X47954530Y215996842D01*
X47963808Y215998230D01*
X47973217Y215999220D01*
X47982743Y215999812D01*
X47992374Y216000009D01*
X48299651Y216000009D01*
X48300000Y216000000D01*
G37*
G36*
X48500469Y216500056D02*
G01*
X48512232Y216499353D01*
X48524092Y216498079D01*
X48536026Y216496237D01*
X48548012Y216493831D01*
X48560028Y216490863D01*
X48572053Y216487336D01*
X48596039Y216478617D01*
X48619794Y216467697D01*
X48643141Y216454599D01*
X48654607Y216447241D01*
X48665904Y216439347D01*
X48677011Y216430920D01*
X48687906Y216421963D01*
X48698567Y216412480D01*
X48708972Y216402471D01*
X48708972Y216402408D01*
X48718974Y216392003D01*
X48728453Y216381342D01*
X48737404Y216370447D01*
X48745827Y216359340D01*
X48753716Y216348043D01*
X48761071Y216336577D01*
X48767887Y216324966D01*
X48774162Y216313230D01*
X48779892Y216301393D01*
X48785076Y216289475D01*
X48789710Y216277500D01*
X48793792Y216265489D01*
X48797317Y216253464D01*
X48800284Y216241448D01*
X48802690Y216229462D01*
X48804531Y216217528D01*
X48805806Y216205668D01*
X48806510Y216193905D01*
X48806641Y216182261D01*
X48806196Y216170757D01*
X48805172Y216159416D01*
X48803567Y216148259D01*
X48801377Y216137309D01*
X48798599Y216126588D01*
X48795231Y216116117D01*
X48791270Y216105920D01*
X48786713Y216096017D01*
X48781557Y216086431D01*
X48775798Y216077184D01*
X48769435Y216068298D01*
X48762464Y216059795D01*
X48754882Y216051697D01*
X48748175Y216045339D01*
X48741184Y216039407D01*
X48733920Y216033900D01*
X48726397Y216028814D01*
X48718627Y216024148D01*
X48710625Y216019899D01*
X48702401Y216016065D01*
X48693970Y216012645D01*
X48685344Y216009635D01*
X48676536Y216007034D01*
X48667558Y216004839D01*
X48658424Y216003049D01*
X48649146Y216001660D01*
X48639738Y216000670D01*
X48630212Y216000078D01*
X48620580Y215999882D01*
X48313303Y215999882D01*
X48312954Y215999890D01*
X48312610Y215999917D01*
X48312270Y215999960D01*
X48311936Y216000020D01*
X48311607Y216000096D01*
X48311285Y216000188D01*
X48310970Y216000294D01*
X48310661Y216000416D01*
X48310360Y216000553D01*
X48310067Y216000703D01*
X48309783Y216000867D01*
X48309507Y216001044D01*
X48309241Y216001233D01*
X48308984Y216001435D01*
X48308737Y216001649D01*
X48308501Y216001874D01*
X48308276Y216002110D01*
X48308062Y216002357D01*
X48307861Y216002613D01*
X48307671Y216002880D01*
X48307494Y216003156D01*
X48307330Y216003440D01*
X48307180Y216003733D01*
X48307044Y216004034D01*
X48306922Y216004342D01*
X48306815Y216004658D01*
X48306723Y216004980D01*
X48306647Y216005308D01*
X48306587Y216005643D01*
X48306544Y216005982D01*
X48306518Y216006327D01*
X48306509Y216006676D01*
X48306509Y216317953D01*
X48306830Y216327299D01*
X48307532Y216336541D01*
X48308617Y216345667D01*
X48310086Y216354665D01*
X48311941Y216363524D01*
X48314183Y216372231D01*
X48316814Y216380775D01*
X48319836Y216389144D01*
X48323250Y216397327D01*
X48327058Y216405311D01*
X48331261Y216413084D01*
X48335861Y216420635D01*
X48340859Y216427953D01*
X48346258Y216435024D01*
X48352058Y216441838D01*
X48358261Y216448382D01*
X48366359Y216455969D01*
X48374862Y216462946D01*
X48383748Y216469314D01*
X48392995Y216475077D01*
X48402581Y216480238D01*
X48412484Y216484799D01*
X48422681Y216488763D01*
X48433152Y216492134D01*
X48443873Y216494915D01*
X48454823Y216497107D01*
X48465980Y216498715D01*
X48477321Y216499740D01*
X48488825Y216500186D01*
X48500469Y216500056D01*
G37*
G36*
X50935733Y216406109D02*
G01*
X50950883Y216405404D01*
X50965865Y216404238D01*
X50980672Y216402617D01*
X50995300Y216400547D01*
X51009739Y216398035D01*
X51023985Y216395087D01*
X51038031Y216391710D01*
X51051869Y216387911D01*
X51065494Y216383696D01*
X51078898Y216379072D01*
X51092076Y216374044D01*
X51105020Y216368620D01*
X51117724Y216362807D01*
X51130182Y216356610D01*
X51142387Y216350036D01*
X51154332Y216343093D01*
X51166010Y216335785D01*
X51177416Y216328121D01*
X51188543Y216320105D01*
X51199383Y216311746D01*
X51209931Y216303049D01*
X51220179Y216294021D01*
X51230122Y216284669D01*
X51239752Y216274999D01*
X51249064Y216265017D01*
X51258050Y216254731D01*
X51266704Y216244146D01*
X51275019Y216233269D01*
X51282989Y216222107D01*
X51290607Y216210667D01*
X51297867Y216198954D01*
X51297867Y216199081D01*
X51299116Y216197726D01*
X51300395Y216196480D01*
X51301700Y216195340D01*
X51303027Y216194299D01*
X51304370Y216193355D01*
X51305725Y216192502D01*
X51307087Y216191737D01*
X51308452Y216191055D01*
X51309816Y216190452D01*
X51311173Y216189923D01*
X51312519Y216189465D01*
X51313850Y216189072D01*
X51315160Y216188741D01*
X51316446Y216188466D01*
X51317702Y216188245D01*
X51318925Y216188072D01*
X51321250Y216187854D01*
X51323384Y216187777D01*
X51325291Y216187807D01*
X51326933Y216187910D01*
X51328274Y216188050D01*
X51329278Y216188193D01*
X51330125Y216188350D01*
X51330981Y216188574D01*
X51333283Y216189345D01*
X51334851Y216189982D01*
X51336631Y216190811D01*
X51338573Y216191851D01*
X51340626Y216193120D01*
X51342741Y216194637D01*
X51343806Y216195494D01*
X51344868Y216196420D01*
X51345920Y216197418D01*
X51346957Y216198489D01*
X51347971Y216199635D01*
X51348957Y216200860D01*
X51349909Y216202165D01*
X51350820Y216203553D01*
X51351684Y216205027D01*
X51352495Y216206587D01*
X51353246Y216208237D01*
X51353931Y216209980D01*
X51354545Y216211816D01*
X51355080Y216213750D01*
X51355207Y216213242D01*
X51355207Y216361895D01*
X51355248Y216363510D01*
X51355369Y216365104D01*
X51355568Y216366675D01*
X51355844Y216368220D01*
X51356194Y216369738D01*
X51356617Y216371227D01*
X51357110Y216372685D01*
X51357671Y216374110D01*
X51358299Y216375500D01*
X51358991Y216376852D01*
X51359746Y216378166D01*
X51360562Y216379439D01*
X51361436Y216380668D01*
X51362367Y216381853D01*
X51363353Y216382991D01*
X51364391Y216384080D01*
X51365480Y216385119D01*
X51366618Y216386104D01*
X51367803Y216387035D01*
X51369033Y216387910D01*
X51370306Y216388725D01*
X51371619Y216389480D01*
X51372972Y216390173D01*
X51374362Y216390800D01*
X51375786Y216391362D01*
X51377244Y216391855D01*
X51378733Y216392277D01*
X51380251Y216392627D01*
X51381797Y216392903D01*
X51383367Y216393102D01*
X51384961Y216393223D01*
X51386577Y216393264D01*
X51635814Y216393264D01*
X51636983Y216393241D01*
X51638145Y216393173D01*
X51639299Y216393061D01*
X51640443Y216392906D01*
X51641576Y216392707D01*
X51642698Y216392466D01*
X51643807Y216392184D01*
X51644902Y216391861D01*
X51645983Y216391498D01*
X51647047Y216391096D01*
X51648094Y216390655D01*
X51649123Y216390177D01*
X51650134Y216389661D01*
X51651123Y216389109D01*
X51652092Y216388521D01*
X51653038Y216387898D01*
X51653961Y216387241D01*
X51654859Y216386551D01*
X51655732Y216385828D01*
X51656578Y216385072D01*
X51657396Y216384286D01*
X51658185Y216383468D01*
X51658945Y216382621D01*
X51659674Y216381745D01*
X51660371Y216380840D01*
X51661034Y216379907D01*
X51661664Y216378948D01*
X51662258Y216377962D01*
X51662816Y216376950D01*
X51663337Y216375914D01*
X51663819Y216374853D01*
X51664262Y216373770D01*
X51856921Y215875231D01*
X51856947Y215875162D01*
X51856978Y215875098D01*
X51857013Y215875038D01*
X51857052Y215874984D01*
X51857094Y215874934D01*
X51857140Y215874888D01*
X51857189Y215874847D01*
X51857240Y215874811D01*
X51857294Y215874780D01*
X51857351Y215874753D01*
X51857408Y215874730D01*
X51857468Y215874712D01*
X51857528Y215874698D01*
X51857590Y215874689D01*
X51857652Y215874684D01*
X51857715Y215874683D01*
X51857777Y215874687D01*
X51857839Y215874695D01*
X51857901Y215874707D01*
X51857961Y215874723D01*
X51858021Y215874744D01*
X51858079Y215874768D01*
X51858135Y215874797D01*
X51858189Y215874829D01*
X51858241Y215874866D01*
X51858289Y215874906D01*
X51858335Y215874951D01*
X51858378Y215874999D01*
X51858417Y215875052D01*
X51858452Y215875108D01*
X51858482Y215875167D01*
X51858509Y215875231D01*
X52046723Y216373515D01*
X52047648Y216375684D01*
X52048727Y216377755D01*
X52049951Y216379724D01*
X52051312Y216381584D01*
X52052803Y216383329D01*
X52054413Y216384954D01*
X52056136Y216386453D01*
X52057962Y216387819D01*
X52059883Y216389046D01*
X52061892Y216390130D01*
X52063979Y216391063D01*
X52066136Y216391839D01*
X52068354Y216392454D01*
X52070626Y216392900D01*
X52072944Y216393172D01*
X52075297Y216393264D01*
X52323202Y216393264D01*
X52324817Y216393223D01*
X52326411Y216393102D01*
X52327982Y216392903D01*
X52329527Y216392627D01*
X52331045Y216392277D01*
X52332534Y216391855D01*
X52333992Y216391362D01*
X52335417Y216390800D01*
X52336807Y216390173D01*
X52338159Y216389480D01*
X52339473Y216388725D01*
X52340746Y216387910D01*
X52341975Y216387035D01*
X52343160Y216386104D01*
X52344298Y216385119D01*
X52345387Y216384080D01*
X52346426Y216382991D01*
X52347412Y216381853D01*
X52348342Y216380668D01*
X52349217Y216379438D01*
X52350032Y216378166D01*
X52350787Y216376852D01*
X52351480Y216375500D01*
X52352108Y216374110D01*
X52352669Y216372685D01*
X52353162Y216371227D01*
X52353584Y216369738D01*
X52353934Y216368220D01*
X52354210Y216366675D01*
X52354409Y216365104D01*
X52354531Y216363510D01*
X52354571Y216361895D01*
X52354571Y215564970D01*
X52354531Y215563355D01*
X52354409Y215561761D01*
X52354210Y215560190D01*
X52353934Y215558645D01*
X52353584Y215557127D01*
X52353162Y215555638D01*
X52352669Y215554180D01*
X52352108Y215552755D01*
X52351480Y215551366D01*
X52350787Y215550013D01*
X52350032Y215548699D01*
X52349217Y215547427D01*
X52348342Y215546197D01*
X52347412Y215545012D01*
X52346426Y215543874D01*
X52345387Y215542785D01*
X52344298Y215541746D01*
X52343160Y215540761D01*
X52341975Y215539830D01*
X52340746Y215538956D01*
X52339473Y215538140D01*
X52338159Y215537385D01*
X52336807Y215536693D01*
X52335417Y215536065D01*
X52333992Y215535503D01*
X52332534Y215535010D01*
X52331045Y215534588D01*
X52329527Y215534238D01*
X52327982Y215533962D01*
X52326411Y215533763D01*
X52324817Y215533642D01*
X52323202Y215533601D01*
X52129083Y215533601D01*
X52127468Y215533642D01*
X52125874Y215533763D01*
X52124303Y215533962D01*
X52122758Y215534238D01*
X52121239Y215534588D01*
X52119750Y215535010D01*
X52118293Y215535503D01*
X52116868Y215536065D01*
X52115478Y215536693D01*
X52114125Y215537385D01*
X52112812Y215538140D01*
X52111539Y215538956D01*
X52110309Y215539830D01*
X52109124Y215540761D01*
X52107986Y215541746D01*
X52106897Y215542785D01*
X52105859Y215543874D01*
X52104873Y215545012D01*
X52103942Y215546197D01*
X52103068Y215547427D01*
X52102252Y215548699D01*
X52101497Y215550013D01*
X52100805Y215551366D01*
X52100177Y215552755D01*
X52099616Y215554180D01*
X52099123Y215555638D01*
X52098700Y215557127D01*
X52098350Y215558645D01*
X52098075Y215560190D01*
X52097875Y215561761D01*
X52097754Y215563355D01*
X52097714Y215564970D01*
X52097714Y215927110D01*
X52097710Y215927198D01*
X52097698Y215927280D01*
X52097680Y215927358D01*
X52097656Y215927431D01*
X52097625Y215927500D01*
X52097588Y215927564D01*
X52097547Y215927623D01*
X52097500Y215927677D01*
X52097449Y215927726D01*
X52097395Y215927771D01*
X52097336Y215927810D01*
X52097275Y215927844D01*
X52097211Y215927873D01*
X52097144Y215927896D01*
X52097076Y215927915D01*
X52097007Y215927928D01*
X52096937Y215927936D01*
X52096866Y215927938D01*
X52096795Y215927935D01*
X52096724Y215927926D01*
X52096655Y215927911D01*
X52096586Y215927891D01*
X52096519Y215927865D01*
X52096454Y215927834D01*
X52096392Y215927796D01*
X52096333Y215927753D01*
X52096277Y215927703D01*
X52096225Y215927648D01*
X52096177Y215927586D01*
X52096133Y215927519D01*
X52096095Y215927445D01*
X52096063Y215927364D01*
X51968491Y215554239D01*
X51967608Y215551977D01*
X51966562Y215549815D01*
X51965360Y215547759D01*
X51964012Y215545817D01*
X51962527Y215543993D01*
X51960912Y215542295D01*
X51959177Y215540729D01*
X51957331Y215539300D01*
X51955382Y215538016D01*
X51953339Y215536883D01*
X51951211Y215535906D01*
X51949006Y215535093D01*
X51946734Y215534450D01*
X51944403Y215533983D01*
X51942021Y215533698D01*
X51939598Y215533601D01*
X51771324Y215533601D01*
X51770102Y215533625D01*
X51768890Y215533698D01*
X51767690Y215533817D01*
X51766501Y215533983D01*
X51765326Y215534194D01*
X51764164Y215534450D01*
X51763018Y215534750D01*
X51761889Y215535093D01*
X51760777Y215535479D01*
X51759683Y215535906D01*
X51758609Y215536375D01*
X51757555Y215536883D01*
X51756523Y215537430D01*
X51755514Y215538016D01*
X51754528Y215538640D01*
X51753567Y215539300D01*
X51752632Y215539997D01*
X51751724Y215540729D01*
X51750844Y215541495D01*
X51749993Y215542295D01*
X51749172Y215543128D01*
X51748383Y215543993D01*
X51747625Y215544890D01*
X51746901Y215545817D01*
X51746211Y215546774D01*
X51745556Y215547759D01*
X51744938Y215548773D01*
X51744357Y215549815D01*
X51743815Y215550883D01*
X51743313Y215551977D01*
X51742851Y215553095D01*
X51742431Y215554239D01*
X51613653Y215930921D01*
X51613620Y215931006D01*
X51613582Y215931085D01*
X51613539Y215931157D01*
X51613491Y215931222D01*
X51613439Y215931281D01*
X51613383Y215931332D01*
X51613323Y215931378D01*
X51613261Y215931417D01*
X51613196Y215931449D01*
X51613129Y215931476D01*
X51613061Y215931496D01*
X51612991Y215931510D01*
X51612920Y215931518D01*
X51612849Y215931520D01*
X51612779Y215931517D01*
X51612708Y215931508D01*
X51612639Y215931493D01*
X51612571Y215931473D01*
X51612505Y215931447D01*
X51612440Y215931417D01*
X51612379Y215931381D01*
X51612321Y215931339D01*
X51612266Y215931293D01*
X51612215Y215931242D01*
X51612169Y215931186D01*
X51612127Y215931125D01*
X51612090Y215931060D01*
X51612060Y215930990D01*
X51612035Y215930916D01*
X51612017Y215930837D01*
X51612006Y215930754D01*
X51612002Y215930667D01*
X51612002Y215564970D01*
X51611961Y215563355D01*
X51611840Y215561761D01*
X51611641Y215560190D01*
X51611365Y215558645D01*
X51611015Y215557127D01*
X51610592Y215555638D01*
X51610099Y215554180D01*
X51609538Y215552755D01*
X51608910Y215551366D01*
X51608218Y215550013D01*
X51607463Y215548699D01*
X51606647Y215547427D01*
X51605773Y215546197D01*
X51604842Y215545012D01*
X51603856Y215543874D01*
X51602818Y215542785D01*
X51601729Y215541746D01*
X51600591Y215540761D01*
X51599406Y215539830D01*
X51598176Y215538956D01*
X51596904Y215538140D01*
X51595590Y215537385D01*
X51594237Y215536693D01*
X51592848Y215536065D01*
X51591423Y215535503D01*
X51589965Y215535010D01*
X51588476Y215534588D01*
X51586958Y215534238D01*
X51585412Y215533962D01*
X51583842Y215533763D01*
X51582248Y215533642D01*
X51580633Y215533601D01*
X51386513Y215533601D01*
X51384898Y215533642D01*
X51383304Y215533763D01*
X51381734Y215533962D01*
X51380188Y215534238D01*
X51378670Y215534588D01*
X51377181Y215535010D01*
X51375723Y215535503D01*
X51374298Y215536065D01*
X51372909Y215536693D01*
X51371556Y215537385D01*
X51370243Y215538140D01*
X51368970Y215538956D01*
X51367740Y215539830D01*
X51366555Y215540761D01*
X51365417Y215541746D01*
X51364328Y215542785D01*
X51363290Y215543874D01*
X51362304Y215545012D01*
X51361373Y215546197D01*
X51360499Y215547427D01*
X51359683Y215548699D01*
X51358928Y215550013D01*
X51358236Y215551366D01*
X51357608Y215552755D01*
X51357047Y215554180D01*
X51356554Y215555638D01*
X51356131Y215557127D01*
X51355781Y215558645D01*
X51355505Y215560190D01*
X51355306Y215561761D01*
X51355185Y215563355D01*
X51355144Y215564970D01*
X51355144Y215718894D01*
X51355017Y215718386D01*
X51354488Y215720319D01*
X51353879Y215722156D01*
X51353198Y215723898D01*
X51352450Y215725549D01*
X51351642Y215727109D01*
X51350781Y215728582D01*
X51349872Y215729970D01*
X51348921Y215731276D01*
X51347936Y215732500D01*
X51346922Y215733647D01*
X51345885Y215734718D01*
X51344833Y215735715D01*
X51343770Y215736641D01*
X51342704Y215737499D01*
X51341641Y215738289D01*
X51340587Y215739016D01*
X51338530Y215740285D01*
X51336585Y215741325D01*
X51334801Y215742154D01*
X51333229Y215742791D01*
X51331919Y215743254D01*
X51330921Y215743562D01*
X51330062Y215743786D01*
X51329215Y215743942D01*
X51326871Y215744226D01*
X51325229Y215744328D01*
X51323324Y215744359D01*
X51321192Y215744282D01*
X51318870Y215744064D01*
X51316394Y215743669D01*
X51313802Y215743064D01*
X51311131Y215742212D01*
X51309776Y215741684D01*
X51308416Y215741080D01*
X51307054Y215740398D01*
X51305696Y215739633D01*
X51304345Y215738781D01*
X51303006Y215737837D01*
X51301684Y215736796D01*
X51300384Y215735655D01*
X51299110Y215734409D01*
X51297867Y215733055D01*
X51297867Y215733372D01*
X51282989Y215710149D01*
X51266704Y215688044D01*
X51249064Y215667109D01*
X51230121Y215647397D01*
X51209929Y215628961D01*
X51188540Y215611852D01*
X51166006Y215596124D01*
X51142379Y215581829D01*
X51117713Y215569020D01*
X51092061Y215557747D01*
X51065473Y215548066D01*
X51038004Y215540027D01*
X51009706Y215533683D01*
X50980630Y215529086D01*
X50950831Y215526290D01*
X50920360Y215525346D01*
X50896971Y215525897D01*
X50873968Y215527536D01*
X50851375Y215530238D01*
X50829215Y215533980D01*
X50807511Y215538740D01*
X50786287Y215544494D01*
X50765565Y215551218D01*
X50745369Y215558890D01*
X50725723Y215567486D01*
X50706648Y215576983D01*
X50688170Y215587358D01*
X50670310Y215598587D01*
X50653093Y215610648D01*
X50636541Y215623516D01*
X50620678Y215637170D01*
X50605526Y215651584D01*
X50599517Y215657719D01*
X50593634Y215663976D01*
X50587879Y215670356D01*
X50582254Y215676855D01*
X50576759Y215683473D01*
X50571397Y215690207D01*
X50566169Y215697057D01*
X50561077Y215704019D01*
X50556121Y215711094D01*
X50551303Y215718278D01*
X50546626Y215725570D01*
X50542090Y215732969D01*
X50537697Y215740473D01*
X50533448Y215748081D01*
X50529345Y215755789D01*
X50525389Y215763598D01*
X50524297Y215765387D01*
X50523142Y215767063D01*
X50521931Y215768632D01*
X50520671Y215770096D01*
X50519368Y215771459D01*
X50518028Y215772725D01*
X50516658Y215773897D01*
X50515263Y215774979D01*
X50513851Y215775974D01*
X50512428Y215776886D01*
X50511000Y215777720D01*
X50509573Y215778477D01*
X50508154Y215779163D01*
X50506749Y215779780D01*
X50505364Y215780332D01*
X50504006Y215780823D01*
X50501396Y215781635D01*
X50498969Y215782245D01*
X50496776Y215782682D01*
X50494868Y215782976D01*
X50493295Y215783153D01*
X50492109Y215783245D01*
X50491100Y215783283D01*
X50490051Y215783251D01*
X50487187Y215782979D01*
X50485207Y215782670D01*
X50482932Y215782202D01*
X50480415Y215781541D01*
X50477709Y215780656D01*
X50474867Y215779512D01*
X50471941Y215778077D01*
X50470463Y215777240D01*
X50468985Y215776318D01*
X50467512Y215775307D01*
X50466052Y215774202D01*
X50464610Y215772999D01*
X50463194Y215771695D01*
X50461810Y215770285D01*
X50460465Y215768765D01*
X50459165Y215767131D01*
X50457917Y215765378D01*
X50456727Y215763504D01*
X50455603Y215761503D01*
X50455603Y215761884D01*
X50451865Y215754476D01*
X50447984Y215747161D01*
X50443962Y215739941D01*
X50439799Y215732816D01*
X50435495Y215725791D01*
X50431052Y215718865D01*
X50426470Y215712041D01*
X50421750Y215705321D01*
X50416892Y215698707D01*
X50411897Y215692200D01*
X50406765Y215685802D01*
X50401498Y215679516D01*
X50396096Y215673343D01*
X50390559Y215667285D01*
X50384889Y215661344D01*
X50379086Y215655521D01*
X50363479Y215640997D01*
X50347150Y215627363D01*
X50330116Y215614624D01*
X50312396Y215602787D01*
X50294006Y215591860D01*
X50274964Y215581848D01*
X50255289Y215572758D01*
X50234996Y215564597D01*
X50214105Y215557371D01*
X50192632Y215551088D01*
X50170595Y215545753D01*
X50148012Y215541373D01*
X50124900Y215537955D01*
X50101277Y215535505D01*
X50077161Y215534031D01*
X50052569Y215533538D01*
X49540568Y215533538D01*
X49539552Y215533555D01*
X49538542Y215533608D01*
X49537538Y215533696D01*
X49536541Y215533819D01*
X49535552Y215533975D01*
X49534571Y215534165D01*
X49533600Y215534388D01*
X49532639Y215534644D01*
X49531690Y215534932D01*
X49530753Y215535252D01*
X49529829Y215535603D01*
X49528918Y215535985D01*
X49528022Y215536398D01*
X49527142Y215536841D01*
X49526278Y215537314D01*
X49525431Y215537816D01*
X49524602Y215538347D01*
X49523793Y215538906D01*
X49523002Y215539493D01*
X49522233Y215540108D01*
X49521485Y215540749D01*
X49520759Y215541418D01*
X49520056Y215542113D01*
X49519378Y215542833D01*
X49518724Y215543579D01*
X49518096Y215544350D01*
X49517494Y215545146D01*
X49516920Y215545965D01*
X49516374Y215546809D01*
X49515857Y215547675D01*
X49515370Y215548564D01*
X49514914Y215549476D01*
X49507716Y215563325D01*
X49499620Y215576534D01*
X49490660Y215589069D01*
X49480870Y215600894D01*
X49470282Y215611975D01*
X49458929Y215622276D01*
X49446845Y215631763D01*
X49434063Y215640400D01*
X49420615Y215648152D01*
X49406535Y215654985D01*
X49391856Y215660862D01*
X49376611Y215665749D01*
X49360833Y215669612D01*
X49344556Y215672414D01*
X49327812Y215674121D01*
X49310635Y215674698D01*
X49301992Y215674553D01*
X49293449Y215674119D01*
X49285012Y215673402D01*
X49276683Y215672405D01*
X49268468Y215671134D01*
X49260371Y215669593D01*
X49252396Y215667785D01*
X49244548Y215665716D01*
X49236831Y215663389D01*
X49229249Y215660810D01*
X49221808Y215657983D01*
X49214510Y215654911D01*
X49207361Y215651600D01*
X49200365Y215648054D01*
X49193526Y215644277D01*
X49186849Y215640273D01*
X49180339Y215636048D01*
X49173998Y215631605D01*
X49167833Y215626949D01*
X49161847Y215622084D01*
X49156044Y215617015D01*
X49150430Y215611746D01*
X49145008Y215606282D01*
X49139783Y215600626D01*
X49134759Y215594784D01*
X49129941Y215588760D01*
X49125332Y215582557D01*
X49120938Y215576181D01*
X49116763Y215569637D01*
X49112811Y215562927D01*
X49109086Y215556057D01*
X49105593Y215549032D01*
X49104675Y215547277D01*
X49103640Y215545613D01*
X49102495Y215544041D01*
X49101246Y215542565D01*
X49099900Y215541189D01*
X49098464Y215539915D01*
X49096944Y215538748D01*
X49095346Y215537689D01*
X49093678Y215536742D01*
X49091945Y215535912D01*
X49090155Y215535200D01*
X49088314Y215534610D01*
X49086429Y215534146D01*
X49084506Y215533810D01*
X49082553Y215533606D01*
X49080574Y215533538D01*
X48905124Y215533538D01*
X48903814Y215533560D01*
X48902504Y215533628D01*
X48901198Y215533742D01*
X48899897Y215533903D01*
X48898603Y215534111D01*
X48897319Y215534368D01*
X48896047Y215534674D01*
X48894789Y215535030D01*
X48893548Y215535436D01*
X48892325Y215535894D01*
X48891122Y215536404D01*
X48889943Y215536967D01*
X48888790Y215537583D01*
X48887663Y215538253D01*
X48886567Y215538979D01*
X48885502Y215539761D01*
X48883539Y215541398D01*
X48881748Y215543160D01*
X48880128Y215545034D01*
X48878682Y215547009D01*
X48877411Y215549075D01*
X48876316Y215551220D01*
X48875398Y215553431D01*
X48874660Y215555699D01*
X48874101Y215558011D01*
X48873724Y215560357D01*
X48873529Y215562725D01*
X48873519Y215565103D01*
X48873693Y215567480D01*
X48874055Y215569846D01*
X48874604Y215572188D01*
X48875342Y215574495D01*
X48946572Y215769885D01*
X48986012Y215878070D01*
X49245519Y215878070D01*
X49245520Y215877871D01*
X49245527Y215877677D01*
X49245540Y215877487D01*
X49245560Y215877302D01*
X49245585Y215877121D01*
X49245615Y215876944D01*
X49245690Y215876604D01*
X49245781Y215876283D01*
X49245885Y215875981D01*
X49246000Y215875699D01*
X49246122Y215875436D01*
X49246249Y215875194D01*
X49246377Y215874973D01*
X49246504Y215874774D01*
X49246626Y215874596D01*
X49246925Y215874237D01*
X49247102Y215874043D01*
X49247298Y215873844D01*
X49247514Y215873642D01*
X49247750Y215873442D01*
X49248007Y215873245D01*
X49248285Y215873056D01*
X49248585Y215872877D01*
X49248907Y215872712D01*
X49249251Y215872564D01*
X49249618Y215872435D01*
X49250008Y215872330D01*
X49250423Y215872250D01*
X49250639Y215872221D01*
X49250862Y215872200D01*
X49251090Y215872187D01*
X49251325Y215872183D01*
X49379913Y215872183D01*
X49380154Y215872187D01*
X49380388Y215872200D01*
X49380615Y215872221D01*
X49380836Y215872250D01*
X49381051Y215872286D01*
X49381259Y215872330D01*
X49381461Y215872379D01*
X49381656Y215872435D01*
X49381845Y215872497D01*
X49382028Y215872564D01*
X49382205Y215872636D01*
X49382376Y215872712D01*
X49382541Y215872793D01*
X49382700Y215872877D01*
X49382853Y215872965D01*
X49383001Y215873056D01*
X49383142Y215873150D01*
X49383278Y215873245D01*
X49383533Y215873442D01*
X49383765Y215873642D01*
X49383976Y215873844D01*
X49384166Y215874043D01*
X49384335Y215874237D01*
X49384483Y215874422D01*
X49384612Y215874596D01*
X49384580Y215874628D01*
X49384548Y215874660D01*
X49384671Y215874838D01*
X49384797Y215875040D01*
X49384925Y215875263D01*
X49385051Y215875509D01*
X49385173Y215875775D01*
X49385286Y215876061D01*
X49385389Y215876367D01*
X49385477Y215876692D01*
X49385548Y215877034D01*
X49385599Y215877393D01*
X49385627Y215877769D01*
X49385629Y215878160D01*
X49385601Y215878566D01*
X49385541Y215878986D01*
X49385445Y215879420D01*
X49385383Y215879642D01*
X49385310Y215879867D01*
X49320604Y216073986D01*
X49320492Y216074299D01*
X49320372Y216074595D01*
X49320243Y216074875D01*
X49320106Y216075140D01*
X49319962Y216075389D01*
X49319811Y216075623D01*
X49319654Y216075842D01*
X49319492Y216076048D01*
X49319323Y216076240D01*
X49319150Y216076419D01*
X49318973Y216076585D01*
X49318792Y216076739D01*
X49318608Y216076881D01*
X49318421Y216077011D01*
X49318231Y216077131D01*
X49318040Y216077240D01*
X49317847Y216077340D01*
X49317654Y216077429D01*
X49317267Y216077581D01*
X49316883Y216077701D01*
X49316505Y216077790D01*
X49316138Y216077854D01*
X49315786Y216077894D01*
X49315453Y216077916D01*
X49315143Y216077923D01*
X49314843Y216077916D01*
X49314517Y216077892D01*
X49314171Y216077848D01*
X49313807Y216077780D01*
X49313431Y216077686D01*
X49313047Y216077561D01*
X49312658Y216077403D01*
X49312463Y216077311D01*
X49312269Y216077209D01*
X49312077Y216077096D01*
X49311885Y216076974D01*
X49311696Y216076840D01*
X49311510Y216076695D01*
X49311327Y216076539D01*
X49311148Y216076370D01*
X49310973Y216076188D01*
X49310803Y216075994D01*
X49310638Y216075787D01*
X49310480Y216075565D01*
X49310327Y216075329D01*
X49310182Y216075079D01*
X49310044Y216074813D01*
X49309915Y216074533D01*
X49309794Y216074236D01*
X49309682Y216073923D01*
X49245801Y215879803D01*
X49245734Y215879573D01*
X49245678Y215879346D01*
X49245630Y215879124D01*
X49245591Y215878905D01*
X49245561Y215878690D01*
X49245540Y215878479D01*
X49245526Y215878272D01*
X49245519Y215878070D01*
X48986012Y215878070D01*
X49166490Y216373135D01*
X49167393Y216375338D01*
X49168455Y216377442D01*
X49169666Y216379443D01*
X49171018Y216381333D01*
X49172503Y216383107D01*
X49174111Y216384758D01*
X49175835Y216386280D01*
X49177666Y216387668D01*
X49179595Y216388915D01*
X49181613Y216390016D01*
X49183713Y216390964D01*
X49185885Y216391753D01*
X49188121Y216392377D01*
X49190413Y216392831D01*
X49192751Y216393107D01*
X49195128Y216393201D01*
X49437381Y216393201D01*
X49438579Y216393177D01*
X49439769Y216393106D01*
X49440948Y216392990D01*
X49442117Y216392828D01*
X49443273Y216392621D01*
X49444417Y216392371D01*
X49445546Y216392078D01*
X49446660Y216391743D01*
X49447758Y216391366D01*
X49448839Y216390949D01*
X49449901Y216390492D01*
X49450944Y216389996D01*
X49451966Y216389461D01*
X49452966Y216388890D01*
X49453944Y216388281D01*
X49454899Y216387636D01*
X49455828Y216386957D01*
X49456732Y216386242D01*
X49457609Y216385495D01*
X49458458Y216384714D01*
X49459278Y216383902D01*
X49460068Y216383058D01*
X49460826Y216382183D01*
X49461553Y216381279D01*
X49462247Y216380346D01*
X49462906Y216379385D01*
X49463530Y216378397D01*
X49464117Y216377382D01*
X49464667Y216376341D01*
X49465179Y216375275D01*
X49465651Y216374185D01*
X49466083Y216373071D01*
X49661345Y215835417D01*
X49661154Y215836369D01*
X49662315Y215834776D01*
X49663496Y215833302D01*
X49664695Y215831945D01*
X49665906Y215830698D01*
X49667127Y215829557D01*
X49668354Y215828519D01*
X49669583Y215827578D01*
X49670809Y215826729D01*
X49672030Y215825969D01*
X49673242Y215825292D01*
X49674440Y215824694D01*
X49675622Y215824171D01*
X49676782Y215823718D01*
X49677918Y215823330D01*
X49679026Y215823003D01*
X49680101Y215822732D01*
X49681141Y215822513D01*
X49682141Y215822342D01*
X49684006Y215822121D01*
X49685668Y215822035D01*
X49687095Y215822046D01*
X49688258Y215822118D01*
X49689126Y215822215D01*
X49689856Y215822336D01*
X49690557Y215822523D01*
X49692439Y215823203D01*
X49693719Y215823783D01*
X49695171Y215824552D01*
X49696752Y215825534D01*
X49698421Y215826749D01*
X49700137Y215828220D01*
X49701000Y215829058D01*
X49701859Y215829969D01*
X49702709Y215830955D01*
X49703545Y215832019D01*
X49704361Y215833163D01*
X49705153Y215834391D01*
X49705915Y215835704D01*
X49706643Y215837107D01*
X49707330Y215838601D01*
X49707972Y215840190D01*
X49708564Y215841876D01*
X49709101Y215843662D01*
X49709576Y215845551D01*
X49709986Y215847545D01*
X49709986Y216160600D01*
X49966843Y216160600D01*
X49966843Y215769885D01*
X49966852Y215769547D01*
X49966877Y215769214D01*
X49966919Y215768885D01*
X49966976Y215768562D01*
X49967049Y215768243D01*
X49967137Y215767931D01*
X49967240Y215767625D01*
X49967357Y215767326D01*
X49967489Y215767034D01*
X49967633Y215766749D01*
X49967791Y215766472D01*
X49967962Y215766204D01*
X49968145Y215765945D01*
X49968340Y215765695D01*
X49968547Y215765455D01*
X49968764Y215765225D01*
X49968993Y215765006D01*
X49969232Y215764798D01*
X49969481Y215764601D01*
X49969739Y215764416D01*
X49970007Y215764243D01*
X49970284Y215764083D01*
X49970569Y215763936D01*
X49970862Y215763803D01*
X49971162Y215763684D01*
X49971470Y215763580D01*
X49971785Y215763490D01*
X49972106Y215763416D01*
X49972433Y215763357D01*
X49972766Y215763315D01*
X49973104Y215763289D01*
X49973447Y215763281D01*
X50034979Y215763281D01*
X50047061Y215763490D01*
X50058813Y215764117D01*
X50070231Y215765159D01*
X50081313Y215766613D01*
X50092055Y215768477D01*
X50102452Y215770748D01*
X50112502Y215773423D01*
X50122201Y215776499D01*
X50131546Y215779975D01*
X50140532Y215783848D01*
X50149157Y215788114D01*
X50157417Y215792772D01*
X50165309Y215797818D01*
X50172828Y215803251D01*
X50179972Y215809067D01*
X50186736Y215815263D01*
X50193118Y215821838D01*
X50199113Y215828789D01*
X50204719Y215836112D01*
X50209932Y215843806D01*
X50214748Y215851867D01*
X50219163Y215860294D01*
X50223175Y215869083D01*
X50226780Y215878232D01*
X50229973Y215887739D01*
X50232752Y215897600D01*
X50235114Y215907813D01*
X50237054Y215918375D01*
X50238569Y215929285D01*
X50239655Y215940538D01*
X50240309Y215952133D01*
X50240528Y215964068D01*
X50240484Y215966481D01*
X50740972Y215966481D01*
X50741173Y215954843D01*
X50741764Y215943506D01*
X50742738Y215932475D01*
X50744094Y215921755D01*
X50745826Y215911349D01*
X50747930Y215901263D01*
X50750404Y215891500D01*
X50753242Y215882065D01*
X50756441Y215872963D01*
X50759997Y215864198D01*
X50763906Y215855775D01*
X50768164Y215847698D01*
X50772767Y215839971D01*
X50777710Y215832599D01*
X50782991Y215825587D01*
X50788605Y215818938D01*
X50794548Y215812658D01*
X50800816Y215806751D01*
X50807405Y215801221D01*
X50814311Y215796072D01*
X50821531Y215791310D01*
X50829060Y215786939D01*
X50836894Y215782962D01*
X50845029Y215779386D01*
X50853462Y215776213D01*
X50862189Y215773449D01*
X50871204Y215771098D01*
X50880506Y215769164D01*
X50890089Y215767652D01*
X50899949Y215766567D01*
X50910083Y215765913D01*
X50920486Y215765694D01*
X50930739Y215765918D01*
X50940741Y215766588D01*
X50950488Y215767698D01*
X50959975Y215769242D01*
X50969196Y215771216D01*
X50978147Y215773612D01*
X50986823Y215776427D01*
X50995219Y215779654D01*
X51003330Y215783287D01*
X51011151Y215787322D01*
X51018678Y215791753D01*
X51025905Y215796575D01*
X51032827Y215801781D01*
X51039440Y215807366D01*
X51045738Y215813325D01*
X51051717Y215819653D01*
X51057372Y215826343D01*
X51062697Y215833390D01*
X51067689Y215840790D01*
X51072341Y215848535D01*
X51076650Y215856621D01*
X51080610Y215865043D01*
X51084215Y215873794D01*
X51087463Y215882869D01*
X51090346Y215892263D01*
X51092861Y215901970D01*
X51095003Y215911985D01*
X51096766Y215922302D01*
X51098146Y215932915D01*
X51099138Y215943820D01*
X51099737Y215955010D01*
X51099937Y215966481D01*
X51099744Y215977929D01*
X51099164Y215989125D01*
X51098201Y216000058D01*
X51096858Y216010722D01*
X51095136Y216021109D01*
X51093039Y216031210D01*
X51090569Y216041017D01*
X51087729Y216050523D01*
X51084522Y216059719D01*
X51080949Y216068598D01*
X51077014Y216077151D01*
X51072720Y216085370D01*
X51068068Y216093248D01*
X51063061Y216100777D01*
X51057703Y216107948D01*
X51051995Y216114753D01*
X51050470Y216116445D01*
X51048939Y216118095D01*
X51047396Y216119709D01*
X51045836Y216121294D01*
X51039895Y216126920D01*
X51033672Y216132200D01*
X51027175Y216137131D01*
X51020409Y216141712D01*
X51013379Y216145939D01*
X51006093Y216149812D01*
X50998555Y216153326D01*
X50990773Y216156480D01*
X50982752Y216159272D01*
X50974498Y216161700D01*
X50966017Y216163760D01*
X50957315Y216165451D01*
X50948399Y216166770D01*
X50939274Y216167715D01*
X50929947Y216168284D01*
X50920423Y216168474D01*
X50910178Y216168257D01*
X50900165Y216167606D01*
X50890392Y216166526D01*
X50880865Y216165018D01*
X50871593Y216163087D01*
X50862582Y216160735D01*
X50853840Y216157966D01*
X50845374Y216154782D01*
X50837191Y216151186D01*
X50829300Y216147182D01*
X50821706Y216142773D01*
X50814419Y216137961D01*
X50807444Y216132750D01*
X50800789Y216127143D01*
X50794462Y216121143D01*
X50788470Y216114753D01*
X50782819Y216107970D01*
X50777514Y216100818D01*
X50772556Y216093306D01*
X50767948Y216085442D01*
X50763694Y216077233D01*
X50759796Y216068687D01*
X50756255Y216059813D01*
X50753077Y216050618D01*
X50750262Y216041111D01*
X50747813Y216031299D01*
X50745734Y216021191D01*
X50744027Y216010794D01*
X50742694Y216000116D01*
X50741739Y215989166D01*
X50741164Y215977952D01*
X50740972Y215966481D01*
X50240484Y215966481D01*
X50240309Y215976008D01*
X50239655Y215987623D01*
X50238569Y215998908D01*
X50237054Y216009861D01*
X50235114Y216020476D01*
X50232752Y216030752D01*
X50229973Y216040684D01*
X50226780Y216050270D01*
X50223175Y216059505D01*
X50219163Y216068386D01*
X50214748Y216076910D01*
X50209932Y216085073D01*
X50204719Y216092871D01*
X50199113Y216100302D01*
X50193118Y216107362D01*
X50186736Y216114047D01*
X50179972Y216120353D01*
X50172828Y216126278D01*
X50165309Y216131818D01*
X50157417Y216136969D01*
X50149157Y216141728D01*
X50140532Y216146092D01*
X50131546Y216150056D01*
X50122201Y216153618D01*
X50112502Y216156774D01*
X50102452Y216159520D01*
X50092055Y216161853D01*
X50081313Y216163770D01*
X50070231Y216165267D01*
X50058813Y216166341D01*
X50047061Y216166988D01*
X50034979Y216167204D01*
X49973447Y216167204D01*
X49973110Y216167195D01*
X49972777Y216167170D01*
X49972448Y216167127D01*
X49972124Y216167069D01*
X49971806Y216166994D01*
X49971494Y216166905D01*
X49971188Y216166800D01*
X49970889Y216166681D01*
X49970596Y216166548D01*
X49970312Y216166401D01*
X49970035Y216166241D01*
X49969767Y216166069D01*
X49969508Y216165884D01*
X49969258Y216165687D01*
X49969018Y216165479D01*
X49968788Y216165259D01*
X49968569Y216165029D01*
X49968360Y216164789D01*
X49968164Y216164539D01*
X49967979Y216164280D01*
X49967806Y216164012D01*
X49967646Y216163736D01*
X49967499Y216163451D01*
X49967366Y216163159D01*
X49967247Y216162860D01*
X49967143Y216162554D01*
X49967053Y216162241D01*
X49966979Y216161923D01*
X49966920Y216161599D01*
X49966878Y216161271D01*
X49966852Y216160937D01*
X49966843Y216160600D01*
X49709986Y216160600D01*
X49709986Y216361832D01*
X49710027Y216363447D01*
X49710148Y216365041D01*
X49710347Y216366611D01*
X49710623Y216368157D01*
X49710973Y216369675D01*
X49711395Y216371164D01*
X49711888Y216372622D01*
X49712450Y216374046D01*
X49713077Y216375436D01*
X49713770Y216376789D01*
X49714525Y216378102D01*
X49715340Y216379375D01*
X49716215Y216380605D01*
X49717146Y216381790D01*
X49718131Y216382928D01*
X49719170Y216384017D01*
X49720259Y216385055D01*
X49721397Y216386041D01*
X49722582Y216386972D01*
X49723812Y216387846D01*
X49725084Y216388662D01*
X49726398Y216389417D01*
X49727751Y216390109D01*
X49729140Y216390737D01*
X49730565Y216391298D01*
X49732023Y216391791D01*
X49733512Y216392214D01*
X49735030Y216392564D01*
X49736575Y216392839D01*
X49738146Y216393039D01*
X49739740Y216393160D01*
X49741355Y216393201D01*
X50052759Y216393201D01*
X50070206Y216392954D01*
X50087395Y216392219D01*
X50104320Y216391000D01*
X50120977Y216389304D01*
X50137358Y216387135D01*
X50153459Y216384499D01*
X50169273Y216381402D01*
X50184794Y216377849D01*
X50200018Y216373846D01*
X50214938Y216369399D01*
X50229548Y216364512D01*
X50243842Y216359192D01*
X50257815Y216353443D01*
X50271462Y216347272D01*
X50284775Y216340685D01*
X50297750Y216333685D01*
X50310381Y216326280D01*
X50322661Y216318474D01*
X50334585Y216310274D01*
X50346148Y216301684D01*
X50357344Y216292710D01*
X50368166Y216283358D01*
X50378609Y216273633D01*
X50388667Y216263541D01*
X50398335Y216253088D01*
X50407606Y216242278D01*
X50416475Y216231118D01*
X50424937Y216219613D01*
X50432984Y216207768D01*
X50440612Y216195589D01*
X50447815Y216183082D01*
X50454587Y216170252D01*
X50455723Y216168481D01*
X50456923Y216166821D01*
X50458181Y216165267D01*
X50459491Y216163817D01*
X50460845Y216162467D01*
X50462237Y216161214D01*
X50463661Y216160053D01*
X50465109Y216158982D01*
X50466576Y216157996D01*
X50468055Y216157092D01*
X50469539Y216156267D01*
X50471021Y216155517D01*
X50472495Y216154838D01*
X50473955Y216154227D01*
X50476804Y216153194D01*
X50479515Y216152390D01*
X50482036Y216151786D01*
X50484314Y216151352D01*
X50486296Y216151062D01*
X50487930Y216150886D01*
X50489162Y216150796D01*
X50490210Y216150758D01*
X50491304Y216150790D01*
X50494289Y216151062D01*
X50496354Y216151371D01*
X50498726Y216151839D01*
X50501351Y216152499D01*
X50504172Y216153385D01*
X50507137Y216154529D01*
X50510187Y216155963D01*
X50513270Y216157723D01*
X50514806Y216158734D01*
X50516330Y216159839D01*
X50517833Y216161042D01*
X50519311Y216162346D01*
X50520754Y216163756D01*
X50522158Y216165276D01*
X50523514Y216166910D01*
X50524816Y216168662D01*
X50526058Y216170537D01*
X50527231Y216172538D01*
X50527231Y216172221D01*
X50541507Y216198175D01*
X50557456Y216222918D01*
X50575013Y216246386D01*
X50594114Y216268515D01*
X50614696Y216289241D01*
X50636693Y216308500D01*
X50660042Y216326228D01*
X50684679Y216342361D01*
X50710539Y216356835D01*
X50737558Y216369587D01*
X50765673Y216380552D01*
X50794818Y216389667D01*
X50824929Y216396868D01*
X50855944Y216402090D01*
X50887796Y216405271D01*
X50920423Y216406345D01*
X50935733Y216406109D01*
G37*
%TD*%
%LPC*%
D15*
%TO.C,MC4*%
X27000000Y227000000D03*
%TD*%
D16*
%TO.C,IC2*%
X38000000Y222000000D03*
X43000000Y222000000D03*
X48000000Y222000000D03*
X48000000Y229000000D03*
X43000000Y229000000D03*
X38000000Y229000000D03*
%TD*%
%TO.C,IC1*%
X54500000Y222000000D03*
X59500000Y222000000D03*
X64500000Y222000000D03*
X64500000Y229000000D03*
X59500000Y229000000D03*
X54500000Y229000000D03*
%TD*%
D17*
%TO.C,MP2*%
X3000000Y227000000D03*
%TD*%
%TO.C,MP3*%
X99000000Y227000000D03*
%TD*%
D15*
%TO.C,MC2*%
X75000000Y227000000D03*
%TD*%
%TO.C,MC1*%
X83000000Y227000000D03*
%TD*%
%TO.C,MC3*%
X19000000Y227000000D03*
%TD*%
D17*
%TO.C,MP1*%
X3000000Y3000000D03*
%TD*%
%TO.C,MP4*%
X99000000Y3000000D03*
%TD*%
D18*
%TO.C,REF\u002A\u002A*%
X17500000Y23000000D03*
%TD*%
%TO.C,REF\u002A\u002A*%
X84500000Y115000000D03*
%TD*%
%TO.C,REF\u002A\u002A*%
X17500000Y207000000D03*
%TD*%
%TO.C,REF\u002A\u002A*%
X17500000Y115000000D03*
%TD*%
%TO.C,REF\u002A\u002A*%
X84500000Y207000000D03*
%TD*%
%TO.C,REF\u002A\u002A*%
X84500000Y23000000D03*
%TD*%
%LPD*%
M02*
