%TF.GenerationSoftware,KiCad,Pcbnew,9.0.4*%
%TF.CreationDate,2025-10-07T18:00:58-05:00*%
%TF.ProjectId,Molecule_EVE_LF105_Prismatic,4d6f6c65-6375-46c6-955f-4556455f4c46,rev?*%
%TF.SameCoordinates,Original*%
%TF.FileFunction,Copper,L1,Top*%
%TF.FilePolarity,Positive*%
%FSLAX46Y46*%
G04 Gerber Fmt 4.6, Leading zero omitted, Abs format (unit mm)*
G04 Created by KiCad (PCBNEW 9.0.4) date 2025-10-07 18:00:58*
%MOMM*%
%LPD*%
G01*
G04 APERTURE LIST*
%TA.AperFunction,ComponentPad*%
%ADD10C,4.400000*%
%TD*%
%TA.AperFunction,ComponentPad*%
%ADD11C,2.970000*%
%TD*%
%TA.AperFunction,ComponentPad*%
%ADD12C,5.200000*%
%TD*%
%TA.AperFunction,ViaPad*%
%ADD13C,1.100000*%
%TD*%
G04 APERTURE END LIST*
D10*
%TO.P,MC4,1*%
%TO.N,/NEG*%
X27000000Y227000000D03*
%TD*%
D11*
%TO.P,IC2,1,1*%
%TO.N,/NEG*%
X38000000Y222000000D03*
%TO.P,IC2,2,2*%
X43000000Y222000000D03*
%TO.P,IC2,3,3*%
X48000000Y222000000D03*
%TO.P,IC2,4,4*%
X48000000Y229000000D03*
%TO.P,IC2,5,5*%
X43000000Y229000000D03*
%TO.P,IC2,6,6*%
X38000000Y229000000D03*
%TD*%
%TO.P,IC1,1,1*%
%TO.N,/POS*%
X54500000Y222000000D03*
%TO.P,IC1,2,2*%
X59500000Y222000000D03*
%TO.P,IC1,3,3*%
X64500000Y222000000D03*
%TO.P,IC1,4,4*%
X64500000Y229000000D03*
%TO.P,IC1,5,5*%
X59500000Y229000000D03*
%TO.P,IC1,6,6*%
X54500000Y229000000D03*
%TD*%
D12*
%TO.P,MP2,1*%
%TO.N,unconnected-(MP2-Pad1)*%
X3000000Y227000000D03*
%TD*%
%TO.P,MP3,1*%
%TO.N,unconnected-(MP3-Pad1)*%
X99000000Y227000000D03*
%TD*%
D10*
%TO.P,MC2,1*%
%TO.N,/POS*%
X75000000Y227000000D03*
%TD*%
%TO.P,MC1,1*%
%TO.N,/POS*%
X83000000Y227000000D03*
%TD*%
%TO.P,MC3,1*%
%TO.N,/NEG*%
X19000000Y227000000D03*
%TD*%
D12*
%TO.P,MP1,1*%
%TO.N,unconnected-(MP1-Pad1)*%
X3000000Y3000000D03*
%TD*%
%TO.P,MP4,1*%
%TO.N,unconnected-(MP4-Pad1)*%
X99000000Y3000000D03*
%TD*%
D13*
%TO.N,/NEG*%
X32500000Y226000000D03*
X34000000Y231000000D03*
X34000000Y229500000D03*
X35500000Y225500000D03*
X32500000Y221500000D03*
X32500000Y230500000D03*
X32500000Y223000000D03*
X34000000Y222000000D03*
X32500000Y229000000D03*
X34000000Y226500000D03*
X35500000Y230000000D03*
X34000000Y220500000D03*
X35500000Y224000000D03*
X32500000Y224500000D03*
X35500000Y227000000D03*
X35500000Y228500000D03*
X32500000Y227500000D03*
X34000000Y225000000D03*
X35500000Y221000000D03*
X35500000Y222500000D03*
X34000000Y228000000D03*
X34000000Y223500000D03*
%TO.N,/POS*%
X70000000Y227000000D03*
X68500000Y222000000D03*
X68500000Y228000000D03*
X67000000Y229000000D03*
X67000000Y227500000D03*
X68500000Y229500000D03*
X70000000Y228500000D03*
X68500000Y226500000D03*
X68500000Y223500000D03*
X67000000Y230500000D03*
X67000000Y224500000D03*
X68500000Y231000000D03*
X70000000Y222500000D03*
X70000000Y224000000D03*
X70000000Y221000000D03*
X70000000Y230000000D03*
X67000000Y223000000D03*
X70000000Y225500000D03*
X68500000Y225000000D03*
X67000000Y221500000D03*
X67000000Y226000000D03*
X68500000Y220500000D03*
%TD*%
%TA.AperFunction,Conductor*%
%TO.N,/NEG*%
G36*
X50922539Y231479815D02*
G01*
X50968294Y231427011D01*
X50979500Y231375500D01*
X50979500Y219124000D01*
X50959815Y219056961D01*
X50907011Y219011206D01*
X50855500Y219000000D01*
X11124000Y219000000D01*
X11056961Y219019685D01*
X11011206Y219072489D01*
X11000000Y219124000D01*
X11000000Y231375500D01*
X11019685Y231442539D01*
X11072489Y231488294D01*
X11124000Y231499500D01*
X50855500Y231499500D01*
X50922539Y231479815D01*
G37*
%TD.AperFunction*%
%TD*%
%TA.AperFunction,Conductor*%
%TO.N,/POS*%
G36*
X90943039Y231479815D02*
G01*
X90988794Y231427011D01*
X91000000Y231375500D01*
X91000000Y219124000D01*
X90980315Y219056961D01*
X90927511Y219011206D01*
X90876000Y219000000D01*
X51609000Y219000000D01*
X51541961Y219019685D01*
X51496206Y219072489D01*
X51485000Y219124000D01*
X51485000Y231375500D01*
X51504685Y231442539D01*
X51557489Y231488294D01*
X51609000Y231499500D01*
X90876000Y231499500D01*
X90943039Y231479815D01*
G37*
%TD.AperFunction*%
%TD*%
M02*
