M48
; DRILL file {KiCad 9.0.4} date 2025-10-07T18:00:58-0500
; FORMAT={-:-/ absolute / inch / decimal}
; #@! TF.CreationDate,2025-10-07T18:00:58-05:00
; #@! TF.GenerationSoftware,Kicad,Pcbnew,9.0.4
; #@! TF.FileFunction,Plated,1,2,PTH
FMAT,2
INCH
; #@! TA.AperFunction,Plated,PTH,ViaDrill
T1C0.0197
; #@! TA.AperFunction,Plated,PTH,ComponentDrill
T2C0.0780
; #@! TA.AperFunction,Plated,PTH,ComponentDrill
T3C0.1071
; #@! TA.AperFunction,Plated,PTH,ComponentDrill
T4C0.1358
%
G90
G05
T1
X1.2795Y9.0748
X1.2795Y9.0157
X1.2795Y8.9567
X1.2795Y8.8976
X1.2795Y8.8386
X1.2795Y8.7795
X1.2795Y8.7205
X1.3386Y9.0945
X1.3386Y9.0354
X1.3386Y8.9764
X1.3386Y8.9173
X1.3386Y8.8583
X1.3386Y8.7992
X1.3386Y8.7402
X1.3386Y8.6811
X1.3976Y9.0551
X1.3976Y8.9961
X1.3976Y8.937
X1.3976Y8.878
X1.3976Y8.8189
X1.3976Y8.7598
X1.3976Y8.7008
X2.6378Y9.0748
X2.6378Y9.0157
X2.6378Y8.9567
X2.6378Y8.8976
X2.6378Y8.8386
X2.6378Y8.7795
X2.6378Y8.7205
X2.6969Y9.0945
X2.6969Y9.0354
X2.6969Y8.9764
X2.6969Y8.9173
X2.6969Y8.8583
X2.6969Y8.7992
X2.6969Y8.7402
X2.6969Y8.6811
X2.7559Y9.0551
X2.7559Y8.9961
X2.7559Y8.937
X2.7559Y8.878
X2.7559Y8.8189
X2.7559Y8.7598
X2.7559Y8.7008
T2
X1.4961Y9.0157
X1.4961Y8.7402
X1.6929Y9.0157
X1.6929Y8.7402
X1.8898Y9.0157
X1.8898Y8.7402
X2.1457Y9.0157
X2.1457Y8.7402
X2.3425Y9.0157
X2.3425Y8.7402
X2.5394Y9.0157
X2.5394Y8.7402
T3
X0.748Y8.937
X1.063Y8.937
X2.9528Y8.937
X3.2677Y8.937
T4
X0.1181Y8.937
X0.1181Y0.1181
X3.8976Y8.937
X3.8976Y0.1181
M30
